<svg xmlns="http://www.w3.org/2000/svg" xmlns:xlink="http://www.w3.org/1999/xlink" width="500" zoomAndPan="magnify" viewBox="0 0 375 374.999991" height="500" preserveAspectRatio="xMidYMid meet" version="1.0"><path fill="#aef8ff" d="M 12.632812 296.308594 C 22.914062 321.71875 47.070312 333.683594 62.511719 341.332031 C 123.371094 371.480469 236.214844 356.003906 303.011719 300.527344 C 318.640625 287.546875 374.941406 231.753906 357.292969 140.011719 C 341.699219 58.910156 263.773438 11.109375 196.769531 5.035156 C 141.257812 0.00390625 67.664062 21.097656 41.898438 70.667969 C 25.699219 101.839844 45.035156 111.671875 31.664062 182.238281 C 20.089844 243.320312 0.0546875 265.230469 12.632812 296.308594 " fill-opacity="1" fill-rule="nonzero"/><path fill="#6df2ff" d="M 148.363281 12.210938 L 32.839844 12.210938 C 29.914062 12.210938 27.542969 14.582031 27.542969 17.507812 L 27.542969 68.703125 C 27.542969 71.632812 29.914062 74.003906 32.839844 74.003906 L 148.363281 74.003906 C 151.289062 74.003906 153.660156 71.632812 153.660156 68.703125 L 153.660156 17.507812 C 153.660156 14.582031 151.289062 12.210938 148.363281 12.210938 " fill-opacity="1" fill-rule="nonzero"/><path fill="#000000" d="M 32.839844 12.847656 C 30.269531 12.847656 28.179688 14.9375 28.179688 17.511719 L 28.179688 68.707031 C 28.179688 71.273438 30.269531 73.367188 32.839844 73.367188 L 148.363281 73.367188 C 150.933594 73.367188 153.019531 71.273438 153.019531 68.707031 L 153.019531 17.511719 C 153.019531 14.9375 150.933594 12.847656 148.363281 12.847656 Z M 148.363281 74.640625 L 32.839844 74.640625 C 29.566406 74.640625 26.902344 71.980469 26.902344 68.707031 L 26.902344 17.511719 C 26.902344 14.234375 29.566406 11.574219 32.839844 11.574219 L 148.363281 11.574219 C 151.636719 11.574219 154.296875 14.234375 154.296875 17.511719 L 154.296875 68.707031 C 154.296875 71.980469 151.636719 74.640625 148.363281 74.640625 " fill-opacity="1" fill-rule="nonzero"/><path fill="#aef8ff" d="M 149.398438 21.554688 L 31.734375 21.554688 C 31.382812 21.554688 31.097656 21.269531 31.097656 20.917969 C 31.097656 20.566406 31.382812 20.277344 31.734375 20.277344 L 149.398438 20.277344 C 149.75 20.277344 150.035156 20.566406 150.035156 20.917969 C 150.035156 21.269531 149.75 21.554688 149.398438 21.554688 " fill-opacity="1" fill-rule="nonzero"/><path fill="#aef8ff" d="M 36.980469 16.285156 C 36.980469 17.035156 36.371094 17.644531 35.621094 17.644531 C 34.871094 17.644531 34.265625 17.035156 34.265625 16.285156 C 34.265625 15.53125 34.871094 14.925781 35.621094 14.925781 C 36.371094 14.925781 36.980469 15.53125 36.980469 16.285156 " fill-opacity="1" fill-rule="nonzero"/><path fill="#aef8ff" d="M 42.414062 16.285156 C 42.414062 17.035156 41.804688 17.644531 41.054688 17.644531 C 40.304688 17.644531 39.695312 17.035156 39.695312 16.285156 C 39.695312 15.53125 40.304688 14.925781 41.054688 14.925781 C 41.804688 14.925781 42.414062 15.53125 42.414062 16.285156 " fill-opacity="1" fill-rule="nonzero"/><path fill="#aef8ff" d="M 47.84375 16.285156 C 47.84375 17.035156 47.238281 17.644531 46.488281 17.644531 C 45.738281 17.644531 45.128906 17.035156 45.128906 16.285156 C 45.128906 15.53125 45.738281 14.925781 46.488281 14.925781 C 47.238281 14.925781 47.84375 15.53125 47.84375 16.285156 " fill-opacity="1" fill-rule="nonzero"/><path fill="#aef8ff" d="M 149.398438 16.703125 L 141.90625 16.703125 C 141.554688 16.703125 141.269531 16.421875 141.269531 16.070312 C 141.269531 15.714844 141.554688 15.429688 141.90625 15.429688 L 149.398438 15.429688 C 149.75 15.429688 150.035156 15.714844 150.035156 16.070312 C 150.035156 16.421875 149.75 16.703125 149.398438 16.703125 " fill-opacity="1" fill-rule="nonzero"/><path fill="#aef8ff" d="M 138.378906 16.703125 L 66.109375 16.703125 C 65.757812 16.703125 65.472656 16.421875 65.472656 16.070312 C 65.472656 15.714844 65.757812 15.429688 66.109375 15.429688 L 138.378906 15.429688 C 138.734375 15.429688 139.019531 15.714844 139.019531 16.070312 C 139.019531 16.421875 138.734375 16.703125 138.378906 16.703125 " fill-opacity="1" fill-rule="nonzero"/><path fill="#aef8ff" d="M 57.738281 16.703125 L 51.125 16.703125 C 50.773438 16.703125 50.488281 16.421875 50.488281 16.070312 C 50.488281 15.714844 50.773438 15.429688 51.125 15.429688 L 57.738281 15.429688 C 58.089844 15.429688 58.375 15.714844 58.375 16.070312 C 58.375 16.421875 58.089844 16.703125 57.738281 16.703125 " fill-opacity="1" fill-rule="nonzero"/><path fill="#aef8ff" d="M 70.515625 63.441406 L 35.261719 63.441406 L 35.261719 29.070312 L 70.515625 29.070312 L 70.515625 63.441406 " fill-opacity="1" fill-rule="nonzero"/><path fill="#aef8ff" d="M 84.382812 36.570312 L 76.777344 36.570312 L 76.777344 28.964844 L 84.382812 28.964844 L 84.382812 36.570312 " fill-opacity="1" fill-rule="nonzero"/><path fill="#aef8ff" d="M 145.871094 36.5625 L 89.90625 36.5625 L 89.90625 29.070312 L 145.871094 29.070312 L 145.871094 36.5625 " fill-opacity="1" fill-rule="nonzero"/><path fill="#aef8ff" d="M 84.382812 50.179688 L 76.777344 50.179688 L 76.777344 42.574219 L 84.382812 42.574219 L 84.382812 50.179688 " fill-opacity="1" fill-rule="nonzero"/><path fill="#aef8ff" d="M 145.871094 50.222656 L 89.90625 50.222656 L 89.90625 42.730469 L 145.871094 42.730469 L 145.871094 50.222656 " fill-opacity="1" fill-rule="nonzero"/><path fill="#aef8ff" d="M 84.382812 63.78125 L 76.78125 63.78125 L 76.78125 56.179688 L 84.382812 56.179688 L 84.382812 63.78125 " fill-opacity="1" fill-rule="nonzero"/><path fill="#aef8ff" d="M 145.871094 63.441406 L 89.90625 63.441406 L 89.90625 55.949219 L 145.871094 55.949219 L 145.871094 63.441406 " fill-opacity="1" fill-rule="nonzero"/><path fill="#ffffff" d="M 264.71875 292.5 L 95.441406 292.5 C 93.5 292.5 91.964844 290.941406 92.007812 289.011719 L 94.054688 197.257812 C 94.097656 195.335938 95.703125 193.769531 97.644531 193.769531 L 266.921875 193.769531 C 268.863281 193.769531 270.402344 195.335938 270.355469 197.257812 L 268.3125 289.011719 C 268.269531 290.941406 266.660156 292.5 264.71875 292.5 " fill-opacity="1" fill-rule="nonzero"/><path fill="#aef8ff" d="M 135.492188 287.25 L 119.628906 287.25 L 120.351562 254.75 L 136.21875 254.75 L 135.492188 287.25 " fill-opacity="1" fill-rule="nonzero"/><path fill="#aef8ff" d="M 115.511719 287.25 L 99.648438 287.25 L 100.1875 263.226562 L 116.050781 263.226562 L 115.511719 287.25 " fill-opacity="1" fill-rule="nonzero"/><path fill="#aef8ff" d="M 155.539062 287.25 L 139.675781 287.25 L 140.765625 238.421875 L 156.628906 238.421875 L 155.539062 287.25 " fill-opacity="1" fill-rule="nonzero"/><path fill="#aef8ff" d="M 176.472656 287.25 L 160.609375 287.25 L 161.484375 248.050781 L 177.347656 248.050781 L 176.472656 287.25 " fill-opacity="1" fill-rule="nonzero"/><path fill="#aef8ff" d="M 197.402344 287.25 L 181.539062 287.25 L 182.78125 231.710938 L 198.640625 231.710938 L 197.402344 287.25 " fill-opacity="1" fill-rule="nonzero"/><path fill="#aef8ff" d="M 218.347656 286.59375 L 202.484375 286.59375 L 203.390625 246.007812 L 219.253906 246.007812 L 218.347656 286.59375 " fill-opacity="1" fill-rule="nonzero"/><path fill="#aef8ff" d="M 239.71875 286.59375 L 223.855469 286.59375 L 225.113281 230.25 L 240.976562 230.25 L 239.71875 286.59375 " fill-opacity="1" fill-rule="nonzero"/><path fill="#aef8ff" d="M 260.207031 286.59375 L 244.347656 286.59375 L 245.898438 217.117188 L 261.757812 217.117188 L 260.207031 286.59375 " fill-opacity="1" fill-rule="nonzero"/><path fill="#000000" d="M 111.394531 247.191406 C 111.1875 247.191406 110.984375 247.089844 110.863281 246.90625 C 110.667969 246.613281 110.75 246.21875 111.042969 246.023438 L 147.570312 221.828125 C 147.816406 221.664062 148.148438 221.691406 148.359375 221.898438 L 163.3125 236.15625 L 191.921875 217.1875 C 192.171875 217.019531 192.507812 217.050781 192.71875 217.265625 L 208.960938 233.25 L 256.484375 201.835938 C 256.777344 201.636719 257.171875 201.71875 257.367188 202.015625 C 257.5625 202.308594 257.480469 202.703125 257.1875 202.894531 L 209.230469 234.597656 C 208.980469 234.765625 208.648438 234.734375 208.433594 234.519531 L 192.195312 218.535156 L 163.59375 237.5 C 163.34375 237.664062 163.015625 237.636719 162.800781 237.429688 L 147.847656 223.171875 L 111.746094 247.085938 C 111.636719 247.15625 111.515625 247.191406 111.394531 247.191406 " fill-opacity="1" fill-rule="nonzero"/><path fill="#6df2ff" d="M 152.691406 222.246094 C 152.632812 224.832031 150.476562 227.039062 147.867188 227.175781 C 145.261719 227.3125 143.195312 225.328125 143.253906 222.742188 C 143.3125 220.15625 145.46875 217.949219 148.078125 217.8125 C 150.683594 217.675781 152.75 219.660156 152.691406 222.246094 " fill-opacity="1" fill-rule="nonzero"/><path fill="#00e7ff" d="M 196.941406 217.417969 C 196.882812 220.007812 194.726562 222.214844 192.117188 222.347656 C 189.511719 222.484375 187.445312 220.5 187.503906 217.914062 C 187.5625 215.328125 189.71875 213.121094 192.328125 212.988281 C 194.933594 212.847656 197 214.835938 196.941406 217.417969 " fill-opacity="1" fill-rule="nonzero"/><path fill="#6df2ff" d="M 168.386719 236.492188 C 168.332031 239.078125 166.167969 241.285156 163.566406 241.421875 C 160.960938 241.558594 158.890625 239.574219 158.949219 236.988281 C 159.007812 234.402344 161.167969 232.195312 163.773438 232.058594 C 166.378906 231.921875 168.445312 233.90625 168.386719 236.492188 " fill-opacity="1" fill-rule="nonzero"/><path fill="#aef8ff" d="M 116.246094 246.390625 C 116.1875 248.976562 114.027344 251.183594 111.421875 251.320312 C 108.816406 251.457031 106.75 249.472656 106.808594 246.886719 C 106.867188 244.300781 109.023438 242.09375 111.628906 241.957031 C 114.238281 241.820312 116.300781 243.808594 116.246094 246.390625 " fill-opacity="1" fill-rule="nonzero"/><path fill="#000000" d="M 111.882812 242.589844 C 111.8125 242.589844 111.738281 242.589844 111.664062 242.59375 C 109.386719 242.714844 107.496094 244.644531 107.445312 246.902344 C 107.421875 247.964844 107.8125 248.941406 108.546875 249.652344 C 109.289062 250.375 110.304688 250.746094 111.386719 250.683594 C 113.664062 250.566406 115.558594 248.632812 115.605469 246.378906 C 115.632812 245.316406 115.242188 244.339844 114.507812 243.625 C 113.8125 242.953125 112.890625 242.589844 111.882812 242.589844 Z M 111.167969 251.964844 C 109.828125 251.964844 108.59375 251.476562 107.65625 250.570312 C 106.667969 249.609375 106.140625 248.292969 106.171875 246.875 C 106.234375 243.964844 108.671875 241.476562 111.597656 241.320312 C 113.046875 241.242188 114.394531 241.738281 115.394531 242.710938 C 116.386719 243.671875 116.914062 244.984375 116.882812 246.40625 C 116.816406 249.3125 114.382812 251.804688 111.457031 251.960938 C 111.359375 251.964844 111.261719 251.964844 111.167969 251.964844 " fill-opacity="1" fill-rule="nonzero"/><path fill="#6df2ff" d="M 213.679688 233.457031 C 213.621094 236.039062 211.460938 238.246094 208.859375 238.382812 C 206.25 238.519531 204.183594 236.535156 204.242188 233.949219 C 204.300781 231.363281 206.460938 229.15625 209.066406 229.019531 C 211.671875 228.886719 213.734375 230.871094 213.679688 233.457031 " fill-opacity="1" fill-rule="nonzero"/><path fill="#00e7ff" d="M 261.550781 202.117188 C 261.496094 204.703125 259.335938 206.910156 256.730469 207.046875 C 254.125 207.183594 252.058594 205.199219 252.117188 202.613281 C 252.175781 200.027344 254.332031 197.820312 256.941406 197.683594 C 259.546875 197.546875 261.613281 199.535156 261.550781 202.117188 " fill-opacity="1" fill-rule="nonzero"/><path fill="#000000" d="M 257.195312 198.3125 C 257.121094 198.3125 257.050781 198.316406 256.976562 198.320312 C 254.699219 198.4375 252.808594 200.371094 252.757812 202.625 C 252.730469 203.6875 253.125 204.667969 253.855469 205.378906 C 254.601562 206.101562 255.609375 206.46875 256.699219 206.410156 C 258.976562 206.289062 260.867188 204.359375 260.917969 202.101562 C 260.945312 201.039062 260.550781 200.058594 259.816406 199.351562 C 259.125 198.675781 258.199219 198.3125 257.195312 198.3125 Z M 256.476562 207.6875 C 255.140625 207.6875 253.902344 207.199219 252.96875 206.292969 C 251.976562 205.332031 251.449219 204.019531 251.480469 202.597656 C 251.546875 199.691406 253.980469 197.199219 256.910156 197.042969 C 258.355469 196.972656 259.703125 197.464844 260.707031 198.433594 C 261.695312 199.398438 262.226562 200.710938 262.191406 202.132812 C 262.128906 205.039062 259.695312 207.527344 256.765625 207.683594 C 256.667969 207.6875 256.574219 207.6875 256.476562 207.6875 " fill-opacity="1" fill-rule="nonzero"/><path fill="#000000" d="M 195.335938 293.140625 L 95.441406 293.140625 C 94.324219 293.140625 93.289062 292.707031 92.515625 291.917969 C 91.753906 291.136719 91.34375 290.101562 91.367188 289 L 93.417969 197.25 C 93.46875 194.980469 95.363281 193.132812 97.644531 193.132812 L 266.921875 193.132812 C 268.035156 193.132812 269.078125 193.566406 269.847656 194.355469 C 270.609375 195.136719 271.015625 196.175781 270.992188 197.273438 L 270.578125 215.871094 C 270.570312 216.21875 270.289062 216.492188 269.941406 216.492188 C 269.9375 216.492188 269.933594 216.492188 269.925781 216.492188 C 269.574219 216.484375 269.296875 216.191406 269.304688 215.839844 L 269.71875 197.25 C 269.734375 196.492188 269.457031 195.78125 268.9375 195.246094 C 268.40625 194.707031 267.691406 194.410156 266.921875 194.410156 L 97.644531 194.410156 C 96.050781 194.410156 94.726562 195.695312 94.691406 197.273438 L 92.644531 289.027344 C 92.625 289.78125 92.90625 290.492188 93.429688 291.027344 C 93.957031 291.566406 94.671875 291.863281 95.441406 291.863281 L 195.335938 291.863281 C 195.6875 291.863281 195.972656 292.148438 195.972656 292.5 C 195.972656 292.855469 195.6875 293.140625 195.335938 293.140625 " fill-opacity="1" fill-rule="nonzero"/><path fill="#ffffff" d="M 284.890625 26.324219 L 175.839844 26.324219 C 171.582031 26.324219 168.132812 29.773438 168.132812 34.03125 L 168.132812 154.351562 C 168.132812 158.605469 171.582031 162.058594 175.839844 162.058594 L 284.890625 162.058594 C 289.148438 162.058594 292.597656 158.605469 292.597656 154.351562 L 292.597656 34.03125 C 292.597656 29.773438 289.148438 26.324219 284.890625 26.324219 " fill-opacity="1" fill-rule="nonzero"/><path fill="#000000" d="M 175.839844 26.960938 C 171.941406 26.960938 168.773438 30.128906 168.773438 34.027344 L 168.773438 154.351562 C 168.773438 158.25 171.941406 161.417969 175.839844 161.417969 L 284.894531 161.417969 C 288.792969 161.417969 291.960938 158.25 291.960938 154.351562 L 291.960938 34.027344 C 291.960938 30.128906 288.792969 26.960938 284.894531 26.960938 Z M 284.894531 162.691406 L 175.839844 162.691406 C 171.238281 162.691406 167.5 158.953125 167.5 154.351562 L 167.5 34.027344 C 167.5 29.429688 171.238281 25.6875 175.839844 25.6875 L 284.894531 25.6875 C 289.496094 25.6875 293.234375 29.429688 293.234375 34.027344 L 293.234375 154.351562 C 293.234375 158.953125 289.496094 162.691406 284.894531 162.691406 " fill-opacity="1" fill-rule="nonzero"/><path fill="#000000" d="M 286.574219 39.605469 L 174.257812 39.605469 C 173.90625 39.605469 173.621094 39.320312 173.621094 38.96875 C 173.621094 38.617188 173.90625 38.332031 174.257812 38.332031 L 286.574219 38.332031 C 286.925781 38.332031 287.210938 38.617188 287.210938 38.96875 C 287.210938 39.320312 286.925781 39.605469 286.574219 39.605469 " fill-opacity="1" fill-rule="nonzero"/><path fill="#6df2ff" d="M 178.210938 32.25 C 178.210938 33.339844 177.324219 34.226562 176.234375 34.226562 C 175.144531 34.226562 174.257812 33.339844 174.257812 32.25 C 174.257812 31.160156 175.144531 30.273438 176.234375 30.273438 C 177.324219 30.273438 178.210938 31.160156 178.210938 32.25 " fill-opacity="1" fill-rule="nonzero"/><path fill="#6df2ff" d="M 186.113281 32.25 C 186.113281 33.339844 185.230469 34.226562 184.136719 34.226562 C 183.046875 34.226562 182.160156 33.339844 182.160156 32.25 C 182.160156 31.160156 183.046875 30.273438 184.136719 30.273438 C 185.230469 30.273438 186.113281 31.160156 186.113281 32.25 " fill-opacity="1" fill-rule="nonzero"/><path fill="#6df2ff" d="M 194.015625 32.25 C 194.015625 33.339844 193.132812 34.226562 192.039062 34.226562 C 190.949219 34.226562 190.0625 33.339844 190.0625 32.25 C 190.0625 31.160156 190.949219 30.273438 192.039062 30.273438 C 193.132812 30.273438 194.015625 31.160156 194.015625 32.25 " fill-opacity="1" fill-rule="nonzero"/><path fill="#000000" d="M 286.574219 32.886719 L 275.441406 32.886719 C 275.09375 32.886719 274.804688 32.601562 274.804688 32.25 C 274.804688 31.898438 275.09375 31.613281 275.441406 31.613281 L 286.574219 31.613281 C 286.925781 31.613281 287.210938 31.898438 287.210938 32.25 C 287.210938 32.601562 286.925781 32.886719 286.574219 32.886719 " fill-opacity="1" fill-rule="nonzero"/><path fill="#000000" d="M 270.441406 32.886719 L 224.339844 32.886719 C 223.992188 32.886719 223.703125 32.601562 223.703125 32.25 C 223.703125 31.898438 223.992188 31.613281 224.339844 31.613281 L 270.441406 31.613281 C 270.792969 31.613281 271.078125 31.898438 271.078125 32.25 C 271.078125 32.601562 270.792969 32.886719 270.441406 32.886719 " fill-opacity="1" fill-rule="nonzero"/><path fill="#000000" d="M 212.226562 32.886719 L 202.414062 32.886719 C 202.058594 32.886719 201.773438 32.601562 201.773438 32.25 C 201.773438 31.898438 202.058594 31.613281 202.414062 31.613281 L 212.226562 31.613281 C 212.578125 31.613281 212.863281 31.898438 212.863281 32.25 C 212.863281 32.601562 212.578125 32.886719 212.226562 32.886719 " fill-opacity="1" fill-rule="nonzero"/><path fill="#6df2ff" d="M 211.484375 90.703125 C 215.074219 84.421875 221.757812 79.984375 229.519531 79.179688 L 230.058594 48.46875 C 207.757812 48.542969 188.074219 61.109375 179.109375 79.679688 L 211.484375 90.703125 " fill-opacity="1" fill-rule="nonzero"/><path fill="#000000" d="M 180.003906 79.308594 L 211.199219 89.933594 C 214.933594 83.734375 221.480469 79.546875 228.894531 78.609375 L 229.414062 49.109375 C 208.324219 49.417969 189.0625 61.191406 180.003906 79.308594 Z M 211.484375 91.339844 C 211.417969 91.339844 211.347656 91.328125 211.277344 91.304688 L 178.90625 80.28125 C 178.734375 80.222656 178.59375 80.089844 178.523438 79.925781 C 178.453125 79.757812 178.460938 79.566406 178.539062 79.402344 C 187.757812 60.296875 207.984375 47.902344 230.058594 47.828125 C 230.230469 47.828125 230.394531 47.898438 230.515625 48.019531 C 230.632812 48.140625 230.703125 48.304688 230.699219 48.476562 L 230.160156 79.1875 C 230.152344 79.511719 229.90625 79.777344 229.585938 79.8125 C 222.171875 80.582031 215.609375 84.769531 212.039062 91.019531 C 211.921875 91.222656 211.707031 91.339844 211.484375 91.339844 " fill-opacity="1" fill-rule="nonzero"/><path fill="#000000" d="M 209.960938 57.453125 C 209.707031 57.453125 209.46875 57.304688 209.367188 57.054688 C 209.234375 56.730469 209.394531 56.355469 209.71875 56.226562 C 214.765625 54.183594 220.082031 52.910156 225.519531 52.4375 C 225.863281 52.402344 226.179688 52.667969 226.207031 53.019531 C 226.238281 53.371094 225.980469 53.679688 225.628906 53.707031 C 220.316406 54.167969 215.128906 55.414062 210.199219 57.40625 C 210.121094 57.4375 210.039062 57.453125 209.960938 57.453125 " fill-opacity="1" fill-rule="nonzero"/><path fill="#000000" d="M 192.191406 69.296875 C 192.03125 69.296875 191.867188 69.238281 191.746094 69.117188 C 191.492188 68.867188 191.492188 68.464844 191.734375 68.214844 C 195.542969 64.324219 199.960938 61.046875 204.871094 58.472656 C 205.183594 58.308594 205.566406 58.429688 205.726562 58.742188 C 205.894531 59.054688 205.773438 59.4375 205.460938 59.601562 C 200.675781 62.113281 196.363281 65.3125 192.644531 69.105469 C 192.523438 69.230469 192.355469 69.296875 192.191406 69.296875 " fill-opacity="1" fill-rule="nonzero"/><path fill="#6df2ff" d="M 254.507812 104.3125 C 252.679688 114.402344 243.488281 122.339844 232.222656 122.6875 C 228.863281 122.792969 225.65625 122.214844 222.746094 121.078125 L 205.167969 148.296875 C 213.339844 151.984375 222.570312 153.792969 232.222656 153.238281 C 260.304688 151.625 282.378906 130.488281 284.832031 105.039062 L 254.507812 104.3125 " fill-opacity="1" fill-rule="nonzero"/><path fill="#000000" d="M 206.105469 148.015625 C 214.1875 151.535156 223.1875 153.117188 232.1875 152.601562 C 259.128906 151.054688 281.332031 130.929688 284.125 105.664062 L 255.027344 104.964844 C 252.886719 115.292969 243.394531 122.980469 232.242188 123.328125 C 229.050781 123.425781 225.941406 122.933594 223 121.859375 Z M 228.855469 153.972656 C 220.546875 153.972656 212.332031 152.234375 204.902344 148.878906 C 204.730469 148.804688 204.605469 148.65625 204.554688 148.480469 C 204.5 148.300781 204.527344 148.105469 204.628906 147.953125 L 222.210938 120.734375 C 222.375 120.480469 222.695312 120.375 222.976562 120.488281 C 225.898438 121.625 229.011719 122.152344 232.203125 122.054688 C 242.949219 121.71875 252.066406 114.210938 253.878906 104.203125 C 253.933594 103.898438 254.199219 103.679688 254.507812 103.679688 C 254.511719 103.679688 254.515625 103.679688 254.519531 103.679688 L 284.847656 104.402344 C 285.023438 104.410156 285.191406 104.484375 285.308594 104.617188 C 285.425781 104.75 285.480469 104.925781 285.464844 105.101562 C 282.9375 131.308594 260.066406 152.277344 232.257812 153.875 C 231.125 153.941406 229.988281 153.972656 228.855469 153.972656 " fill-opacity="1" fill-rule="nonzero"/><path fill="#000000" d="M 228.800781 149.570312 C 222.859375 149.570312 217.066406 148.628906 211.578125 146.777344 C 211.242188 146.664062 211.0625 146.304688 211.175781 145.96875 C 211.289062 145.636719 211.652344 145.457031 211.984375 145.570312 C 217.34375 147.378906 223 148.296875 228.800781 148.296875 C 229.835938 148.296875 230.890625 148.265625 231.933594 148.207031 C 232.289062 148.179688 232.585938 148.453125 232.605469 148.804688 C 232.628906 149.15625 232.359375 149.460938 232.007812 149.476562 C 230.941406 149.539062 229.859375 149.570312 228.800781 149.570312 " fill-opacity="1" fill-rule="nonzero"/><path fill="#000000" d="M 243.070312 147.671875 C 242.792969 147.671875 242.53125 147.484375 242.457031 147.199219 C 242.363281 146.863281 242.5625 146.511719 242.90625 146.417969 C 261.308594 141.398438 275.523438 126.789062 279.117188 109.199219 C 279.1875 108.851562 279.527344 108.632812 279.867188 108.699219 C 280.214844 108.769531 280.4375 109.109375 280.363281 109.453125 C 276.675781 127.511719 262.105469 142.503906 243.238281 147.648438 C 243.183594 147.664062 243.125 147.671875 243.070312 147.671875 " fill-opacity="1" fill-rule="nonzero"/><path fill="#6df2ff" d="M 199.664062 145.433594 L 217.40625 118.132812 C 212.097656 114.207031 208.6875 108.089844 208.6875 101.15625 C 208.6875 99.480469 208.890625 97.847656 209.269531 96.273438 L 176.769531 85.382812 C 175.027344 90.5 174.085938 95.941406 174.085938 101.582031 C 174.085938 120.253906 184.332031 136.332031 199.664062 145.433594 " fill-opacity="1" fill-rule="nonzero"/><path fill="#000000" d="M 177.171875 86.191406 C 175.542969 91.167969 174.722656 96.339844 174.722656 101.582031 C 174.722656 119.109375 183.960938 135.136719 199.464844 144.570312 L 216.546875 118.285156 C 211.136719 114.0625 208.046875 107.855469 208.046875 101.15625 C 208.046875 99.664062 208.207031 98.164062 208.519531 96.695312 Z M 199.664062 146.074219 C 199.550781 146.074219 199.4375 146.042969 199.335938 145.984375 C 183.125 136.359375 173.445312 119.761719 173.445312 101.582031 C 173.445312 95.988281 174.363281 90.46875 176.167969 85.175781 C 176.28125 84.84375 176.640625 84.664062 176.976562 84.777344 L 209.46875 95.671875 C 209.78125 95.773438 209.964844 96.101562 209.886719 96.421875 C 209.511719 97.972656 209.324219 99.566406 209.324219 101.15625 C 209.324219 107.640625 212.410156 113.644531 217.78125 117.621094 C 218.054688 117.824219 218.121094 118.199219 217.941406 118.480469 L 200.199219 145.78125 C 200.078125 145.96875 199.871094 146.074219 199.664062 146.074219 " fill-opacity="1" fill-rule="nonzero"/><path fill="#6df2ff" d="M 239.59375 78.019531 C 249.851562 79.542969 257.738281 87.492188 258.671875 97.3125 L 308.261719 98.753906 C 308.261719 98.730469 308.261719 98.710938 308.261719 98.6875 C 308.261719 62.308594 279.277344 31.179688 240.484375 27.171875 L 239.59375 78.019531 " fill-opacity="1" fill-rule="nonzero"/><path fill="#000000" d="M 259.246094 96.691406 L 307.621094 98.097656 C 307.3125 62.125 278.871094 32.109375 241.109375 27.882812 L 240.242188 77.476562 C 250.359375 79.21875 258.066406 87.007812 259.246094 96.691406 Z M 308.257812 99.386719 C 308.25 99.386719 308.25 99.386719 308.242188 99.386719 L 258.65625 97.953125 C 258.332031 97.941406 258.070312 97.695312 258.039062 97.375 C 257.128906 87.835938 249.507812 80.136719 239.5 78.648438 C 239.183594 78.601562 238.953125 78.328125 238.957031 78.007812 L 239.847656 27.160156 C 239.847656 26.980469 239.925781 26.8125 240.0625 26.695312 C 240.195312 26.574219 240.367188 26.519531 240.550781 26.539062 C 259.398438 28.484375 276.742188 36.941406 289.382812 50.351562 C 301.96875 63.703125 308.902344 80.871094 308.902344 98.691406 C 308.902344 98.863281 308.832031 99.058594 308.707031 99.175781 C 308.585938 99.292969 308.421875 99.386719 308.257812 99.386719 " fill-opacity="1" fill-rule="nonzero"/><path fill="#ffffff" d="M 184 79.261719 L 119.09375 79.261719 C 115.898438 79.261719 113.304688 81.855469 113.304688 85.050781 L 113.304688 171.289062 C 113.304688 174.484375 115.898438 177.078125 119.09375 177.078125 L 184 177.078125 C 187.195312 177.078125 189.789062 174.484375 189.789062 171.289062 L 189.789062 85.050781 C 189.789062 81.855469 187.195312 79.261719 184 79.261719 " fill-opacity="1" fill-rule="nonzero"/><path fill="#00e7ff" d="M 139.058594 161.96875 L 122.394531 161.96875 L 122.394531 107.214844 L 139.058594 107.214844 L 139.058594 161.96875 " fill-opacity="1" fill-rule="nonzero"/><path fill="#00e7ff" d="M 159.875 161.96875 L 143.214844 161.96875 L 143.214844 92.105469 L 159.875 92.105469 L 159.875 161.96875 " fill-opacity="1" fill-rule="nonzero"/><path fill="#00e7ff" d="M 180.695312 161.96875 L 164.035156 161.96875 L 164.035156 129.324219 L 180.695312 129.324219 L 180.695312 161.96875 " fill-opacity="1" fill-rule="nonzero"/><path fill="#000000" d="M 125.554688 140.621094 C 125.203125 140.621094 124.917969 140.339844 124.917969 139.984375 L 124.917969 105.363281 C 124.917969 105.011719 125.203125 104.726562 125.554688 104.726562 L 142.214844 104.726562 C 142.570312 104.726562 142.851562 105.011719 142.851562 105.363281 L 142.851562 121.027344 C 142.851562 121.378906 142.570312 121.667969 142.214844 121.667969 C 141.863281 121.667969 141.578125 121.378906 141.578125 121.027344 L 141.578125 106 L 126.191406 106 L 126.191406 139.984375 C 126.191406 140.339844 125.90625 140.621094 125.554688 140.621094 " fill-opacity="1" fill-rule="nonzero"/><path fill="#000000" d="M 163.035156 152.4375 C 162.683594 152.4375 162.398438 152.152344 162.398438 151.800781 L 162.398438 90.894531 L 147.011719 90.894531 L 147.011719 140.125 C 147.011719 140.476562 146.726562 140.761719 146.375 140.761719 C 146.023438 140.761719 145.738281 140.476562 145.738281 140.125 L 145.738281 90.257812 C 145.738281 89.902344 146.023438 89.617188 146.375 89.617188 L 163.035156 89.617188 C 163.386719 89.617188 163.671875 89.902344 163.671875 90.257812 L 163.671875 151.800781 C 163.671875 152.152344 163.386719 152.4375 163.035156 152.4375 " fill-opacity="1" fill-rule="nonzero"/><path fill="#000000" d="M 167.195312 154.910156 C 166.839844 154.910156 166.554688 154.625 166.554688 154.273438 L 166.554688 127.472656 C 166.554688 127.121094 166.839844 126.835938 167.195312 126.835938 L 183.855469 126.835938 C 184.207031 126.835938 184.492188 127.121094 184.492188 127.472656 L 184.492188 146.304688 C 184.492188 146.65625 184.207031 146.941406 183.855469 146.941406 C 183.503906 146.941406 183.21875 146.65625 183.21875 146.304688 L 183.21875 128.109375 L 167.832031 128.109375 L 167.832031 154.273438 C 167.832031 154.625 167.546875 154.910156 167.195312 154.910156 " fill-opacity="1" fill-rule="nonzero"/><path fill="#000000" d="M 140.203125 177.863281 C 139.851562 177.863281 139.566406 177.578125 139.566406 177.226562 C 139.5625 176.875 139.851562 176.585938 140.199219 176.585938 L 183.992188 176.441406 C 186.835938 176.441406 189.152344 174.132812 189.152344 171.289062 L 189.152344 85.054688 C 189.152344 82.214844 186.835938 79.898438 183.996094 79.898438 L 119.09375 79.898438 C 116.253906 79.898438 113.941406 82.214844 113.941406 85.054688 L 113.941406 171.289062 C 113.941406 174.132812 116.253906 176.441406 119.09375 176.441406 L 119.710938 176.441406 C 120.0625 176.441406 120.347656 176.730469 120.347656 177.082031 C 120.347656 177.433594 120.0625 177.71875 119.710938 177.71875 L 119.09375 177.71875 C 115.550781 177.71875 112.667969 174.835938 112.667969 171.289062 L 112.667969 85.054688 C 112.667969 81.507812 115.550781 78.625 119.09375 78.625 L 183.996094 78.625 C 187.542969 78.625 190.425781 81.507812 190.425781 85.054688 L 190.425781 171.289062 C 190.425781 174.835938 187.542969 177.71875 183.996094 177.71875 L 140.203125 177.863281 " fill-opacity="1" fill-rule="nonzero"/><path fill="#ffffff" d="M 24.820312 328.542969 L 25.832031 338.175781 L 32.347656 338.941406 L 32.347656 327.515625 L 24.820312 328.542969 " fill-opacity="1" fill-rule="nonzero"/><path fill="#000000" d="M 26.414062 337.601562 L 31.710938 338.222656 L 31.710938 328.246094 L 25.519531 329.089844 Z M 32.347656 339.578125 C 32.320312 339.578125 32.296875 339.574219 32.273438 339.574219 L 25.757812 338.808594 C 25.460938 338.773438 25.230469 338.539062 25.199219 338.242188 L 24.1875 328.609375 C 24.152344 328.265625 24.394531 327.957031 24.734375 327.910156 L 32.261719 326.886719 C 32.441406 326.859375 32.625 326.914062 32.765625 327.035156 C 32.90625 327.15625 32.984375 327.332031 32.984375 327.515625 L 32.984375 338.941406 C 32.984375 339.121094 32.90625 339.296875 32.769531 339.417969 C 32.652344 339.523438 32.5 339.578125 32.347656 339.578125 " fill-opacity="1" fill-rule="nonzero"/><path fill="#6df2ff" d="M 33.371094 355.710938 C 30.65625 356.09375 26.207031 356.429688 20.980469 355.707031 C 19.265625 355.472656 18.128906 353.808594 18.542969 352.132812 C 19.695312 347.453125 21.675781 338.578125 25.082031 334.46875 L 25.925781 336.699219 L 27.09375 334.597656 C 27.253906 334.3125 27.542969 334.117188 27.867188 334.074219 L 30.425781 333.75 C 30.960938 333.683594 31.457031 334.035156 31.566406 334.5625 L 31.972656 336.5 L 32.863281 333.960938 L 35.839844 352.453125 C 36.046875 354.03125 34.949219 355.488281 33.371094 355.710938 " fill-opacity="1" fill-rule="nonzero"/><path fill="#000000" d="M 24.898438 335.78125 C 22.207031 339.769531 20.476562 346.886719 19.410156 351.269531 L 19.164062 352.28125 C 19.007812 352.914062 19.125 353.558594 19.488281 354.097656 C 19.851562 354.632812 20.425781 354.988281 21.066406 355.078125 C 26.171875 355.785156 30.53125 355.472656 33.285156 355.082031 C 34.507812 354.910156 35.371094 353.769531 35.207031 352.535156 L 32.636719 336.539062 L 32.574219 336.710938 C 32.480469 336.980469 32.214844 337.15625 31.933594 337.136719 C 31.648438 337.117188 31.410156 336.910156 31.351562 336.628906 L 30.941406 334.695312 C 30.902344 334.492188 30.707031 334.359375 30.503906 334.382812 L 27.945312 334.707031 C 27.824219 334.722656 27.710938 334.800781 27.652344 334.910156 L 26.484375 337.007812 C 26.363281 337.226562 26.128906 337.355469 25.878906 337.335938 C 25.632812 337.316406 25.417969 337.15625 25.332031 336.925781 Z M 27.214844 356.773438 C 25.296875 356.773438 23.167969 356.65625 20.890625 356.339844 C 19.894531 356.199219 19 355.644531 18.433594 354.8125 C 17.871094 353.984375 17.6875 352.949219 17.925781 351.980469 L 18.171875 350.96875 C 19.351562 346.121094 21.324219 338.007812 24.589844 334.0625 C 24.734375 333.886719 24.960938 333.800781 25.183594 333.839844 C 25.410156 333.875 25.597656 334.03125 25.675781 334.242188 L 26.035156 335.1875 L 26.535156 334.289062 C 26.792969 333.828125 27.261719 333.507812 27.785156 333.441406 L 30.34375 333.121094 C 31.109375 333.023438 31.839844 333.472656 32.113281 334.175781 L 32.265625 333.746094 C 32.363281 333.472656 32.640625 333.300781 32.921875 333.324219 C 33.210938 333.347656 33.449219 333.570312 33.496094 333.855469 L 36.46875 352.351562 C 36.726562 354.292969 35.375 356.074219 33.460938 356.34375 C 31.855469 356.570312 29.71875 356.773438 27.214844 356.773438 " fill-opacity="1" fill-rule="nonzero"/><path fill="#000000" d="M 25.824219 353.671875 C 24.070312 353.671875 22.171875 353.515625 20.277344 353.085938 C 19.933594 353.007812 19.71875 352.664062 19.796875 352.320312 C 19.875 351.980469 20.21875 351.765625 20.5625 351.839844 C 26.882812 353.285156 33.496094 351.429688 33.5625 351.410156 C 33.898438 351.3125 34.253906 351.507812 34.351562 351.847656 C 34.445312 352.1875 34.25 352.539062 33.910156 352.636719 C 33.710938 352.695312 30.222656 353.671875 25.824219 353.671875 " fill-opacity="1" fill-rule="nonzero"/><path fill="#000000" d="M 24.269531 346.507812 C 23.929688 346.507812 23.644531 346.238281 23.632812 345.890625 C 23.621094 345.539062 23.898438 345.246094 24.25 345.234375 L 30.355469 345.03125 C 30.363281 345.03125 30.371094 345.03125 30.378906 345.03125 C 30.71875 345.03125 31.003906 345.304688 31.015625 345.648438 C 31.027344 346 30.75 346.292969 30.398438 346.304688 L 24.292969 346.507812 C 24.285156 346.507812 24.277344 346.507812 24.269531 346.507812 " fill-opacity="1" fill-rule="nonzero"/><path fill="#ffffff" d="M 55.335938 323.410156 L 56.308594 337.472656 L 64.148438 337.472656 L 64.511719 323.410156 L 55.335938 323.410156 " fill-opacity="1" fill-rule="nonzero"/><path fill="#000000" d="M 56.90625 336.835938 L 63.527344 336.835938 L 63.859375 324.050781 L 56.019531 324.050781 Z M 64.148438 338.109375 L 56.308594 338.109375 C 55.976562 338.109375 55.699219 337.851562 55.675781 337.515625 L 54.699219 323.457031 C 54.6875 323.277344 54.746094 323.105469 54.867188 322.976562 C 54.988281 322.847656 55.15625 322.773438 55.335938 322.773438 L 64.511719 322.773438 C 64.683594 322.773438 64.851562 322.84375 64.96875 322.964844 C 65.089844 323.089844 65.15625 323.257812 65.152344 323.425781 L 64.785156 337.488281 C 64.777344 337.835938 64.496094 338.109375 64.148438 338.109375 " fill-opacity="1" fill-rule="nonzero"/><path fill="#6df2ff" d="M 54.261719 345.410156 C 54.242188 346.738281 55.152344 347.90625 56.449219 348.207031 C 60.953125 349.257812 71.105469 351.59375 74 352.023438 C 77.761719 352.582031 82.378906 351.433594 84.363281 349.234375 C 86.351562 347.035156 79.917969 341.785156 76.863281 339.878906 C 72.328125 337.039062 67.972656 331.433594 66.144531 331.179688 C 64.320312 330.929688 60.910156 336.226562 60.910156 336.226562 L 55.335938 333.886719 C 55.335938 333.886719 54.363281 338.664062 54.261719 345.410156 " fill-opacity="1" fill-rule="nonzero"/><path fill="#000000" d="M 54.898438 345.417969 C 54.886719 346.441406 55.597656 347.355469 56.589844 347.589844 C 60.894531 348.589844 71.210938 350.964844 74.09375 351.394531 C 77.722656 351.933594 82.113281 350.773438 83.890625 348.808594 C 84.003906 348.683594 84.144531 348.46875 84.085938 348.046875 C 83.796875 345.972656 79.511719 342.285156 76.527344 340.417969 C 74.210938 338.96875 72.007812 336.878906 70.066406 335.035156 C 68.445312 333.496094 66.769531 331.910156 66.058594 331.8125 C 65.207031 331.679688 62.984375 334.179688 61.445312 336.574219 C 61.277344 336.832031 60.945312 336.9375 60.660156 336.816406 L 55.820312 334.78125 C 55.550781 336.386719 54.972656 340.363281 54.898438 345.417969 Z M 75.957031 352.800781 C 75.261719 352.800781 74.574219 352.753906 73.90625 352.65625 C 71.082031 352.234375 61.664062 350.078125 56.300781 348.828125 C 54.726562 348.460938 53.601562 347.019531 53.625 345.402344 C 53.726562 338.671875 54.699219 333.808594 54.710938 333.757812 C 54.746094 333.574219 54.867188 333.414062 55.035156 333.320312 C 55.207031 333.234375 55.40625 333.226562 55.582031 333.300781 L 60.667969 335.433594 C 61.769531 333.789062 64.351562 330.292969 66.234375 330.546875 C 67.300781 330.695312 68.648438 331.933594 70.941406 334.109375 C 72.84375 335.914062 74.996094 337.957031 77.203125 339.335938 C 79.179688 340.570312 84.921875 344.796875 85.347656 347.871094 C 85.445312 348.566406 85.269531 349.183594 84.835938 349.660156 C 83.113281 351.570312 79.476562 352.800781 75.957031 352.800781 " fill-opacity="1" fill-rule="nonzero"/><path fill="#000000" d="M 75.890625 350.210938 C 67.660156 350.210938 56.691406 345.785156 56.070312 345.527344 C 55.742188 345.394531 55.585938 345.023438 55.71875 344.699219 C 55.851562 344.371094 56.226562 344.214844 56.550781 344.347656 C 56.75 344.429688 76.445312 352.386719 82.164062 347.226562 C 82.425781 346.988281 82.828125 347.007812 83.066406 347.269531 C 83.300781 347.53125 83.28125 347.9375 83.019531 348.171875 C 81.371094 349.660156 78.800781 350.210938 75.890625 350.210938 " fill-opacity="1" fill-rule="nonzero"/><path fill="#000000" d="M 67.199219 341.707031 C 67.027344 341.707031 66.851562 341.632812 66.726562 341.496094 C 66.492188 341.234375 66.511719 340.832031 66.773438 340.59375 L 70.761719 337 C 71.019531 336.761719 71.425781 336.785156 71.660156 337.042969 C 71.898438 337.308594 71.875 337.710938 71.613281 337.945312 L 67.628906 341.539062 C 67.503906 341.652344 67.351562 341.707031 67.199219 341.707031 " fill-opacity="1" fill-rule="nonzero"/><path fill="#000000" d="M 22.597656 231.753906 C 22.597656 231.753906 20.167969 275.707031 18.898438 290.878906 C 17.625 306.050781 21.871094 330.441406 21.871094 330.441406 L 33.96875 329.808594 C 33.96875 329.808594 34.800781 300.152344 35.699219 291.917969 C 35.699219 291.917969 40.808594 280.75 42.324219 270.792969 C 43.839844 260.839844 49 245.109375 49 245.109375 C 49 245.109375 53.191406 323.609375 53.59375 329.777344 C 53.59375 329.777344 63.082031 330.199219 66.484375 328.058594 C 66.484375 328.058594 72.511719 299.433594 71.644531 283.863281 C 70.78125 268.289062 71.730469 229.597656 71.730469 229.597656 L 22.597656 231.753906 " fill-opacity="1" fill-rule="nonzero"/><path fill="#ffffff" d="M 33.46875 292.550781 L 29.773438 292.550781 C 29.417969 292.550781 29.132812 292.265625 29.132812 291.914062 C 29.132812 291.5625 29.417969 291.277344 29.773438 291.277344 L 33.46875 291.277344 C 33.820312 291.277344 34.109375 291.5625 34.109375 291.914062 C 34.109375 292.265625 33.820312 292.550781 33.46875 292.550781 " fill-opacity="1" fill-rule="nonzero"/><path fill="#ffffff" d="M 59.816406 315.378906 C 59.8125 315.378906 59.808594 315.378906 59.804688 315.378906 C 59.453125 315.375 59.171875 315.082031 59.179688 314.730469 C 59.3125 307.40625 67.3125 294.335938 67.65625 293.78125 C 67.839844 293.484375 68.230469 293.390625 68.53125 293.574219 C 68.832031 293.757812 68.925781 294.152344 68.742188 294.449219 C 68.660156 294.582031 60.582031 307.777344 60.453125 314.753906 C 60.449219 315.101562 60.164062 315.378906 59.816406 315.378906 " fill-opacity="1" fill-rule="nonzero"/><path fill="#ffffff" d="M 75.558594 161.457031 C 76.441406 161.386719 80.765625 170.242188 94.296875 169.871094 C 107.828125 169.5 118.683594 154.359375 118.683594 154.359375 C 118.683594 154.359375 123.355469 146.480469 126.902344 143.628906 C 130.449219 140.78125 131.003906 140.40625 131.003906 140.40625 C 131.003906 140.40625 132.117188 141.886719 131.003906 143.628906 C 129.890625 145.375 126.820312 148.632812 126.820312 148.632812 C 126.820312 148.632812 130.203125 150.492188 128.679688 154.359375 C 126.925781 158.804688 121.980469 158.449219 121.980469 158.449219 C 121.980469 158.449219 111.949219 202.867188 70.488281 181.757812 L 75.558594 161.457031 " fill-opacity="1" fill-rule="nonzero"/><path fill="#000000" d="M 71.230469 181.417969 C 83.234375 187.421875 93.691406 188.417969 102.316406 184.371094 C 116.851562 177.550781 121.316406 158.5 121.359375 158.308594 C 121.429688 158 121.710938 157.789062 122.027344 157.8125 C 122.210938 157.828125 126.53125 158.070312 128.085938 154.121094 C 129.378906 150.84375 126.632812 149.257812 126.511719 149.191406 C 126.34375 149.09375 126.222656 148.925781 126.195312 148.734375 C 126.164062 148.539062 126.222656 148.339844 126.359375 148.199219 C 126.386719 148.164062 129.398438 144.960938 130.464844 143.289062 C 130.949219 142.53125 130.902344 141.84375 130.769531 141.378906 C 130.214844 141.804688 129.183594 142.617188 127.300781 144.128906 C 123.882812 146.871094 119.277344 154.605469 119.230469 154.683594 C 119.21875 154.699219 119.210938 154.714844 119.199219 154.730469 C 118.75 155.359375 108.003906 170.132812 94.3125 170.507812 C 83.289062 170.824219 78.269531 165.214844 76.125 162.824219 C 76.0625 162.75 75.996094 162.679688 75.929688 162.605469 Z M 91.050781 188.085938 C 84.710938 188.085938 77.738281 186.164062 70.199219 182.328125 C 69.933594 182.191406 69.796875 181.890625 69.871094 181.605469 L 74.941406 161.300781 C 75.007812 161.035156 75.238281 160.84375 75.511719 160.820312 C 76 160.773438 76.339844 161.15625 77.074219 161.972656 C 79.097656 164.230469 83.84375 169.523438 94.277344 169.234375 C 107.117188 168.882812 117.683594 154.640625 118.148438 154.007812 C 118.496094 153.425781 122.972656 145.96875 126.503906 143.132812 C 130.027344 140.300781 130.621094 139.894531 130.644531 139.875 C 130.925781 139.6875 131.308594 139.75 131.511719 140.023438 C 131.570312 140.097656 132.875 141.882812 131.539062 143.972656 C 130.675781 145.328125 128.722656 147.511719 127.792969 148.527344 C 129.054688 149.550781 130.429688 151.65625 129.273438 154.59375 C 127.726562 158.507812 123.898438 159.027344 122.480469 159.085938 C 121.65625 162.195312 116.617188 179.066406 102.863281 185.523438 C 99.21875 187.234375 95.273438 188.085938 91.050781 188.085938 " fill-opacity="1" fill-rule="nonzero"/><path fill="#00e7ff" d="M 8.5 181.757812 C 8.5 181.757812 12.558594 155.550781 26.90625 149.101562 C 41.25 142.652344 60.65625 143.550781 66.007812 146.769531 C 71.363281 149.992188 85.308594 164.550781 85.308594 164.550781 L 72.984375 181.757812 C 72.984375 181.757812 75.800781 228.082031 73.574219 240.308594 C 73.574219 240.308594 59.863281 241.910156 54.046875 239.617188 C 48.230469 237.328125 29.109375 234.121094 19.964844 238.320312 L 21.628906 179.671875 L 8.5 181.757812 " fill-opacity="1" fill-rule="nonzero"/><path fill="#000000" d="M 32.386719 235.640625 C 41.105469 235.640625 50.507812 237.539062 54.277344 239.023438 C 59.285156 240.996094 70.578125 239.980469 73.027344 239.726562 C 75.066406 227.035156 72.375 182.253906 72.347656 181.796875 C 72.339844 181.652344 72.378906 181.507812 72.464844 181.386719 L 84.484375 164.609375 C 82.246094 162.296875 70.417969 150.167969 65.679688 147.316406 C 60.683594 144.3125 41.441406 143.265625 27.167969 149.683594 C 14.75 155.265625 10.140625 176.429688 9.28125 180.988281 L 21.527344 179.042969 C 21.714844 179.011719 21.90625 179.066406 22.046875 179.191406 C 22.191406 179.320312 22.269531 179.5 22.265625 179.6875 L 20.632812 237.347656 C 23.855469 236.113281 28.035156 235.640625 32.386719 235.640625 Z M 63.910156 241.496094 C 60.234375 241.496094 56.335938 241.207031 53.8125 240.210938 C 47.816406 237.851562 28.917969 234.90625 20.234375 238.898438 C 20.03125 238.992188 19.800781 238.972656 19.613281 238.851562 C 19.429688 238.726562 19.324219 238.519531 19.328125 238.300781 L 20.96875 180.421875 L 8.597656 182.386719 C 8.398438 182.421875 8.195312 182.355469 8.050781 182.210938 C 7.90625 182.066406 7.835938 181.863281 7.867188 181.660156 C 8.035156 180.578125 12.148438 155.035156 26.644531 148.519531 C 40.851562 142.132812 60.519531 142.722656 66.335938 146.226562 C 71.699219 149.449219 85.199219 163.511719 85.769531 164.109375 C 85.984375 164.332031 86.007812 164.671875 85.828125 164.921875 L 73.632812 181.945312 C 73.867188 185.859375 76.359375 228.570312 74.199219 240.421875 C 74.148438 240.699219 73.925781 240.910156 73.648438 240.941406 C 73.324219 240.980469 68.8125 241.496094 63.910156 241.496094 " fill-opacity="1" fill-rule="nonzero"/><path fill="#000000" d="M 32.566406 226.871094 C 32.261719 226.871094 31.992188 226.652344 31.9375 226.34375 C 31.878906 225.996094 32.109375 225.664062 32.457031 225.605469 C 54.136719 221.773438 60.421875 206.820312 60.480469 206.667969 C 60.613281 206.34375 60.984375 206.183594 61.3125 206.316406 C 61.636719 206.449219 61.796875 206.820312 61.664062 207.144531 C 61.601562 207.304688 55.046875 222.90625 32.679688 226.859375 C 32.640625 226.867188 32.601562 226.871094 32.566406 226.871094 " fill-opacity="1" fill-rule="nonzero"/><path fill="#000000" d="M 71.945312 200.078125 L 44.03125 200.078125 L 52.773438 168.894531 L 80.6875 168.894531 L 71.945312 200.078125 " fill-opacity="1" fill-rule="nonzero"/><path fill="#ffffff" d="M 10.960938 181.859375 L 25.089844 175.542969 C 25.089844 175.542969 23.097656 199.480469 51.683594 188.429688 C 51.683594 188.429688 50.628906 185.351562 50.777344 181.757812 C 50.925781 178.164062 53.074219 181.640625 53.375 184.5625 C 53.675781 187.484375 60.386719 186.296875 64.421875 185.144531 C 68.453125 183.996094 73.746094 184.75 64.421875 189.894531 C 55.09375 195.039062 53.050781 192.742188 53.050781 192.742188 C 53.050781 192.742188 41.140625 209.410156 26.320312 205.867188 C 8.09375 201.515625 10.960938 181.859375 10.960938 181.859375 " fill-opacity="1" fill-rule="nonzero"/><path fill="#000000" d="M 11.550781 182.292969 C 11.429688 183.488281 11.144531 187.632812 12.429688 192.097656 C 14.441406 199.078125 19.164062 203.503906 26.46875 205.246094 C 40.710938 208.652344 52.414062 192.535156 52.53125 192.371094 C 52.644531 192.214844 52.824219 192.117188 53.015625 192.105469 C 53.207031 192.097656 53.398438 192.175781 53.527344 192.316406 C 53.53125 192.316406 55.617188 194.019531 64.113281 189.335938 C 69.050781 186.609375 68.976562 185.609375 68.976562 185.601562 C 68.785156 185.289062 66.921875 185.09375 64.597656 185.761719 C 62.675781 186.304688 56.222656 187.960938 53.757812 186.296875 C 53.164062 185.894531 52.8125 185.316406 52.742188 184.628906 C 52.585938 183.109375 51.925781 181.621094 51.492188 181.0625 C 51.457031 181.21875 51.425781 181.449219 51.414062 181.785156 C 51.273438 185.21875 52.273438 188.191406 52.285156 188.222656 C 52.394531 188.546875 52.230469 188.898438 51.910156 189.023438 C 42.050781 192.835938 34.640625 192.964844 29.890625 189.414062 C 24.917969 185.691406 24.414062 179.105469 24.417969 176.542969 Z M 30.453125 206.992188 C 29.058594 206.992188 27.628906 206.835938 26.171875 206.488281 C 7.59375 202.046875 10.300781 181.96875 10.328125 181.765625 C 10.359375 181.550781 10.5 181.363281 10.699219 181.277344 L 24.828125 174.964844 C 25.03125 174.867188 25.273438 174.894531 25.457031 175.023438 C 25.640625 175.15625 25.742188 175.371094 25.722656 175.597656 C 25.714844 175.679688 25.085938 184.230469 30.660156 188.394531 C 34.953125 191.601562 41.757812 191.480469 50.898438 188.042969 C 50.59375 186.957031 50.023438 184.507812 50.140625 181.730469 C 50.160156 181.210938 50.226562 179.625 51.328125 179.589844 C 51.339844 179.589844 51.347656 179.589844 51.359375 179.589844 C 52.769531 179.589844 53.832031 182.773438 54.011719 184.496094 C 54.042969 184.8125 54.191406 185.050781 54.472656 185.238281 C 55.964844 186.25 60.457031 185.613281 64.246094 184.535156 C 66 184.035156 69.492188 183.511719 70.15625 185.121094 C 70.699219 186.4375 69.023438 188.082031 64.726562 190.449219 C 57.550781 194.410156 54.417969 194.09375 53.214844 193.582031 C 51.320312 196.011719 42.109375 206.992188 30.453125 206.992188 " fill-opacity="1" fill-rule="nonzero"/><path fill="#000000" d="M 48.671875 137.160156 C 47.449219 138.273438 45.066406 139.640625 43.199219 138.699219 C 41.808594 137.996094 41.03125 136.183594 41.078125 134.109375 C 40.433594 134.160156 39.589844 134.117188 38.988281 133.582031 C 38.0625 132.765625 38.234375 131.257812 38.269531 130.265625 C 38.4375 125.691406 35.78125 124.988281 36.433594 121.886719 C 36.941406 119.449219 38.859375 117.992188 39.21875 117.722656 C 41.027344 116.351562 42.25 116.792969 45.292969 115.996094 C 50.410156 114.65625 50.570312 112.449219 53.941406 112.441406 C 54.136719 112.441406 58.726562 112.492188 60.285156 115.660156 C 61.550781 118.238281 60.070312 121.371094 58.539062 123.019531 C 56.5625 125.148438 55.136719 124.097656 53.152344 125.886719 C 49.660156 129.023438 52.296875 133.839844 48.671875 137.160156 " fill-opacity="1" fill-rule="nonzero"/><path fill="#ffffff" d="M 58.882812 128.996094 L 58.679688 128.824219 C 57.667969 127.949219 56.613281 126.9375 56.34375 125.628906 C 55.203125 120.0625 50.101562 118.039062 49.867188 123.152344 C 49.808594 124.441406 45.097656 124.375 45.65625 125.730469 C 47.117188 129.261719 47.148438 128.308594 45.089844 129.613281 C 44.855469 129.621094 44.625 129.671875 44.40625 129.773438 C 43.351562 130.265625 42.980469 131.695312 43.574219 132.96875 C 43.933594 133.746094 44.570312 134.277344 45.246094 134.46875 L 45.246094 140.046875 C 45.246094 142.136719 43.984375 144.019531 42.046875 144.8125 L 40.164062 145.582031 C 40.164062 145.582031 48.945312 151.3125 57.859375 145.019531 L 56.667969 144.488281 C 54.574219 143.546875 53.199219 141.496094 53.125 139.199219 L 53.117188 138.109375 C 53.714844 138.164062 54.296875 138.125 54.832031 137.96875 C 57.324219 137.242188 58.152344 134.371094 57.730469 130.796875 L 58.746094 130.253906 C 59.21875 130 59.289062 129.347656 58.882812 128.996094 " fill-opacity="1" fill-rule="nonzero"/><path fill="#000000" d="M 41.640625 145.667969 C 44.089844 146.863281 50.160156 149.027344 56.539062 145.125 L 56.410156 145.066406 C 54.105469 144.039062 52.570312 141.742188 52.492188 139.21875 L 52.480469 138.117188 C 52.476562 137.9375 52.550781 137.765625 52.683594 137.644531 C 52.816406 137.519531 52.992188 137.457031 53.171875 137.476562 C 53.714844 137.523438 54.214844 137.484375 54.65625 137.355469 C 57.457031 136.539062 57.296875 132.550781 57.097656 130.875 C 57.066406 130.613281 57.199219 130.363281 57.429688 130.238281 L 58.441406 129.691406 C 58.492188 129.664062 58.507812 129.621094 58.511719 129.589844 C 58.511719 129.5625 58.507812 129.515625 58.464844 129.480469 L 58.265625 129.304688 C 57.199219 128.386719 56.03125 127.277344 55.722656 125.757812 C 55.042969 122.457031 52.984375 120.753906 51.808594 120.855469 C 50.726562 120.941406 50.535156 122.511719 50.503906 123.183594 C 50.457031 124.257812 49.128906 124.632812 47.847656 124.992188 C 47.34375 125.132812 46.523438 125.363281 46.277344 125.558594 C 46.472656 126.035156 46.644531 126.421875 46.785156 126.746094 C 47.480469 128.355469 47.714844 128.894531 46.292969 129.652344 C 46.0625 129.777344 45.777344 129.929688 45.429688 130.148438 C 45.335938 130.210938 45.230469 130.242188 45.117188 130.25 C 44.957031 130.253906 44.808594 130.289062 44.675781 130.351562 C 43.941406 130.691406 43.707031 131.75 44.152344 132.703125 C 44.417969 133.273438 44.894531 133.707031 45.421875 133.859375 C 45.695312 133.9375 45.886719 134.1875 45.886719 134.46875 L 45.886719 140.046875 C 45.886719 142.40625 44.472656 144.507812 42.289062 145.402344 Z M 48.855469 148.585938 C 43.695312 148.589844 39.875 146.152344 39.816406 146.113281 C 39.617188 145.984375 39.507812 145.757812 39.53125 145.523438 C 39.554688 145.285156 39.703125 145.082031 39.925781 144.992188 L 41.808594 144.222656 C 43.511719 143.527344 44.609375 141.886719 44.609375 140.046875 L 44.609375 134.910156 C 43.921875 134.582031 43.347656 133.992188 42.996094 133.242188 C 42.253906 131.648438 42.765625 129.835938 44.136719 129.195312 C 44.371094 129.085938 44.621094 129.015625 44.886719 128.988281 C 45.207031 128.789062 45.472656 128.644531 45.691406 128.53125 C 45.820312 128.460938 45.960938 128.386719 46.046875 128.332031 C 45.992188 128.128906 45.808594 127.703125 45.613281 127.257812 C 45.464844 126.910156 45.28125 126.488281 45.070312 125.972656 C 44.9375 125.652344 44.941406 125.332031 45.085938 125.039062 C 45.421875 124.347656 46.386719 124.074219 47.503906 123.761719 C 48.050781 123.609375 49.054688 123.328125 49.234375 123.09375 C 49.386719 120.007812 51.167969 119.625 51.710938 119.582031 C 53.605469 119.433594 56.179688 121.652344 56.96875 125.5 C 57.203125 126.628906 58.191406 127.558594 59.097656 128.339844 L 59.300781 128.515625 C 59.648438 128.816406 59.828125 129.269531 59.777344 129.730469 C 59.726562 130.191406 59.453125 130.59375 59.046875 130.816406 L 58.410156 131.15625 C 58.777344 135.144531 57.550781 137.839844 55.011719 138.578125 C 54.621094 138.691406 54.203125 138.753906 53.761719 138.769531 L 53.765625 139.195312 C 53.828125 141.214844 55.070312 143.070312 56.929688 143.90625 L 58.121094 144.4375 C 58.328125 144.535156 58.472656 144.730469 58.492188 144.957031 C 58.515625 145.1875 58.414062 145.410156 58.226562 145.542969 C 54.964844 147.84375 51.707031 148.585938 48.855469 148.585938 " fill-opacity="1" fill-rule="nonzero"/><path fill="#000000" d="M 53.117188 138.746094 C 53.085938 138.746094 53.054688 138.746094 53.019531 138.738281 C 49.300781 138.167969 47.621094 135.316406 47.554688 135.199219 C 47.378906 134.894531 47.484375 134.503906 47.789062 134.328125 C 48.09375 134.152344 48.480469 134.257812 48.65625 134.5625 C 48.679688 134.597656 50.125 137.007812 53.214844 137.480469 C 53.5625 137.53125 53.800781 137.859375 53.746094 138.207031 C 53.699219 138.519531 53.425781 138.746094 53.117188 138.746094 " fill-opacity="1" fill-rule="nonzero"/><path fill="#000000" d="M 168.253906 332.769531 C 134.050781 332.769531 104.191406 320.824219 103.832031 320.675781 C 103.507812 320.542969 103.351562 320.171875 103.484375 319.847656 C 103.613281 319.519531 103.988281 319.363281 104.3125 319.496094 C 104.742188 319.667969 147.546875 336.785156 189.195312 329.835938 C 189.542969 329.777344 189.871094 330.011719 189.929688 330.359375 C 189.988281 330.707031 189.753906 331.035156 189.40625 331.09375 C 182.320312 332.277344 175.195312 332.769531 168.253906 332.769531 " fill-opacity="1" fill-rule="nonzero"/><path fill="#000000" d="M 165.5625 340.683594 C 148.417969 340.683594 135.367188 336.894531 135.171875 336.835938 C 134.832031 336.734375 134.640625 336.378906 134.742188 336.042969 C 134.839844 335.703125 135.195312 335.511719 135.53125 335.613281 C 135.828125 335.699219 165.195312 344.222656 193.613281 335.457031 C 193.949219 335.359375 194.304688 335.542969 194.410156 335.878906 C 194.515625 336.214844 194.324219 336.574219 193.988281 336.675781 C 184.226562 339.6875 174.355469 340.683594 165.5625 340.683594 " fill-opacity="1" fill-rule="nonzero"/><path fill="#000000" d="M 90.027344 311.089844 C 89.65625 311.089844 89.277344 311.160156 88.914062 311.308594 C 87.382812 311.925781 86.640625 313.671875 87.257812 315.203125 C 87.554688 315.945312 88.125 316.527344 88.863281 316.839844 C 89.597656 317.152344 90.414062 317.160156 91.152344 316.859375 C 91.894531 316.5625 92.472656 315.988281 92.785156 315.253906 C 93.101562 314.519531 93.105469 313.707031 92.808594 312.964844 C 92.335938 311.800781 91.210938 311.089844 90.027344 311.089844 Z M 90.03125 318.355469 C 89.464844 318.355469 88.902344 318.242188 88.363281 318.011719 C 87.3125 317.566406 86.503906 316.738281 86.074219 315.683594 C 85.195312 313.496094 86.253906 311.007812 88.433594 310.128906 C 90.617188 309.246094 93.109375 310.304688 93.988281 312.488281 C 94.417969 313.542969 94.40625 314.703125 93.960938 315.753906 C 93.515625 316.804688 92.6875 317.617188 91.628906 318.042969 C 91.113281 318.25 90.574219 318.355469 90.03125 318.355469 " fill-opacity="1" fill-rule="nonzero"/><path fill="#000000" d="M 340.164062 161.332031 C 340.152344 161.332031 340.140625 161.332031 340.132812 161.332031 C 339.777344 161.3125 339.507812 161.011719 339.527344 160.660156 C 339.542969 160.355469 340.863281 129.894531 321.496094 97.457031 C 321.316406 97.152344 321.417969 96.761719 321.71875 96.582031 C 322.019531 96.402344 322.410156 96.5 322.589844 96.804688 C 342.167969 129.589844 340.816406 160.417969 340.800781 160.726562 C 340.78125 161.066406 340.5 161.332031 340.164062 161.332031 " fill-opacity="1" fill-rule="nonzero"/><path fill="#000000" d="M 347.679688 182.757812 C 347.636719 182.757812 347.589844 182.753906 347.546875 182.746094 C 347.203125 182.671875 346.980469 182.335938 347.050781 181.992188 C 353.515625 150.519531 339.289062 118.746094 339.144531 118.429688 C 339 118.109375 339.136719 117.730469 339.457031 117.585938 C 339.78125 117.441406 340.15625 117.582031 340.304688 117.898438 C 340.453125 118.21875 354.851562 150.359375 348.300781 182.246094 C 348.234375 182.550781 347.972656 182.757812 347.679688 182.757812 " fill-opacity="1" fill-rule="nonzero"/><path fill="#000000" d="M 342.570312 196.003906 C 342.410156 196.003906 342.253906 195.945312 342.128906 195.828125 C 341.875 195.582031 341.867188 195.179688 342.109375 194.925781 L 344.117188 192.828125 C 344.359375 192.574219 344.761719 192.566406 345.019531 192.808594 C 345.269531 193.050781 345.28125 193.457031 345.039062 193.710938 L 343.03125 195.808594 C 342.90625 195.9375 342.738281 196.003906 342.570312 196.003906 " fill-opacity="1" fill-rule="nonzero"/><path fill="#000000" d="M 335.550781 203.34375 C 335.390625 203.34375 335.234375 203.28125 335.109375 203.164062 C 334.855469 202.921875 334.847656 202.519531 335.089844 202.261719 L 337.09375 200.167969 C 337.339844 199.910156 337.742188 199.902344 338 200.144531 C 338.25 200.390625 338.261719 200.792969 338.019531 201.046875 L 336.011719 203.144531 C 335.886719 203.277344 335.714844 203.34375 335.550781 203.34375 " fill-opacity="1" fill-rule="nonzero"/><path fill="#000000" d="M 337.519531 196.117188 C 337.355469 196.117188 337.195312 196.054688 337.070312 195.933594 L 335.035156 193.925781 C 334.785156 193.675781 334.78125 193.273438 335.027344 193.023438 C 335.273438 192.773438 335.679688 192.769531 335.929688 193.015625 L 337.96875 195.023438 C 338.214844 195.269531 338.21875 195.675781 337.972656 195.925781 C 337.847656 196.050781 337.679688 196.117188 337.519531 196.117188 " fill-opacity="1" fill-rule="nonzero"/><path fill="#000000" d="M 344.644531 203.140625 C 344.484375 203.140625 344.320312 203.078125 344.199219 202.957031 L 342.160156 200.949219 C 341.910156 200.703125 341.910156 200.296875 342.15625 200.046875 C 342.402344 199.796875 342.808594 199.792969 343.054688 200.039062 L 345.09375 202.046875 C 345.34375 202.292969 345.347656 202.699219 345.101562 202.949219 C 344.976562 203.074219 344.808594 203.140625 344.644531 203.140625 " fill-opacity="1" fill-rule="nonzero"/><path fill="#000000" d="M 332.601562 100.25 C 331.902344 100.25 331.234375 100.65625 330.945312 101.339844 C 330.554688 102.253906 330.980469 103.316406 331.894531 103.703125 C 332.335938 103.894531 332.824219 103.898438 333.269531 103.722656 C 333.71875 103.539062 334.070312 103.199219 334.257812 102.757812 C 334.449219 102.3125 334.453125 101.824219 334.273438 101.375 C 334.09375 100.929688 333.75 100.582031 333.308594 100.390625 C 333.082031 100.292969 332.839844 100.25 332.601562 100.25 Z M 332.597656 105.128906 C 332.191406 105.128906 331.777344 105.042969 331.390625 104.875 C 329.832031 104.210938 329.101562 102.398438 329.773438 100.839844 C 330.441406 99.28125 332.25 98.554688 333.808594 99.21875 C 334.566406 99.542969 335.148438 100.140625 335.457031 100.902344 C 335.761719 101.664062 335.753906 102.503906 335.429688 103.257812 C 335.105469 104.011719 334.507812 104.597656 333.746094 104.902344 C 333.375 105.050781 332.988281 105.128906 332.597656 105.128906 " fill-opacity="1" fill-rule="nonzero"/><path fill="#000000" d="M 318.722656 243.003906 C 318.429688 243.003906 318.167969 242.800781 318.101562 242.5 L 312.125 215.117188 C 310.449219 207.421875 304.394531 201.179688 296.710938 199.214844 C 296.371094 199.128906 296.164062 198.78125 296.25 198.441406 C 296.339844 198.097656 296.6875 197.890625 297.023438 197.980469 C 305.175781 200.0625 311.589844 206.683594 313.375 214.847656 L 319.347656 242.230469 C 319.421875 242.574219 319.203125 242.914062 318.859375 242.988281 C 318.8125 243 318.769531 243.003906 318.722656 243.003906 " fill-opacity="1" fill-rule="nonzero"/><path fill="#000000" d="M 274.242188 207.234375 C 274.109375 207.234375 273.972656 207.191406 273.855469 207.105469 C 273.578125 206.894531 273.519531 206.496094 273.734375 206.214844 C 274.203125 205.589844 274.710938 204.988281 275.242188 204.414062 C 276.816406 202.71875 278.617188 201.292969 280.589844 200.171875 C 280.894531 199.996094 281.285156 200.105469 281.457031 200.410156 C 281.628906 200.71875 281.523438 201.105469 281.21875 201.28125 C 279.359375 202.335938 277.664062 203.683594 276.175781 205.277344 C 275.671875 205.824219 275.191406 206.394531 274.75 206.980469 C 274.625 207.148438 274.433594 207.234375 274.242188 207.234375 " fill-opacity="1" fill-rule="nonzero"/><path fill="#6df2ff" d="M 328.925781 234.871094 L 338.847656 235.914062 L 360.765625 342.386719 C 360.816406 342.65625 360.667969 342.929688 360.410156 343.027344 L 327.332031 356.039062 C 327.265625 356.0625 328.769531 234.75 328.925781 234.871094 " fill-opacity="1" fill-rule="nonzero"/><path fill="#000000" d="M 360.175781 342.433594 Z M 329.535156 235.578125 C 329.3125 244.507812 327.996094 344.257812 327.964844 355.105469 L 360.128906 342.453125 L 338.320312 236.5 Z M 327.332031 356.675781 C 327.113281 356.675781 326.90625 356.566406 326.789062 356.371094 C 326.667969 356.175781 326.667969 356.175781 326.890625 337.074219 C 327.027344 325.722656 327.214844 310.59375 327.40625 295.464844 C 327.554688 283.792969 327.773438 267.09375 327.960938 253.839844 C 328.042969 248.164062 328.117188 243.425781 328.167969 240.105469 C 328.265625 234.609375 328.265625 234.609375 328.5 234.398438 C 328.632812 234.277344 328.816406 234.21875 328.992188 234.238281 L 338.914062 235.28125 C 339.191406 235.308594 339.417969 235.511719 339.472656 235.785156 L 361.390625 342.257812 C 361.503906 342.839844 361.1875 343.414062 360.632812 343.621094 L 327.5625 356.632812 C 327.488281 356.664062 327.40625 356.675781 327.332031 356.675781 " fill-opacity="1" fill-rule="nonzero"/><path fill="#ffffff" d="M 242.339844 236.230469 L 328.445312 235.042969 L 326.761719 355.152344 L 210.589844 354.335938 L 242.339844 236.230469 " fill-opacity="1" fill-rule="nonzero"/><path fill="#00e7ff" d="M 327.035156 356.128906 C 327.027344 356.128906 327.027344 356.128906 327.023438 356.125 L 211.304688 354.183594 L 241.886719 237.558594 C 242.085938 236.796875 242.769531 236.257812 243.558594 236.246094 L 328.710938 234.882812 C 328.859375 234.878906 329.007812 234.941406 329.117188 235.050781 C 329.226562 235.160156 329.285156 235.304688 329.28125 235.457031 L 327.597656 355.570312 C 327.59375 355.71875 327.53125 355.863281 327.425781 355.96875 C 327.324219 356.070312 327.179688 356.128906 327.035156 356.128906 " fill-opacity="1" fill-rule="nonzero"/><path fill="#000000" d="M 212.128906 353.558594 L 326.964844 355.488281 L 328.644531 235.523438 L 243.570312 236.882812 C 243.066406 236.890625 242.632812 237.234375 242.503906 237.71875 Z M 327.035156 355.488281 C 327.035156 355.488281 327.035156 355.488281 327.03125 355.488281 Z M 327.035156 356.765625 L 327.023438 356.765625 L 211.296875 354.824219 C 211.101562 354.816406 210.917969 354.726562 210.796875 354.570312 C 210.679688 354.414062 210.640625 354.210938 210.6875 354.023438 L 241.269531 237.394531 C 241.539062 236.359375 242.476562 235.628906 243.546875 235.609375 L 328.699219 234.246094 C 329.039062 234.246094 329.339844 234.367188 329.570312 234.597656 C 329.796875 234.824219 329.925781 235.144531 329.921875 235.46875 L 328.238281 355.578125 C 328.230469 355.898438 328.101562 356.199219 327.871094 356.425781 C 327.644531 356.644531 327.347656 356.765625 327.035156 356.765625 " fill-opacity="1" fill-rule="nonzero"/><path fill="#000000" d="M 252.765625 236.738281 C 252.417969 236.738281 252.132812 236.460938 252.125 236.113281 C 252.121094 235.761719 252.394531 235.472656 252.75 235.464844 L 278.945312 234.890625 C 278.953125 234.890625 278.953125 234.890625 278.960938 234.890625 C 279.304688 234.890625 279.589844 235.167969 279.597656 235.515625 C 279.605469 235.867188 279.324219 236.160156 278.972656 236.164062 L 252.777344 236.738281 C 252.773438 236.738281 252.765625 236.738281 252.765625 236.738281 Z M 328.726562 235.519531 L 328.722656 235.519531 Z M 327.035156 356.765625 L 227.804688 355.140625 C 227.453125 355.136719 227.171875 354.84375 227.179688 354.492188 C 227.183594 354.144531 227.46875 353.863281 227.8125 353.863281 C 227.816406 353.863281 227.824219 353.863281 227.824219 353.863281 L 326.964844 355.488281 L 328.644531 235.523438 L 288.441406 236.164062 C 288.4375 236.164062 288.433594 236.164062 288.425781 236.164062 C 288.082031 236.164062 287.796875 235.886719 287.792969 235.539062 C 287.785156 235.1875 288.066406 234.898438 288.417969 234.890625 L 328.699219 234.246094 C 329.039062 234.246094 329.339844 234.367188 329.570312 234.597656 C 329.796875 234.824219 329.925781 235.144531 329.921875 235.46875 L 328.238281 355.578125 C 328.230469 355.898438 328.101562 356.199219 327.871094 356.425781 C 327.644531 356.644531 327.347656 356.765625 327.035156 356.765625 " fill-opacity="1" fill-rule="nonzero"/><path fill="#aef8ff" d="M 257.503906 247.710938 C 255.375 247.710938 253.644531 245.976562 253.644531 243.847656 C 253.644531 241.714844 255.375 239.980469 257.503906 239.980469 C 259.632812 239.980469 261.371094 241.714844 261.371094 243.847656 C 261.371094 245.976562 259.632812 247.710938 257.503906 247.710938 " fill-opacity="1" fill-rule="nonzero"/><path fill="#aef8ff" d="M 303.789062 247.710938 C 301.65625 247.710938 299.925781 245.976562 299.925781 243.847656 C 299.925781 241.714844 301.65625 239.984375 303.789062 239.984375 C 305.917969 239.984375 307.652344 241.714844 307.652344 243.847656 C 307.652344 245.976562 305.917969 247.710938 303.789062 247.710938 " fill-opacity="1" fill-rule="nonzero"/><path fill="#000000" d="M 303.902344 244.476562 C 303.886719 244.476562 303.871094 244.476562 303.855469 244.476562 C 303.503906 244.449219 303.242188 244.144531 303.269531 243.792969 L 304.925781 221.125 C 305.34375 215.230469 303.40625 209.601562 299.464844 205.273438 C 295.523438 200.949219 290.175781 198.570312 284.390625 198.570312 C 274.785156 198.570312 266.328125 205.527344 264.277344 215.117188 L 258.144531 243.867188 C 258.070312 244.214844 257.730469 244.433594 257.386719 244.359375 C 257.042969 244.285156 256.820312 243.949219 256.894531 243.601562 L 263.03125 214.847656 C 265.203125 204.675781 274.191406 197.292969 284.390625 197.292969 C 290.535156 197.292969 296.222656 199.824219 300.40625 204.414062 C 304.585938 209.003906 306.640625 214.96875 306.195312 221.21875 L 304.539062 243.886719 C 304.515625 244.21875 304.234375 244.476562 303.902344 244.476562 " fill-opacity="1" fill-rule="nonzero"/><path fill="#ffffff" d="M 355.460938 341.117188 C 355.351562 341.117188 355.242188 341.089844 355.140625 341.03125 L 340.144531 332.28125 C 339.804688 332.082031 339.582031 331.726562 339.550781 331.332031 L 334.617188 244.9375 C 334.597656 244.585938 334.867188 244.285156 335.21875 244.261719 C 335.578125 244.257812 335.871094 244.511719 335.890625 244.863281 L 340.820312 331.203125 L 355.785156 339.929688 C 356.085938 340.109375 356.1875 340.5 356.011719 340.800781 C 355.890625 341.007812 355.679688 341.117188 355.460938 341.117188 " fill-opacity="1" fill-rule="nonzero"/><path fill="#ffffff" d="M 275.132812 290.324219 C 280.746094 282.917969 287.207031 282.140625 291.136719 283.859375 C 296.503906 286.203125 295.652344 294.175781 295.496094 295.421875 C 294.082031 306.636719 277.589844 317.765625 275.257812 318.996094 C 273.6875 318.535156 258.320312 308.417969 256.277344 295.660156 C 255.667969 291.828125 256.445312 285.433594 260.9375 283.6875 C 264.476562 282.3125 270.988281 283.53125 275.132812 290.324219 " fill-opacity="1" fill-rule="nonzero"/></svg>