<svg xmlns="http://www.w3.org/2000/svg" xmlns:xlink="http://www.w3.org/1999/xlink" width="500" zoomAndPan="magnify" viewBox="0 0 375 374.999991" height="500" preserveAspectRatio="xMidYMid meet" version="1.0"><path fill="#aef8ff" d="M 125.832031 20.332031 C 148.265625 8.492188 174.851562 13.910156 191.84375 17.375 C 258.832031 31.027344 317.304688 79.753906 342.378906 156.414062 C 348.25 174.351562 374.988281 265.570312 310.164062 319.414062 C 252.863281 367.011719 161.308594 354.410156 102.394531 320.496094 C 53.585938 292.394531 4.6875 236.683594 10.429688 187.496094 C 14.039062 156.5625 36.007812 154.378906 63.511719 97.621094 C 87.320312 48.496094 98.398438 34.816406 125.832031 20.332031 " fill-opacity="1" fill-rule="nonzero"/><path fill="#6df2ff" d="M 238.054688 176.859375 L 178.066406 177.234375 C 177.679688 177.234375 177.550781 177.59375 177.550781 177.941406 L 177.550781 228.980469 C 177.550781 233.867188 143.46875 246.5625 143.136719 245.914062 L 143.097656 251.316406 C 143.09375 252.320312 143.976562 253.214844 145.105469 253.214844 L 145.855469 253.214844 C 145.859375 253.214844 145.863281 253.214844 145.871094 253.214844 L 196.164062 253.214844 C 198.5 253.214844 200.800781 252.691406 202.917969 251.808594 L 230.566406 240.164062 C 235.546875 238.066406 238.6875 233.566406 238.6875 228.65625 L 238.6875 177.566406 C 238.6875 177.21875 238.441406 176.859375 238.054688 176.859375 " fill-opacity="1" fill-rule="nonzero"/><path fill="#ffffff" d="M 171.476562 174.261719 L 171.476562 225.308594 C 171.476562 230.34375 168.238281 234.925781 163.152344 237.097656 L 144.496094 245.058594 C 143.277344 245.582031 143.691406 247.210938 145.042969 247.210938 L 196.296875 247.210938 C 198.601562 247.210938 200.878906 246.757812 202.964844 245.878906 L 223.632812 237.179688 C 228.757812 235.019531 232.027344 230.417969 232.027344 225.359375 L 232.027344 174.261719 C 232.027344 174.054688 231.839844 173.882812 231.605469 173.882812 L 171.902344 173.882812 C 171.667969 173.882812 171.476562 174.054688 171.476562 174.261719 " fill-opacity="1" fill-rule="nonzero"/><path fill="#00e7ff" d="M 59.734375 203.753906 L 306.386719 203.886719 L 310.667969 204.308594 L 318.632812 204.324219 C 320.894531 204.324219 322.757812 202.546875 323.042969 200.28125 L 343.667969 38.023438 C 344.167969 34.078125 341.308594 30.351562 337.367188 30.351562 L 312.101562 30.371094 L 306.960938 32.863281 L 215.234375 33.433594 L 211.914062 33.042969 L 81.773438 32.503906 L 59.734375 203.753906 " fill-opacity="1" fill-rule="nonzero"/><path fill="#6df2ff" d="M 328.164062 31.160156 C 332.609375 31.160156 336.226562 35.640625 335.660156 40.0625 L 314.886719 199.996094 C 314.597656 202.246094 312.6875 203.929688 310.425781 203.929688 L 308.476562 204.003906 L 56.699219 203.929688 C 53.988281 203.929688 51.890625 201.539062 52.238281 198.84375 L 73.429688 35.652344 C 73.71875 33.40625 75.449219 31.160156 77.710938 31.160156 L 328.164062 31.160156 " fill-opacity="1" fill-rule="nonzero"/><path fill="#000000" d="M 251.78125 204.371094 L 100.34375 204.328125 C 100.003906 204.328125 99.726562 204.050781 99.726562 203.707031 C 99.726562 203.363281 100.003906 203.085938 100.347656 203.085938 L 251.78125 203.128906 C 252.125 203.128906 252.402344 203.410156 252.402344 203.753906 C 252.402344 204.097656 252.125 204.371094 251.78125 204.371094 " fill-opacity="1" fill-rule="nonzero"/><path fill="#000000" d="M 308.277344 204.390625 L 296.558594 204.386719 C 296.214844 204.386719 295.9375 204.109375 295.9375 203.765625 C 295.9375 203.421875 296.214844 203.144531 296.558594 203.144531 L 308.257812 203.148438 L 310.179688 203.074219 C 312.144531 203.074219 313.796875 201.617188 314.046875 199.683594 L 319.605469 156.902344 C 319.648438 156.5625 319.960938 156.320312 320.300781 156.367188 C 320.640625 156.410156 320.878906 156.722656 320.835938 157.0625 L 315.28125 199.84375 C 314.949219 202.390625 312.769531 204.316406 310.203125 204.316406 L 308.277344 204.390625 " fill-opacity="1" fill-rule="nonzero"/><path fill="#000000" d="M 329.480469 86.320312 C 329.453125 86.320312 329.425781 86.320312 329.398438 86.316406 C 329.058594 86.273438 328.820312 85.960938 328.863281 85.621094 L 334.820312 39.746094 C 335.078125 37.738281 334.378906 35.570312 332.949219 33.945312 C 331.609375 32.417969 329.78125 31.542969 327.941406 31.542969 L 259.375 31.542969 C 259.027344 31.542969 258.753906 31.265625 258.753906 30.921875 C 258.753906 30.582031 259.027344 30.300781 259.375 30.300781 L 327.941406 30.300781 C 330.140625 30.300781 332.304688 31.332031 333.882812 33.125 C 335.566406 35.042969 336.359375 37.515625 336.054688 39.90625 L 330.09375 85.78125 C 330.050781 86.09375 329.785156 86.320312 329.480469 86.320312 " fill-opacity="1" fill-rule="nonzero"/><path fill="#000000" d="M 229.191406 31.546875 L 176.414062 31.546875 C 176.070312 31.546875 175.792969 31.265625 175.792969 30.921875 C 175.792969 30.582031 176.070312 30.304688 176.414062 30.304688 L 229.191406 30.304688 C 229.53125 30.304688 229.8125 30.582031 229.8125 30.921875 C 229.8125 31.265625 229.53125 31.546875 229.191406 31.546875 " fill-opacity="1" fill-rule="nonzero"/><path fill="#000000" d="M 72.582031 40.828125 C 72.558594 40.828125 72.53125 40.824219 72.503906 40.820312 C 72.164062 40.777344 71.921875 40.464844 71.96875 40.125 L 72.589844 35.339844 C 72.90625 32.863281 74.828125 30.304688 77.484375 30.304688 L 116.828125 30.304688 C 117.167969 30.304688 117.445312 30.582031 117.445312 30.921875 C 117.445312 31.265625 117.167969 31.546875 116.828125 31.546875 L 77.484375 31.546875 C 75.535156 31.546875 74.066406 33.597656 73.820312 35.496094 L 73.199219 40.285156 C 73.15625 40.601562 72.890625 40.828125 72.582031 40.828125 " fill-opacity="1" fill-rule="nonzero"/><path fill="#000000" d="M 56.957031 161.183594 C 56.929688 161.183594 56.902344 161.179688 56.875 161.175781 C 56.535156 161.132812 56.296875 160.820312 56.339844 160.480469 L 62.335938 114.308594 C 62.378906 113.964844 62.6875 113.726562 63.03125 113.773438 C 63.371094 113.8125 63.609375 114.128906 63.566406 114.464844 L 57.570312 160.640625 C 57.53125 160.953125 57.261719 161.183594 56.957031 161.183594 " fill-opacity="1" fill-rule="nonzero"/><path fill="#ffffff" d="M 87.195312 44.3125 C 88.878906 44.3125 90.25 46.007812 90.035156 47.683594 L 82.164062 108.289062 C 82.054688 109.140625 81.332031 109.78125 80.472656 109.78125 L 79.734375 109.808594 L 39.351562 109.78125 C 38.324219 109.78125 37.53125 108.875 37.664062 107.851562 L 45.691406 46.015625 C 45.800781 45.160156 46.457031 44.3125 47.3125 44.3125 L 87.195312 44.3125 " fill-opacity="1" fill-rule="nonzero"/><path fill="#6df2ff" d="M 75.035156 89.347656 L 47.800781 89.347656 C 47.230469 89.347656 46.765625 88.886719 46.765625 88.316406 C 46.765625 87.746094 47.230469 87.28125 47.800781 87.28125 L 75.035156 87.28125 C 75.605469 87.28125 76.066406 87.746094 76.066406 88.316406 C 76.066406 88.886719 75.605469 89.347656 75.035156 89.347656 " fill-opacity="1" fill-rule="nonzero"/><path fill="#6df2ff" d="M 59.800781 95.417969 L 46.722656 95.417969 C 46.152344 95.417969 45.6875 94.953125 45.6875 94.382812 C 45.6875 93.8125 46.152344 93.347656 46.722656 93.347656 L 59.800781 93.347656 C 60.371094 93.347656 60.832031 93.8125 60.832031 94.382812 C 60.832031 94.953125 60.371094 95.417969 59.800781 95.417969 " fill-opacity="1" fill-rule="nonzero"/><path fill="#6df2ff" d="M 73.011719 101.886719 L 45.78125 101.886719 C 45.207031 101.886719 44.746094 101.425781 44.746094 100.851562 C 44.746094 100.28125 45.207031 99.816406 45.78125 99.816406 L 73.011719 99.816406 C 73.582031 99.816406 74.046875 100.28125 74.046875 100.851562 C 74.046875 101.425781 73.582031 101.886719 73.011719 101.886719 " fill-opacity="1" fill-rule="nonzero"/><path fill="#ffffff" d="M 51.679688 65.851562 C 52.242188 58.335938 58.789062 52.699219 66.296875 53.265625 C 73.808594 53.828125 79.4375 60.375 78.875 67.894531 C 78.308594 75.410156 71.765625 81.042969 64.257812 80.480469 C 56.746094 79.917969 51.117188 73.367188 51.679688 65.851562 " fill-opacity="1" fill-rule="nonzero"/><path fill="#000000" d="M 65.285156 81.140625 C 64.929688 81.140625 64.570312 81.125 64.210938 81.097656 C 56.371094 80.511719 50.472656 73.652344 51.0625 65.804688 C 51.1875 64.128906 51.601562 62.507812 52.289062 60.988281 C 52.425781 60.675781 52.796875 60.539062 53.109375 60.675781 C 53.421875 60.820312 53.558594 61.1875 53.417969 61.5 C 52.792969 62.886719 52.414062 64.367188 52.300781 65.898438 C 51.761719 73.058594 57.148438 79.324219 64.304688 79.859375 C 71.460938 80.398438 77.71875 75.007812 78.257812 67.847656 C 78.515625 64.375 77.410156 61.011719 75.144531 58.375 C 72.875 55.738281 69.71875 54.140625 66.253906 53.882812 C 62.355469 53.589844 58.574219 55.046875 55.871094 57.871094 C 55.632812 58.121094 55.238281 58.128906 54.992188 57.890625 C 54.742188 57.652344 54.734375 57.261719 54.972656 57.015625 C 57.933594 53.917969 62.082031 52.324219 66.34375 52.644531 C 70.144531 52.929688 73.601562 54.675781 76.085938 57.566406 C 78.570312 60.453125 79.777344 64.136719 79.492188 67.9375 C 78.933594 75.421875 72.667969 81.140625 65.285156 81.140625 " fill-opacity="1" fill-rule="nonzero"/><path fill="#6df2ff" d="M 55.207031 76.070312 C 57.46875 78.550781 60.644531 80.210938 64.257812 80.480469 C 67.867188 80.75 71.253906 79.585938 73.863281 77.46875 C 71.113281 76.382812 67.984375 75.65625 64.636719 75.402344 C 61.292969 75.152344 58.089844 75.40625 55.207031 76.070312 " fill-opacity="1" fill-rule="nonzero"/><path fill="#ffffff" d="M 64.546875 77.710938 C 63.359375 77.621094 62.472656 76.589844 62.5625 75.402344 L 63.382812 64.449219 L 67.675781 64.773438 L 66.851562 75.726562 C 66.765625 76.910156 65.730469 77.800781 64.546875 77.710938 " fill-opacity="1" fill-rule="nonzero"/><path fill="#000000" d="M 73.539062 69.230469 C 73.523438 65.808594 75.183594 63.796875 72.109375 59.699219 C 68.929688 55.460938 65.742188 57.902344 65.742188 57.902344 C 65.742188 57.902344 63.410156 55.648438 59.816406 59.730469 C 56.648438 63.328125 60.085938 67.027344 58.664062 69.308594 C 57.246094 71.589844 52.941406 72.570312 52.941406 72.570312 C 52.941406 72.570312 54.085938 75.371094 55.667969 76.6875 L 73.421875 78.019531 C 73.421875 78.019531 77.390625 74.296875 77.476562 73.164062 C 77.476562 73.164062 73.554688 72.652344 73.539062 69.230469 " fill-opacity="1" fill-rule="nonzero"/><path fill="#6df2ff" d="M 55.207031 76.070312 C 57.46875 78.550781 60.644531 80.210938 64.257812 80.480469 C 67.867188 80.75 71.253906 79.585938 73.863281 77.46875 C 71.113281 76.382812 67.984375 75.65625 64.636719 75.402344 C 61.292969 75.152344 58.089844 75.40625 55.207031 76.070312 " fill-opacity="1" fill-rule="nonzero"/><path fill="#000000" d="M 56.453125 76.445312 C 58.605469 78.4375 61.351562 79.640625 64.304688 79.863281 C 67.253906 80.085938 70.148438 79.304688 72.574219 77.652344 C 70.078125 76.785156 67.398438 76.234375 64.589844 76.027344 C 61.785156 75.8125 59.050781 75.957031 56.453125 76.445312 Z M 65.285156 81.140625 C 64.929688 81.140625 64.570312 81.128906 64.210938 81.101562 C 60.570312 80.828125 57.210938 79.191406 54.75 76.488281 L 54.03125 75.703125 L 55.066406 75.46875 C 58.117188 74.765625 61.351562 74.535156 64.683594 74.789062 C 68.015625 75.039062 71.179688 75.746094 74.089844 76.894531 L 75.078125 77.28125 L 74.253906 77.953125 C 71.695312 80.027344 68.546875 81.140625 65.285156 81.140625 " fill-opacity="1" fill-rule="nonzero"/><path fill="#ffffff" d="M 66.003906 61.0625 L 65.855469 61.050781 L 61.160156 65.117188 L 60.976562 67.527344 C 60.855469 69.136719 61.621094 70.605469 62.855469 71.460938 L 62.5625 75.402344 C 62.472656 76.589844 63.359375 77.621094 64.546875 77.710938 C 65.730469 77.800781 66.765625 76.910156 66.851562 75.726562 L 67.144531 71.855469 C 68.5625 71.21875 69.59375 69.84375 69.71875 68.183594 L 69.914062 65.605469 C 70.085938 63.269531 68.339844 61.238281 66.003906 61.0625 " fill-opacity="1" fill-rule="nonzero"/><path fill="#000000" d="M 64.707031 78.335938 C 64.640625 78.335938 64.570312 78.335938 64.5 78.332031 C 62.972656 78.214844 61.828125 76.878906 61.941406 75.355469 L 62.230469 71.535156 C 62.253906 71.195312 62.550781 70.9375 62.894531 70.964844 C 63.234375 70.988281 63.492188 71.285156 63.46875 71.628906 L 63.179688 75.449219 C 63.117188 76.289062 63.75 77.03125 64.59375 77.09375 C 65.429688 77.152344 66.171875 76.519531 66.234375 75.679688 L 66.515625 71.921875 C 66.542969 71.582031 66.839844 71.324219 67.179688 71.351562 C 67.523438 71.378906 67.78125 71.675781 67.753906 72.015625 L 67.472656 75.769531 C 67.363281 77.226562 66.144531 78.335938 64.707031 78.335938 " fill-opacity="1" fill-rule="nonzero"/><path fill="#000000" d="M 65.351562 72.863281 C 65.226562 72.863281 65.101562 72.859375 64.972656 72.851562 C 64.632812 72.824219 64.375 72.527344 64.402344 72.183594 C 64.425781 71.84375 64.722656 71.585938 65.066406 71.613281 C 67.132812 71.769531 68.945312 70.210938 69.101562 68.140625 L 69.292969 65.5625 C 69.4375 63.65625 68.085938 61.976562 66.203125 61.710938 L 61.75 65.496094 L 61.597656 67.574219 C 61.484375 69.042969 62.25 70.453125 63.539062 71.160156 C 63.839844 71.324219 63.949219 71.703125 63.785156 72.003906 C 63.617188 72.304688 63.242188 72.414062 62.941406 72.246094 C 61.226562 71.304688 60.210938 69.433594 60.359375 67.480469 L 60.535156 65.148438 C 60.546875 64.980469 60.625 64.828125 60.75 64.71875 L 65.601562 60.589844 C 65.726562 60.484375 65.886719 60.429688 66.050781 60.445312 C 66.125 60.449219 66.195312 60.457031 66.265625 60.464844 C 68.851562 60.773438 70.726562 63.054688 70.53125 65.65625 L 70.335938 68.230469 C 70.140625 70.859375 67.941406 72.863281 65.351562 72.863281 " fill-opacity="1" fill-rule="nonzero"/><path fill="#ffffff" d="M 133.523438 119.503906 C 135.207031 119.503906 136.578125 121.199219 136.363281 122.878906 L 128.492188 183.484375 C 128.382812 184.335938 127.660156 184.972656 126.804688 184.972656 L 126.066406 185.003906 L 85.683594 184.972656 C 84.65625 184.972656 83.859375 184.066406 83.992188 183.046875 L 92.023438 121.207031 C 92.132812 120.355469 92.785156 119.503906 93.644531 119.503906 L 133.523438 119.503906 " fill-opacity="1" fill-rule="nonzero"/><path fill="#ffffff" d="M 97.679688 142.640625 C 97.679688 135.167969 103.734375 129.109375 111.203125 129.109375 C 118.671875 129.109375 124.726562 135.167969 124.726562 142.640625 C 124.726562 150.117188 118.671875 156.175781 111.203125 156.175781 C 103.734375 156.175781 97.679688 150.117188 97.679688 142.640625 " fill-opacity="1" fill-rule="nonzero"/><path fill="#00e7ff" d="M 101.683594 152.484375 C 104.117188 154.78125 107.402344 156.195312 111.015625 156.195312 C 114.628906 156.195312 117.910156 154.78125 120.34375 152.484375 C 117.527344 151.609375 114.363281 151.121094 111.015625 151.121094 C 107.667969 151.121094 104.5 151.609375 101.683594 152.484375 " fill-opacity="1" fill-rule="nonzero"/><path fill="#000000" d="M 102.953125 152.761719 C 105.242188 154.582031 108.066406 155.574219 111.015625 155.574219 C 113.964844 155.574219 116.785156 154.582031 119.074219 152.761719 C 116.527344 152.082031 113.820312 151.742188 111.015625 151.742188 C 108.207031 151.742188 105.503906 152.082031 102.953125 152.761719 Z M 111.015625 156.816406 C 107.375 156.816406 103.90625 155.4375 101.257812 152.9375 C 101.097656 152.785156 101.027344 152.558594 101.078125 152.34375 C 101.128906 152.128906 101.289062 151.957031 101.5 151.890625 C 104.480469 150.96875 107.683594 150.5 111.015625 150.5 C 114.347656 150.5 117.546875 150.96875 120.527344 151.890625 C 120.738281 151.957031 120.898438 152.128906 120.949219 152.34375 C 121 152.558594 120.929688 152.785156 120.769531 152.9375 C 118.121094 155.4375 114.65625 156.816406 111.015625 156.816406 " fill-opacity="1" fill-rule="nonzero"/><path fill="#000000" d="M 115.371094 134.734375 C 114.757812 134.339844 114.046875 134.128906 113.316406 134.128906 L 109.023438 134.128906 C 108.066406 134.128906 107.144531 134.492188 106.441406 135.144531 L 106.207031 135.363281 C 105.089844 136.398438 104.703125 138 105.21875 139.433594 L 106.628906 143.347656 L 115.679688 143.292969 L 116.953125 139.011719 C 117.4375 137.394531 116.792969 135.652344 115.371094 134.734375 " fill-opacity="1" fill-rule="nonzero"/><path fill="#ffffff" d="M 113.136719 136.441406 C 113.117188 136.433594 113.074219 136.417969 113.074219 136.417969 L 106.582031 140.632812 L 106.582031 143.179688 C 106.582031 144.632812 107.261719 145.929688 108.320312 146.769531 L 108.320312 150.644531 C 108.320312 152.175781 109.5625 153.417969 111.09375 153.417969 C 112.628906 153.417969 113.871094 152.175781 113.871094 150.644531 L 113.871094 146.867188 C 115.003906 146.035156 115.742188 144.695312 115.742188 143.179688 L 115.742188 140.480469 C 115.742188 138.683594 114.671875 137.136719 113.136719 136.441406 " fill-opacity="1" fill-rule="nonzero"/><path fill="#000000" d="M 111.164062 148.378906 C 110.820312 148.378906 110.542969 148.101562 110.542969 147.757812 C 110.542969 147.417969 110.820312 147.140625 111.164062 147.140625 C 113.347656 147.140625 115.121094 145.363281 115.121094 143.179688 L 115.121094 140.480469 C 115.121094 138.382812 113.414062 136.675781 111.316406 136.675781 L 107.203125 136.675781 L 107.203125 143.179688 C 107.203125 144.726562 108.113281 146.144531 109.523438 146.785156 C 109.835938 146.929688 109.972656 147.292969 109.832031 147.605469 C 109.691406 147.917969 109.320312 148.054688 109.007812 147.914062 C 107.15625 147.070312 105.960938 145.210938 105.960938 143.179688 L 105.960938 136.054688 C 105.960938 135.710938 106.238281 135.433594 106.582031 135.433594 L 111.316406 135.433594 C 114.097656 135.433594 116.363281 137.699219 116.363281 140.480469 L 116.363281 143.179688 C 116.363281 146.046875 114.03125 148.378906 111.164062 148.378906 " fill-opacity="1" fill-rule="nonzero"/><path fill="#000000" d="M 111.011719 156.796875 C 107.335938 156.796875 103.664062 155.386719 100.882812 152.570312 C 98.214844 149.863281 96.761719 146.285156 96.789062 142.484375 C 96.8125 138.683594 98.316406 135.125 101.019531 132.453125 C 106.339844 127.207031 114.875 126.984375 120.453125 131.945312 C 120.707031 132.171875 120.730469 132.566406 120.503906 132.820312 C 120.273438 133.078125 119.882812 133.097656 119.625 132.871094 C 114.535156 128.34375 106.746094 128.550781 101.894531 133.339844 C 99.425781 135.773438 98.050781 139.023438 98.027344 142.492188 C 98.003906 145.960938 99.332031 149.230469 101.769531 151.699219 C 106.792969 156.792969 115.03125 156.851562 120.125 151.820312 C 122.796875 149.1875 124.199219 145.523438 123.964844 141.777344 C 123.945312 141.4375 124.207031 141.140625 124.546875 141.121094 C 124.890625 141.097656 125.183594 141.359375 125.207031 141.703125 C 125.457031 145.808594 123.925781 149.816406 121 152.707031 C 118.230469 155.433594 114.621094 156.796875 111.011719 156.796875 " fill-opacity="1" fill-rule="nonzero"/><path fill="#000000" d="M 111.09375 154.039062 C 109.222656 154.039062 107.699219 152.515625 107.699219 150.644531 L 107.699219 146.769531 C 107.699219 146.425781 107.976562 146.148438 108.320312 146.148438 C 108.664062 146.148438 108.941406 146.425781 108.941406 146.769531 L 108.941406 150.644531 C 108.941406 151.832031 109.90625 152.796875 111.09375 152.796875 C 112.28125 152.796875 113.25 151.832031 113.25 150.644531 L 113.25 146.964844 C 113.25 146.621094 113.527344 146.34375 113.871094 146.34375 C 114.214844 146.34375 114.488281 146.621094 114.488281 146.964844 L 114.488281 150.644531 C 114.488281 152.515625 112.96875 154.039062 111.09375 154.039062 " fill-opacity="1" fill-rule="nonzero"/><path fill="#ffffff" d="M 296.222656 158.640625 C 297.625 158.640625 298.765625 160.054688 298.585938 161.449219 L 292.03125 211.925781 C 291.941406 212.632812 291.335938 213.164062 290.625 213.164062 L 290.007812 213.1875 L 256.375 213.164062 C 255.523438 213.164062 254.859375 212.410156 254.96875 211.558594 L 261.65625 160.058594 C 261.75 159.347656 262.292969 158.640625 263.007812 158.640625 L 296.222656 158.640625 " fill-opacity="1" fill-rule="nonzero"/><path fill="#ffffff" d="M 267.65625 176.050781 C 268.019531 170.402344 272.890625 166.117188 278.535156 166.480469 C 284.183594 166.84375 288.46875 171.714844 288.105469 177.363281 C 287.746094 183.007812 282.875 187.292969 277.226562 186.929688 C 271.578125 186.570312 267.292969 181.695312 267.65625 176.050781 " fill-opacity="1" fill-rule="nonzero"/><path fill="#000000" d="M 267.65625 176.050781 L 267.660156 176.050781 Z M 277.867188 167.082031 C 275.527344 167.082031 273.296875 167.921875 271.523438 169.480469 C 269.59375 171.175781 268.441406 173.527344 268.273438 176.089844 C 268.109375 178.65625 268.957031 181.132812 270.652344 183.0625 C 272.347656 184.996094 274.695312 186.148438 277.265625 186.3125 C 282.558594 186.65625 287.144531 182.621094 287.484375 177.324219 C 287.824219 172.027344 283.792969 167.441406 278.496094 167.101562 C 278.285156 167.089844 278.074219 167.082031 277.867188 167.082031 Z M 277.886719 187.574219 C 277.652344 187.574219 277.417969 187.566406 277.183594 187.550781 C 271.203125 187.167969 266.652344 181.992188 267.035156 176.011719 C 267.21875 173.117188 268.523438 170.464844 270.703125 168.546875 C 272.882812 166.632812 275.679688 165.679688 278.578125 165.863281 C 284.554688 166.246094 289.109375 171.421875 288.722656 177.402344 C 288.355469 183.144531 283.5625 187.574219 277.886719 187.574219 " fill-opacity="1" fill-rule="nonzero"/><path fill="#ffffff" d="M 275.890625 174.011719 C 275.96875 172.824219 276.992188 171.921875 278.183594 171.996094 C 279.371094 172.074219 280.273438 173.101562 280.195312 174.289062 C 280.121094 175.480469 279.09375 176.378906 277.90625 176.304688 C 276.71875 176.226562 275.816406 175.203125 275.890625 174.011719 " fill-opacity="1" fill-rule="nonzero"/><path fill="#000000" d="M 276.511719 174.050781 C 276.484375 174.460938 276.621094 174.855469 276.890625 175.167969 C 277.160156 175.472656 277.535156 175.65625 277.945312 175.683594 C 278.792969 175.734375 279.523438 175.09375 279.578125 174.246094 C 279.628906 173.402344 278.988281 172.671875 278.140625 172.617188 C 277.734375 172.585938 277.335938 172.726562 277.03125 172.996094 C 276.722656 173.265625 276.539062 173.644531 276.511719 174.050781 Z M 278.046875 176.925781 C 277.988281 176.925781 277.925781 176.925781 277.867188 176.921875 C 277.125 176.875 276.449219 176.542969 275.960938 175.984375 C 275.46875 175.429688 275.226562 174.714844 275.273438 173.972656 C 275.320312 173.230469 275.652344 172.554688 276.210938 172.066406 C 276.765625 171.574219 277.484375 171.328125 278.222656 171.378906 C 279.75 171.476562 280.914062 172.800781 280.816406 174.328125 C 280.769531 175.066406 280.4375 175.746094 279.878906 176.238281 C 279.367188 176.683594 278.722656 176.925781 278.046875 176.925781 " fill-opacity="1" fill-rule="nonzero"/><path fill="#00e7ff" d="M 277.746094 178.820312 C 275.257812 178.660156 273.109375 180.546875 272.949219 183.039062 L 272.785156 185.59375 C 274.105469 186.351562 275.609375 186.828125 277.226562 186.929688 C 278.84375 187.035156 280.398438 186.753906 281.800781 186.171875 L 281.964844 183.617188 C 282.125 181.125 280.238281 178.980469 277.746094 178.820312 " fill-opacity="1" fill-rule="nonzero"/><path fill="#000000" d="M 281.800781 186.175781 L 281.804688 186.175781 Z M 273.433594 185.238281 C 274.621094 185.863281 275.910156 186.222656 277.265625 186.3125 C 278.621094 186.402344 279.945312 186.203125 281.203125 185.738281 L 281.34375 183.574219 C 281.410156 182.539062 281.070312 181.535156 280.382812 180.753906 C 279.695312 179.972656 278.746094 179.507812 277.707031 179.4375 C 276.667969 179.371094 275.667969 179.714844 274.886719 180.402344 C 274.105469 181.089844 273.636719 182.039062 273.570312 183.078125 Z M 277.898438 187.574219 C 277.664062 187.574219 277.425781 187.566406 277.183594 187.550781 C 275.511719 187.441406 273.925781 186.964844 272.476562 186.132812 C 272.273438 186.019531 272.152344 185.789062 272.164062 185.554688 L 272.332031 183 C 272.417969 181.628906 273.035156 180.375 274.066406 179.46875 C 275.09375 178.5625 276.421875 178.113281 277.785156 178.199219 C 279.152344 178.285156 280.40625 178.902344 281.3125 179.933594 C 282.21875 180.964844 282.671875 182.285156 282.582031 183.65625 L 282.417969 186.214844 C 282.402344 186.449219 282.253906 186.65625 282.039062 186.746094 C 280.710938 187.292969 279.324219 187.574219 277.898438 187.574219 " fill-opacity="1" fill-rule="nonzero"/><path fill="#6df2ff" d="M 288.128906 194.28125 L 264.042969 194.28125 C 263.46875 194.28125 263.007812 193.816406 263.007812 193.246094 C 263.007812 192.675781 263.46875 192.210938 264.042969 192.210938 L 288.128906 192.210938 C 288.699219 192.210938 289.164062 192.675781 289.164062 193.246094 C 289.164062 193.816406 288.699219 194.28125 288.128906 194.28125 " fill-opacity="1" fill-rule="nonzero"/><path fill="#6df2ff" d="M 281.183594 200.152344 L 263.15625 200.152344 C 262.585938 200.152344 262.121094 199.691406 262.121094 199.121094 C 262.121094 198.546875 262.585938 198.085938 263.15625 198.085938 L 281.183594 198.085938 C 281.753906 198.085938 282.21875 198.546875 282.21875 199.121094 C 282.21875 199.691406 281.753906 200.152344 281.183594 200.152344 " fill-opacity="1" fill-rule="nonzero"/><path fill="#6df2ff" d="M 286.242188 206.140625 L 262.15625 206.140625 C 261.585938 206.140625 261.125 205.675781 261.125 205.105469 C 261.125 204.535156 261.585938 204.070312 262.15625 204.070312 L 286.242188 204.070312 C 286.816406 204.070312 287.28125 204.535156 287.28125 205.105469 C 287.28125 205.675781 286.816406 206.140625 286.242188 206.140625 " fill-opacity="1" fill-rule="nonzero"/><path fill="#ffffff" d="M 349.242188 88.75 C 350.925781 88.75 352.296875 90.449219 352.078125 92.128906 L 344.207031 152.730469 C 344.097656 153.582031 343.375 154.222656 342.519531 154.222656 L 341.78125 154.25 L 301.398438 154.222656 C 300.371094 154.222656 299.574219 153.316406 299.707031 152.296875 L 307.738281 90.457031 C 307.847656 89.601562 308.503906 88.75 309.359375 88.75 L 349.242188 88.75 " fill-opacity="1" fill-rule="nonzero"/><path fill="#6df2ff" d="M 337.105469 132.625 L 310.269531 132.625 C 309.699219 132.625 309.238281 132.164062 309.238281 131.589844 C 309.238281 131.019531 309.699219 130.554688 310.269531 130.554688 L 337.105469 130.554688 C 337.675781 130.554688 338.140625 131.019531 338.140625 131.589844 C 338.140625 132.164062 337.675781 132.625 337.105469 132.625 " fill-opacity="1" fill-rule="nonzero"/><path fill="#6df2ff" d="M 329.367188 139.171875 L 309.28125 139.171875 C 308.710938 139.171875 308.246094 138.707031 308.246094 138.132812 C 308.246094 137.566406 308.710938 137.101562 309.28125 137.101562 L 329.367188 137.101562 C 329.9375 137.101562 330.402344 137.566406 330.402344 138.132812 C 330.402344 138.707031 329.9375 139.171875 329.367188 139.171875 " fill-opacity="1" fill-rule="nonzero"/><path fill="#6df2ff" d="M 335.003906 145.839844 L 308.171875 145.839844 C 307.601562 145.839844 307.136719 145.375 307.136719 144.800781 C 307.136719 144.230469 307.601562 143.769531 308.171875 143.769531 L 335.003906 143.769531 C 335.578125 143.769531 336.042969 144.230469 336.042969 144.800781 C 336.042969 145.375 335.578125 145.839844 335.003906 145.839844 " fill-opacity="1" fill-rule="nonzero"/><path fill="#ffffff" d="M 321.777344 98.03125 C 316.25 100.914062 313.265625 107.34375 314.949219 113.613281 C 315.71875 116.464844 317.339844 118.859375 319.460938 120.59375 C 319.519531 120.640625 319.578125 120.6875 319.636719 120.730469 L 320.761719 121.539062 C 323.871094 123.527344 327.773438 124.25 331.621094 123.210938 C 338.875 121.261719 343.316406 113.003906 341.214844 106.546875 C 339.578125 101.503906 337.558594 99.554688 333.742188 97.675781 C 327.90625 94.808594 321.777344 98.03125 321.777344 98.03125 " fill-opacity="1" fill-rule="nonzero"/><path fill="#00e7ff" d="M 327.410156 117.765625 C 323.945312 117.585938 320.628906 117.882812 317.609375 118.5625 C 318.171875 119.242188 318.796875 119.859375 319.46875 120.414062 C 319.527344 120.457031 319.585938 120.503906 319.648438 120.546875 L 320.769531 121.355469 C 323.878906 123.34375 327.597656 124.058594 331.445312 123.019531 C 333.671875 122.421875 335.628906 121.230469 337.21875 119.679688 C 334.203125 118.621094 331.003906 117.953125 327.410156 117.765625 " fill-opacity="1" fill-rule="nonzero"/><path fill="#000000" d="M 318.789062 118.953125 C 319.132812 119.300781 319.488281 119.628906 319.863281 119.933594 C 319.90625 119.972656 319.957031 120.011719 320.007812 120.046875 L 321.128906 120.855469 C 324.222656 122.828125 327.742188 123.375 331.28125 122.421875 C 332.984375 121.96875 334.601562 121.109375 336.011719 119.929688 C 333.226562 119.050781 330.390625 118.542969 327.375 118.386719 C 324.425781 118.230469 321.542969 118.421875 318.789062 118.953125 Z M 327.957031 124.109375 C 325.324219 124.109375 322.738281 123.355469 320.433594 121.882812 L 319.28125 121.054688 C 319.210938 121 319.144531 120.949219 319.074219 120.894531 C 318.371094 120.3125 317.714844 119.664062 317.132812 118.960938 C 316.992188 118.796875 316.953125 118.566406 317.023438 118.363281 C 317.089844 118.160156 317.261719 118.007812 317.472656 117.957031 C 320.648438 117.242188 324 116.96875 327.441406 117.148438 C 330.933594 117.328125 334.199219 117.964844 337.421875 119.09375 C 337.628906 119.164062 337.777344 119.332031 337.820312 119.542969 C 337.871094 119.753906 337.804688 119.972656 337.652344 120.121094 C 335.917969 121.8125 333.828125 123.027344 331.605469 123.621094 C 330.394531 123.949219 329.167969 124.109375 327.957031 124.109375 " fill-opacity="1" fill-rule="nonzero"/><path fill="#000000" d="M 336.78125 109.441406 C 335.671875 104.566406 333.210938 98.125 328.007812 98.660156 C 323.015625 99.171875 320.425781 104.503906 319.15625 108.667969 C 318.386719 111.203125 320.226562 113.785156 322.871094 113.921875 L 332.574219 114.425781 C 335.28125 114.566406 337.382812 112.085938 336.78125 109.441406 " fill-opacity="1" fill-rule="nonzero"/><path fill="#ffffff" d="M 332.765625 103.652344 C 332.765625 103.640625 332.761719 103.617188 332.761719 103.617188 L 323.953125 103.140625 C 323.953125 103.140625 323.949219 103.15625 323.945312 103.160156 C 323.808594 103.59375 323.722656 104.054688 323.699219 104.535156 L 323.566406 107.113281 C 323.472656 108.839844 324.214844 110.398438 325.40625 111.34375 L 325.054688 118.078125 C 324.984375 119.417969 326.011719 120.558594 327.355469 120.628906 C 328.691406 120.699219 329.832031 119.671875 329.902344 118.328125 L 330.246094 111.695312 C 331.609375 110.902344 332.566406 109.375 332.660156 107.585938 L 332.8125 104.675781 C 332.832031 104.328125 332.816406 103.984375 332.765625 103.652344 " fill-opacity="1" fill-rule="nonzero"/><path fill="#000000" d="M 327.484375 121.25 C 327.433594 121.25 327.378906 121.25 327.324219 121.246094 C 325.644531 121.160156 324.347656 119.722656 324.433594 118.042969 L 324.773438 111.511719 C 324.792969 111.167969 325.089844 110.910156 325.425781 110.921875 C 325.769531 110.941406 326.03125 111.234375 326.015625 111.578125 L 325.675781 118.109375 C 325.625 119.105469 326.394531 119.957031 327.386719 120.007812 C 327.871094 120.03125 328.332031 119.867188 328.691406 119.546875 C 329.046875 119.222656 329.261719 118.777344 329.285156 118.296875 L 329.625 111.738281 C 329.644531 111.398438 329.9375 111.136719 330.277344 111.152344 C 330.621094 111.167969 330.882812 111.460938 330.863281 111.804688 L 330.527344 118.359375 C 330.484375 119.171875 330.128906 119.921875 329.523438 120.464844 C 328.957031 120.976562 328.238281 121.25 327.484375 121.25 " fill-opacity="1" fill-rule="nonzero"/><path fill="#000000" d="M 328.144531 109.742188 C 328.109375 109.742188 328.066406 109.742188 328.03125 109.742188 C 327.363281 109.710938 326.734375 109.40625 326.304688 108.90625 C 326.085938 108.644531 326.117188 108.25 326.375 108.03125 C 326.636719 107.804688 327.027344 107.835938 327.25 108.097656 C 327.457031 108.339844 327.761719 108.484375 328.085938 108.503906 C 328.433594 108.511719 328.753906 108.390625 329 108.148438 C 329.246094 107.90625 329.636719 107.914062 329.878906 108.160156 C 330.117188 108.402344 330.113281 108.796875 329.867188 109.035156 C 329.394531 109.496094 328.789062 109.742188 328.144531 109.742188 " fill-opacity="1" fill-rule="nonzero"/><path fill="#000000" d="M 328.082031 112.914062 C 327.996094 112.914062 327.914062 112.910156 327.824219 112.90625 C 327.480469 112.890625 327.21875 112.597656 327.234375 112.253906 C 327.253906 111.914062 327.546875 111.652344 327.890625 111.667969 C 328.925781 111.71875 329.933594 111.328125 330.714844 110.566406 C 331.507812 109.785156 331.980469 108.714844 332.039062 107.554688 L 332.191406 104.644531 C 332.3125 102.355469 330.714844 100.402344 328.632812 100.296875 C 327.550781 100.234375 326.507812 100.648438 325.699219 101.441406 C 324.871094 102.25 324.382812 103.359375 324.320312 104.566406 L 324.183594 107.144531 C 324.097656 108.84375 324.929688 110.4375 326.300781 111.207031 C 326.601562 111.375 326.707031 111.753906 326.539062 112.050781 C 326.371094 112.351562 325.996094 112.457031 325.695312 112.289062 C 323.910156 111.289062 322.835938 109.246094 322.945312 107.082031 L 323.082031 104.503906 C 323.160156 102.984375 323.78125 101.582031 324.828125 100.554688 C 325.894531 99.511719 327.265625 98.980469 328.699219 99.054688 C 331.460938 99.199219 333.585938 101.734375 333.429688 104.707031 L 333.28125 107.617188 C 333.203125 109.089844 332.601562 110.453125 331.582031 111.453125 C 330.613281 112.398438 329.378906 112.914062 328.082031 112.914062 " fill-opacity="1" fill-rule="nonzero"/><path fill="#000000" d="M 327.949219 124.085938 C 321.777344 124.085938 316.089844 120.011719 314.332031 113.785156 C 312.210938 106.28125 316.59375 98.449219 324.101562 96.328125 C 327.734375 95.300781 331.554688 95.753906 334.851562 97.597656 C 338.148438 99.445312 340.527344 102.460938 341.558594 106.097656 C 342.261719 108.597656 342.269531 111.230469 341.574219 113.71875 C 341.484375 114.050781 341.140625 114.242188 340.8125 114.152344 C 340.480469 114.058594 340.289062 113.71875 340.378906 113.386719 C 341.011719 111.121094 341.003906 108.714844 340.359375 106.433594 C 339.425781 103.117188 337.25 100.363281 334.246094 98.679688 C 331.238281 96.996094 327.753906 96.589844 324.4375 97.523438 C 317.589844 99.457031 313.59375 106.601562 315.527344 113.449219 C 317.460938 120.296875 324.601562 124.289062 331.449219 122.355469 C 334.410156 121.523438 336.976562 119.65625 338.679688 117.097656 C 338.867188 116.8125 339.253906 116.734375 339.539062 116.925781 C 339.828125 117.113281 339.902344 117.5 339.714844 117.785156 C 337.847656 120.589844 335.03125 122.636719 331.789062 123.554688 C 330.507812 123.914062 329.21875 124.085938 327.949219 124.085938 " fill-opacity="1" fill-rule="nonzero"/><path fill="#00e7ff" d="M 121.167969 97.046875 C 115.039062 98.726562 108.710938 95.113281 107.03125 88.980469 C 105.355469 82.847656 108.960938 76.511719 115.089844 74.832031 C 121.222656 73.15625 127.550781 76.765625 129.230469 82.898438 C 130.90625 89.035156 127.296875 95.367188 121.167969 97.046875 Z M 140.824219 81.265625 L 140.039062 78.390625 C 139.925781 77.972656 139.53125 77.683594 139.09375 77.707031 L 135.574219 77.867188 C 135.207031 77.882812 134.863281 77.675781 134.695312 77.347656 C 134.402344 76.78125 134.082031 76.230469 133.738281 75.703125 C 133.535156 75.394531 133.523438 74.996094 133.71875 74.6875 L 135.585938 71.695312 C 135.816406 71.324219 135.757812 70.84375 135.449219 70.535156 L 133.332031 68.441406 C 133.023438 68.132812 132.539062 68.082031 132.171875 68.316406 L 129.199219 70.21875 C 128.890625 70.417969 128.492188 70.410156 128.183594 70.214844 C 127.648438 69.871094 127.097656 69.554688 126.53125 69.273438 C 126.203125 69.105469 125.996094 68.769531 126.007812 68.398438 L 126.128906 64.867188 C 126.144531 64.433594 125.855469 64.042969 125.433594 63.933594 L 122.554688 63.179688 C 122.132812 63.066406 121.6875 63.265625 121.488281 63.652344 L 119.867188 66.78125 C 119.695312 67.109375 119.347656 67.300781 118.980469 67.285156 C 118.351562 67.257812 117.71875 67.261719 117.082031 67.296875 C 116.710938 67.320312 116.359375 67.132812 116.1875 66.804688 L 114.53125 63.691406 C 114.324219 63.304688 113.878906 63.113281 113.460938 63.230469 L 110.589844 64.015625 C 110.167969 64.128906 109.882812 64.523438 109.902344 64.957031 L 110.0625 68.484375 C 110.078125 68.855469 109.875 69.195312 109.542969 69.363281 C 108.976562 69.65625 108.429688 69.976562 107.902344 70.320312 C 107.59375 70.523438 107.195312 70.535156 106.882812 70.339844 L 103.894531 68.472656 C 103.527344 68.242188 103.042969 68.296875 102.738281 68.609375 L 100.644531 70.726562 C 100.335938 71.039062 100.285156 71.519531 100.519531 71.886719 L 102.421875 74.863281 C 102.621094 75.171875 102.613281 75.570312 102.414062 75.878906 C 102.074219 76.414062 101.761719 76.964844 101.472656 77.53125 C 101.308594 77.863281 100.972656 78.070312 100.601562 78.058594 L 97.074219 77.933594 C 96.640625 77.917969 96.25 78.210938 96.140625 78.632812 L 95.386719 81.515625 C 95.273438 81.9375 95.472656 82.378906 95.859375 82.582031 L 98.984375 84.203125 C 99.3125 84.371094 99.503906 84.71875 99.488281 85.089844 C 99.460938 85.71875 99.464844 86.355469 99.503906 86.992188 C 99.523438 87.359375 99.335938 87.710938 99.011719 87.882812 L 95.898438 89.542969 C 95.511719 89.75 95.320312 90.191406 95.433594 90.613281 L 96.222656 93.488281 C 96.335938 93.910156 96.726562 94.191406 97.164062 94.175781 L 100.6875 94.015625 C 101.054688 93.996094 101.394531 94.203125 101.566406 94.53125 C 101.859375 95.101562 102.175781 95.648438 102.523438 96.175781 C 102.722656 96.484375 102.738281 96.882812 102.542969 97.195312 L 100.675781 100.1875 C 100.445312 100.554688 100.5 101.035156 100.8125 101.34375 L 102.925781 103.4375 C 103.238281 103.746094 103.71875 103.796875 104.085938 103.5625 L 107.058594 101.660156 C 107.371094 101.460938 107.765625 101.46875 108.078125 101.667969 C 108.613281 102.007812 109.164062 102.320312 109.726562 102.605469 C 110.058594 102.773438 110.265625 103.109375 110.253906 103.480469 L 110.132812 107.011719 C 110.117188 107.449219 110.40625 107.835938 110.828125 107.945312 L 113.707031 108.699219 C 114.128906 108.8125 114.570312 108.617188 114.773438 108.226562 L 116.394531 105.097656 C 116.5625 104.769531 116.910156 104.578125 117.28125 104.597656 C 117.910156 104.625 118.542969 104.621094 119.179688 104.582031 C 119.550781 104.558594 119.898438 104.75 120.074219 105.074219 L 121.730469 108.191406 C 121.933594 108.574219 122.382812 108.769531 122.800781 108.652344 L 125.671875 107.863281 C 126.09375 107.75 126.378906 107.359375 126.359375 106.921875 L 126.199219 103.394531 C 126.183594 103.027344 126.386719 102.6875 126.714844 102.515625 C 127.285156 102.222656 127.832031 101.90625 128.359375 101.558594 C 128.667969 101.359375 129.0625 101.34375 129.378906 101.539062 L 132.363281 103.40625 C 132.734375 103.636719 133.214844 103.582031 133.523438 103.269531 L 135.617188 101.152344 C 135.925781 100.84375 135.976562 100.363281 135.742188 99.996094 L 133.835938 97.019531 C 133.640625 96.707031 133.648438 96.308594 133.847656 96 C 134.1875 95.464844 134.5 94.914062 134.785156 94.347656 C 134.953125 94.019531 135.289062 93.8125 135.65625 93.824219 L 139.183594 93.945312 C 139.621094 93.960938 140.007812 93.671875 140.121094 93.25 L 140.875 90.363281 C 140.988281 89.945312 140.789062 89.5 140.402344 89.300781 L 137.273438 87.679688 C 136.945312 87.507812 136.757812 87.160156 136.773438 86.792969 C 136.800781 86.160156 136.796875 85.527344 136.757812 84.890625 C 136.738281 84.519531 136.925781 84.167969 137.25 83.996094 L 140.363281 82.335938 C 140.75 82.132812 140.941406 81.6875 140.824219 81.265625 " fill-opacity="1" fill-rule="nonzero"/><path fill="#ffffff" d="M 290.945312 75.140625 C 285.175781 76.71875 279.21875 73.320312 277.640625 67.550781 C 276.0625 61.777344 279.457031 55.816406 285.226562 54.234375 C 290.992188 52.65625 296.949219 56.054688 298.527344 61.828125 C 300.109375 67.597656 296.714844 73.558594 290.945312 75.140625 Z M 309.441406 60.289062 L 308.703125 57.585938 C 308.59375 57.1875 308.226562 56.921875 307.816406 56.9375 L 304.503906 57.089844 C 304.152344 57.105469 303.832031 56.910156 303.671875 56.601562 C 303.398438 56.066406 303.097656 55.550781 302.773438 55.054688 C 302.585938 54.765625 302.570312 54.390625 302.757812 54.097656 L 304.511719 51.28125 C 304.730469 50.933594 304.675781 50.480469 304.382812 50.191406 L 302.394531 48.21875 C 302.101562 47.929688 301.648438 47.882812 301.300781 48.105469 L 298.503906 49.894531 C 298.210938 50.082031 297.835938 50.074219 297.542969 49.886719 C 297.042969 49.566406 296.523438 49.269531 295.996094 49.003906 C 295.683594 48.847656 295.484375 48.527344 295.496094 48.179688 L 295.609375 44.859375 C 295.625 44.449219 295.355469 44.082031 294.957031 43.976562 L 292.246094 43.269531 C 291.851562 43.164062 291.433594 43.351562 291.242188 43.714844 L 289.71875 46.660156 C 289.558594 46.96875 289.230469 47.148438 288.886719 47.128906 C 288.292969 47.105469 287.699219 47.109375 287.097656 47.144531 C 286.75 47.164062 286.421875 46.988281 286.257812 46.679688 L 284.695312 43.75 C 284.503906 43.386719 284.085938 43.207031 283.6875 43.316406 L 280.988281 44.054688 C 280.59375 44.164062 280.324219 44.53125 280.339844 44.941406 L 280.492188 48.261719 C 280.507812 48.609375 280.316406 48.925781 280.003906 49.089844 C 279.472656 49.363281 278.957031 49.664062 278.460938 49.988281 C 278.167969 50.179688 277.796875 50.191406 277.5 50.003906 L 274.691406 48.25 C 274.339844 48.035156 273.886719 48.085938 273.597656 48.378906 L 271.628906 50.371094 C 271.339844 50.664062 271.292969 51.113281 271.511719 51.460938 L 273.304688 54.261719 C 273.492188 54.554688 273.484375 54.925781 273.296875 55.21875 C 272.976562 55.722656 272.679688 56.242188 272.410156 56.773438 C 272.253906 57.085938 271.933594 57.28125 271.589844 57.269531 L 268.269531 57.15625 C 267.859375 57.140625 267.496094 57.414062 267.390625 57.8125 L 266.683594 60.523438 C 266.574219 60.921875 266.761719 61.335938 267.125 61.527344 L 270.070312 63.050781 C 270.378906 63.210938 270.554688 63.539062 270.542969 63.886719 C 270.515625 64.480469 270.519531 65.074219 270.554688 65.675781 C 270.578125 66.023438 270.398438 66.355469 270.09375 66.515625 L 267.164062 68.078125 C 266.796875 68.269531 266.617188 68.691406 266.726562 69.085938 L 267.46875 71.789062 C 267.578125 72.1875 267.945312 72.457031 268.355469 72.4375 L 271.667969 72.285156 C 272.015625 72.269531 272.335938 72.464844 272.496094 72.773438 C 272.769531 73.308594 273.074219 73.824219 273.398438 74.320312 C 273.585938 74.613281 273.597656 74.984375 273.414062 75.277344 L 271.660156 78.09375 C 271.441406 78.441406 271.496094 78.894531 271.785156 79.183594 L 273.777344 81.15625 C 274.070312 81.445312 274.523438 81.492188 274.871094 81.269531 L 277.667969 79.480469 C 277.960938 79.292969 278.332031 79.300781 278.625 79.488281 C 279.128906 79.808594 279.648438 80.105469 280.179688 80.375 C 280.488281 80.53125 280.683594 80.847656 280.671875 81.195312 L 280.558594 84.515625 C 280.542969 84.925781 280.816406 85.292969 281.214844 85.398438 L 283.925781 86.105469 C 284.320312 86.210938 284.738281 86.027344 284.925781 85.660156 L 286.449219 82.71875 C 286.609375 82.410156 286.9375 82.230469 287.285156 82.246094 C 287.878906 82.269531 288.472656 82.265625 289.074219 82.230469 C 289.421875 82.210938 289.75 82.386719 289.914062 82.695312 L 291.472656 85.625 C 291.667969 85.988281 292.085938 86.167969 292.480469 86.058594 L 295.183594 85.320312 C 295.578125 85.210938 295.847656 84.84375 295.828125 84.433594 L 295.675781 81.113281 C 295.664062 80.765625 295.855469 80.449219 296.167969 80.285156 C 296.699219 80.011719 297.214844 79.710938 297.710938 79.386719 C 298.003906 79.195312 298.375 79.183594 298.667969 79.371094 L 301.480469 81.125 C 301.828125 81.34375 302.28125 81.289062 302.570312 80.996094 L 304.539062 79.003906 C 304.832031 78.710938 304.878906 78.261719 304.65625 77.914062 L 302.867188 75.113281 C 302.679688 74.820312 302.6875 74.449219 302.875 74.15625 C 303.195312 73.652344 303.488281 73.132812 303.761719 72.601562 C 303.917969 72.289062 304.234375 72.09375 304.578125 72.105469 L 307.898438 72.21875 C 308.308594 72.234375 308.675781 71.964844 308.777344 71.5625 L 309.488281 68.851562 C 309.59375 68.453125 309.410156 68.039062 309.042969 67.847656 L 306.101562 66.324219 C 305.792969 66.164062 305.613281 65.835938 305.628906 65.488281 C 305.65625 64.898438 305.652344 64.300781 305.617188 63.699219 C 305.59375 63.351562 305.769531 63.023438 306.078125 62.859375 L 309.007812 61.296875 C 309.371094 61.105469 309.550781 60.683594 309.441406 60.289062 " fill-opacity="1" fill-rule="nonzero"/><path fill="#00e7ff" d="M 154.003906 49.847656 C 147.003906 53.71875 138.195312 51.171875 134.328125 44.171875 C 130.457031 37.164062 132.996094 28.351562 139.996094 24.484375 C 146.992188 20.617188 155.800781 23.160156 159.671875 30.164062 C 163.539062 37.164062 161 45.980469 154.003906 49.847656 Z M 173.277344 24.566406 L 171.652344 21.621094 C 171.332031 21.042969 170.652344 20.761719 170.015625 20.945312 L 166.089844 22.085938 C 165.566406 22.238281 164.996094 22.082031 164.640625 21.667969 C 164.160156 21.125 163.65625 20.597656 163.136719 20.101562 C 162.742188 19.730469 162.609375 19.15625 162.78125 18.644531 L 164.066406 14.761719 C 164.277344 14.132812 164.023438 13.445312 163.453125 13.101562 L 160.578125 11.367188 C 160.007812 11.023438 159.28125 11.121094 158.820312 11.597656 L 155.988281 14.554688 C 155.613281 14.949219 155.046875 15.097656 154.53125 14.921875 C 153.84375 14.691406 153.152344 14.492188 152.449219 14.320312 C 151.921875 14.195312 151.519531 13.769531 151.410156 13.238281 L 150.582031 9.21875 C 150.449219 8.570312 149.882812 8.101562 149.222656 8.089844 L 145.863281 8.027344 C 145.199219 8.011719 144.617188 8.460938 144.460938 9.105469 L 143.488281 13.074219 C 143.359375 13.601562 142.941406 14.015625 142.40625 14.121094 C 141.703125 14.261719 141 14.4375 140.304688 14.648438 C 139.78125 14.804688 139.21875 14.636719 138.855469 14.226562 L 136.140625 11.164062 C 135.699219 10.671875 134.976562 10.546875 134.394531 10.867188 L 131.453125 12.492188 C 130.875 12.8125 130.59375 13.492188 130.777344 14.128906 L 131.921875 18.0625 C 132.074219 18.582031 131.917969 19.148438 131.507812 19.511719 C 130.960938 19.988281 130.4375 20.488281 129.941406 21.011719 C 129.570312 21.40625 128.996094 21.542969 128.480469 21.371094 L 124.605469 20.078125 C 123.976562 19.871094 123.285156 20.125 122.945312 20.695312 L 121.210938 23.574219 C 120.867188 24.140625 120.964844 24.867188 121.441406 25.324219 L 124.402344 28.164062 C 124.792969 28.539062 124.941406 29.109375 124.765625 29.621094 C 124.535156 30.308594 124.335938 31 124.167969 31.703125 C 124.039062 32.234375 123.613281 32.636719 123.078125 32.746094 L 119.070312 33.570312 C 118.421875 33.703125 117.953125 34.269531 117.9375 34.933594 L 117.875 38.292969 C 117.863281 38.953125 118.3125 39.539062 118.957031 39.695312 L 122.925781 40.671875 C 123.449219 40.800781 123.863281 41.21875 123.96875 41.75 C 124.109375 42.457031 124.289062 43.160156 124.496094 43.859375 C 124.652344 44.378906 124.484375 44.945312 124.078125 45.308594 L 121.019531 48.023438 C 120.523438 48.464844 120.398438 49.191406 120.71875 49.769531 L 122.347656 52.710938 C 122.667969 53.292969 123.34375 53.574219 123.980469 53.386719 L 127.910156 52.246094 C 128.433594 52.09375 129 52.25 129.359375 52.660156 C 129.835938 53.210938 130.339844 53.734375 130.859375 54.230469 C 131.253906 54.601562 131.386719 55.175781 131.21875 55.6875 L 129.929688 59.570312 C 129.722656 60.199219 129.976562 60.890625 130.542969 61.230469 L 133.421875 62.96875 C 133.988281 63.308594 134.714844 63.210938 135.175781 62.734375 L 138.007812 59.777344 C 138.382812 59.382812 138.953125 59.238281 139.46875 59.410156 C 140.152344 59.640625 140.847656 59.84375 141.546875 60.011719 C 142.078125 60.140625 142.480469 60.566406 142.585938 61.097656 L 143.414062 65.113281 C 143.546875 65.761719 144.113281 66.230469 144.773438 66.246094 L 148.132812 66.304688 C 148.796875 66.320312 149.378906 65.871094 149.535156 65.226562 L 150.507812 61.257812 C 150.636719 60.730469 151.058594 60.316406 151.589844 60.210938 C 152.292969 60.070312 152.996094 59.894531 153.691406 59.683594 C 154.214844 59.53125 154.777344 59.699219 155.140625 60.105469 L 157.859375 63.164062 C 158.300781 63.660156 159.023438 63.785156 159.601562 63.464844 L 162.542969 61.839844 C 163.121094 61.519531 163.402344 60.839844 163.21875 60.207031 L 162.074219 56.273438 C 161.921875 55.75 162.078125 55.179688 162.488281 54.824219 C 163.039062 54.34375 163.5625 53.84375 164.054688 53.320312 C 164.429688 52.925781 165 52.792969 165.515625 52.964844 L 169.394531 54.25 C 170.023438 54.460938 170.710938 54.207031 171.054688 53.636719 L 172.789062 50.761719 C 173.128906 50.195312 173.03125 49.464844 172.554688 49.007812 L 169.597656 46.171875 C 169.207031 45.792969 169.058594 45.226562 169.230469 44.710938 C 169.460938 44.027344 169.664062 43.332031 169.832031 42.628906 C 169.957031 42.101562 170.386719 41.699219 170.917969 41.585938 L 174.929688 40.761719 C 175.574219 40.628906 176.046875 40.0625 176.058594 39.402344 L 176.121094 36.039062 C 176.132812 35.378906 175.683594 34.796875 175.042969 34.636719 L 171.074219 33.660156 C 170.546875 33.53125 170.132812 33.113281 170.027344 32.582031 C 169.886719 31.875 169.710938 31.171875 169.5 30.472656 C 169.34375 29.953125 169.511719 29.386719 169.921875 29.027344 L 172.980469 26.304688 C 173.472656 25.867188 173.597656 25.144531 173.277344 24.566406 " fill-opacity="1" fill-rule="nonzero"/><path fill="#00e7ff" d="M 257.039062 30.9375 C 257.039062 38.078125 251.25 43.871094 244.109375 43.871094 C 236.964844 43.871094 231.175781 38.078125 231.175781 30.9375 C 231.175781 23.792969 236.964844 18.003906 244.109375 18.003906 C 251.25 18.003906 257.039062 23.792969 257.039062 30.9375 " fill-opacity="1" fill-rule="nonzero"/><path fill="#ffffff" d="M 249.523438 29.878906 L 242.597656 25.183594 C 241.75 24.609375 240.601562 25.214844 240.601562 26.242188 L 240.601562 35.628906 C 240.601562 36.65625 241.75 37.261719 242.597656 36.6875 L 249.523438 31.992188 C 250.273438 31.484375 250.273438 30.386719 249.523438 29.878906 " fill-opacity="1" fill-rule="nonzero"/><path fill="#ffffff" d="M 151.792969 94.917969 C 151.792969 94.222656 152.121094 93.5625 152.679688 93.144531 L 204.414062 54.6875 C 206.632812 53.007812 209.691406 53 211.921875 54.667969 L 261.480469 93.203125 C 262.035156 93.625 262.359375 94.28125 262.359375 94.972656 L 252.335938 171.90625 C 252.171875 173.164062 251.101562 174.105469 249.832031 174.105469 L 145.367188 174.050781 C 143.308594 174.050781 141.71875 172.238281 141.984375 170.195312 L 151.792969 94.917969 " fill-opacity="1" fill-rule="nonzero"/><path fill="#000000" d="M 208.179688 54.046875 C 206.984375 54.046875 205.785156 54.425781 204.789062 55.179688 L 153.050781 93.640625 C 152.652344 93.941406 152.414062 94.417969 152.414062 94.917969 C 152.414062 94.945312 152.410156 94.972656 152.410156 95 L 142.597656 170.277344 C 142.496094 171.074219 142.738281 171.875 143.269531 172.476562 C 143.800781 173.078125 144.5625 173.425781 145.367188 173.429688 L 249.835938 173.480469 C 250.789062 173.480469 251.597656 172.773438 251.71875 171.828125 L 261.742188 94.9375 C 261.726562 94.453125 261.496094 93.992188 261.105469 93.699219 L 211.539062 55.15625 C 210.550781 54.417969 209.363281 54.046875 208.179688 54.046875 Z M 249.835938 174.722656 L 145.367188 174.671875 C 144.207031 174.667969 143.101562 174.167969 142.335938 173.296875 C 141.570312 172.425781 141.21875 171.265625 141.371094 170.113281 L 151.171875 94.875 C 151.1875 94.003906 151.609375 93.171875 152.308594 92.648438 L 204.042969 54.1875 C 206.464844 52.355469 209.859375 52.347656 212.289062 54.171875 L 261.863281 92.714844 C 262.5625 93.242188 262.980469 94.089844 262.980469 94.972656 C 262.980469 95 262.980469 95.027344 262.976562 95.054688 L 252.953125 171.988281 C 252.75 173.546875 251.410156 174.722656 249.835938 174.722656 " fill-opacity="1" fill-rule="nonzero"/><path fill="#aef8ff" d="M 247.621094 159.359375 L 150.203125 159.425781 L 161.597656 72.417969 C 161.597656 71.5 162.339844 70.757812 163.257812 70.757812 L 257.886719 70.808594 C 258.800781 70.808594 259.542969 71.550781 259.542969 72.46875 L 247.621094 159.359375 " fill-opacity="1" fill-rule="nonzero"/><path fill="#000000" d="M 163.253906 71.378906 C 162.980469 71.378906 162.71875 71.488281 162.519531 71.683594 C 162.324219 71.878906 162.21875 72.140625 162.214844 72.417969 C 162.214844 72.445312 162.214844 72.472656 162.214844 72.5 L 150.910156 158.800781 L 247.082031 158.738281 L 258.921875 72.433594 C 258.902344 71.875 258.445312 71.429688 257.882812 71.429688 Z M 247.621094 159.359375 L 247.625 159.359375 Z M 150.203125 160.046875 C 150.023438 160.046875 149.855469 159.96875 149.734375 159.832031 C 149.617188 159.699219 149.5625 159.519531 149.585938 159.34375 L 160.976562 72.375 C 160.988281 71.78125 161.226562 71.226562 161.644531 70.804688 C 162.074219 70.378906 162.648438 70.140625 163.253906 70.140625 C 163.253906 70.140625 163.253906 70.140625 163.257812 70.140625 L 257.882812 70.1875 C 259.144531 70.1875 260.164062 71.210938 260.164062 72.46875 C 260.164062 72.496094 260.160156 72.523438 260.15625 72.554688 L 248.238281 159.441406 C 248.191406 159.75 247.933594 159.976562 247.621094 159.976562 L 150.203125 160.046875 " fill-opacity="1" fill-rule="nonzero"/><path fill="#ffffff" d="M 240.820312 87.652344 L 173.300781 87.652344 C 172.839844 87.652344 172.46875 87.28125 172.46875 86.824219 L 172.46875 83.15625 C 172.46875 82.699219 172.839844 82.328125 173.300781 82.328125 L 240.820312 82.328125 C 241.277344 82.328125 241.644531 82.699219 241.644531 83.15625 L 241.644531 86.824219 C 241.644531 87.28125 241.277344 87.652344 240.820312 87.652344 " fill-opacity="1" fill-rule="nonzero"/><path fill="#ffffff" d="M 216.164062 99.964844 L 171.121094 99.964844 C 170.664062 99.964844 170.292969 99.59375 170.292969 99.136719 L 170.292969 95.46875 C 170.292969 95.011719 170.664062 94.640625 171.121094 94.640625 L 216.164062 94.640625 C 216.621094 94.640625 216.992188 95.011719 216.992188 95.46875 L 216.992188 99.136719 C 216.992188 99.59375 216.621094 99.964844 216.164062 99.964844 " fill-opacity="1" fill-rule="nonzero"/><path fill="#ffffff" d="M 261.714844 99.261719 C 261.960938 97.40625 259.894531 96.136719 258.347656 97.191406 L 205.085938 133.71875 C 204.933594 133.8125 204.773438 133.90625 204.609375 133.984375 C 202.074219 135.222656 199.695312 135.699219 197.589844 134.601562 C 197.027344 134.308594 196.53125 133.898438 196.105469 133.4375 L 152.378906 93.949219 C 152.324219 93.886719 152.238281 93.859375 152.152344 93.875 C 152.070312 93.890625 152 93.953125 151.972656 94.03125 L 141.367188 171.589844 C 141.191406 172.890625 142.203125 174.046875 143.511719 174.046875 L 249.917969 173.980469 C 251.003906 173.980469 251.921875 173.175781 252.0625 172.101562 L 261.714844 99.261719 " fill-opacity="1" fill-rule="nonzero"/><path fill="#000000" d="M 152.484375 94.878906 L 141.984375 171.675781 C 141.921875 172.113281 142.058594 172.5625 142.347656 172.898438 C 142.644531 173.234375 143.066406 173.425781 143.511719 173.425781 L 249.917969 173.359375 C 250.691406 173.359375 251.347656 172.78125 251.449219 172.015625 L 261.097656 99.179688 C 261.179688 98.5625 260.910156 97.992188 260.378906 97.664062 C 259.84375 97.335938 259.21875 97.351562 258.699219 97.703125 L 205.4375 134.226562 C 205.238281 134.351562 205.0625 134.453125 204.878906 134.539062 C 201.800781 136.046875 199.390625 136.242188 197.300781 135.152344 C 196.726562 134.851562 196.175781 134.421875 195.667969 133.878906 Z M 143.511719 174.667969 C 142.707031 174.667969 141.941406 174.320312 141.414062 173.714844 C 140.886719 173.109375 140.644531 172.304688 140.753906 171.503906 L 151.359375 93.949219 C 151.363281 93.902344 151.375 93.863281 151.386719 93.820312 C 151.488281 93.535156 151.738281 93.324219 152.03125 93.265625 C 152.3125 93.207031 152.609375 93.296875 152.8125 93.5 L 196.519531 132.976562 C 196.53125 132.988281 196.550781 133 196.558594 133.015625 C 196.976562 133.464844 197.417969 133.8125 197.875 134.050781 C 199.585938 134.941406 201.636719 134.746094 204.335938 133.425781 C 204.480469 133.351562 204.625 133.273438 204.765625 133.1875 L 258 96.679688 C 258.921875 96.050781 260.082031 96.023438 261.027344 96.609375 C 261.976562 97.191406 262.476562 98.242188 262.328125 99.34375 L 252.679688 172.183594 C 252.496094 173.558594 251.308594 174.601562 249.921875 174.601562 L 143.511719 174.667969 " fill-opacity="1" fill-rule="nonzero"/><path fill="#00e7ff" d="M 243.011719 164.972656 C 242.835938 164.972656 242.664062 164.898438 242.542969 164.757812 L 216.65625 134.828125 C 216.433594 134.570312 216.460938 134.175781 216.71875 133.953125 C 216.980469 133.730469 217.371094 133.757812 217.597656 134.015625 L 243.480469 163.945312 C 243.703125 164.203125 243.675781 164.597656 243.417969 164.820312 C 243.300781 164.921875 243.15625 164.972656 243.011719 164.972656 " fill-opacity="1" fill-rule="nonzero"/><path fill="#00e7ff" d="M 152.957031 164.972656 C 152.800781 164.972656 152.640625 164.914062 152.519531 164.796875 C 152.277344 164.554688 152.273438 164.160156 152.511719 163.917969 L 182.441406 133.449219 C 182.683594 133.203125 183.074219 133.199219 183.320312 133.4375 C 183.5625 133.679688 183.566406 134.074219 183.328125 134.316406 L 153.398438 164.785156 C 153.277344 164.910156 153.117188 164.972656 152.957031 164.972656 " fill-opacity="1" fill-rule="nonzero"/><path fill="#00e7ff" d="M 46.308594 166.824219 C 39.675781 169.886719 34.292969 175.671875 30.890625 182.996094 C 22.210938 201.691406 -0.00390625 256.234375 15.554688 295.828125 C 34.613281 344.320312 163.179688 333.050781 195.082031 309.320312 C 203.183594 303.292969 235.246094 264.367188 188.175781 237.707031 C 145.03125 213.273438 129.652344 234.84375 109.898438 225.429688 C 90.148438 216.015625 73.121094 173.425781 65.664062 167.761719 C 60.847656 164.105469 53.742188 163.394531 46.308594 166.824219 " fill-opacity="1" fill-rule="nonzero"/><path fill="#aef8ff" d="M 93.015625 281.546875 C 92.871094 281.546875 92.726562 281.496094 92.609375 281.394531 C 74.648438 266.019531 35.742188 267.042969 35.351562 267.054688 C 35.003906 267.078125 34.71875 266.796875 34.710938 266.453125 C 34.699219 266.109375 34.96875 265.824219 35.3125 265.8125 C 35.703125 265.800781 75.09375 264.765625 93.417969 280.453125 C 93.679688 280.675781 93.710938 281.066406 93.484375 281.328125 C 93.363281 281.472656 93.1875 281.546875 93.015625 281.546875 " fill-opacity="1" fill-rule="nonzero"/><path fill="#aef8ff" d="M 109.152344 280.707031 C 108.957031 280.707031 108.761719 280.613281 108.640625 280.441406 C 108.445312 280.15625 108.515625 279.773438 108.796875 279.578125 C 109.175781 279.316406 118.179688 273.222656 132.292969 278.238281 C 132.617188 278.351562 132.785156 278.707031 132.671875 279.03125 C 132.554688 279.355469 132.199219 279.523438 131.878906 279.410156 C 118.394531 274.617188 109.59375 280.535156 109.507812 280.597656 C 109.398438 280.671875 109.273438 280.707031 109.152344 280.707031 " fill-opacity="1" fill-rule="nonzero"/><path fill="#ffffff" d="M 187.300781 297.554688 C 187.429688 297.929688 201.863281 313.253906 201.863281 313.253906 L 192.679688 317.203125 L 181.027344 303.886719 L 187.300781 297.554688 " fill-opacity="1" fill-rule="nonzero"/><path fill="#000000" d="M 187.886719 297.355469 Z M 187.890625 297.355469 Z M 181.875 303.914062 L 192.847656 316.457031 L 200.800781 313.035156 C 191.441406 303.09375 188.320312 299.683594 187.269531 298.46875 Z M 192.679688 317.824219 C 192.503906 317.824219 192.335938 317.75 192.210938 317.613281 L 180.5625 304.292969 C 180.34375 304.050781 180.355469 303.679688 180.585938 303.449219 L 186.859375 297.117188 C 187.011719 296.964844 187.230469 296.898438 187.441406 296.949219 C 187.613281 296.988281 187.757812 297.097656 187.839844 297.246094 C 188.390625 297.992188 196.773438 306.949219 202.3125 312.832031 C 202.453125 312.976562 202.511719 313.183594 202.472656 313.382812 C 202.429688 313.582031 202.292969 313.746094 202.105469 313.828125 L 192.925781 317.773438 C 192.847656 317.808594 192.761719 317.824219 192.679688 317.824219 " fill-opacity="1" fill-rule="nonzero"/><path fill="#ffffff" d="M 192.320312 310.792969 C 192.65625 309.996094 193.246094 309.074219 194.296875 308.464844 C 195.875 307.554688 197.875 307.785156 199.3125 308.910156 C 202.90625 311.71875 212.675781 319.675781 218.300781 327.410156 C 220.289062 330.148438 219.292969 333.738281 214.761719 333.632812 C 207.339844 333.460938 195.53125 330.332031 185.710938 321.726562 C 184.585938 320.738281 184.023438 319.25 184.253906 317.769531 C 184.441406 316.558594 184.761719 315.042969 185.308594 313.613281 C 185.828125 312.242188 187.277344 311.46875 188.714844 311.761719 L 190.003906 312.027344 C 190.972656 312.226562 191.941406 311.707031 192.320312 310.792969 " fill-opacity="1" fill-rule="nonzero"/><path fill="#000000" d="M 192.320312 310.792969 L 192.328125 310.792969 Z M 188.09375 312.320312 C 187.125 312.320312 186.238281 312.902344 185.886719 313.832031 C 185.445312 314.996094 185.101562 316.351562 184.867188 317.863281 C 184.671875 319.132812 185.140625 320.398438 186.121094 321.261719 C 195.703125 329.660156 207.207031 332.835938 214.773438 333.011719 C 216.53125 333.0625 217.804688 332.492188 218.359375 331.4375 C 218.898438 330.398438 218.6875 329 217.796875 327.777344 C 212.273438 320.179688 202.761719 312.390625 198.929688 309.398438 C 197.65625 308.402344 195.921875 308.242188 194.605469 309.003906 C 193.847656 309.441406 193.273438 310.125 192.894531 311.03125 C 192.402344 312.21875 191.132812 312.894531 189.878906 312.632812 L 188.589844 312.371094 C 188.421875 312.335938 188.257812 312.320312 188.09375 312.320312 Z M 214.957031 334.253906 C 214.890625 334.253906 214.820312 334.253906 214.746094 334.253906 C 206.960938 334.074219 195.136719 330.8125 185.300781 322.195312 C 184 321.054688 183.378906 319.359375 183.640625 317.671875 C 183.886719 316.074219 184.253906 314.636719 184.726562 313.390625 C 185.355469 311.734375 187.082031 310.792969 188.835938 311.152344 L 190.128906 311.417969 C 190.800781 311.558594 191.484375 311.195312 191.75 310.554688 C 192.226562 309.40625 193 308.496094 193.984375 307.929688 C 195.734375 306.917969 198.027344 307.117188 199.695312 308.417969 C 203.566406 311.445312 213.183594 319.320312 218.804688 327.046875 C 219.96875 328.652344 220.21875 330.554688 219.457031 332.011719 C 219.015625 332.859375 217.84375 334.253906 214.957031 334.253906 " fill-opacity="1" fill-rule="nonzero"/><path fill="#000000" d="M 212.636719 330.660156 C 208.25 330.660156 200.234375 328.871094 187.613281 319.90625 C 187.332031 319.710938 187.269531 319.320312 187.464844 319.042969 C 187.664062 318.765625 188.050781 318.699219 188.332031 318.898438 C 208.257812 333.046875 216.167969 328.84375 216.246094 328.796875 C 216.542969 328.628906 216.921875 328.730469 217.089844 329.03125 C 217.257812 329.328125 217.15625 329.707031 216.855469 329.875 C 216.722656 329.953125 215.398438 330.660156 212.636719 330.660156 " fill-opacity="1" fill-rule="nonzero"/><path fill="#000000" d="M 204.796875 322.566406 C 204.652344 322.566406 204.511719 322.515625 204.390625 322.414062 C 204.132812 322.1875 204.105469 321.796875 204.328125 321.539062 L 207.96875 317.363281 C 208.191406 317.101562 208.582031 317.074219 208.84375 317.300781 C 209.101562 317.523438 209.128906 317.917969 208.902344 318.175781 L 205.269531 322.351562 C 205.144531 322.492188 204.972656 322.566406 204.796875 322.566406 " fill-opacity="1" fill-rule="nonzero"/><path fill="#000000" d="M 201.382812 319.933594 C 201.234375 319.933594 201.082031 319.878906 200.960938 319.765625 C 200.710938 319.53125 200.699219 319.140625 200.933594 318.890625 L 204.945312 314.582031 C 205.179688 314.332031 205.570312 314.320312 205.820312 314.554688 C 206.074219 314.785156 206.085938 315.179688 205.851562 315.429688 L 201.839844 319.734375 C 201.714844 319.867188 201.550781 319.933594 201.382812 319.933594 " fill-opacity="1" fill-rule="nonzero"/><path fill="#ffffff" d="M 166.839844 306.175781 L 164.019531 325.257812 L 156.585938 320.453125 L 158.4375 302.175781 L 166.839844 306.175781 " fill-opacity="1" fill-rule="nonzero"/><path fill="#000000" d="M 157.238281 320.140625 L 163.546875 324.214844 L 166.160156 306.539062 L 158.964844 303.117188 Z M 164.019531 325.878906 C 163.902344 325.878906 163.785156 325.84375 163.683594 325.78125 L 156.246094 320.976562 C 156.050781 320.851562 155.941406 320.625 155.96875 320.394531 L 157.820312 302.117188 C 157.839844 301.914062 157.957031 301.734375 158.132812 301.636719 C 158.308594 301.535156 158.519531 301.53125 158.703125 301.617188 L 167.105469 305.613281 C 167.355469 305.730469 167.496094 305.996094 167.457031 306.265625 L 164.632812 325.347656 C 164.601562 325.558594 164.46875 325.734375 164.273438 325.824219 C 164.195312 325.859375 164.105469 325.878906 164.019531 325.878906 " fill-opacity="1" fill-rule="nonzero"/><path fill="#ffffff" d="M 166.175781 321.671875 C 166.199219 327.542969 166.074219 339.355469 162.304688 348.015625 C 161.292969 350.339844 156.65625 350.53125 154.742188 347.617188 C 150.753906 341.542969 145.449219 331.105469 147.074219 317.882812 C 147.199219 316.847656 147.8125 315.9375 148.722656 315.425781 C 149.785156 314.832031 151.484375 314.054688 153.933594 313.40625 C 155.15625 313.085938 156.394531 313.863281 156.644531 315.105469 L 157.554688 319.648438 L 158.078125 318.84375 C 158.871094 317.628906 160.386719 317.113281 161.753906 317.589844 C 162.488281 317.847656 163.304688 318.132812 164.039062 318.390625 C 165.414062 318.871094 166.171875 320.214844 166.175781 321.671875 " fill-opacity="1" fill-rule="nonzero"/><path fill="#000000" d="M 154.492188 313.957031 C 154.359375 313.957031 154.222656 313.972656 154.089844 314.007812 C 151.644531 314.652344 149.984375 315.429688 149.023438 315.96875 C 148.289062 316.378906 147.792969 317.125 147.691406 317.957031 C 146.46875 327.902344 149.015625 337.765625 155.261719 347.277344 C 156.28125 348.824219 158.09375 349.25 159.34375 349.144531 C 160.492188 349.046875 161.40625 348.519531 161.734375 347.769531 C 165.617188 338.84375 165.570312 326.371094 165.554688 321.675781 C 165.550781 320.378906 164.890625 319.347656 163.835938 318.976562 L 161.546875 318.175781 C 160.449219 317.792969 159.234375 318.203125 158.597656 319.183594 L 158.074219 319.988281 C 157.933594 320.199219 157.683594 320.304688 157.433594 320.257812 C 157.1875 320.210938 156.992188 320.019531 156.945312 319.769531 L 156.035156 315.226562 C 155.949219 314.796875 155.695312 314.429688 155.324219 314.195312 C 155.066406 314.035156 154.785156 313.957031 154.492188 313.957031 Z M 158.949219 350.402344 C 157.035156 350.402344 155.222656 349.476562 154.222656 347.957031 C 147.8125 338.195312 145.199219 328.046875 146.457031 317.804688 C 146.605469 316.582031 147.339844 315.488281 148.417969 314.886719 C 149.441406 314.3125 151.203125 313.484375 153.773438 312.808594 C 154.519531 312.613281 155.324219 312.734375 155.980469 313.144531 C 156.636719 313.554688 157.097656 314.222656 157.25 314.980469 L 157.875 318.085938 C 158.875 316.933594 160.484375 316.488281 161.957031 317.007812 L 164.242188 317.804688 C 165.789062 318.347656 166.789062 319.863281 166.796875 321.667969 C 166.816406 326.4375 166.863281 339.097656 162.871094 348.261719 C 162.355469 349.449219 161.078125 350.242188 159.449219 350.382812 C 159.28125 350.394531 159.113281 350.402344 158.949219 350.402344 " fill-opacity="1" fill-rule="nonzero"/><path fill="#000000" d="M 158.289062 346.792969 C 158.101562 346.792969 157.914062 346.707031 157.789062 346.546875 C 148.632812 334.351562 149.367188 318.960938 149.375 318.808594 C 149.394531 318.464844 149.691406 318.203125 150.03125 318.222656 C 150.371094 318.238281 150.632812 318.53125 150.613281 318.875 C 150.605469 319.023438 149.902344 333.976562 158.78125 345.800781 C 158.988281 346.074219 158.933594 346.464844 158.660156 346.671875 C 158.550781 346.753906 158.417969 346.792969 158.289062 346.792969 " fill-opacity="1" fill-rule="nonzero"/><path fill="#000000" d="M 165.355469 330.402344 C 165.316406 330.402344 165.273438 330.398438 165.230469 330.390625 L 159.648438 329.238281 C 159.3125 329.167969 159.09375 328.839844 159.164062 328.503906 C 159.234375 328.167969 159.5625 327.949219 159.898438 328.019531 L 165.480469 329.171875 C 165.816406 329.242188 166.03125 329.570312 165.964844 329.90625 C 165.902344 330.199219 165.644531 330.402344 165.355469 330.402344 " fill-opacity="1" fill-rule="nonzero"/><path fill="#000000" d="M 164.671875 335.234375 C 164.613281 335.234375 164.558594 335.222656 164.5 335.207031 L 159.191406 333.664062 C 158.863281 333.566406 158.675781 333.226562 158.769531 332.894531 C 158.867188 332.566406 159.210938 332.375 159.539062 332.472656 L 164.84375 334.015625 C 165.175781 334.109375 165.363281 334.457031 165.269531 334.785156 C 165.191406 335.058594 164.941406 335.234375 164.671875 335.234375 " fill-opacity="1" fill-rule="nonzero"/><path fill="#000000" d="M 111.050781 234.402344 C 111.050781 234.402344 136.929688 229.277344 161.507812 240.765625 C 167.707031 243.664062 171.855469 249.707031 172.347656 256.539062 C 173.351562 270.558594 175.542969 290.003906 168.152344 312.6875 L 155.789062 310.253906 C 155.789062 310.253906 151.496094 292.507812 150.132812 275.324219 C 148.84375 259.140625 97.40625 246.582031 97.40625 246.582031 L 111.050781 234.402344 " fill-opacity="1" fill-rule="nonzero"/><path fill="#000000" d="M 192.226562 299.84375 L 181.054688 308.488281 C 181.054688 308.488281 144.742188 276.902344 135.304688 272.453125 C 125.867188 268.003906 108.382812 261.558594 93.054688 262.835938 C 77.726562 264.113281 73.667969 253.710938 73.667969 253.710938 L 94.445312 237.890625 C 94.445312 237.890625 132.617188 239.25 149.617188 251.019531 C 166.613281 262.792969 192.226562 299.84375 192.226562 299.84375 " fill-opacity="1" fill-rule="nonzero"/><path fill="#00e7ff" d="M 173.996094 275.371094 C 173.816406 275.371094 173.644531 275.296875 173.519531 275.148438 C 166.042969 266.273438 154.933594 255.457031 149.261719 251.53125 C 142.847656 247.089844 132.664062 243.621094 118.996094 241.222656 C 118.65625 241.160156 118.429688 240.839844 118.492188 240.503906 C 118.550781 240.164062 118.875 239.9375 119.210938 240 C 133.058594 242.429688 143.40625 245.964844 149.96875 250.511719 C 155.714844 254.488281 166.933594 265.40625 174.46875 274.351562 C 174.691406 274.613281 174.65625 275.003906 174.394531 275.222656 C 174.277344 275.320312 174.136719 275.371094 173.996094 275.371094 " fill-opacity="1" fill-rule="nonzero"/><path fill="#000000" d="M 87.078125 259.425781 C 87.078125 259.425781 78.988281 266.65625 74.117188 265.132812 C 69.246094 263.609375 76.753906 254.898438 79.125 254.398438 C 81.5 253.902344 87.078125 259.425781 87.078125 259.425781 " fill-opacity="1" fill-rule="nonzero"/><path fill="#ffffff" d="M 39.640625 194.234375 L 49.804688 191.96875 C 51.179688 191.660156 52.589844 192.265625 53.332031 193.460938 C 54.441406 195.242188 56.425781 197.46875 59.269531 197.011719 C 62.390625 196.511719 61.207031 191 60.109375 187.480469 C 59.5625 185.71875 57.949219 184.515625 56.105469 184.472656 C 51.058594 184.371094 40.9375 184.367188 36.640625 185.8125 C 30.792969 187.773438 39.640625 194.234375 39.640625 194.234375 " fill-opacity="1" fill-rule="nonzero"/><path fill="#000000" d="M 50.515625 191.265625 C 51.851562 191.265625 53.128906 191.957031 53.859375 193.132812 C 54.921875 194.84375 56.707031 196.796875 59.171875 196.398438 C 59.640625 196.324219 59.972656 196.105469 60.214844 195.71875 C 60.992188 194.460938 60.742188 191.601562 59.515625 187.664062 C 59.046875 186.160156 57.671875 185.128906 56.09375 185.097656 C 51.738281 185.007812 41.136719 184.953125 36.835938 186.398438 C 35.890625 186.71875 35.367188 187.167969 35.277344 187.734375 C 35.03125 189.339844 37.824219 192.082031 39.785156 193.566406 L 49.671875 191.359375 C 49.953125 191.296875 50.234375 191.265625 50.515625 191.265625 Z M 58.503906 197.695312 C 55.828125 197.695312 53.949219 195.625 52.804688 193.789062 C 52.199219 192.816406 51.046875 192.328125 49.941406 192.570312 L 39.777344 194.835938 C 39.601562 194.875 39.417969 194.835938 39.277344 194.734375 C 38.691406 194.308594 33.597656 190.492188 34.050781 187.542969 C 34.214844 186.480469 35.019531 185.699219 36.441406 185.222656 C 40.765625 183.769531 50.625 183.742188 56.121094 183.855469 C 58.234375 183.898438 60.074219 185.28125 60.703125 187.292969 C 62.078125 191.707031 62.265625 194.761719 61.269531 196.371094 C 60.835938 197.070312 60.195312 197.492188 59.367188 197.625 C 59.070312 197.675781 58.785156 197.695312 58.503906 197.695312 " fill-opacity="1" fill-rule="nonzero"/><path fill="#ffffff" d="M 85.085938 179.398438 L 77.527344 182.449219 C 77.527344 182.449219 75.304688 183.761719 75.171875 186.589844 C 75.054688 189.011719 74.207031 190.976562 72.179688 192.476562 C 64.90625 197.855469 63.089844 182.640625 63.089844 182.640625 C 63.089844 182.640625 69.59375 176.523438 82.25 172.140625 C 94.90625 167.757812 85.085938 179.398438 85.085938 179.398438 " fill-opacity="1" fill-rule="nonzero"/><path fill="#000000" d="M 85.085938 179.398438 L 85.089844 179.398438 Z M 63.75 182.886719 C 64.113281 185.523438 65.5 191.609375 68.261719 192.800781 C 69.296875 193.246094 70.457031 192.976562 71.808594 191.976562 C 73.566406 190.679688 74.4375 188.957031 74.550781 186.558594 C 74.699219 183.429688 77.109375 181.976562 77.210938 181.917969 C 77.238281 181.898438 77.265625 181.886719 77.292969 181.875 L 84.710938 178.878906 C 86.480469 176.746094 88.6875 173.222656 87.964844 172.171875 C 87.789062 171.914062 86.871094 171.199219 82.453125 172.726562 C 71.382812 176.558594 65.011719 181.789062 63.75 182.886719 Z M 69.261719 194.25 C 68.746094 194.25 68.25 194.148438 67.765625 193.9375 C 63.644531 192.160156 62.519531 183.101562 62.476562 182.714844 C 62.453125 182.519531 62.523438 182.324219 62.664062 182.191406 C 62.9375 181.933594 69.410156 175.929688 82.046875 171.554688 C 85.90625 170.214844 88.113281 170.191406 88.988281 171.46875 C 90.527344 173.707031 86.402344 178.800781 85.558594 179.796875 C 85.496094 179.875 85.410156 179.933594 85.320312 179.972656 L 77.808594 183.007812 C 77.542969 183.175781 75.898438 184.324219 75.789062 186.617188 C 75.660156 189.378906 74.597656 191.457031 72.546875 192.972656 C 71.398438 193.824219 70.300781 194.25 69.261719 194.25 " fill-opacity="1" fill-rule="nonzero"/><path fill="#ffffff" d="M 108.898438 176.296875 C 110.609375 159.992188 104.214844 161.339844 82.378906 171.082031 C 78.664062 172.738281 78.597656 176.957031 79.050781 179.832031 C 79.265625 181.191406 80.613281 182.0625 81.949219 181.726562 C 84.625 181.058594 86.339844 180.75 90.050781 180.289062 C 90.050781 180.289062 87.355469 184.996094 79.613281 189.160156 C 78.351562 189.839844 75.433594 190.484375 72.359375 191.019531 C 65.160156 192.265625 58.242188 194.796875 51.933594 198.484375 C 50.347656 199.40625 49.167969 200.113281 48.964844 200.273438 C 46.90625 201.191406 41.167969 201.996094 35.230469 196.574219 C 35.230469 196.574219 41.703125 195.523438 43.449219 194.570312 C 45.664062 193.359375 44.335938 187.289062 39.242188 184.828125 C 38.097656 184.277344 36.820312 184.074219 35.554688 184.199219 C 32.253906 184.539062 24.199219 185.425781 20.886719 186.417969 C 16.660156 187.675781 14.765625 190.734375 16.675781 195.003906 C 16.675781 195.003906 26.636719 214.632812 41.210938 221.617188 C 41.269531 221.644531 41.328125 221.671875 41.382812 221.699219 C 51.871094 226.667969 60.175781 235.316406 64.449219 246.101562 C 69.253906 258.21875 73.796875 266.90625 74.804688 263.753906 C 77.3125 255.925781 87.882812 252.867188 102.152344 245.582031 C 116.417969 238.296875 113.511719 231.3125 113.511719 231.3125 C 113.511719 231.3125 105.636719 229.53125 101.1875 226.433594 C 97.097656 223.582031 93.191406 218.742188 90.019531 213.84375 C 88.910156 212.132812 89.132812 209.890625 90.539062 208.421875 C 97.03125 201.648438 107.488281 189.703125 108.898438 176.296875 " fill-opacity="1" fill-rule="nonzero"/><path fill="#000000" d="M 36.285156 184.785156 C 36.066406 184.785156 35.84375 184.796875 35.621094 184.820312 C 32.328125 185.152344 24.324219 186.039062 21.0625 187.011719 C 18.996094 187.628906 17.566406 188.683594 16.933594 190.0625 C 16.332031 191.371094 16.4375 192.949219 17.242188 194.75 C 17.328125 194.917969 27.265625 214.246094 41.480469 221.058594 L 41.652344 221.140625 C 52.425781 226.246094 60.730469 235.03125 65.027344 245.875 C 70.40625 259.445312 73.285156 263.476562 74.125 263.769531 C 74.148438 263.734375 74.179688 263.671875 74.214844 263.566406 C 76.238281 257.238281 83.21875 253.945312 92.878906 249.390625 C 95.59375 248.113281 98.671875 246.664062 101.867188 245.03125 C 113.765625 238.957031 113.3125 233.167969 113.019531 231.832031 C 111.398438 231.441406 104.835938 229.734375 100.832031 226.941406 C 96.207031 223.71875 92.117188 218.222656 89.496094 214.179688 C 88.230469 212.222656 88.476562 209.679688 90.09375 207.988281 C 97.253906 200.523438 106.925781 189.101562 108.28125 176.234375 L 108.898438 176.296875 L 108.28125 176.234375 C 108.929688 170.039062 108.375 166.660156 106.484375 165.289062 C 103.378906 163.03125 96.316406 165.542969 82.632812 171.644531 C 79.355469 173.109375 79.210938 176.851562 79.664062 179.734375 C 79.742188 180.210938 80.003906 180.621094 80.410156 180.886719 C 80.816406 181.160156 81.324219 181.246094 81.800781 181.125 C 84.527344 180.441406 86.28125 180.132812 89.972656 179.675781 C 90.203125 179.644531 90.4375 179.75 90.566406 179.949219 C 90.695312 180.140625 90.703125 180.394531 90.585938 180.597656 C 90.472656 180.796875 87.71875 185.503906 79.90625 189.707031 C 78.757812 190.328125 76.253906 190.972656 72.464844 191.628906 C 65.320312 192.867188 58.519531 195.355469 52.246094 199.019531 C 49.859375 200.414062 49.425781 200.703125 49.347656 200.761719 C 49.308594 200.792969 49.261719 200.820312 49.214844 200.839844 C 46.660156 201.976562 40.75 202.457031 34.8125 197.03125 C 34.636719 196.871094 34.566406 196.625 34.636719 196.398438 C 34.703125 196.167969 34.894531 196 35.132812 195.960938 C 36.902344 195.675781 41.796875 194.765625 43.152344 194.023438 C 43.625 193.769531 43.882812 193.101562 43.859375 192.195312 C 43.804688 189.957031 42.105469 186.902344 38.96875 185.386719 C 38.144531 184.988281 37.226562 184.785156 36.285156 184.785156 Z M 74.175781 265.027344 C 73.390625 265.027344 72.238281 264.320312 69.707031 259.484375 C 68.027344 256.261719 66.007812 251.714844 63.875 246.332031 C 59.691406 235.78125 51.609375 227.230469 41.117188 222.261719 L 40.945312 222.179688 C 26.347656 215.179688 16.53125 196.09375 16.121094 195.285156 C 15.164062 193.144531 15.058594 191.171875 15.804688 189.542969 C 16.59375 187.832031 18.289062 186.542969 20.707031 185.820312 C 24.070312 184.820312 32.167969 183.921875 35.492188 183.585938 C 36.894531 183.441406 38.285156 183.679688 39.507812 184.269531 C 43.261719 186.082031 45.035156 189.628906 45.101562 192.160156 C 45.132812 193.550781 44.640625 194.625 43.746094 195.113281 C 42.414062 195.84375 38.652344 196.59375 36.636719 196.960938 C 41.71875 201.019531 46.617188 200.605469 48.648438 199.734375 C 48.820312 199.613281 49.355469 199.269531 51.621094 197.945312 C 58.019531 194.207031 64.960938 191.671875 72.253906 190.40625 C 76.808594 189.617188 78.609375 188.996094 79.316406 188.613281 C 84.570312 185.789062 87.460938 182.691406 88.726562 181.085938 C 86.003906 181.445312 84.402344 181.753906 82.101562 182.332031 C 81.289062 182.535156 80.421875 182.386719 79.726562 181.925781 C 79.035156 181.46875 78.566406 180.742188 78.4375 179.925781 C 77.699219 175.246094 79.007812 171.902344 82.125 170.511719 C 96.546875 164.078125 103.59375 161.652344 107.214844 164.28125 C 109.539062 165.96875 110.226562 169.582031 109.515625 176.363281 C 108.121094 189.609375 98.273438 201.25 90.988281 208.847656 C 89.773438 210.121094 89.585938 212.035156 90.539062 213.503906 C 93.097656 217.453125 97.082031 222.816406 101.542969 225.921875 C 105.84375 228.921875 113.574219 230.6875 113.648438 230.703125 C 113.847656 230.75 114.007812 230.886719 114.085938 231.070312 C 114.214844 231.378906 117.042969 238.675781 102.433594 246.136719 C 99.21875 247.777344 96.132812 249.230469 93.410156 250.515625 C 84.03125 254.9375 77.257812 258.128906 75.394531 263.945312 C 75.101562 264.859375 74.53125 265.015625 74.21875 265.027344 C 74.203125 265.027344 74.191406 265.027344 74.175781 265.027344 " fill-opacity="1" fill-rule="nonzero"/><path fill="#ffffff" d="M 72.898438 194.273438 L 70.214844 193.71875 C 70.210938 193.601562 64.496094 183.09375 64.496094 183.09375 L 55.019531 179.90625 C 55.019531 179.90625 58.839844 195.644531 58.890625 195.824219 L 53.820312 199.769531 C 53.820312 199.769531 63.8125 202.253906 68.921875 199.050781 C 73.359375 196.269531 72.898438 194.273438 72.898438 194.273438 " fill-opacity="1" fill-rule="nonzero"/><path fill="#000000" d="M 55.257812 199.4375 C 58.074219 199.964844 64.820312 200.890625 68.59375 198.527344 C 71.394531 196.769531 72.078125 195.402344 72.242188 194.773438 L 70.089844 194.324219 C 69.875 194.28125 69.707031 194.128906 69.632812 193.933594 C 69.398438 193.433594 66.234375 187.589844 64.066406 183.605469 L 55.886719 180.855469 C 57.234375 186.40625 59.414062 195.375 59.488281 195.65625 C 59.554688 195.898438 59.46875 196.160156 59.273438 196.3125 Z M 61.539062 201.316406 C 57.539062 201.316406 53.917969 200.433594 53.667969 200.371094 C 53.4375 200.3125 53.261719 200.128906 53.210938 199.898438 C 53.164062 199.664062 53.25 199.425781 53.4375 199.277344 L 58.191406 195.582031 C 57.65625 193.394531 55.21875 183.363281 54.417969 180.050781 C 54.363281 179.832031 54.433594 179.601562 54.601562 179.449219 C 54.765625 179.296875 55.003906 179.246094 55.21875 179.320312 L 64.695312 182.507812 C 64.84375 182.554688 64.96875 182.660156 65.042969 182.796875 C 68.929688 189.949219 70.207031 192.324219 70.625 193.167969 L 73.027344 193.664062 C 73.265625 193.714844 73.449219 193.898438 73.503906 194.136719 C 73.5625 194.382812 73.925781 196.648438 69.25 199.578125 C 67.125 200.910156 64.246094 201.316406 61.539062 201.316406 " fill-opacity="1" fill-rule="nonzero"/><path fill="#000000" d="M 63.621094 164.476562 C 61.078125 165.21875 65.117188 166.675781 54.949219 167.253906 C 50.902344 167.484375 54.269531 171.117188 53.222656 171.179688 C 49.34375 171.410156 49.476562 171.398438 47.917969 172.460938 C 46.886719 173.164062 46.886719 175.527344 47.652344 177.019531 C 48.667969 178.992188 50.5625 178.921875 53.617188 182.761719 C 55.761719 185.457031 56.160156 187.417969 57.546875 187.429688 C 58.949219 187.441406 59.28125 185.445312 60.8125 185.339844 C 62.796875 185.207031 63.546875 188.464844 65.761719 189.140625 C 67.160156 189.566406 69.871094 189.03125 73.292969 185.546875 C 73.847656 184.980469 73.925781 184.097656 73.472656 183.445312 C 72.890625 182.609375 72.152344 181.558594 71.363281 180.613281 C 67.601562 176.105469 65.339844 175.585938 65.535156 174.003906 C 65.832031 171.578125 70.140625 171.378906 70.1875 169.457031 C 70.238281 167.460938 67.101562 163.464844 63.621094 164.476562 " fill-opacity="1" fill-rule="nonzero"/><path fill="#ffffff" d="M 58.078125 176.511719 L 59.261719 177.589844 C 59.816406 178.097656 60.339844 178.644531 60.820312 179.226562 C 61.726562 180.316406 63.296875 182.179688 64.253906 183.15625 C 65.664062 184.589844 70.394531 180.542969 70.394531 180.542969 L 70.347656 179.367188 L 70.894531 178.882812 C 70.996094 178.789062 71.085938 178.671875 71.128906 178.539062 C 71.242188 178.199219 71.117188 177.851562 70.855469 177.65625 C 69.40625 176.585938 66.308594 174.132812 64.597656 171.550781 C 64.597656 171.550781 60.167969 171.941406 58.078125 176.511719 " fill-opacity="1" fill-rule="nonzero"/><path fill="#000000" d="M 58.839844 176.363281 L 59.679688 177.132812 C 60.257812 177.65625 60.800781 178.230469 61.300781 178.828125 C 62.160156 179.867188 63.746094 181.753906 64.699219 182.71875 C 65.265625 183.292969 67.765625 181.917969 69.761719 180.265625 L 69.726562 179.390625 C 69.722656 179.207031 69.796875 179.027344 69.933594 178.90625 L 70.480469 178.417969 C 70.515625 178.386719 70.535156 178.355469 70.539062 178.34375 C 70.570312 178.253906 70.527344 178.1875 70.484375 178.15625 C 68.90625 176.988281 66.0625 174.703125 64.304688 172.21875 C 63.316406 172.40625 60.480469 173.203125 58.839844 176.363281 Z M 65.085938 184.078125 C 64.589844 184.078125 64.152344 183.933594 63.8125 183.589844 C 62.832031 182.589844 61.21875 180.675781 60.34375 179.621094 C 59.882812 179.066406 59.378906 178.539062 58.839844 178.046875 L 57.660156 176.96875 C 57.460938 176.785156 57.398438 176.496094 57.511719 176.25 C 59.726562 171.410156 64.347656 170.949219 64.542969 170.933594 C 64.769531 170.910156 64.988281 171.019531 65.117188 171.207031 C 66.800781 173.75 69.949219 176.214844 71.222656 177.15625 C 71.710938 177.519531 71.910156 178.152344 71.71875 178.730469 C 71.644531 178.957031 71.5 179.171875 71.304688 179.34375 L 70.980469 179.632812 L 71.015625 180.523438 C 71.019531 180.710938 70.941406 180.894531 70.796875 181.019531 C 69.828125 181.84375 67.03125 184.078125 65.085938 184.078125 " fill-opacity="1" fill-rule="nonzero"/><path fill="#ffffff" d="M 60.726562 180.808594 C 60.726562 180.808594 57.882812 178.207031 56.984375 179.753906 C 56.085938 181.304688 59.285156 184.089844 60.726562 180.808594 " fill-opacity="1" fill-rule="nonzero"/><path fill="#ffffff" d="M 309.449219 316.894531 C 309.449219 316.894531 283.8125 281.011719 287.847656 241.8125 C 287.980469 240.5 293.101562 241.175781 293.304688 239.859375 C 293.5625 238.175781 288.929688 234.5 289.308594 232.8125 C 290.71875 226.53125 292.984375 220.238281 296.328125 214.046875 C 296.328125 214.046875 305.902344 224.335938 312.640625 241.617188 C 313.152344 242.917969 308.6875 247.421875 309.160156 248.800781 C 309.605469 250.105469 314.984375 248.289062 315.386719 249.660156 C 320.589844 267.40625 321.84375 290.675781 309.449219 316.894531 " fill-opacity="1" fill-rule="nonzero"/><path fill="#6df2ff" d="M 285.34375 273.617188 C 284.347656 272.609375 280.25 277.386719 279.25 276.441406 C 278.261719 275.507812 279.359375 267.519531 278.371094 266.644531 C 259.039062 249.417969 240.226562 243 240.226562 243 C 240.199219 253.449219 241.828125 263.203125 244.636719 272.253906 C 245.085938 273.699219 252.144531 275.171875 252.648438 276.582031 C 253.203125 278.125 248.039062 280.929688 248.660156 282.429688 C 257.835938 304.617188 273.066406 320.777344 287.601562 333.015625 C 296.796875 328.15625 304.960938 322.554688 312.15625 316.339844 C 305.476562 297.683594 296.109375 284.519531 285.34375 273.617188 " fill-opacity="1" fill-rule="nonzero"/><path fill="#aef8ff" d="M 296.925781 318.394531 C 296.757812 318.394531 296.589844 318.328125 296.464844 318.191406 C 291.09375 312.308594 285.804688 306.207031 280.75 300.058594 C 280.53125 299.792969 280.570312 299.402344 280.832031 299.183594 C 281.101562 298.964844 281.488281 299.003906 281.707031 299.269531 C 286.75 305.402344 292.023438 311.488281 297.382812 317.355469 C 297.613281 317.609375 297.597656 318.003906 297.34375 318.234375 C 297.222656 318.339844 297.074219 318.394531 296.925781 318.394531 " fill-opacity="1" fill-rule="nonzero"/><path fill="#aef8ff" d="M 274.117188 291.417969 C 273.9375 291.417969 273.753906 291.335938 273.628906 291.179688 C 265.355469 280.59375 257.453125 269.511719 250.136719 258.242188 L 246.792969 253.089844 C 246.605469 252.800781 246.6875 252.417969 246.972656 252.234375 C 247.265625 252.046875 247.644531 252.125 247.832031 252.414062 L 251.175781 257.566406 C 258.472656 268.804688 266.355469 279.855469 274.609375 290.414062 C 274.820312 290.683594 274.769531 291.074219 274.5 291.285156 C 274.386719 291.375 274.253906 291.417969 274.117188 291.417969 " fill-opacity="1" fill-rule="nonzero"/><path fill="#6df2ff" d="M 308.648438 319.230469 C 308.648438 319.230469 294.613281 278.894531 333.105469 258.441406 C 333.105469 258.441406 341.898438 294.171875 308.648438 319.230469 " fill-opacity="1" fill-rule="nonzero"/><path fill="#aef8ff" d="M 314.242188 307.34375 C 314.203125 307.34375 314.167969 307.339844 314.125 307.332031 C 313.789062 307.269531 313.570312 306.941406 313.632812 306.605469 C 316.316406 292.597656 327.746094 269.824219 327.863281 269.597656 C 328.015625 269.292969 328.390625 269.171875 328.695312 269.324219 C 329.003906 269.476562 329.125 269.851562 328.972656 270.15625 C 328.859375 270.382812 317.503906 293.003906 314.851562 306.839844 C 314.796875 307.132812 314.535156 307.34375 314.242188 307.34375 " fill-opacity="1" fill-rule="nonzero"/><path fill="#000000" d="M 332.328125 224.558594 C 332.171875 224.558594 332.015625 224.5 331.890625 224.378906 L 330.304688 222.789062 C 330.0625 222.546875 330.0625 222.15625 330.304688 221.910156 C 330.542969 221.667969 330.9375 221.667969 331.179688 221.910156 L 332.769531 223.5 C 333.011719 223.742188 333.011719 224.136719 332.769531 224.378906 C 332.648438 224.5 332.488281 224.558594 332.328125 224.558594 " fill-opacity="1" fill-rule="nonzero"/><path fill="#000000" d="M 337.351562 229.578125 C 337.195312 229.578125 337.035156 229.519531 336.914062 229.398438 L 335.324219 227.808594 C 335.085938 227.566406 335.085938 227.171875 335.324219 226.933594 C 335.566406 226.6875 335.960938 226.6875 336.203125 226.933594 L 337.792969 228.519531 C 338.035156 228.761719 338.035156 229.15625 337.792969 229.398438 C 337.671875 229.519531 337.511719 229.578125 337.351562 229.578125 " fill-opacity="1" fill-rule="nonzero"/><path fill="#000000" d="M 330.742188 229.578125 C 330.582031 229.578125 330.425781 229.519531 330.304688 229.398438 C 330.0625 229.15625 330.0625 228.761719 330.304688 228.519531 L 331.890625 226.933594 C 332.132812 226.6875 332.523438 226.6875 332.769531 226.933594 C 333.011719 227.175781 333.011719 227.566406 332.769531 227.8125 L 331.179688 229.398438 C 331.058594 229.519531 330.898438 229.578125 330.742188 229.578125 " fill-opacity="1" fill-rule="nonzero"/><path fill="#000000" d="M 335.761719 224.558594 C 335.605469 224.558594 335.445312 224.496094 335.324219 224.378906 C 335.085938 224.132812 335.085938 223.742188 335.324219 223.5 L 336.914062 221.910156 C 337.15625 221.667969 337.550781 221.667969 337.792969 221.910156 C 338.035156 222.152344 338.035156 222.546875 337.792969 222.789062 L 336.203125 224.378906 C 336.082031 224.496094 335.921875 224.558594 335.761719 224.558594 " fill-opacity="1" fill-rule="nonzero"/><path fill="#000000" d="M 231.148438 302.210938 C 228.722656 302.210938 226.753906 300.242188 226.753906 297.816406 C 226.753906 295.390625 228.722656 293.421875 231.148438 293.421875 C 231.492188 293.421875 231.769531 293.699219 231.769531 294.042969 C 231.769531 294.386719 231.492188 294.664062 231.148438 294.664062 C 229.410156 294.664062 227.992188 296.078125 227.992188 297.816406 C 227.992188 299.554688 229.410156 300.972656 231.148438 300.972656 C 232.886719 300.972656 234.300781 299.554688 234.300781 297.816406 C 234.300781 297.472656 234.582031 297.195312 234.921875 297.195312 C 235.265625 297.195312 235.542969 297.472656 235.542969 297.816406 C 235.542969 300.242188 233.570312 302.210938 231.148438 302.210938 " fill-opacity="1" fill-rule="nonzero"/><path fill="#ffffff" d="M 227.796875 273.144531 C 227.796875 271.773438 228.910156 270.660156 230.28125 270.660156 C 231.652344 270.660156 232.765625 271.773438 232.765625 273.144531 C 232.765625 274.519531 231.652344 275.628906 230.28125 275.628906 C 228.910156 275.628906 227.796875 274.519531 227.796875 273.144531 " fill-opacity="1" fill-rule="nonzero"/><path fill="#6df2ff" d="M 25.363281 41.671875 C 25.363281 40.300781 26.476562 39.1875 27.847656 39.1875 C 29.222656 39.1875 30.332031 40.300781 30.332031 41.671875 C 30.332031 43.046875 29.222656 44.15625 27.847656 44.15625 C 26.476562 44.15625 25.363281 43.046875 25.363281 41.671875 " fill-opacity="1" fill-rule="nonzero"/><path fill="#6df2ff" d="M 46.855469 21.816406 C 45.273438 21.816406 43.988281 23.101562 43.988281 24.6875 C 43.988281 26.269531 45.273438 27.554688 46.855469 27.554688 C 48.441406 27.554688 49.726562 26.269531 49.726562 24.6875 C 49.726562 23.101562 48.441406 21.816406 46.855469 21.816406 Z M 46.855469 28.796875 C 44.589844 28.796875 42.746094 26.953125 42.746094 24.6875 C 42.746094 22.417969 44.589844 20.574219 46.855469 20.574219 C 49.125 20.574219 50.96875 22.417969 50.96875 24.6875 C 50.96875 26.953125 49.125 28.796875 46.855469 28.796875 " fill-opacity="1" fill-rule="nonzero"/></svg>