<svg xmlns="http://www.w3.org/2000/svg" xmlns:xlink="http://www.w3.org/1999/xlink" width="500" zoomAndPan="magnify" viewBox="0 0 375 374.999991" height="500" preserveAspectRatio="xMidYMid meet" version="1.0"><defs><clipPath id="de1bee00a2"><path d="M 184.328125 108.882812 L 230 108.882812 L 230 120.800781 L 184.328125 120.800781 Z M 184.328125 108.882812 " clip-rule="nonzero"/></clipPath><clipPath id="a67a995fa3"><path d="M 207.628906 120.632812 C 191.515625 120.632812 178.457031 107.570312 178.457031 91.457031 C 178.457031 75.347656 191.515625 62.285156 207.628906 62.285156 C 223.742188 62.285156 236.800781 75.347656 236.800781 91.457031 C 236.800781 107.570312 223.742188 120.632812 207.628906 120.632812 Z M 207.628906 120.632812 " clip-rule="nonzero"/></clipPath><clipPath id="54002cf126"><path d="M 183.734375 108.089844 L 230.617188 108.089844 L 230.617188 120.800781 L 183.734375 120.800781 Z M 183.734375 108.089844 " clip-rule="nonzero"/></clipPath><clipPath id="df16a45c97"><path d="M 207.628906 120.632812 C 191.515625 120.632812 178.457031 107.570312 178.457031 91.457031 C 178.457031 75.347656 191.515625 62.285156 207.628906 62.285156 C 223.742188 62.285156 236.800781 75.347656 236.800781 91.457031 C 236.800781 107.570312 223.742188 120.632812 207.628906 120.632812 Z M 207.628906 120.632812 " clip-rule="nonzero"/></clipPath><clipPath id="57c716a641"><path d="M 188.105469 67.164062 L 226.84375 67.164062 L 226.84375 100.9375 L 188.105469 100.9375 Z M 188.105469 67.164062 " clip-rule="nonzero"/></clipPath><clipPath id="f2951fc287"><path d="M 207.628906 120.632812 C 191.515625 120.632812 178.457031 107.570312 178.457031 91.457031 C 178.457031 75.347656 191.515625 62.285156 207.628906 62.285156 C 223.742188 62.285156 236.800781 75.347656 236.800781 91.457031 C 236.800781 107.570312 223.742188 120.632812 207.628906 120.632812 Z M 207.628906 120.632812 " clip-rule="nonzero"/></clipPath><clipPath id="c07b2307a1"><path d="M 197.640625 77.296875 L 217.503906 77.296875 L 217.503906 114.84375 L 197.640625 114.84375 Z M 197.640625 77.296875 " clip-rule="nonzero"/></clipPath><clipPath id="5d6afb7408"><path d="M 207.628906 120.632812 C 191.515625 120.632812 178.457031 107.570312 178.457031 91.457031 C 178.457031 75.347656 191.515625 62.285156 207.628906 62.285156 C 223.742188 62.285156 236.800781 75.347656 236.800781 91.457031 C 236.800781 107.570312 223.742188 120.632812 207.628906 120.632812 Z M 207.628906 120.632812 " clip-rule="nonzero"/></clipPath><clipPath id="94eaad80b7"><path d="M 201.414062 94.578125 L 213.332031 94.578125 L 213.332031 115.4375 L 201.414062 115.4375 Z M 201.414062 94.578125 " clip-rule="nonzero"/></clipPath><clipPath id="8cd485f453"><path d="M 207.628906 120.632812 C 191.515625 120.632812 178.457031 107.570312 178.457031 91.457031 C 178.457031 75.347656 191.515625 62.285156 207.628906 62.285156 C 223.742188 62.285156 236.800781 75.347656 236.800781 91.457031 C 236.800781 107.570312 223.742188 120.632812 207.628906 120.632812 Z M 207.628906 120.632812 " clip-rule="nonzero"/></clipPath><clipPath id="d246b05e90"><path d="M 204.195312 88 L 211.148438 88 L 211.148438 90.605469 L 204.195312 90.605469 Z M 204.195312 88 " clip-rule="nonzero"/></clipPath><clipPath id="c98e7b317e"><path d="M 207.628906 120.632812 C 191.515625 120.632812 178.457031 107.570312 178.457031 91.457031 C 178.457031 75.347656 191.515625 62.285156 207.628906 62.285156 C 223.742188 62.285156 236.800781 75.347656 236.800781 91.457031 C 236.800781 107.570312 223.742188 120.632812 207.628906 120.632812 Z M 207.628906 120.632812 " clip-rule="nonzero"/></clipPath><clipPath id="799fdc5ee5"><path d="M 197.042969 68.753906 L 218.300781 68.753906 L 218.300781 97.558594 L 197.042969 97.558594 Z M 197.042969 68.753906 " clip-rule="nonzero"/></clipPath><clipPath id="a031436729"><path d="M 207.628906 120.632812 C 191.515625 120.632812 178.457031 107.570312 178.457031 91.457031 C 178.457031 75.347656 191.515625 62.285156 207.628906 62.285156 C 223.742188 62.285156 236.800781 75.347656 236.800781 91.457031 C 236.800781 107.570312 223.742188 120.632812 207.628906 120.632812 Z M 207.628906 120.632812 " clip-rule="nonzero"/></clipPath></defs><path fill="#aef8ff" d="M 22.261719 115.507812 C 14.078125 132.789062 3.167969 172.820312 7.867188 214.277344 C 13.898438 267.472656 43.75 309.410156 72.789062 332.972656 C 169.152344 411.171875 344.222656 359.996094 367.582031 286.335938 C 371.816406 272.972656 370.625 260.082031 369.164062 244.222656 C 364.496094 193.78125 349 179.21875 339.625 123.992188 C 331.84375 78.144531 326.449219 64.765625 317.8125 49.058594 C 290.816406 -0.00390625 191.957031 0.617188 131.386719 23.152344 C 108.121094 31.808594 51.417969 53.914062 22.261719 115.507812 " fill-opacity="1" fill-rule="nonzero"/><path fill="#000000" d="M 113.132812 188.550781 C 112.039062 181.328125 111.457031 174.347656 111.457031 174.347656 L 51.734375 188.640625 C 48.941406 195.113281 48.824219 215.78125 48.882812 224.457031 C 48.902344 227.503906 49.117188 232.148438 49.433594 237.597656 C 57.644531 238.933594 66.515625 239.855469 75.714844 239.941406 C 76.285156 235.003906 76.527344 230.910156 76.808594 228.980469 C 77.738281 222.597656 80.277344 214.992188 80.277344 214.992188 C 81.804688 218.667969 82.742188 229.476562 83.207031 239.925781 C 92.828125 239.671875 102.621094 238.917969 112.15625 237.308594 C 112.179688 236.199219 115.15625 201.957031 113.132812 188.550781 " fill-opacity="1" fill-rule="nonzero"/><path fill="#aef8ff" d="M 105.910156 192.011719 C 101.464844 192.011719 98.015625 189.875 96.394531 185.882812 C 96.257812 185.546875 96.421875 185.164062 96.757812 185.023438 C 97.09375 184.886719 97.480469 185.050781 97.617188 185.390625 C 99.609375 190.304688 104.65625 191.941406 111.109375 189.765625 C 111.453125 189.652344 111.828125 189.835938 111.941406 190.179688 C 112.058594 190.523438 111.875 190.898438 111.527344 191.015625 C 109.539062 191.683594 107.648438 192.011719 105.910156 192.011719 " fill-opacity="1" fill-rule="nonzero"/><path fill="#aef8ff" d="M 79.175781 201.269531 C 78.953125 201.269531 78.734375 201.15625 78.609375 200.953125 C 76.65625 197.703125 77.183594 193.007812 77.207031 192.808594 C 77.25 192.445312 77.574219 192.191406 77.941406 192.230469 C 78.300781 192.273438 78.558594 192.601562 78.515625 192.964844 C 78.511719 193.007812 78.019531 197.410156 79.742188 200.273438 C 79.929688 200.582031 79.828125 200.988281 79.515625 201.175781 C 79.410156 201.242188 79.292969 201.269531 79.175781 201.269531 " fill-opacity="1" fill-rule="nonzero"/><path fill="#00e7ff" d="M 153.5625 46.472656 L 146.5 41.019531 C 145.375 40.152344 143.757812 40.410156 142.941406 41.574219 C 122.902344 70.25 92.457031 80.207031 82.769531 82.75 C 80.847656 83.253906 78.820312 83.160156 76.949219 82.496094 L 73.472656 81.257812 L 60.445312 83.898438 L 58.285156 86.410156 C 55.640625 89.488281 52.285156 91.871094 48.503906 93.359375 L 46.355469 94.207031 C 46.355469 94.207031 37.078125 99.085938 31.863281 105.527344 C 27.351562 111.101562 19.910156 140.132812 31.050781 156.738281 C 33.316406 160.113281 37.515625 161.636719 41.40625 160.453125 C 45.6875 159.15625 48.941406 157.984375 52.019531 154.011719 C 52.347656 153.589844 49.742188 188.5 49.742188 188.5 C 74.316406 200.046875 113.917969 173.667969 113.917969 173.667969 C 106.742188 150.800781 104.289062 133.617188 103.59375 122.335938 C 103.058594 113.621094 107.410156 105.300781 114.90625 100.804688 C 142.738281 84.117188 152.382812 56.136719 154.425781 49.117188 C 154.707031 48.140625 154.363281 47.09375 153.5625 46.472656 " fill-opacity="1" fill-rule="nonzero"/><path fill="#000000" d="M 66.96875 106.804688 C 66.953125 106.804688 66.9375 106.804688 66.921875 106.804688 C 66.558594 106.777344 66.285156 106.460938 66.3125 106.097656 L 66.96875 96.96875 C 66.996094 96.605469 67.320312 96.332031 67.675781 96.359375 C 68.039062 96.386719 68.3125 96.703125 68.285156 97.066406 L 67.625 106.195312 C 67.601562 106.539062 67.3125 106.804688 66.96875 106.804688 " fill-opacity="1" fill-rule="nonzero"/><path fill="#000000" d="M 70.222656 95.261719 C 70.261719 94.667969 70.777344 94.222656 71.371094 94.265625 C 71.964844 94.308594 72.410156 94.820312 72.367188 95.414062 C 72.328125 96.003906 71.8125 96.453125 71.21875 96.410156 C 70.625 96.367188 70.179688 95.855469 70.222656 95.261719 " fill-opacity="1" fill-rule="nonzero"/><path fill="#ffffff" d="M 146.125 42.488281 C 145.882812 41.960938 145.925781 41.347656 146.253906 40.867188 C 146.6875 40.230469 147.417969 39.148438 148.472656 37.5625 C 150.328125 34.757812 152.21875 29.660156 154.535156 27.65625 C 156.847656 25.648438 165.472656 19.242188 167.234375 19.621094 C 168.996094 20 168.726562 22.023438 166.824219 23.671875 C 164.917969 25.324219 162.359375 27.1875 162.359375 27.1875 C 162.359375 27.1875 163.929688 26.660156 165.613281 28.179688 C 167.292969 29.703125 165.863281 30.890625 166.800781 31.613281 C 168.003906 32.542969 168.113281 33.972656 167.574219 34.761719 C 166.351562 36.550781 163.691406 34.394531 163.007812 37.566406 C 162.53125 39.769531 160.507812 41.671875 155.960938 43.894531 C 154.738281 44.492188 153.648438 45.324219 152.726562 46.320312 C 152.347656 46.730469 151.769531 46.914062 151.222656 46.777344 C 149.90625 46.441406 147.496094 45.445312 146.125 42.488281 " fill-opacity="1" fill-rule="nonzero"/><path fill="#000000" d="M 167.011719 20.257812 C 165.480469 20.257812 157.90625 25.605469 154.964844 28.15625 C 153.585938 29.347656 152.328125 31.796875 151.113281 34.160156 C 150.394531 35.558594 149.714844 36.878906 149.019531 37.925781 C 147.964844 39.519531 147.234375 40.601562 146.796875 41.238281 C 146.601562 41.523438 146.574219 41.886719 146.722656 42.210938 C 147.980469 44.921875 150.183594 45.835938 151.386719 46.136719 C 151.691406 46.214844 152.023438 46.113281 152.246094 45.875 C 153.238281 44.792969 154.394531 43.929688 155.671875 43.304688 C 159.921875 41.222656 161.921875 39.46875 162.363281 37.425781 C 162.859375 35.117188 164.359375 35.027344 165.457031 34.960938 C 166.246094 34.910156 166.707031 34.863281 167.03125 34.390625 C 167.363281 33.90625 167.324219 32.855469 166.398438 32.136719 C 165.71875 31.609375 165.769531 30.910156 165.8125 30.394531 C 165.855469 29.820312 165.894531 29.324219 165.167969 28.667969 C 163.820312 27.449219 162.613281 27.800781 162.5625 27.816406 C 162.253906 27.910156 161.917969 27.769531 161.773438 27.480469 C 161.632812 27.191406 161.710938 26.84375 161.972656 26.652344 C 162 26.636719 164.53125 24.789062 166.390625 23.175781 C 167.492188 22.21875 167.859375 21.25 167.730469 20.757812 C 167.710938 20.664062 167.636719 20.382812 167.097656 20.265625 C 167.070312 20.261719 167.042969 20.257812 167.011719 20.257812 Z M 151.59375 47.484375 C 151.417969 47.484375 151.238281 47.460938 151.0625 47.417969 C 149.632812 47.054688 147.011719 45.96875 145.527344 42.769531 C 145.1875 42.027344 145.257812 41.160156 145.710938 40.496094 C 146.140625 39.859375 146.871094 38.785156 147.921875 37.195312 C 148.578125 36.210938 149.238281 34.921875 149.941406 33.558594 C 151.214844 31.082031 152.53125 28.519531 154.101562 27.160156 C 155.140625 26.257812 164.980469 18.46875 167.375 18.976562 C 168.238281 19.164062 168.816406 19.679688 169.007812 20.429688 C 169.296875 21.550781 168.625 22.984375 167.253906 24.171875 C 166.265625 25.03125 165.113281 25.9375 164.21875 26.621094 C 164.78125 26.789062 165.414062 27.113281 166.054688 27.691406 C 167.257812 28.78125 167.179688 29.816406 167.125 30.496094 C 167.085938 30.984375 167.109375 31.023438 167.203125 31.09375 C 168.691406 32.242188 168.835938 34.082031 168.121094 35.132812 C 167.417969 36.160156 166.375 36.222656 165.535156 36.273438 C 164.503906 36.339844 163.9375 36.371094 163.648438 37.703125 C 163.113281 40.179688 160.902344 42.210938 156.25 44.488281 C 155.117188 45.042969 154.097656 45.808594 153.210938 46.765625 C 152.785156 47.230469 152.199219 47.484375 151.59375 47.484375 " fill-opacity="1" fill-rule="nonzero"/><path fill="#ffffff" d="M 78.3125 155.398438 L 54.019531 160.789062 C 53.003906 161.015625 51.996094 160.375 51.773438 159.359375 L 44.585938 127.09375 C 44.359375 126.078125 45 125.074219 46.015625 124.847656 L 70.308594 119.457031 C 71.324219 119.234375 72.332031 119.871094 72.558594 120.886719 L 79.746094 153.15625 C 79.972656 154.167969 79.328125 155.175781 78.3125 155.398438 " fill-opacity="1" fill-rule="nonzero"/><path fill="#00e7ff" d="M 60.144531 154.308594 L 57.628906 154.863281 C 57.261719 154.945312 56.898438 154.714844 56.816406 154.347656 L 56.28125 151.945312 C 56.199219 151.578125 56.429688 151.214844 56.796875 151.136719 L 59.3125 150.578125 C 59.679688 150.496094 60.042969 150.726562 60.128906 151.09375 L 60.660156 153.496094 C 60.742188 153.859375 60.511719 154.226562 60.144531 154.308594 " fill-opacity="1" fill-rule="nonzero"/><path fill="#00e7ff" d="M 65.957031 152.9375 L 63.441406 153.496094 C 63.074219 153.578125 62.710938 153.34375 62.628906 152.976562 L 60.832031 144.925781 C 60.753906 144.558594 60.984375 144.195312 61.351562 144.113281 L 63.867188 143.554688 C 64.234375 143.472656 64.597656 143.703125 64.679688 144.070312 L 66.472656 152.125 C 66.554688 152.492188 66.324219 152.855469 65.957031 152.9375 " fill-opacity="1" fill-rule="nonzero"/><path fill="#00e7ff" d="M 71.789062 151.660156 L 69.277344 152.21875 C 68.90625 152.300781 68.542969 152.070312 68.460938 151.699219 L 63.363281 128.8125 C 63.28125 128.445312 63.515625 128.082031 63.882812 128 L 66.398438 127.441406 C 66.765625 127.359375 67.128906 127.589844 67.210938 127.957031 L 72.308594 150.847656 C 72.390625 151.214844 72.160156 151.578125 71.789062 151.660156 " fill-opacity="1" fill-rule="nonzero"/><path fill="#ffffff" d="M 43.222656 133.757812 C 44.660156 132.3125 45.671875 132.199219 45.671875 132.199219 L 46.332031 134.941406 C 46.332031 134.941406 54.980469 126.265625 58.648438 132.21875 C 60.933594 135.921875 51.917969 141.890625 49.234375 145.574219 C 47.730469 147.640625 45.449219 150.664062 42.296875 150.195312 C 40.089844 149.871094 39.148438 149.042969 38.691406 147.261719 C 38.089844 144.925781 40.40625 142.914062 40.492188 139.941406 C 40.59375 136.40625 41.441406 135.550781 43.222656 133.757812 " fill-opacity="1" fill-rule="nonzero"/><path fill="#000000" d="M 43.222656 133.757812 L 43.226562 133.757812 Z M 45.203125 133.066406 C 44.839844 133.253906 44.316406 133.59375 43.691406 134.222656 C 41.960938 135.964844 41.242188 136.683594 41.148438 139.960938 C 41.105469 141.46875 40.542969 142.738281 40.046875 143.859375 C 39.519531 145.046875 39.066406 146.070312 39.332031 147.097656 C 39.675781 148.441406 40.265625 149.230469 42.394531 149.546875 C 45.21875 149.960938 47.398438 146.972656 48.703125 145.1875 C 49.558594 144.011719 50.992188 142.648438 52.511719 141.207031 C 55.578125 138.300781 59.390625 134.679688 58.089844 132.5625 C 57.441406 131.511719 56.609375 130.941406 55.542969 130.816406 C 51.859375 130.382812 46.851562 135.355469 46.800781 135.40625 C 46.632812 135.574219 46.386719 135.636719 46.15625 135.574219 C 45.925781 135.511719 45.75 135.324219 45.695312 135.09375 Z M 42.960938 150.90625 C 42.710938 150.90625 42.460938 150.886719 42.203125 150.847656 C 39.789062 150.492188 38.585938 149.5 38.054688 147.429688 C 37.675781 145.953125 38.269531 144.617188 38.84375 143.324219 C 39.3125 142.265625 39.796875 141.171875 39.832031 139.921875 C 39.941406 136.125 40.941406 135.117188 42.757812 133.292969 C 44.3125 131.726562 45.472656 131.558594 45.597656 131.542969 C 45.929688 131.511719 46.234375 131.722656 46.3125 132.046875 L 46.710938 133.691406 C 48.40625 132.191406 52.335938 129.117188 55.695312 129.507812 C 57.167969 129.679688 58.347656 130.472656 59.210938 131.871094 C 61.074219 134.898438 57.007812 138.757812 53.421875 142.164062 C 51.945312 143.5625 50.550781 144.886719 49.765625 145.964844 C 48.394531 147.84375 46.167969 150.90625 42.960938 150.90625 " fill-opacity="1" fill-rule="nonzero"/><path fill="#ffffff" d="M 72.34375 114.816406 C 72.25 114.816406 72.15625 114.796875 72.070312 114.757812 C 71.738281 114.605469 71.59375 114.214844 71.746094 113.882812 L 74.902344 106.992188 C 75.054688 106.660156 75.445312 106.515625 75.773438 106.667969 C 76.105469 106.816406 76.25 107.210938 76.097656 107.539062 L 72.941406 114.433594 C 72.832031 114.675781 72.59375 114.816406 72.34375 114.816406 " fill-opacity="1" fill-rule="nonzero"/><path fill="#ffffff" d="M 75.019531 117.898438 C 74.828125 117.898438 74.636719 117.8125 74.507812 117.652344 C 74.277344 117.367188 74.324219 116.949219 74.609375 116.722656 L 86.644531 107.121094 C 86.929688 106.894531 87.34375 106.941406 87.570312 107.222656 C 87.796875 107.507812 87.75 107.925781 87.464844 108.148438 L 75.433594 117.753906 C 75.3125 117.851562 75.164062 117.898438 75.019531 117.898438 " fill-opacity="1" fill-rule="nonzero"/><path fill="#ffffff" d="M 70.175781 91.128906 L 68.03125 91.652344 C 67.71875 91.730469 67.816406 97.453125 67.503906 97.476562 C 65.035156 97.660156 57.347656 97.164062 59.878906 90.0625 C 60.605469 88.019531 60.707031 85.804688 60.191406 83.699219 L 57.917969 74.402344 L 71.183594 71.167969 L 74.378906 84.226562 C 75.128906 87.289062 73.246094 90.382812 70.175781 91.128906 " fill-opacity="1" fill-rule="nonzero"/><path fill="#000000" d="M 70.179688 91.128906 L 70.183594 91.128906 Z M 58.714844 74.886719 L 60.832031 83.539062 C 61.382812 85.792969 61.269531 88.121094 60.5 90.28125 C 59.816406 92.195312 59.886719 93.707031 60.703125 94.777344 C 62.035156 96.523438 65.171875 96.890625 66.992188 96.839844 C 67.042969 96.292969 67.082031 95.285156 67.109375 94.558594 C 67.21875 91.617188 67.234375 91.167969 67.875 91.011719 L 70.023438 90.488281 C 71.335938 90.167969 72.445312 89.355469 73.148438 88.199219 C 73.851562 87.046875 74.058594 85.691406 73.738281 84.378906 L 70.699219 71.964844 Z M 66.679688 98.160156 C 64.984375 98.160156 61.40625 97.871094 59.65625 95.574219 C 58.550781 94.128906 58.417969 92.199219 59.257812 89.839844 C 59.941406 87.921875 60.042969 85.855469 59.554688 83.851562 L 57.277344 74.554688 C 57.238281 74.386719 57.265625 74.207031 57.355469 74.058594 C 57.445312 73.910156 57.59375 73.800781 57.761719 73.761719 L 71.027344 70.527344 C 71.378906 70.441406 71.734375 70.65625 71.824219 71.011719 L 75.019531 84.066406 C 75.421875 85.71875 75.160156 87.433594 74.273438 88.886719 C 73.390625 90.34375 71.988281 91.367188 70.335938 91.769531 L 68.554688 92.203125 C 68.496094 92.726562 68.453125 93.832031 68.425781 94.609375 C 68.316406 97.546875 68.296875 98.074219 67.554688 98.132812 C 67.433594 98.140625 67.121094 98.160156 66.679688 98.160156 " fill-opacity="1" fill-rule="nonzero"/><path fill="#ffffff" d="M 73.402344 75.945312 L 59.164062 79.417969 L 56.132812 67.035156 C 54.902344 62.011719 57.988281 56.941406 63.019531 55.714844 L 69.082031 54.238281 C 70.765625 53.824219 72.46875 54.859375 72.878906 56.542969 L 76.417969 70.992188 C 76.957031 73.191406 75.605469 75.410156 73.402344 75.945312 " fill-opacity="1" fill-rule="nonzero"/><path fill="#000000" d="M 59.164062 80.078125 C 58.867188 80.078125 58.597656 79.875 58.523438 79.574219 L 55.496094 67.191406 C 54.855469 64.589844 55.273438 61.894531 56.664062 59.605469 C 58.058594 57.316406 60.257812 55.707031 62.863281 55.070312 L 68.925781 53.59375 C 70.964844 53.097656 73.023438 54.351562 73.519531 56.382812 L 77.058594 70.835938 C 77.359375 72.070312 77.164062 73.347656 76.503906 74.433594 C 75.839844 75.519531 74.796875 76.285156 73.5625 76.585938 L 68.410156 77.839844 C 66.640625 78.273438 64.832031 78.324219 63.039062 77.996094 C 62.683594 77.925781 62.445312 77.585938 62.511719 77.226562 C 62.578125 76.871094 62.921875 76.636719 63.277344 76.699219 C 64.886719 76.992188 66.507812 76.949219 68.097656 76.558594 L 73.25 75.304688 C 74.144531 75.085938 74.898438 74.535156 75.375 73.75 C 75.851562 72.964844 75.996094 72.039062 75.777344 71.148438 L 72.242188 56.695312 C 71.914062 55.367188 70.566406 54.550781 69.238281 54.875 L 63.175781 56.351562 C 60.914062 56.902344 59 58.300781 57.792969 60.292969 C 56.582031 62.277344 56.222656 64.617188 56.773438 66.878906 L 59.804688 79.261719 C 59.890625 79.613281 59.675781 79.96875 59.320312 80.058594 C 59.269531 80.070312 59.214844 80.078125 59.164062 80.078125 " fill-opacity="1" fill-rule="nonzero"/><path fill="#000000" d="M 58.019531 74.277344 L 54.832031 70.808594 C 53.773438 69.65625 52.988281 68.269531 52.558594 66.761719 C 52.550781 66.738281 52.542969 66.710938 52.535156 66.6875 C 51.902344 64.445312 51.652344 62.101562 51.941406 59.789062 C 52.859375 52.445312 58.125 49.90625 63.1875 50.363281 C 63.199219 50.363281 63.214844 50.363281 63.226562 50.367188 C 65.058594 50.527344 66.851562 49.804688 68.0625 48.425781 L 69.367188 46.9375 C 70.277344 45.902344 71.921875 45.964844 72.722656 47.085938 C 73.742188 48.515625 74.671875 50.660156 73.886719 53.183594 L 72.949219 55.367188 L 61.253906 58.023438 C 60.261719 58.25 59.578125 59.15625 59.636719 60.167969 L 59.929688 65.347656 C 59.945312 65.625 59.761719 65.875 59.492188 65.945312 L 58.3125 66.246094 L 56.175781 65.828125 L 58.019531 74.277344 " fill-opacity="1" fill-rule="nonzero"/><path fill="#ffffff" d="M 58.316406 66.242188 L 57.339844 65.582031 C 56.539062 65.042969 55.445312 65.265625 54.925781 66.078125 C 54.5625 66.640625 54.5625 67.363281 54.917969 67.929688 L 55.554688 68.929688 C 56.085938 69.765625 56.859375 70.429688 57.773438 70.824219 L 58.867188 71.296875 L 58.316406 66.242188 " fill-opacity="1" fill-rule="nonzero"/><path fill="#6df2ff" d="M 258.308594 331.007812 C 258.308594 331.007812 271.140625 273.058594 324.765625 245.46875 C 326.410156 244.625 329.972656 250.839844 331.636719 249.996094 C 333.761719 248.914062 333.960938 240.714844 336.199219 239.761719 C 344.5 236.214844 353.554688 233.613281 363.40625 232.308594 C 363.40625 232.308594 359.945312 251.445312 346.164062 273.117188 C 345.125 274.75 336.226562 273.425781 335.066406 275.082031 C 333.96875 276.648438 340.621094 281.191406 339.414062 282.761719 C 323.789062 303.089844 298.542969 323.5 258.308594 331.007812 " fill-opacity="1" fill-rule="nonzero"/><path fill="#6df2ff" d="M 286.660156 268.628906 C 286.539062 266.675781 278.046875 265.996094 278.261719 264.101562 C 278.480469 262.230469 288.449219 256.941406 288.597656 255.121094 C 291.5625 219.371094 282.757812 193.035156 282.757812 193.035156 C 270.917969 201.535156 262.015625 207.234375 254.179688 217.773438 C 252.929688 219.457031 257.289062 228.574219 256.128906 230.292969 C 254.855469 232.175781 247.277344 228.671875 246.109375 230.597656 C 228.851562 259.007812 222.847656 293.375 221.421875 319.667969 C 234.773438 326.011719 248.078125 330.59375 261.25 333.585938 C 281.433594 310.492188 287.949219 289.265625 286.660156 268.628906 " fill-opacity="1" fill-rule="nonzero"/><path fill="#aef8ff" d="M 247.269531 317.800781 L 245.972656 317.554688 C 248.035156 306.734375 250.417969 295.824219 253.054688 285.128906 C 253.140625 284.773438 253.5 284.558594 253.851562 284.644531 C 254.207031 284.730469 254.421875 285.089844 254.335938 285.445312 C 251.703125 296.113281 249.324219 307.003906 247.269531 317.800781 " fill-opacity="1" fill-rule="nonzero"/><path fill="#aef8ff" d="M 257.652344 270.730469 C 257.59375 270.730469 257.535156 270.726562 257.476562 270.707031 C 257.125 270.613281 256.921875 270.25 257.015625 269.898438 C 261.917969 251.984375 267.699219 234.074219 274.191406 216.671875 L 277.160156 208.714844 C 277.289062 208.375 277.667969 208.199219 278.011719 208.328125 C 278.351562 208.453125 278.523438 208.835938 278.398438 209.175781 L 275.425781 217.136719 C 268.945312 234.5 263.179688 252.367188 258.289062 270.246094 C 258.207031 270.539062 257.941406 270.730469 257.652344 270.730469 " fill-opacity="1" fill-rule="nonzero"/><path fill="#ffffff" d="M 254.984375 332.015625 C 254.984375 332.015625 288.613281 283.335938 344.617188 309.808594 C 344.617188 309.808594 311.726562 348.84375 254.984375 332.015625 " fill-opacity="1" fill-rule="nonzero"/><path fill="#aef8ff" d="M 273.90625 328.734375 C 273.660156 328.734375 273.421875 328.59375 273.3125 328.351562 C 273.15625 328.023438 273.300781 327.632812 273.628906 327.480469 C 291.734375 319.0625 327.21875 313.292969 327.570312 313.234375 C 327.933594 313.175781 328.269531 313.421875 328.332031 313.78125 C 328.386719 314.140625 328.144531 314.480469 327.785156 314.539062 C 327.425781 314.59375 292.121094 320.332031 274.183594 328.671875 C 274.09375 328.714844 274.003906 328.734375 273.90625 328.734375 " fill-opacity="1" fill-rule="nonzero"/><path fill="#ffffff" d="M 179.296875 283.222656 C 183.125 282.734375 185.992188 279.480469 185.992188 275.621094 L 186.492188 170.328125 L 184.613281 166.269531 C 184.613281 166.269531 181.203125 163.996094 179.417969 162.976562 C 178.339844 162.367188 177.0625 162.082031 175.726562 162.253906 L 23.820312 181.625 C 19.992188 182.113281 17.125 185.367188 17.125 189.226562 L 17.125 293.605469 C 17.308594 300.007812 25.191406 302.953125 25.191406 302.953125 L 179.296875 283.222656 " fill-opacity="1" fill-rule="nonzero"/><path fill="#000000" d="M 21.359375 221.59375 C 20.996094 221.59375 20.699219 221.296875 20.699219 220.933594 L 20.699219 192.480469 C 20.699219 188.304688 23.824219 184.757812 27.96875 184.230469 L 54.257812 180.875 C 54.621094 180.832031 54.949219 181.082031 54.992188 181.445312 C 55.039062 181.808594 54.785156 182.136719 54.421875 182.183594 L 28.132812 185.535156 C 24.648438 185.980469 22.019531 188.964844 22.019531 192.480469 L 22.019531 220.933594 C 22.019531 221.296875 21.722656 221.59375 21.359375 221.59375 " fill-opacity="1" fill-rule="nonzero"/><path fill="#aef8ff" d="M 33.078125 298.238281 L 174.957031 280.144531 C 178.53125 279.6875 181.207031 276.648438 181.207031 273.046875 L 181.207031 175.554688 C 181.207031 172.203125 178.269531 169.613281 174.945312 170.039062 L 33.066406 188.132812 C 29.492188 188.589844 26.816406 191.628906 26.816406 195.230469 L 26.816406 292.71875 C 26.816406 296.070312 29.753906 298.660156 33.078125 298.238281 " fill-opacity="1" fill-rule="nonzero"/><path fill="#6df2ff" d="M 116.6875 364.238281 L 272.917969 344.089844 C 274.140625 343.933594 274.828125 342.910156 274.8125 341.886719 C 274.800781 341.179688 274.742188 336.207031 274.742188 336.207031 L 192.136719 288.984375 C 188 286.621094 182.644531 285.707031 177.917969 286.3125 L 23.660156 306.210938 C 22.730469 306.332031 21.9375 306.933594 21.566406 307.792969 L 21.320312 308.375 C 21.320312 308.375 21.453125 312.523438 21.398438 313.488281 C 21.355469 314.25 21.699219 315.027344 22.492188 315.484375 L 103.023438 361.527344 C 107.164062 363.890625 111.960938 364.84375 116.6875 364.238281 " fill-opacity="1" fill-rule="nonzero"/><path fill="#ffffff" d="M 116.6875 358.707031 L 272.359375 338.59375 C 274.425781 338.328125 274.96875 335.589844 273.160156 334.554688 L 193.058594 288.804688 C 188.921875 286.441406 184.125 285.492188 179.394531 286.097656 L 23.726562 306.207031 C 21.660156 306.46875 21.113281 309.210938 22.921875 310.246094 L 103.023438 355.996094 C 107.164062 358.359375 111.960938 359.308594 116.6875 358.707031 " fill-opacity="1" fill-rule="nonzero"/><path fill="#000000" d="M 182.148438 286.582031 C 181.257812 286.582031 180.367188 286.636719 179.480469 286.75 L 23.808594 306.859375 C 23.011719 306.964844 22.621094 307.550781 22.515625 308.066406 C 22.414062 308.582031 22.554688 309.277344 23.25 309.671875 L 103.351562 355.421875 C 107.339844 357.699219 112.046875 358.632812 116.605469 358.050781 L 272.273438 337.941406 C 273.070312 337.839844 273.460938 337.253906 273.566406 336.734375 C 273.667969 336.21875 273.527344 335.527344 272.832031 335.128906 L 192.730469 289.378906 C 189.519531 287.546875 185.839844 286.582031 182.148438 286.582031 Z M 116.6875 358.707031 L 116.691406 358.707031 Z M 113.9375 359.539062 C 110.015625 359.539062 106.109375 358.515625 102.699219 356.566406 L 22.597656 310.816406 C 21.523438 310.203125 20.984375 309.023438 21.222656 307.808594 C 21.464844 306.597656 22.414062 305.710938 23.640625 305.554688 L 179.308594 285.445312 C 184.148438 284.824219 189.148438 285.816406 193.386719 288.234375 L 273.484375 333.984375 C 274.558594 334.597656 275.097656 335.777344 274.859375 336.992188 C 274.617188 338.207031 273.667969 339.089844 272.441406 339.25 L 116.773438 359.359375 C 116.773438 359.359375 116.773438 359.359375 116.769531 359.359375 C 115.832031 359.476562 114.882812 359.539062 113.9375 359.539062 " fill-opacity="1" fill-rule="nonzero"/><path fill="#6df2ff" d="M 86.207031 333.308594 L 221.195312 315.742188 C 223.0625 315.503906 223.554688 313.03125 221.917969 312.097656 L 190.179688 294.152344 C 186.441406 292.015625 182.109375 291.160156 177.839844 291.703125 L 42.851562 309.269531 C 40.984375 309.507812 40.496094 311.984375 42.128906 312.917969 L 73.867188 330.863281 C 77.605469 332.996094 81.9375 333.855469 86.207031 333.308594 " fill-opacity="1" fill-rule="nonzero"/><path fill="#6df2ff" d="M 165.421875 343.617188 L 202.996094 338.765625 C 203.492188 338.703125 203.625 338.042969 203.1875 337.789062 L 185.03125 327.863281 C 184.035156 327.292969 182.878906 327.0625 181.734375 327.207031 L 144.164062 332.0625 C 143.667969 332.128906 143.535156 332.789062 143.972656 333.035156 L 162.125 342.964844 C 163.125 343.535156 164.285156 343.765625 165.421875 343.617188 " fill-opacity="1" fill-rule="nonzero"/><path fill="#000000" d="M 60.054688 312.925781 C 59.726562 312.925781 59.445312 312.683594 59.402344 312.347656 C 59.359375 311.984375 59.617188 311.65625 59.976562 311.613281 L 101.683594 306.542969 C 102.039062 306.503906 102.371094 306.757812 102.414062 307.117188 C 102.460938 307.480469 102.203125 307.808594 101.839844 307.851562 L 60.136719 312.921875 C 60.109375 312.925781 60.082031 312.925781 60.054688 312.925781 " fill-opacity="1" fill-rule="nonzero"/><path fill="#000000" d="M 101.945312 316.371094 C 101.617188 316.371094 101.332031 316.128906 101.292969 315.792969 C 101.25 315.433594 101.507812 315.101562 101.867188 315.058594 L 118.261719 313.066406 C 118.621094 313.023438 118.953125 313.277344 118.996094 313.640625 C 119.039062 314 118.78125 314.328125 118.421875 314.375 L 102.027344 316.367188 C 102 316.371094 101.972656 316.371094 101.945312 316.371094 " fill-opacity="1" fill-rule="nonzero"/><path fill="#000000" d="M 160.40625 317.367188 C 160.078125 317.367188 159.796875 317.121094 159.753906 316.789062 C 159.710938 316.425781 159.96875 316.101562 160.332031 316.054688 L 176.722656 314.0625 C 177.085938 314.023438 177.414062 314.277344 177.457031 314.636719 C 177.5 315 177.242188 315.328125 176.882812 315.371094 L 160.488281 317.363281 C 160.460938 317.367188 160.433594 317.367188 160.40625 317.367188 " fill-opacity="1" fill-rule="nonzero"/><path fill="#00e7ff" d="M 280.058594 131.457031 C 258.757812 131.457031 241.488281 114.347656 241.488281 93.234375 C 241.488281 72.125 258.757812 55.015625 280.058594 55.015625 C 301.359375 55.015625 318.628906 72.125 318.628906 93.234375 C 318.628906 114.347656 301.359375 131.457031 280.058594 131.457031 Z M 361.511719 105.152344 L 351.554688 100.027344 C 349.953125 99.199219 348.941406 97.53125 349.015625 95.742188 C 349.089844 93.847656 349.082031 91.960938 349.003906 90.085938 C 348.917969 88.300781 349.910156 86.636719 351.503906 85.796875 L 361.402344 80.585938 C 363.347656 79.558594 364.320312 77.332031 363.742188 75.226562 L 361.375 66.636719 C 360.796875 64.527344 358.816406 63.097656 356.609375 63.195312 L 345.390625 63.691406 C 343.574219 63.769531 341.871094 62.8125 341.019531 61.222656 C 340.140625 59.578125 339.195312 57.96875 338.179688 56.402344 C 337.203125 54.882812 337.199219 52.941406 338.164062 51.414062 L 344.121094 41.980469 C 345.289062 40.125 345.007812 37.714844 343.441406 36.175781 L 337.0625 29.910156 C 335.492188 28.367188 333.058594 28.113281 331.199219 29.289062 L 321.75 35.261719 C 320.21875 36.234375 318.265625 36.25 316.722656 35.296875 C 315.136719 34.3125 313.5 33.390625 311.816406 32.53125 C 310.199219 31.703125 309.214844 30.019531 309.277344 28.21875 L 309.675781 17.101562 C 309.753906 14.917969 308.292969 12.972656 306.160156 12.414062 L 297.472656 10.148438 C 295.339844 9.59375 293.101562 10.574219 292.082031 12.515625 L 286.910156 22.382812 C 286.074219 23.976562 284.394531 24.972656 282.585938 24.902344 C 280.675781 24.828125 278.773438 24.832031 276.882812 24.917969 C 275.078125 24.996094 273.398438 24.015625 272.550781 22.4375 L 267.292969 12.628906 C 266.257812 10.699219 264.011719 9.734375 261.882812 10.308594 L 253.214844 12.652344 C 251.085938 13.226562 249.644531 15.191406 249.746094 17.375 L 250.242188 28.496094 C 250.324219 30.28125 249.375 31.972656 247.78125 32.8125 C 246.101562 33.695312 244.464844 34.640625 242.863281 35.65625 C 241.339844 36.621094 239.386719 36.605469 237.855469 35.65625 L 228.335938 29.753906 C 226.460938 28.59375 224.03125 28.871094 222.476562 30.425781 L 216.15625 36.746094 C 214.601562 38.300781 214.34375 40.714844 215.527344 42.558594 L 221.558594 51.921875 C 222.535156 53.433594 222.554688 55.375 221.589844 56.898438 C 220.597656 58.476562 219.667969 60.097656 218.800781 61.765625 C 217.964844 63.367188 216.265625 64.34375 214.449219 64.28125 L 203.230469 63.886719 C 201.027344 63.8125 199.0625 65.257812 198.5 67.371094 L 196.214844 75.980469 C 195.652344 78.09375 196.648438 80.3125 198.605469 81.320312 L 208.5625 86.445312 C 210.167969 87.273438 211.175781 88.941406 211.101562 90.730469 C 211.027344 92.625 211.035156 94.511719 211.117188 96.382812 C 211.199219 98.171875 210.207031 99.835938 208.613281 100.675781 L 198.714844 105.886719 C 196.769531 106.910156 195.796875 109.140625 196.378906 111.246094 L 198.742188 119.835938 C 199.324219 121.945312 201.300781 123.375 203.507812 123.277344 L 214.726562 122.78125 C 216.53125 122.703125 218.238281 123.640625 219.082031 125.226562 C 219.972656 126.886719 220.929688 128.511719 221.953125 130.097656 C 222.925781 131.605469 222.914062 133.542969 221.953125 135.058594 L 216 144.496094 C 214.828125 146.351562 215.109375 148.757812 216.675781 150.296875 L 223.058594 156.5625 C 224.621094 158.101562 227.058594 158.359375 228.917969 157.183594 L 238.367188 151.207031 C 239.898438 150.238281 241.851562 150.226562 243.394531 151.175781 C 244.976562 152.160156 246.621094 153.082031 248.300781 153.941406 C 249.917969 154.769531 250.90625 156.453125 250.839844 158.253906 L 250.441406 169.367188 C 250.367188 171.554688 251.824219 173.5 253.960938 174.058594 L 262.644531 176.324219 C 264.78125 176.878906 267.015625 175.898438 268.035156 173.957031 L 273.210938 164.085938 C 274.042969 162.496094 275.722656 161.5 277.535156 161.570312 C 279.445312 161.640625 281.34375 161.640625 283.238281 161.554688 C 285.039062 161.476562 286.71875 162.457031 287.566406 164.035156 L 292.824219 173.84375 C 293.859375 175.773438 296.105469 176.738281 298.234375 176.164062 L 306.902344 173.816406 C 309.03125 173.246094 310.472656 171.285156 310.375 169.097656 L 309.875 157.976562 C 309.792969 156.179688 310.757812 154.492188 312.363281 153.648438 C 314.023438 152.773438 315.648438 151.835938 317.230469 150.832031 C 318.761719 149.863281 320.71875 149.863281 322.261719 150.816406 L 331.785156 156.71875 C 333.65625 157.878906 336.089844 157.601562 337.640625 156.046875 L 343.960938 149.722656 C 345.515625 148.171875 345.777344 145.757812 344.589844 143.914062 L 338.554688 134.550781 C 337.582031 133.035156 337.5625 131.097656 338.527344 129.574219 C 339.519531 127.996094 340.449219 126.375 341.316406 124.707031 C 342.152344 123.105469 343.851562 122.125 345.667969 122.191406 L 356.886719 122.585938 C 359.089844 122.664062 361.054688 121.214844 361.617188 119.101562 L 363.902344 110.492188 C 364.464844 108.375 363.472656 106.160156 361.511719 105.152344 " fill-opacity="1" fill-rule="nonzero"/><path fill="#ffffff" d="M 253.574219 92.996094 C 253.574219 78.058594 265.675781 65.949219 280.601562 65.949219 C 295.527344 65.949219 307.628906 78.058594 307.628906 92.996094 C 307.628906 107.9375 295.527344 120.046875 280.601562 120.046875 C 265.675781 120.046875 253.574219 107.9375 253.574219 92.996094 " fill-opacity="1" fill-rule="nonzero"/><path fill="#6df2ff" d="M 261.574219 112.664062 C 266.445312 117.257812 273 120.082031 280.222656 120.082031 C 287.445312 120.082031 294 117.257812 298.871094 112.664062 C 293.238281 110.921875 286.914062 109.941406 280.222656 109.941406 C 273.535156 109.941406 267.207031 110.921875 261.574219 112.664062 " fill-opacity="1" fill-rule="nonzero"/><path fill="#000000" d="M 288.933594 77.195312 C 287.710938 76.40625 286.28125 75.988281 284.824219 75.988281 L 276.25 75.988281 C 274.335938 75.988281 272.488281 76.710938 271.085938 78.011719 L 270.617188 78.449219 C 268.386719 80.519531 267.609375 83.722656 268.640625 86.582031 L 271.460938 94.410156 L 289.542969 94.296875 L 292.097656 85.742188 C 293.0625 82.507812 291.773438 79.023438 288.933594 77.195312 " fill-opacity="1" fill-rule="nonzero"/><path fill="#ffffff" d="M 284.609375 80.675781 C 284.605469 80.671875 284.59375 80.667969 284.59375 80.667969 L 271.367188 89.148438 L 271.367188 94.070312 C 271.367188 96.980469 272.726562 99.566406 274.84375 101.242188 L 274.84375 108.988281 C 274.84375 112.050781 277.320312 114.535156 280.386719 114.535156 C 283.449219 114.535156 285.929688 112.050781 285.929688 108.988281 L 285.929688 101.453125 C 288.199219 99.789062 289.675781 97.101562 289.675781 94.070312 L 289.675781 88.679688 C 289.675781 85.144531 287.605469 82.09375 284.609375 80.675781 " fill-opacity="1" fill-rule="nonzero"/><path fill="#000000" d="M 280.386719 115.195312 C 276.964844 115.195312 274.183594 112.410156 274.183594 108.992188 L 274.183594 101.40625 L 275.5 101.40625 L 275.5 108.992188 C 275.5 111.683594 277.695312 113.875 280.386719 113.875 C 283.078125 113.875 285.273438 111.683594 285.273438 108.992188 L 285.273438 101.640625 L 286.589844 101.640625 L 286.589844 108.992188 C 286.589844 112.410156 283.804688 115.195312 280.386719 115.195312 " fill-opacity="1" fill-rule="nonzero"/><path fill="#000000" d="M 280.523438 103.882812 C 280.15625 103.882812 279.863281 103.589844 279.863281 103.222656 C 279.863281 102.859375 280.15625 102.566406 280.523438 102.566406 C 285.207031 102.566406 289.019531 98.753906 289.019531 94.070312 L 289.019531 88.679688 C 289.019531 84.164062 285.34375 80.488281 280.828125 80.488281 L 272.023438 80.488281 L 272.023438 94.070312 C 272.023438 97.390625 273.980469 100.429688 277.003906 101.808594 C 277.335938 101.957031 277.480469 102.347656 277.332031 102.679688 C 277.179688 103.007812 276.789062 103.15625 276.457031 103.007812 C 272.964844 101.417969 270.707031 97.90625 270.707031 94.070312 L 270.707031 79.828125 C 270.707031 79.464844 271.003906 79.167969 271.367188 79.167969 L 280.828125 79.167969 C 286.070312 79.167969 290.335938 83.433594 290.335938 88.679688 L 290.335938 94.070312 C 290.335938 99.480469 285.933594 103.882812 280.523438 103.882812 " fill-opacity="1" fill-rule="nonzero"/><path fill="#000000" d="M 280.179688 120.703125 C 272.847656 120.703125 265.527344 117.835938 260.066406 112.132812 C 249.949219 101.574219 249.753906 84.863281 259.625 74.085938 C 259.871094 73.816406 260.285156 73.800781 260.554688 74.046875 C 260.824219 74.292969 260.839844 74.710938 260.597656 74.976562 C 251.191406 85.242188 251.378906 101.164062 261.019531 111.226562 C 271.140625 121.785156 287.964844 122.148438 298.523438 112.027344 C 303.640625 107.128906 306.542969 100.527344 306.691406 93.441406 C 306.84375 86.359375 304.230469 79.640625 299.328125 74.523438 C 294.023438 68.988281 286.597656 66.023438 278.921875 66.378906 C 278.566406 66.398438 278.25 66.113281 278.230469 65.75 C 278.214844 65.386719 278.496094 65.078125 278.859375 65.0625 C 286.90625 64.683594 294.714844 67.800781 300.28125 73.613281 C 305.421875 78.980469 308.171875 86.035156 308.011719 93.472656 C 307.851562 100.90625 304.808594 107.835938 299.433594 112.980469 C 294.050781 118.140625 287.109375 120.703125 280.179688 120.703125 " fill-opacity="1" fill-rule="nonzero"/><path fill="#ffffff" d="M 196.042969 156.703125 C 196.042969 144.339844 206.058594 134.320312 218.410156 134.320312 C 230.757812 134.320312 240.773438 144.339844 240.773438 156.703125 C 240.773438 169.066406 230.757812 179.085938 218.410156 179.085938 C 206.058594 179.085938 196.042969 169.066406 196.042969 156.703125 " fill-opacity="1" fill-rule="nonzero"/><path fill="#000000" d="M 218.410156 179.742188 C 205.714844 179.742188 195.382812 169.40625 195.382812 156.703125 C 195.382812 153.988281 195.855469 151.328125 196.773438 148.796875 C 196.902344 148.453125 197.28125 148.28125 197.621094 148.40625 C 197.964844 148.53125 198.140625 148.90625 198.015625 149.25 C 197.144531 151.632812 196.703125 154.140625 196.703125 156.703125 C 196.703125 168.683594 206.441406 178.425781 218.410156 178.425781 C 230.375 178.425781 240.113281 168.683594 240.113281 156.703125 C 240.113281 144.722656 230.375 134.980469 218.410156 134.980469 C 211.894531 134.980469 205.78125 137.871094 201.636719 142.910156 C 201.40625 143.191406 200.992188 143.230469 200.710938 143 C 200.429688 142.769531 200.390625 142.355469 200.621094 142.074219 C 205.015625 136.730469 211.5 133.660156 218.410156 133.660156 C 231.101562 133.660156 241.429688 144 241.429688 156.703125 C 241.429688 169.40625 231.101562 179.742188 218.410156 179.742188 " fill-opacity="1" fill-rule="nonzero"/><path fill="#6df2ff" d="M 203.066406 172.980469 C 207.070312 176.761719 212.46875 179.085938 218.410156 179.085938 C 224.347656 179.085938 229.742188 176.761719 233.75 172.980469 C 229.117188 171.542969 223.910156 170.734375 218.410156 170.734375 C 212.902344 170.734375 207.699219 171.542969 203.066406 172.980469 " fill-opacity="1" fill-rule="nonzero"/><path fill="#ffffff" d="M 218.542969 174.519531 C 216.589844 174.519531 215.011719 172.9375 215.011719 170.988281 L 215.011719 152.972656 L 222.070312 152.972656 L 222.070312 170.988281 C 222.070312 172.9375 220.492188 174.519531 218.542969 174.519531 " fill-opacity="1" fill-rule="nonzero"/><path fill="#000000" d="M 232.207031 159.546875 C 231.765625 153.949219 234.230469 150.457031 228.703125 144.136719 C 222.976562 137.589844 218.066406 141.980469 218.066406 141.980469 C 218.066406 141.980469 213.976562 138.578125 208.601562 145.691406 C 203.859375 151.964844 209.933594 157.589844 207.890625 161.5 C 205.847656 165.40625 198.929688 167.539062 198.929688 167.539062 C 198.929688 167.539062 201.148438 171.980469 203.898438 173.933594 L 233.09375 173.933594 C 233.09375 173.933594 239.128906 167.359375 239.128906 165.496094 C 239.128906 165.496094 232.652344 165.140625 232.207031 159.546875 " fill-opacity="1" fill-rule="nonzero"/><path fill="#6df2ff" d="M 203.066406 172.980469 C 207.070312 176.761719 212.46875 179.085938 218.410156 179.085938 C 224.347656 179.085938 229.742188 176.761719 233.75 172.980469 C 229.117188 171.542969 223.910156 170.734375 218.410156 170.734375 C 212.902344 170.734375 207.699219 171.542969 203.066406 172.980469 " fill-opacity="1" fill-rule="nonzero"/><path fill="#000000" d="M 204.386719 173.277344 C 208.304688 176.605469 213.238281 178.425781 218.410156 178.425781 C 223.574219 178.425781 228.511719 176.605469 232.429688 173.277344 C 228.011719 172.027344 223.300781 171.394531 218.410156 171.394531 C 213.515625 171.394531 208.800781 172.027344 204.386719 173.277344 Z M 218.410156 179.746094 C 212.515625 179.746094 206.90625 177.511719 202.613281 173.460938 L 201.796875 172.683594 L 202.871094 172.351562 C 207.738281 170.84375 212.964844 170.078125 218.410156 170.078125 C 223.851562 170.078125 229.078125 170.84375 233.945312 172.351562 L 235.023438 172.683594 L 234.203125 173.460938 C 229.910156 177.511719 224.300781 179.746094 218.410156 179.746094 " fill-opacity="1" fill-rule="nonzero"/><path fill="#ffffff" d="M 218.886719 147.109375 L 218.640625 147.109375 L 211.457031 154.339844 L 211.457031 158.300781 C 211.457031 160.949219 212.882812 163.257812 215.011719 164.507812 L 215.011719 170.988281 C 215.011719 172.9375 216.589844 174.519531 218.542969 174.519531 C 220.492188 174.519531 222.070312 172.9375 222.070312 170.988281 L 222.070312 164.628906 C 224.3125 163.410156 225.832031 161.035156 225.832031 158.300781 L 225.832031 154.066406 C 225.832031 150.226562 222.722656 147.109375 218.886719 147.109375 " fill-opacity="1" fill-rule="nonzero"/><path fill="#000000" d="M 218.542969 175.175781 C 216.230469 175.175781 214.351562 173.300781 214.351562 170.988281 L 214.351562 164.703125 C 214.351562 164.339844 214.648438 164.046875 215.011719 164.046875 C 215.375 164.046875 215.671875 164.339844 215.671875 164.703125 L 215.671875 170.988281 C 215.671875 172.570312 216.957031 173.859375 218.542969 173.859375 C 220.125 173.859375 221.414062 172.570312 221.414062 170.988281 L 221.414062 164.8125 C 221.414062 164.449219 221.707031 164.152344 222.070312 164.152344 C 222.433594 164.152344 222.730469 164.449219 222.730469 164.8125 L 222.730469 170.988281 C 222.730469 173.300781 220.851562 175.175781 218.542969 175.175781 " fill-opacity="1" fill-rule="nonzero"/><path fill="#000000" d="M 218.644531 166.15625 C 218.28125 166.15625 217.984375 165.859375 217.984375 165.496094 C 217.984375 165.132812 218.28125 164.839844 218.644531 164.839844 C 222.246094 164.839844 225.171875 161.90625 225.171875 158.300781 L 225.171875 154.066406 C 225.171875 150.6875 222.53125 147.921875 219.164062 147.777344 C 219.160156 147.777344 219.152344 147.777344 219.148438 147.777344 L 212.117188 154.734375 L 212.117188 158.300781 C 212.117188 160.855469 213.617188 163.191406 215.941406 164.253906 C 216.273438 164.40625 216.417969 164.792969 216.269531 165.125 C 216.117188 165.457031 215.726562 165.601562 215.394531 165.453125 C 212.601562 164.179688 210.796875 161.375 210.796875 158.300781 L 210.796875 154.460938 C 210.796875 154.28125 210.867188 154.117188 210.992188 153.992188 L 218.421875 146.644531 C 218.542969 146.519531 218.710938 146.453125 218.886719 146.453125 C 218.996094 146.453125 219.109375 146.453125 219.21875 146.457031 C 223.296875 146.636719 226.492188 149.980469 226.492188 154.066406 L 226.492188 158.300781 C 226.492188 162.628906 222.972656 166.15625 218.644531 166.15625 " fill-opacity="1" fill-rule="nonzero"/><path fill="#ffffff" d="M 307.523438 134.414062 C 307.523438 122.023438 317.558594 111.980469 329.933594 111.980469 C 342.316406 111.980469 352.347656 122.023438 352.347656 134.414062 C 352.347656 146.800781 342.316406 156.84375 329.933594 156.84375 C 317.558594 156.84375 307.523438 146.800781 307.523438 134.414062 " fill-opacity="1" fill-rule="nonzero"/><path fill="#00e7ff" d="M 314.15625 150.722656 C 318.195312 154.535156 323.632812 156.875 329.621094 156.875 C 335.609375 156.875 341.050781 154.535156 345.085938 150.722656 C 340.414062 149.277344 335.167969 148.464844 329.621094 148.464844 C 324.074219 148.464844 318.824219 149.277344 314.15625 150.722656 " fill-opacity="1" fill-rule="nonzero"/><path fill="#000000" d="M 336.84375 121.308594 C 335.828125 120.65625 334.648438 120.304688 333.4375 120.304688 L 326.328125 120.304688 C 324.738281 120.304688 323.207031 120.90625 322.042969 121.988281 L 321.652344 122.347656 C 319.804688 124.066406 319.160156 126.71875 320.015625 129.09375 L 322.355469 135.585938 L 337.351562 135.488281 L 339.46875 128.398438 C 340.265625 125.714844 339.199219 122.824219 336.84375 121.308594 " fill-opacity="1" fill-rule="nonzero"/><path fill="#ffffff" d="M 333.136719 124.140625 C 333.105469 124.125 333.039062 124.097656 333.039062 124.097656 L 322.277344 131.085938 L 322.277344 135.300781 C 322.277344 137.714844 323.402344 139.859375 325.15625 141.25 L 325.15625 147.675781 C 325.15625 150.214844 327.214844 152.277344 329.757812 152.277344 C 332.296875 152.277344 334.355469 150.214844 334.355469 147.675781 L 334.355469 141.417969 C 336.234375 140.035156 337.460938 137.816406 337.460938 135.300781 L 337.460938 130.832031 C 337.460938 127.855469 335.6875 125.289062 333.136719 124.140625 " fill-opacity="1" fill-rule="nonzero"/><path fill="#000000" d="M 329.867188 143.554688 C 329.503906 143.554688 329.207031 143.257812 329.207031 142.894531 C 329.207031 142.53125 329.503906 142.234375 329.867188 142.234375 C 333.691406 142.234375 336.800781 139.128906 336.800781 135.304688 L 336.800781 130.832031 C 336.800781 127.148438 333.804688 124.152344 330.121094 124.152344 L 322.933594 124.152344 L 322.933594 135.304688 C 322.933594 138.015625 324.53125 140.492188 327 141.617188 C 327.332031 141.765625 327.476562 142.15625 327.324219 142.488281 C 327.175781 142.820312 326.78125 142.96875 326.453125 142.816406 C 323.515625 141.480469 321.617188 138.53125 321.617188 135.304688 L 321.617188 123.496094 C 321.617188 123.128906 321.910156 122.835938 322.277344 122.835938 L 330.121094 122.835938 C 334.53125 122.835938 338.117188 126.421875 338.117188 130.832031 L 338.117188 135.304688 C 338.117188 139.851562 334.417969 143.554688 329.867188 143.554688 " fill-opacity="1" fill-rule="nonzero"/><path fill="#000000" d="M 329.617188 157.503906 C 323.621094 157.503906 317.632812 155.199219 313.097656 150.605469 C 304.113281 141.496094 304.214844 126.777344 313.320312 117.792969 C 322 109.234375 335.921875 108.867188 345.023438 116.957031 C 345.289062 117.199219 345.316406 117.617188 345.074219 117.886719 C 344.832031 118.160156 344.417969 118.1875 344.144531 117.941406 C 335.5625 110.3125 322.429688 110.660156 314.246094 118.734375 C 305.65625 127.207031 305.5625 141.089844 314.039062 149.679688 C 318.140625 153.839844 323.621094 156.15625 329.46875 156.195312 C 329.519531 156.195312 329.570312 156.195312 329.621094 156.195312 C 335.410156 156.195312 340.863281 153.960938 344.988281 149.890625 C 349.488281 145.449219 351.851562 139.277344 351.460938 132.957031 C 351.4375 132.59375 351.714844 132.28125 352.078125 132.257812 C 352.453125 132.230469 352.753906 132.511719 352.773438 132.875 C 353.1875 139.574219 350.6875 146.117188 345.914062 150.828125 C 341.402344 155.28125 335.507812 157.503906 329.617188 157.503906 " fill-opacity="1" fill-rule="nonzero"/><path fill="#000000" d="M 329.757812 152.929688 C 326.859375 152.929688 324.5 150.574219 324.5 147.675781 L 324.5 141.25 C 324.5 140.886719 324.796875 140.59375 325.15625 140.59375 C 325.523438 140.59375 325.816406 140.886719 325.816406 141.25 L 325.816406 147.675781 C 325.816406 149.847656 327.585938 151.613281 329.757812 151.613281 C 331.929688 151.613281 333.695312 149.847656 333.695312 147.675781 L 333.695312 141.578125 C 333.695312 141.214844 333.992188 140.917969 334.355469 140.917969 C 334.722656 140.917969 335.015625 141.214844 335.015625 141.578125 L 335.015625 147.675781 C 335.015625 150.574219 332.65625 152.929688 329.757812 152.929688 " fill-opacity="1" fill-rule="nonzero"/><path fill="#aef8ff" d="M 314.304688 58.566406 C 318.261719 62.300781 323.59375 64.59375 329.46875 64.59375 C 335.339844 64.59375 340.671875 62.300781 344.628906 58.566406 C 340.050781 57.144531 334.90625 56.347656 329.46875 56.347656 C 324.027344 56.347656 318.886719 57.144531 314.304688 58.566406 " fill-opacity="1" fill-rule="nonzero"/><path fill="#000000" d="M 315.625 58.859375 C 319.496094 62.140625 324.367188 63.933594 329.46875 63.933594 C 334.570312 63.933594 339.4375 62.140625 343.3125 58.859375 C 338.949219 57.628906 334.300781 57.007812 329.46875 57.007812 C 324.636719 57.007812 319.988281 57.628906 315.625 58.859375 Z M 329.46875 65.25 C 323.640625 65.25 318.09375 63.042969 313.851562 59.039062 C 313.683594 58.882812 313.609375 58.640625 313.664062 58.414062 C 313.71875 58.183594 313.886719 58 314.109375 57.933594 C 318.921875 56.441406 324.085938 55.6875 329.46875 55.6875 C 334.847656 55.6875 340.015625 56.441406 344.824219 57.933594 C 345.050781 58 345.222656 58.183594 345.273438 58.414062 C 345.324219 58.640625 345.253906 58.882812 345.082031 59.039062 C 340.84375 63.042969 335.296875 65.25 329.46875 65.25 " fill-opacity="1" fill-rule="nonzero"/><path fill="#000000" d="M 336.550781 29.722656 C 335.554688 29.082031 334.394531 28.742188 333.207031 28.742188 L 326.238281 28.742188 C 324.679688 28.742188 323.179688 29.328125 322.039062 30.390625 L 321.65625 30.742188 C 319.84375 32.425781 319.210938 35.027344 320.050781 37.355469 L 322.34375 43.71875 L 337.046875 43.625 L 339.121094 36.671875 C 339.90625 34.042969 338.859375 31.207031 336.550781 29.722656 " fill-opacity="1" fill-rule="nonzero"/><path fill="#ffffff" d="M 332.914062 32.496094 C 332.882812 32.480469 332.820312 32.453125 332.820312 32.453125 L 322.265625 39.308594 L 322.265625 43.441406 C 322.265625 45.808594 323.375 47.910156 325.09375 49.273438 L 325.09375 55.574219 C 325.09375 58.0625 327.113281 60.082031 329.601562 60.082031 C 332.089844 60.082031 334.109375 58.0625 334.109375 55.574219 L 334.109375 49.4375 C 335.953125 48.082031 337.152344 45.90625 337.152344 43.441406 L 337.152344 39.058594 C 337.152344 36.136719 335.414062 33.625 332.914062 32.496094 " fill-opacity="1" fill-rule="nonzero"/><path fill="#000000" d="M 329.707031 51.542969 C 329.347656 51.542969 329.050781 51.25 329.050781 50.886719 C 329.050781 50.523438 329.347656 50.226562 329.707031 50.226562 C 333.453125 50.226562 336.496094 47.183594 336.496094 43.441406 L 336.496094 39.058594 C 336.496094 35.453125 333.5625 32.519531 329.960938 32.519531 L 322.925781 32.519531 L 322.925781 43.441406 C 322.925781 46.09375 324.488281 48.519531 326.902344 49.621094 C 327.234375 49.769531 327.378906 50.164062 327.226562 50.492188 C 327.078125 50.824219 326.6875 50.972656 326.355469 50.820312 C 323.472656 49.507812 321.609375 46.609375 321.609375 43.441406 L 321.609375 31.863281 C 321.609375 31.5 321.902344 31.203125 322.265625 31.203125 L 329.960938 31.203125 C 334.289062 31.203125 337.8125 34.730469 337.8125 39.058594 L 337.8125 43.441406 C 337.8125 47.910156 334.179688 51.542969 329.707031 51.542969 " fill-opacity="1" fill-rule="nonzero"/><path fill="#000000" d="M 329.464844 65.230469 C 329.414062 65.230469 329.359375 65.230469 329.304688 65.230469 C 323.226562 65.191406 317.527344 62.785156 313.257812 58.457031 C 304.441406 49.519531 304.542969 35.082031 313.476562 26.265625 C 321.988281 17.871094 335.648438 17.511719 344.574219 25.445312 C 344.847656 25.691406 344.867188 26.105469 344.625 26.378906 C 344.386719 26.648438 343.96875 26.675781 343.695312 26.429688 C 335.285156 18.953125 322.421875 19.292969 314.402344 27.207031 C 305.984375 35.507812 305.890625 49.113281 314.191406 57.53125 C 318.21875 61.609375 323.585938 63.875 329.316406 63.914062 C 335.023438 63.960938 340.445312 61.761719 344.519531 57.738281 C 348.933594 53.382812 351.25 47.335938 350.867188 41.144531 C 350.84375 40.78125 351.117188 40.46875 351.480469 40.445312 C 351.851562 40.414062 352.160156 40.699219 352.179688 41.0625 C 352.585938 47.632812 350.128906 54.054688 345.445312 58.675781 C 341.15625 62.910156 335.488281 65.230469 329.464844 65.230469 " fill-opacity="1" fill-rule="nonzero"/><path fill="#000000" d="M 329.597656 60.742188 C 326.75 60.742188 324.429688 58.425781 324.429688 55.574219 L 324.429688 49.277344 C 324.429688 48.914062 324.726562 48.617188 325.089844 48.617188 C 325.457031 48.617188 325.75 48.914062 325.75 49.277344 L 325.75 55.574219 C 325.75 57.699219 327.476562 59.425781 329.597656 59.425781 C 331.722656 59.425781 333.449219 57.699219 333.449219 55.574219 L 333.449219 49.597656 C 333.449219 49.230469 333.746094 48.9375 334.109375 48.9375 C 334.472656 48.9375 334.765625 49.230469 334.765625 49.597656 L 334.765625 55.574219 C 334.765625 58.425781 332.445312 60.742188 329.597656 60.742188 " fill-opacity="1" fill-rule="nonzero"/><g clip-path="url(#de1bee00a2)"><g clip-path="url(#a67a995fa3)"><path fill="#aef8ff" d="M 184.410156 112.125 C 190.308594 117.753906 198.28125 121.230469 207.078125 121.277344 C 215.878906 121.324219 223.882812 117.929688 229.84375 112.363281 C 222.992188 110.203125 215.292969 108.96875 207.144531 108.925781 C 198.996094 108.882812 191.28125 110.035156 184.410156 112.125 " fill-opacity="1" fill-rule="nonzero"/></g></g><g clip-path="url(#54002cf126)"><g clip-path="url(#df16a45c97)"><path fill="#000000" d="M 185.710938 112.429688 C 191.613281 117.679688 199.15625 120.578125 207.082031 120.621094 C 214.992188 120.667969 222.578125 117.839844 228.539062 112.65625 C 221.8125 110.65625 214.621094 109.625 207.136719 109.585938 C 199.660156 109.542969 192.453125 110.503906 185.710938 112.429688 Z M 207.253906 121.9375 C 207.195312 121.9375 207.132812 121.9375 207.074219 121.9375 C 198.429688 121.894531 190.21875 118.578125 183.953125 112.605469 C 183.785156 112.441406 183.710938 112.203125 183.769531 111.976562 C 183.824219 111.746094 183.992188 111.566406 184.21875 111.496094 C 191.402344 109.3125 199.113281 108.21875 207.144531 108.265625 C 215.171875 108.3125 222.875 109.476562 230.039062 111.734375 C 230.261719 111.808594 230.433594 111.992188 230.484375 112.21875 C 230.535156 112.449219 230.460938 112.6875 230.292969 112.847656 C 224.007812 118.714844 215.832031 121.9375 207.253906 121.9375 " fill-opacity="1" fill-rule="nonzero"/></g></g><g clip-path="url(#57c716a641)"><g clip-path="url(#f2951fc287)"><path fill="#000000" d="M 226.460938 89.695312 C 223.582031 79.324219 217.644531 65.722656 206.507812 67.394531 C 195.824219 68.996094 190.796875 80.722656 188.488281 89.800781 C 187.082031 95.328125 191.296875 100.695312 197 100.722656 L 217.910156 100.832031 C 223.742188 100.863281 228.019531 95.316406 226.460938 89.695312 " fill-opacity="1" fill-rule="nonzero"/></g></g><g clip-path="url(#c07b2307a1)"><g clip-path="url(#5d6afb7408)"><path fill="#ffffff" d="M 217.246094 77.652344 C 217.238281 77.625 217.230469 77.574219 217.230469 77.574219 L 198.242188 77.429688 C 198.242188 77.429688 198.234375 77.460938 198.234375 77.476562 C 197.984375 78.421875 197.847656 79.421875 197.839844 80.453125 L 197.8125 86.011719 C 197.789062 89.730469 199.535156 93.011719 202.1875 94.929688 L 202.113281 109.4375 C 202.097656 112.324219 204.425781 114.675781 207.3125 114.691406 C 210.199219 114.707031 212.550781 112.378906 212.566406 109.492188 L 212.636719 95.195312 C 215.480469 93.34375 217.394531 89.972656 217.414062 86.113281 L 217.449219 79.84375 C 217.453125 79.089844 217.382812 78.359375 217.246094 77.652344 " fill-opacity="1" fill-rule="nonzero"/></g></g><g clip-path="url(#94eaad80b7)"><g clip-path="url(#8cd485f453)"><path fill="#000000" d="M 207.34375 115.347656 C 207.328125 115.347656 207.320312 115.347656 207.304688 115.347656 C 204.0625 115.332031 201.4375 112.679688 201.453125 109.433594 L 201.527344 95.355469 C 201.527344 94.992188 201.820312 94.699219 202.1875 94.699219 C 202.1875 94.699219 202.1875 94.699219 202.191406 94.699219 C 202.550781 94.703125 202.847656 95 202.84375 95.363281 L 202.769531 109.4375 C 202.757812 111.957031 204.796875 114.015625 207.316406 114.03125 C 207.324219 114.03125 207.332031 114.03125 207.34375 114.03125 C 208.550781 114.03125 209.691406 113.5625 210.550781 112.710938 C 211.417969 111.851562 211.898438 110.707031 211.90625 109.488281 L 211.976562 95.355469 C 211.980469 94.992188 212.277344 94.699219 212.640625 94.699219 C 212.640625 94.699219 212.640625 94.699219 212.644531 94.699219 C 213.007812 94.703125 213.296875 95 213.296875 95.363281 L 213.222656 109.496094 C 213.214844 111.066406 212.59375 112.539062 211.480469 113.648438 C 210.367188 114.746094 208.898438 115.347656 207.34375 115.347656 " fill-opacity="1" fill-rule="nonzero"/></g></g><g clip-path="url(#d246b05e90)"><g clip-path="url(#c98e7b317e)"><path fill="#000000" d="M 207.636719 90.539062 C 207.628906 90.539062 207.621094 90.539062 207.617188 90.539062 C 206.390625 90.53125 205.210938 90.015625 204.378906 89.121094 C 204.128906 88.855469 204.144531 88.4375 204.410156 88.1875 C 204.679688 87.941406 205.09375 87.953125 205.34375 88.222656 C 205.9375 88.863281 206.746094 89.214844 207.621094 89.222656 C 207.625 89.222656 207.632812 89.222656 207.636719 89.222656 C 208.507812 89.222656 209.316406 88.871094 209.917969 88.238281 C 210.171875 87.972656 210.585938 87.964844 210.851562 88.210938 C 211.113281 88.464844 211.125 88.878906 210.875 89.144531 C 210.023438 90.042969 208.875 90.539062 207.636719 90.539062 " fill-opacity="1" fill-rule="nonzero"/></g></g><g clip-path="url(#799fdc5ee5)"><g clip-path="url(#a031436729)"><path fill="#000000" d="M 207.601562 97.363281 C 207.585938 97.363281 207.570312 97.363281 207.550781 97.363281 C 207.191406 97.363281 206.898438 97.066406 206.898438 96.699219 C 206.898438 96.339844 207.195312 96.046875 207.554688 96.046875 C 207.574219 96.046875 207.585938 96.046875 207.601562 96.046875 C 212.625 96.046875 216.726562 91.601562 216.753906 86.109375 L 216.789062 79.839844 C 216.804688 77.257812 215.890625 74.828125 214.222656 73 C 212.570312 71.183594 210.367188 70.179688 208.023438 70.164062 C 208.007812 70.164062 207.992188 70.164062 207.976562 70.164062 C 205.476562 70.164062 203.117188 71.21875 201.332031 73.136719 C 199.519531 75.085938 198.515625 77.683594 198.5 80.453125 L 198.46875 86.011719 C 198.449219 89.925781 200.542969 93.511719 203.800781 95.144531 C 204.125 95.308594 204.257812 95.703125 204.09375 96.027344 C 203.929688 96.351562 203.539062 96.484375 203.210938 96.320312 C 199.503906 94.464844 197.128906 90.417969 197.152344 86.007812 L 197.179688 80.449219 C 197.195312 77.34375 198.332031 74.429688 200.367188 72.242188 C 202.402344 70.050781 205.105469 68.847656 207.976562 68.847656 C 207.996094 68.847656 208.011719 68.847656 208.03125 68.847656 C 210.75 68.859375 213.292969 70.019531 215.199219 72.109375 C 217.089844 74.1875 218.121094 76.933594 218.105469 79.847656 L 218.074219 86.117188 C 218.042969 92.332031 213.351562 97.363281 207.601562 97.363281 " fill-opacity="1" fill-rule="nonzero"/></g></g><path fill="#000000" d="M 207.472656 121.4375 C 202.917969 121.4375 198.390625 120.375 194.195312 118.28125 C 187.085938 114.726562 181.78125 108.613281 179.265625 101.070312 C 174.074219 85.5 182.515625 68.609375 198.085938 63.414062 C 205.628906 60.902344 213.703125 61.472656 220.8125 65.027344 C 227.921875 68.582031 233.226562 74.695312 235.742188 82.238281 C 237.472656 87.421875 237.742188 92.964844 236.53125 98.261719 C 236.453125 98.617188 236.101562 98.84375 235.742188 98.757812 C 235.390625 98.675781 235.167969 98.324219 235.25 97.96875 C 236.410156 92.902344 236.144531 87.609375 234.492188 82.65625 C 232.085938 75.445312 227.019531 69.605469 220.226562 66.207031 C 213.425781 62.808594 205.714844 62.261719 198.503906 64.664062 C 183.625 69.628906 175.554688 85.773438 180.515625 100.65625 C 182.921875 107.863281 187.988281 113.703125 194.785156 117.101562 C 201.582031 120.5 209.292969 121.046875 216.503906 118.644531 C 222.9375 116.496094 228.398438 112.121094 231.886719 106.3125 C 232.070312 106.003906 232.480469 105.902344 232.789062 106.089844 C 233.101562 106.277344 233.203125 106.679688 233.015625 106.992188 C 229.367188 113.066406 223.652344 117.648438 216.921875 119.894531 C 213.828125 120.925781 210.644531 121.4375 207.472656 121.4375 " fill-opacity="1" fill-rule="nonzero"/><path fill="#00e7ff" d="M 161.40625 281.527344 C 145.867188 297.066406 120.585938 297.066406 105.050781 281.527344 C 89.511719 265.988281 89.511719 240.707031 105.046875 225.171875 L 137.847656 192.375 L 136.949219 147.203125 L 79.578125 199.703125 C 71.125 208.152344 65.097656 218.125 61.476562 228.742188 L 58 221.28125 L 56.382812 244.929688 C 55.746094 266.953125 62.910156 290.328125 79.578125 306.996094 C 109.160156 336.578125 157.292969 336.578125 186.875 306.996094 L 225.027344 268.84375 L 226.519531 216.414062 L 161.40625 281.527344 " fill-opacity="1" fill-rule="nonzero"/><path fill="#000000" d="M 58.480469 223.878906 L 57.039062 244.972656 C 56.355469 268.777344 64.738281 291.222656 80.046875 306.53125 C 109.371094 335.855469 157.085938 335.855469 186.410156 306.53125 L 224.378906 268.5625 L 225.8125 218.050781 L 161.871094 281.996094 C 153.976562 289.890625 143.597656 293.839844 133.226562 293.839844 C 122.855469 293.839844 112.480469 289.890625 104.582031 281.992188 C 96.945312 274.355469 92.738281 264.179688 92.738281 253.347656 C 92.738281 242.515625 96.941406 232.34375 104.582031 224.703125 L 137.183594 192.105469 L 136.316406 148.671875 L 80.023438 200.1875 C 71.863281 208.347656 65.828125 218.035156 62.101562 228.957031 C 62.011719 229.210938 61.78125 229.386719 61.511719 229.402344 C 61.238281 229.414062 60.992188 229.265625 60.878906 229.023438 Z M 133.226562 329.84375 C 133.226562 329.84375 133.230469 329.84375 133.226562 329.84375 C 112.761719 329.84375 93.546875 321.894531 79.113281 307.460938 C 63.550781 291.898438 55.027344 269.101562 55.722656 244.910156 L 57.339844 221.234375 C 57.363281 220.9375 57.582031 220.691406 57.878906 220.632812 C 58.167969 220.578125 58.46875 220.730469 58.59375 221.003906 L 61.394531 227 C 65.214844 216.511719 71.171875 207.175781 79.113281 199.234375 L 136.503906 146.714844 C 136.695312 146.539062 136.96875 146.492188 137.207031 146.59375 C 137.445312 146.699219 137.601562 146.929688 137.605469 147.1875 L 138.503906 192.359375 C 138.507812 192.539062 138.441406 192.710938 138.3125 192.839844 L 105.515625 225.636719 C 98.125 233.027344 94.054688 242.867188 94.054688 253.347656 C 94.054688 263.828125 98.125 273.671875 105.515625 281.0625 C 120.796875 296.339844 145.660156 296.339844 160.941406 281.0625 L 161.40625 281.527344 L 160.941406 281.0625 L 226.054688 215.949219 C 226.246094 215.757812 226.535156 215.703125 226.78125 215.808594 C 227.027344 215.914062 227.1875 216.164062 227.179688 216.433594 L 225.6875 268.863281 C 225.683594 269.03125 225.613281 269.191406 225.496094 269.308594 L 187.339844 307.464844 C 172.910156 321.894531 153.691406 329.84375 133.226562 329.84375 " fill-opacity="1" fill-rule="nonzero"/><path fill="#6df2ff" d="M 170.875 136.855469 L 145.40625 111.386719 L 112.378906 144.414062 L 118.097656 161.914062 L 137.847656 169.882812 L 170.875 136.855469 " fill-opacity="1" fill-rule="nonzero"/><path fill="#000000" d="M 118.628906 161.417969 L 137.691406 169.109375 L 169.945312 136.855469 L 145.40625 112.320312 L 113.128906 144.59375 Z M 137.847656 170.546875 C 137.765625 170.546875 137.679688 170.53125 137.601562 170.496094 L 117.851562 162.523438 C 117.671875 162.453125 117.53125 162.300781 117.472656 162.117188 L 111.75 144.621094 C 111.675781 144.382812 111.734375 144.125 111.910156 143.949219 L 144.941406 110.921875 C 145.199219 110.664062 145.613281 110.664062 145.871094 110.921875 L 171.34375 136.390625 C 171.597656 136.648438 171.597656 137.066406 171.34375 137.320312 L 138.3125 170.351562 C 138.1875 170.476562 138.019531 170.546875 137.847656 170.546875 " fill-opacity="1" fill-rule="nonzero"/><path fill="#6df2ff" d="M 252.703125 218.683594 L 227.234375 193.214844 L 194.203125 226.242188 L 201.734375 244.179688 L 219.675781 251.710938 L 252.703125 218.683594 " fill-opacity="1" fill-rule="nonzero"/><path fill="#000000" d="M 202.238281 243.679688 L 219.519531 250.933594 L 251.769531 218.683594 L 227.234375 194.144531 L 194.984375 226.394531 Z M 219.675781 252.371094 C 219.585938 252.371094 219.5 252.351562 219.417969 252.320312 L 201.480469 244.789062 C 201.320312 244.722656 201.195312 244.59375 201.128906 244.4375 L 193.597656 226.496094 C 193.492188 226.25 193.550781 225.964844 193.738281 225.777344 L 226.765625 192.746094 C 227.023438 192.492188 227.441406 192.492188 227.699219 192.746094 L 253.167969 218.214844 C 253.425781 218.476562 253.425781 218.890625 253.167969 219.148438 L 220.140625 252.179688 C 220.015625 252.304688 219.84375 252.371094 219.675781 252.371094 " fill-opacity="1" fill-rule="nonzero"/><path fill="#ffffff" d="M 105.050781 259.039062 C 89.511719 243.503906 89.511719 218.21875 105.046875 202.683594 L 137.847656 169.886719 L 112.378906 144.417969 L 79.578125 177.214844 C 49.996094 206.796875 49.996094 254.929688 79.578125 284.507812 C 109.160156 314.089844 157.292969 314.089844 186.875 284.507812 L 219.675781 251.710938 L 194.203125 226.242188 L 161.40625 259.039062 C 145.867188 274.578125 120.585938 274.578125 105.050781 259.039062 " fill-opacity="1" fill-rule="nonzero"/><path fill="#000000" d="M 112.378906 145.347656 L 80.046875 177.679688 C 50.722656 207.003906 50.722656 254.71875 80.046875 284.042969 C 109.371094 313.367188 157.085938 313.367188 186.410156 284.042969 L 218.742188 251.710938 L 194.203125 227.175781 L 161.871094 259.507812 C 154.234375 267.144531 144.058594 271.351562 133.230469 271.351562 C 133.226562 271.351562 133.226562 271.351562 133.226562 271.351562 C 122.394531 271.351562 112.222656 267.144531 104.582031 259.503906 C 96.945312 251.867188 92.738281 241.695312 92.738281 230.859375 C 92.738281 220.03125 96.941406 209.855469 104.582031 202.214844 L 136.914062 169.886719 Z M 133.226562 307.355469 C 113.628906 307.355469 94.035156 299.898438 79.113281 284.976562 C 49.277344 255.136719 49.273438 206.585938 79.113281 176.746094 L 111.910156 143.949219 C 112.167969 143.691406 112.585938 143.691406 112.84375 143.949219 L 138.3125 169.417969 C 138.570312 169.675781 138.570312 170.09375 138.3125 170.351562 L 105.515625 203.152344 C 98.125 210.539062 94.054688 220.382812 94.054688 230.859375 C 94.054688 241.34375 98.125 251.183594 105.515625 258.574219 C 112.90625 265.960938 122.746094 270.035156 133.226562 270.035156 C 143.707031 270.035156 153.550781 265.964844 160.941406 258.574219 L 193.738281 225.777344 C 193.996094 225.519531 194.410156 225.519531 194.667969 225.777344 L 220.140625 251.246094 C 220.398438 251.503906 220.398438 251.921875 220.140625 252.179688 L 187.339844 284.976562 C 172.425781 299.894531 152.824219 307.351562 133.226562 307.355469 " fill-opacity="1" fill-rule="nonzero"/><path fill="#00e7ff" d="M 170.875 136.855469 L 170.875 159.34375 L 137.847656 192.375 L 137.847656 169.886719 L 170.875 136.855469 " fill-opacity="1" fill-rule="nonzero"/><path fill="#000000" d="M 138.503906 170.15625 L 138.503906 190.78125 L 170.21875 159.070312 L 170.21875 138.449219 Z M 137.847656 193.03125 C 137.761719 193.03125 137.675781 193.015625 137.59375 192.980469 C 137.347656 192.878906 137.1875 192.640625 137.1875 192.371094 L 137.1875 169.886719 C 137.1875 169.710938 137.257812 169.542969 137.382812 169.417969 L 170.410156 136.390625 C 170.597656 136.203125 170.882812 136.144531 171.125 136.246094 C 171.375 136.351562 171.535156 136.589844 171.535156 136.855469 L 171.535156 159.34375 C 171.535156 159.519531 171.464844 159.6875 171.34375 159.808594 L 138.3125 192.839844 C 138.1875 192.964844 138.019531 193.03125 137.847656 193.03125 " fill-opacity="1" fill-rule="nonzero"/><path fill="#00e7ff" d="M 252.703125 218.683594 L 252.703125 241.171875 L 219.675781 274.199219 L 219.675781 251.710938 L 252.703125 218.683594 " fill-opacity="1" fill-rule="nonzero"/><path fill="#000000" d="M 220.332031 251.984375 L 220.332031 272.609375 L 252.042969 240.898438 L 252.042969 220.273438 Z M 219.675781 274.855469 C 219.589844 274.855469 219.503906 274.839844 219.421875 274.808594 C 219.175781 274.707031 219.015625 274.464844 219.015625 274.199219 L 219.015625 251.710938 C 219.015625 251.535156 219.085938 251.371094 219.207031 251.246094 L 252.234375 218.214844 C 252.425781 218.027344 252.707031 217.972656 252.953125 218.074219 C 253.203125 218.175781 253.359375 218.417969 253.359375 218.683594 L 253.359375 241.171875 C 253.359375 241.34375 253.289062 241.511719 253.167969 241.636719 L 220.140625 274.664062 C 220.015625 274.792969 219.84375 274.855469 219.675781 274.855469 " fill-opacity="1" fill-rule="nonzero"/><path fill="#000000" d="M 185.066406 62.335938 C 181.738281 62.335938 179.03125 59.648438 179.03125 56.347656 C 179.03125 55.984375 179.324219 55.6875 179.6875 55.6875 C 180.054688 55.6875 180.347656 55.984375 180.347656 56.347656 C 180.347656 58.921875 182.464844 61.015625 185.066406 61.015625 C 187.664062 61.015625 189.78125 58.921875 189.78125 56.347656 C 189.78125 53.773438 187.664062 51.679688 185.066406 51.679688 C 184.703125 51.679688 184.40625 51.382812 184.40625 51.019531 C 184.40625 50.65625 184.703125 50.359375 185.066406 50.359375 C 188.394531 50.359375 191.101562 53.046875 191.101562 56.347656 C 191.101562 59.648438 188.394531 62.335938 185.066406 62.335938 " fill-opacity="1" fill-rule="nonzero"/><path fill="#000000" d="M 349.472656 237.625 C 349.308594 237.625 349.140625 237.5625 349.011719 237.4375 L 347.730469 236.164062 C 347.46875 235.910156 347.46875 235.492188 347.722656 235.234375 C 347.980469 234.972656 348.394531 234.972656 348.65625 235.226562 L 349.9375 236.5 C 350.195312 236.757812 350.199219 237.175781 349.941406 237.433594 C 349.8125 237.5625 349.644531 237.625 349.472656 237.625 " fill-opacity="1" fill-rule="nonzero"/><path fill="#000000" d="M 355.621094 243.71875 C 355.453125 243.71875 355.285156 243.65625 355.15625 243.527344 L 353.875 242.253906 C 353.617188 242 353.613281 241.582031 353.871094 241.324219 C 354.125 241.066406 354.542969 241.0625 354.800781 241.320312 L 356.085938 242.589844 C 356.34375 242.847656 356.34375 243.265625 356.085938 243.523438 C 355.960938 243.65625 355.792969 243.71875 355.621094 243.71875 " fill-opacity="1" fill-rule="nonzero"/><path fill="#000000" d="M 348.191406 243.71875 C 348.023438 243.71875 347.851562 243.652344 347.722656 243.523438 C 347.46875 243.265625 347.46875 242.847656 347.730469 242.589844 L 349.011719 241.320312 C 349.269531 241.0625 349.6875 241.066406 349.941406 241.324219 C 350.199219 241.582031 350.195312 242 349.9375 242.253906 L 348.65625 243.527344 C 348.527344 243.652344 348.359375 243.71875 348.191406 243.71875 " fill-opacity="1" fill-rule="nonzero"/><path fill="#000000" d="M 354.339844 237.628906 C 354.167969 237.628906 353.996094 237.5625 353.871094 237.433594 C 353.613281 237.171875 353.617188 236.757812 353.875 236.5 L 355.15625 235.226562 C 355.414062 234.972656 355.832031 234.972656 356.085938 235.234375 C 356.34375 235.492188 356.34375 235.910156 356.085938 236.164062 L 354.800781 237.4375 C 354.671875 237.5625 354.503906 237.628906 354.339844 237.628906 " fill-opacity="1" fill-rule="nonzero"/><path fill="#000000" d="M 234.925781 331.996094 C 234.5625 331.996094 234.265625 331.703125 234.265625 331.339844 L 234.265625 329.539062 C 234.265625 329.175781 234.5625 328.882812 234.925781 328.882812 C 235.289062 328.882812 235.585938 329.175781 235.585938 329.539062 L 235.585938 331.339844 C 235.585938 331.703125 235.289062 331.996094 234.925781 331.996094 " fill-opacity="1" fill-rule="nonzero"/><path fill="#000000" d="M 234.925781 323.382812 C 234.5625 323.382812 234.265625 323.089844 234.265625 322.722656 L 234.265625 320.925781 C 234.265625 320.5625 234.5625 320.265625 234.925781 320.265625 C 235.289062 320.265625 235.585938 320.5625 235.585938 320.925781 L 235.585938 322.722656 C 235.585938 323.089844 235.289062 323.382812 234.925781 323.382812 " fill-opacity="1" fill-rule="nonzero"/><path fill="#000000" d="M 240.179688 326.792969 L 238.367188 326.792969 C 238.003906 326.792969 237.707031 326.496094 237.707031 326.132812 C 237.707031 325.769531 238.003906 325.472656 238.367188 325.472656 L 240.179688 325.472656 C 240.546875 325.472656 240.839844 325.769531 240.839844 326.132812 C 240.839844 326.496094 240.546875 326.792969 240.179688 326.792969 " fill-opacity="1" fill-rule="nonzero"/><path fill="#000000" d="M 231.488281 326.792969 L 229.671875 326.792969 C 229.308594 326.792969 229.011719 326.496094 229.011719 326.132812 C 229.011719 325.769531 229.308594 325.472656 229.671875 325.472656 L 231.488281 325.472656 C 231.851562 325.472656 232.144531 325.769531 232.144531 326.132812 C 232.144531 326.496094 231.851562 326.792969 231.488281 326.792969 " fill-opacity="1" fill-rule="nonzero"/><path fill="#000000" d="M 14.980469 296.265625 C 14.8125 296.265625 14.644531 296.203125 14.515625 296.074219 L 13.234375 294.804688 C 12.972656 294.546875 12.972656 294.128906 13.230469 293.871094 C 13.484375 293.613281 13.902344 293.609375 14.160156 293.867188 L 15.445312 295.136719 C 15.703125 295.394531 15.703125 295.8125 15.449219 296.070312 C 15.320312 296.199219 15.148438 296.265625 14.980469 296.265625 " fill-opacity="1" fill-rule="nonzero"/><path fill="#000000" d="M 21.128906 302.355469 C 20.960938 302.355469 20.792969 302.292969 20.664062 302.167969 L 19.378906 300.894531 C 19.121094 300.636719 19.121094 300.222656 19.375 299.964844 C 19.632812 299.703125 20.050781 299.703125 20.308594 299.960938 L 21.589844 301.230469 C 21.847656 301.488281 21.851562 301.902344 21.59375 302.164062 C 21.464844 302.292969 21.296875 302.355469 21.128906 302.355469 " fill-opacity="1" fill-rule="nonzero"/><path fill="#000000" d="M 13.695312 302.355469 C 13.527344 302.355469 13.359375 302.292969 13.230469 302.164062 C 12.972656 301.902344 12.972656 301.488281 13.234375 301.230469 L 14.515625 299.960938 C 14.773438 299.703125 15.191406 299.703125 15.449219 299.964844 C 15.703125 300.222656 15.703125 300.636719 15.445312 300.894531 L 14.160156 302.167969 C 14.03125 302.292969 13.863281 302.355469 13.695312 302.355469 " fill-opacity="1" fill-rule="nonzero"/><path fill="#000000" d="M 19.84375 296.265625 C 19.671875 296.265625 19.503906 296.199219 19.375 296.070312 C 19.121094 295.8125 19.121094 295.394531 19.378906 295.136719 L 20.664062 293.867188 C 20.921875 293.609375 21.339844 293.613281 21.59375 293.871094 C 21.851562 294.128906 21.847656 294.546875 21.589844 294.804688 L 20.308594 296.074219 C 20.179688 296.203125 20.011719 296.265625 19.84375 296.265625 " fill-opacity="1" fill-rule="nonzero"/><path fill="#000000" d="M 353.902344 257.347656 C 352.367188 257.347656 351.121094 258.582031 351.121094 260.097656 C 351.121094 261.613281 352.367188 262.847656 353.902344 262.847656 C 355.4375 262.847656 356.679688 261.613281 356.679688 260.097656 C 356.679688 258.582031 355.4375 257.347656 353.902344 257.347656 Z M 353.902344 264.164062 C 351.640625 264.164062 349.800781 262.34375 349.800781 260.097656 C 349.800781 257.855469 351.640625 256.03125 353.902344 256.03125 C 356.160156 256.03125 358 257.855469 358 260.097656 C 358 262.34375 356.160156 264.164062 353.902344 264.164062 " fill-opacity="1" fill-rule="nonzero"/><path fill="#000000" d="M 343.964844 276.789062 C 343.257812 276.789062 342.683594 277.359375 342.683594 278.054688 C 342.683594 278.753906 343.257812 279.320312 343.964844 279.320312 C 344.671875 279.320312 345.25 278.753906 345.25 278.054688 C 345.25 277.359375 344.671875 276.789062 343.964844 276.789062 Z M 343.964844 280.636719 C 342.53125 280.636719 341.367188 279.480469 341.367188 278.054688 C 341.367188 276.632812 342.53125 275.472656 343.964844 275.472656 C 345.398438 275.472656 346.566406 276.632812 346.566406 278.054688 C 346.566406 279.480469 345.398438 280.636719 343.964844 280.636719 " fill-opacity="1" fill-rule="nonzero"/><path fill="#ffffff" d="M 191.769531 31.480469 L 191.773438 31.480469 Z M 188.554688 27.355469 C 187.445312 27.355469 186.394531 28.003906 185.941406 29.074219 C 185.65625 29.761719 185.652344 30.515625 185.933594 31.203125 C 186.222656 31.894531 186.761719 32.4375 187.460938 32.726562 C 188.902344 33.324219 190.5625 32.648438 191.160156 31.222656 C 191.449219 30.539062 191.453125 29.78125 191.171875 29.09375 C 190.882812 28.398438 190.339844 27.859375 189.640625 27.570312 C 189.285156 27.425781 188.917969 27.355469 188.554688 27.355469 Z M 188.546875 34.261719 C 188.015625 34.261719 187.480469 34.160156 186.957031 33.945312 C 185.933594 33.519531 185.136719 32.726562 184.714844 31.703125 C 184.296875 30.691406 184.300781 29.574219 184.726562 28.5625 C 185.609375 26.472656 188.039062 25.484375 190.144531 26.351562 C 191.171875 26.777344 191.96875 27.574219 192.390625 28.59375 C 192.804688 29.609375 192.804688 30.722656 192.378906 31.734375 C 191.714844 33.308594 190.167969 34.261719 188.546875 34.261719 " fill-opacity="1" fill-rule="nonzero"/><path fill="#000000" d="M 300.792969 232.589844 C 300.628906 232.589844 300.460938 232.523438 300.332031 232.394531 C 300.070312 232.136719 300.070312 231.71875 300.332031 231.460938 L 338.109375 193.683594 C 338.367188 193.421875 338.785156 193.421875 339.039062 193.683594 C 339.300781 193.941406 339.300781 194.355469 339.039062 194.613281 L 301.261719 232.394531 C 301.132812 232.523438 300.960938 232.589844 300.792969 232.589844 " fill-opacity="1" fill-rule="nonzero"/><path fill="#000000" d="M 319.6875 194.804688 C 319.515625 194.804688 319.347656 194.742188 319.21875 194.613281 C 318.960938 194.355469 318.960938 193.941406 319.21875 193.683594 L 355.738281 157.160156 C 355.996094 156.90625 356.414062 156.90625 356.667969 157.160156 C 356.925781 157.421875 356.925781 157.839844 356.667969 158.09375 L 320.152344 194.613281 C 320.019531 194.742188 319.855469 194.804688 319.6875 194.804688 " fill-opacity="1" fill-rule="nonzero"/><path fill="#000000" d="M 261.574219 198.433594 C 261.40625 198.433594 261.238281 198.367188 261.109375 198.238281 C 260.851562 197.984375 260.851562 197.5625 261.109375 197.308594 L 300.988281 157.429688 C 301.246094 157.171875 301.660156 157.171875 301.917969 157.429688 C 302.175781 157.6875 302.175781 158.105469 301.917969 158.363281 L 262.039062 198.238281 C 261.910156 198.367188 261.742188 198.433594 261.574219 198.433594 " fill-opacity="1" fill-rule="nonzero"/><path fill="#000000" d="M 281.515625 154.566406 C 281.347656 154.566406 281.179688 154.503906 281.050781 154.375 C 280.792969 154.117188 280.792969 153.699219 281.050781 153.441406 L 301.789062 132.699219 C 302.050781 132.441406 302.464844 132.441406 302.722656 132.699219 C 302.980469 132.957031 302.980469 133.375 302.722656 133.632812 L 281.980469 154.375 C 281.851562 154.503906 281.683594 154.566406 281.515625 154.566406 " fill-opacity="1" fill-rule="nonzero"/><path fill="#000000" d="M 185.066406 144.199219 C 184.898438 144.199219 184.730469 144.132812 184.601562 144.003906 C 184.339844 143.746094 184.339844 143.328125 184.601562 143.070312 L 196.800781 130.871094 C 197.058594 130.613281 197.476562 130.613281 197.730469 130.871094 C 197.988281 131.128906 197.988281 131.546875 197.730469 131.804688 L 185.53125 144.003906 C 185.402344 144.132812 185.234375 144.199219 185.066406 144.199219 " fill-opacity="1" fill-rule="nonzero"/><path fill="#000000" d="M 188.621094 130.789062 C 188.453125 130.789062 188.285156 130.726562 188.15625 130.597656 C 187.898438 130.339844 187.898438 129.921875 188.15625 129.667969 L 194.480469 123.34375 C 194.738281 123.085938 195.152344 123.085938 195.414062 123.34375 C 195.667969 123.597656 195.667969 124.015625 195.414062 124.273438 L 189.089844 130.597656 C 188.960938 130.726562 188.792969 130.789062 188.621094 130.789062 " fill-opacity="1" fill-rule="nonzero"/><path fill="#000000" d="M 234.929688 66.347656 C 234.757812 66.347656 234.589844 66.285156 234.460938 66.15625 C 234.207031 65.898438 234.207031 65.480469 234.460938 65.222656 L 265.273438 34.410156 C 265.53125 34.15625 265.949219 34.15625 266.207031 34.410156 C 266.460938 34.667969 266.460938 35.085938 266.207031 35.34375 L 235.390625 66.15625 C 235.265625 66.285156 235.097656 66.347656 234.929688 66.347656 " fill-opacity="1" fill-rule="nonzero"/></svg>