<svg xmlns="http://www.w3.org/2000/svg" xmlns:xlink="http://www.w3.org/1999/xlink" width="500" zoomAndPan="magnify" viewBox="0 0 375 374.999991" height="500" preserveAspectRatio="xMidYMid meet" version="1.0"><defs><clipPath id="732222e394"><path d="M 154.671875 95.1875 L 183.742188 95.1875 L 183.742188 121.390625 L 154.671875 121.390625 Z M 154.671875 95.1875 " clip-rule="nonzero"/></clipPath><clipPath id="447c83c645"><path d="M 188.847656 114.265625 C 188.847656 125.085938 180.066406 133.855469 169.234375 133.855469 C 158.398438 133.855469 149.617188 125.085938 149.617188 114.265625 C 149.617188 103.445312 158.398438 94.675781 169.234375 94.675781 C 180.066406 94.675781 188.847656 103.445312 188.847656 114.265625 Z M 188.847656 114.265625 " clip-rule="nonzero"/></clipPath><clipPath id="373890e10b"><path d="M 154.398438 94.917969 L 184 94.917969 L 184 121.664062 L 154.398438 121.664062 Z M 154.398438 94.917969 " clip-rule="nonzero"/></clipPath><clipPath id="197dc7c404"><path d="M 188.847656 114.265625 C 188.847656 125.085938 180.066406 133.855469 169.234375 133.855469 C 158.398438 133.855469 149.617188 125.085938 149.617188 114.265625 C 149.617188 103.445312 158.398438 94.675781 169.234375 94.675781 C 180.066406 94.675781 188.847656 103.445312 188.847656 114.265625 Z M 188.847656 114.265625 " clip-rule="nonzero"/></clipPath><clipPath id="1f6f19f6ef"><path d="M 149.488281 121.117188 L 188.925781 121.117188 L 188.925781 133.945312 L 149.488281 133.945312 Z M 149.488281 121.117188 " clip-rule="nonzero"/></clipPath><clipPath id="29e0fc1d7e"><path d="M 188.847656 114.265625 C 188.847656 125.085938 180.066406 133.855469 169.234375 133.855469 C 158.398438 133.855469 149.617188 125.085938 149.617188 114.265625 C 149.617188 103.445312 158.398438 94.675781 169.234375 94.675781 C 180.066406 94.675781 188.847656 103.445312 188.847656 114.265625 Z M 188.847656 114.265625 " clip-rule="nonzero"/></clipPath><clipPath id="27f31cd2eb"><path d="M 149.488281 120.84375 L 188.925781 120.84375 L 188.925781 133.945312 L 149.488281 133.945312 Z M 149.488281 120.84375 " clip-rule="nonzero"/></clipPath><clipPath id="65a22b51f5"><path d="M 188.847656 114.265625 C 188.847656 125.085938 180.066406 133.855469 169.234375 133.855469 C 158.398438 133.855469 149.617188 125.085938 149.617188 114.265625 C 149.617188 103.445312 158.398438 94.675781 169.234375 94.675781 C 180.066406 94.675781 188.847656 103.445312 188.847656 114.265625 Z M 188.847656 114.265625 " clip-rule="nonzero"/></clipPath><clipPath id="751691c1b8"><path d="M 164.5 114.292969 L 174 114.292969 L 174 123 L 164.5 123 Z M 164.5 114.292969 " clip-rule="nonzero"/></clipPath><clipPath id="0a68456be3"><path d="M 188.847656 114.265625 C 188.847656 125.085938 180.066406 133.855469 169.234375 133.855469 C 158.398438 133.855469 149.617188 125.085938 149.617188 114.265625 C 149.617188 103.445312 158.398438 94.675781 169.234375 94.675781 C 180.066406 94.675781 188.847656 103.445312 188.847656 114.265625 Z M 188.847656 114.265625 " clip-rule="nonzero"/></clipPath><clipPath id="7ea574e8e9"><path d="M 159.722656 100.648438 L 178.691406 100.648438 L 178.691406 118.117188 L 159.722656 118.117188 Z M 159.722656 100.648438 " clip-rule="nonzero"/></clipPath><clipPath id="429e4e15e6"><path d="M 188.847656 114.265625 C 188.847656 125.085938 180.066406 133.855469 169.234375 133.855469 C 158.398438 133.855469 149.617188 125.085938 149.617188 114.265625 C 149.617188 103.445312 158.398438 94.675781 169.234375 94.675781 C 180.066406 94.675781 188.847656 103.445312 188.847656 114.265625 Z M 188.847656 114.265625 " clip-rule="nonzero"/></clipPath><clipPath id="6dfb545c67"><path d="M 159.722656 108.015625 L 178.691406 108.015625 L 178.691406 118.117188 L 159.722656 118.117188 Z M 159.722656 108.015625 " clip-rule="nonzero"/></clipPath><clipPath id="bf59283580"><path d="M 188.847656 114.265625 C 188.847656 125.085938 180.066406 133.855469 169.234375 133.855469 C 158.398438 133.855469 149.617188 125.085938 149.617188 114.265625 C 149.617188 103.445312 158.398438 94.675781 169.234375 94.675781 C 180.066406 94.675781 188.847656 103.445312 188.847656 114.265625 Z M 188.847656 114.265625 " clip-rule="nonzero"/></clipPath><clipPath id="e4e24c650d"><path d="M 159.449219 107.746094 L 178.964844 107.746094 L 178.964844 118.390625 L 159.449219 118.390625 Z M 159.449219 107.746094 " clip-rule="nonzero"/></clipPath><clipPath id="81da8e51b6"><path d="M 188.847656 114.265625 C 188.847656 125.085938 180.066406 133.855469 169.234375 133.855469 C 158.398438 133.855469 149.617188 125.085938 149.617188 114.265625 C 149.617188 103.445312 158.398438 94.675781 169.234375 94.675781 C 180.066406 94.675781 188.847656 103.445312 188.847656 114.265625 Z M 188.847656 114.265625 " clip-rule="nonzero"/></clipPath><clipPath id="fe50a0f47d"><path d="M 162.179688 102.695312 L 176.234375 102.695312 L 176.234375 108.289062 L 162.179688 108.289062 Z M 162.179688 102.695312 " clip-rule="nonzero"/></clipPath><clipPath id="8a5051200c"><path d="M 188.847656 114.265625 C 188.847656 125.085938 180.066406 133.855469 169.234375 133.855469 C 158.398438 133.855469 149.617188 125.085938 149.617188 114.265625 C 149.617188 103.445312 158.398438 94.675781 169.234375 94.675781 C 180.066406 94.675781 188.847656 103.445312 188.847656 114.265625 Z M 188.847656 114.265625 " clip-rule="nonzero"/></clipPath><clipPath id="e69ed41897"><path d="M 161.90625 102.421875 L 176.644531 102.421875 L 176.644531 108.5625 L 161.90625 108.5625 Z M 161.90625 102.421875 " clip-rule="nonzero"/></clipPath><clipPath id="925143073e"><path d="M 188.847656 114.265625 C 188.847656 125.085938 180.066406 133.855469 169.234375 133.855469 C 158.398438 133.855469 149.617188 125.085938 149.617188 114.265625 C 149.617188 103.445312 158.398438 94.675781 169.234375 94.675781 C 180.066406 94.675781 188.847656 103.445312 188.847656 114.265625 Z M 188.847656 114.265625 " clip-rule="nonzero"/></clipPath><clipPath id="7be5782f43"><path d="M 172.550781 116.339844 L 174.1875 116.339844 L 174.1875 122.621094 L 172.550781 122.621094 Z M 172.550781 116.339844 " clip-rule="nonzero"/></clipPath><clipPath id="af214ccdb5"><path d="M 188.847656 114.265625 C 188.847656 125.085938 180.066406 133.855469 169.234375 133.855469 C 158.398438 133.855469 149.617188 125.085938 149.617188 114.265625 C 149.617188 103.445312 158.398438 94.675781 169.234375 94.675781 C 180.066406 94.675781 188.847656 103.445312 188.847656 114.265625 Z M 188.847656 114.265625 " clip-rule="nonzero"/></clipPath><clipPath id="2b53b6c73c"><path d="M 164.226562 116.339844 L 166 116.339844 L 166 122.621094 L 164.226562 122.621094 Z M 164.226562 116.339844 " clip-rule="nonzero"/></clipPath><clipPath id="880ff30370"><path d="M 188.847656 114.265625 C 188.847656 125.085938 180.066406 133.855469 169.234375 133.855469 C 158.398438 133.855469 149.617188 125.085938 149.617188 114.265625 C 149.617188 103.445312 158.398438 94.675781 169.234375 94.675781 C 180.066406 94.675781 188.847656 103.445312 188.847656 114.265625 Z M 188.847656 114.265625 " clip-rule="nonzero"/></clipPath><clipPath id="492c875b9c"><path d="M 203.390625 113.886719 L 243.511719 113.886719 L 243.511719 133.808594 L 203.390625 133.808594 Z M 203.390625 113.886719 " clip-rule="nonzero"/></clipPath><clipPath id="e81edaab17"><path d="M 243.398438 113.875 C 243.398438 124.851562 234.464844 133.75 223.4375 133.75 C 212.414062 133.75 203.480469 124.851562 203.480469 113.875 C 203.480469 102.894531 212.414062 93.996094 223.4375 93.996094 C 234.464844 93.996094 243.398438 102.894531 243.398438 113.875 Z M 243.398438 113.875 " clip-rule="nonzero"/></clipPath><clipPath id="8b8e89a3eb"><path d="M 203.390625 113.476562 L 243.511719 113.476562 L 243.511719 133.808594 L 203.390625 133.808594 Z M 203.390625 113.476562 " clip-rule="nonzero"/></clipPath><clipPath id="4c8640a36c"><path d="M 243.398438 113.875 C 243.398438 124.851562 234.464844 133.75 223.4375 133.75 C 212.414062 133.75 203.480469 124.851562 203.480469 113.875 C 203.480469 102.894531 212.414062 93.996094 223.4375 93.996094 C 234.464844 93.996094 243.398438 102.894531 243.398438 113.875 Z M 243.398438 113.875 " clip-rule="nonzero"/></clipPath><clipPath id="4bc796d3b7"><path d="M 213.898438 100.375 L 233 100.375 L 233 117.84375 L 213.898438 117.84375 Z M 213.898438 100.375 " clip-rule="nonzero"/></clipPath><clipPath id="97ee248b1f"><path d="M 243.398438 113.875 C 243.398438 124.851562 234.464844 133.75 223.4375 133.75 C 212.414062 133.75 203.480469 124.851562 203.480469 113.875 C 203.480469 102.894531 212.414062 93.996094 223.4375 93.996094 C 234.464844 93.996094 243.398438 102.894531 243.398438 113.875 Z M 243.398438 113.875 " clip-rule="nonzero"/></clipPath><clipPath id="8c7af7a48b"><path d="M 213.625 100 L 233.277344 100 L 233.277344 118.117188 L 213.625 118.117188 Z M 213.625 100 " clip-rule="nonzero"/></clipPath><clipPath id="f44ca4e418"><path d="M 243.398438 113.875 C 243.398438 124.851562 234.464844 133.75 223.4375 133.75 C 212.414062 133.75 203.480469 124.851562 203.480469 113.875 C 203.480469 102.894531 212.414062 93.996094 223.4375 93.996094 C 234.464844 93.996094 243.398438 102.894531 243.398438 113.875 Z M 243.398438 113.875 " clip-rule="nonzero"/></clipPath><clipPath id="5a250684ea"><path d="M 216.628906 111.703125 L 230.277344 111.703125 L 230.277344 118.117188 L 216.628906 118.117188 Z M 216.628906 111.703125 " clip-rule="nonzero"/></clipPath><clipPath id="d70a81e31a"><path d="M 243.398438 113.875 C 243.398438 124.851562 234.464844 133.75 223.4375 133.75 C 212.414062 133.75 203.480469 124.851562 203.480469 113.875 C 203.480469 102.894531 212.414062 93.996094 223.4375 93.996094 C 234.464844 93.996094 243.398438 102.894531 243.398438 113.875 Z M 243.398438 113.875 " clip-rule="nonzero"/></clipPath><clipPath id="b66c76f723"><path d="M 214.71875 96.828125 L 231.777344 96.828125 L 231.777344 109.792969 L 214.71875 109.792969 Z M 214.71875 96.828125 " clip-rule="nonzero"/></clipPath><clipPath id="180cc5a1a8"><path d="M 243.398438 113.875 C 243.398438 124.851562 234.464844 133.75 223.4375 133.75 C 212.414062 133.75 203.480469 124.851562 203.480469 113.875 C 203.480469 102.894531 212.414062 93.996094 223.4375 93.996094 C 234.464844 93.996094 243.398438 102.894531 243.398438 113.875 Z M 243.398438 113.875 " clip-rule="nonzero"/></clipPath><clipPath id="77feaed191"><path d="M 214.445312 96.554688 L 232.050781 96.554688 L 232.050781 110.199219 L 214.445312 110.199219 Z M 214.445312 96.554688 " clip-rule="nonzero"/></clipPath><clipPath id="8c0847c459"><path d="M 243.398438 113.875 C 243.398438 124.851562 234.464844 133.75 223.4375 133.75 C 212.414062 133.75 203.480469 124.851562 203.480469 113.875 C 203.480469 102.894531 212.414062 93.996094 223.4375 93.996094 C 234.464844 93.996094 243.398438 102.894531 243.398438 113.875 Z M 243.398438 113.875 " clip-rule="nonzero"/></clipPath><clipPath id="05bdbf44c2"><path d="M 103.085938 97.371094 L 127.789062 97.371094 L 127.789062 133.945312 L 103.085938 133.945312 Z M 103.085938 97.371094 " clip-rule="nonzero"/></clipPath><clipPath id="3cf20956c6"><path d="M 135.0625 114.265625 C 135.0625 125.125 126.261719 133.929688 115.398438 133.929688 C 104.539062 133.929688 95.734375 125.125 95.734375 114.265625 C 95.734375 103.40625 104.539062 94.601562 115.398438 94.601562 C 126.261719 94.601562 135.0625 103.40625 135.0625 114.265625 Z M 135.0625 114.265625 " clip-rule="nonzero"/></clipPath><clipPath id="a93aa1bf2a"><path d="M 102.679688 97.101562 L 128 97.101562 L 128 133.945312 L 102.679688 133.945312 Z M 102.679688 97.101562 " clip-rule="nonzero"/></clipPath><clipPath id="c54f7efb99"><path d="M 135.0625 114.265625 C 135.0625 125.125 126.261719 133.929688 115.398438 133.929688 C 104.539062 133.929688 95.734375 125.125 95.734375 114.265625 C 95.734375 103.40625 104.539062 94.601562 115.398438 94.601562 C 126.261719 94.601562 135.0625 103.40625 135.0625 114.265625 Z M 135.0625 114.265625 " clip-rule="nonzero"/></clipPath><clipPath id="5bc5629433"><path d="M 95.71875 114.292969 L 135.15625 114.292969 L 135.15625 133.945312 L 95.71875 133.945312 Z M 95.71875 114.292969 " clip-rule="nonzero"/></clipPath><clipPath id="e39cb779b0"><path d="M 135.0625 114.265625 C 135.0625 125.125 126.261719 133.929688 115.398438 133.929688 C 104.539062 133.929688 95.734375 125.125 95.734375 114.265625 C 95.734375 103.40625 104.539062 94.601562 115.398438 94.601562 C 126.261719 94.601562 135.0625 103.40625 135.0625 114.265625 Z M 135.0625 114.265625 " clip-rule="nonzero"/></clipPath><clipPath id="6669a81896"><path d="M 95.71875 114 L 135.15625 114 L 135.15625 133.945312 L 95.71875 133.945312 Z M 95.71875 114 " clip-rule="nonzero"/></clipPath><clipPath id="63aa82851b"><path d="M 135.0625 114.265625 C 135.0625 125.125 126.261719 133.929688 115.398438 133.929688 C 104.539062 133.929688 95.734375 125.125 95.734375 114.265625 C 95.734375 103.40625 104.539062 94.601562 115.398438 94.601562 C 126.261719 94.601562 135.0625 103.40625 135.0625 114.265625 Z M 135.0625 114.265625 " clip-rule="nonzero"/></clipPath><clipPath id="4848046738"><path d="M 105.953125 100.648438 L 124.921875 100.648438 L 124.921875 118.117188 L 105.953125 118.117188 Z M 105.953125 100.648438 " clip-rule="nonzero"/></clipPath><clipPath id="3eabd24f75"><path d="M 135.0625 114.265625 C 135.0625 125.125 126.261719 133.929688 115.398438 133.929688 C 104.539062 133.929688 95.734375 125.125 95.734375 114.265625 C 95.734375 103.40625 104.539062 94.601562 115.398438 94.601562 C 126.261719 94.601562 135.0625 103.40625 135.0625 114.265625 Z M 135.0625 114.265625 " clip-rule="nonzero"/></clipPath><clipPath id="fea60de816"><path d="M 105.542969 100.375 L 125.195312 100.375 L 125.195312 118.523438 L 105.542969 118.523438 Z M 105.542969 100.375 " clip-rule="nonzero"/></clipPath><clipPath id="25e2758f0b"><path d="M 135.0625 114.265625 C 135.0625 125.125 126.261719 133.929688 115.398438 133.929688 C 104.539062 133.929688 95.734375 125.125 95.734375 114.265625 C 95.734375 103.40625 104.539062 94.601562 115.398438 94.601562 C 126.261719 94.601562 135.0625 103.40625 135.0625 114.265625 Z M 135.0625 114.265625 " clip-rule="nonzero"/></clipPath><clipPath id="f65d529232"><path d="M 108.136719 99.417969 L 122.738281 99.417969 L 122.738281 109.382812 L 108.136719 109.382812 Z M 108.136719 99.417969 " clip-rule="nonzero"/></clipPath><clipPath id="4c13cfa070"><path d="M 135.0625 114.265625 C 135.0625 125.125 126.261719 133.929688 115.398438 133.929688 C 104.539062 133.929688 95.734375 125.125 95.734375 114.265625 C 95.734375 103.40625 104.539062 94.601562 115.398438 94.601562 C 126.261719 94.601562 135.0625 103.40625 135.0625 114.265625 Z M 135.0625 114.265625 " clip-rule="nonzero"/></clipPath><clipPath id="296108375e"><path d="M 107.863281 102.285156 L 123 102.285156 L 123 109.65625 L 107.863281 109.65625 Z M 107.863281 102.285156 " clip-rule="nonzero"/></clipPath><clipPath id="33750649f6"><path d="M 135.0625 114.265625 C 135.0625 125.125 126.261719 133.929688 115.398438 133.929688 C 104.539062 133.929688 95.734375 125.125 95.734375 114.265625 C 95.734375 103.40625 104.539062 94.601562 115.398438 94.601562 C 126.261719 94.601562 135.0625 103.40625 135.0625 114.265625 Z M 135.0625 114.265625 " clip-rule="nonzero"/></clipPath></defs><path fill="#ffffff" d="M 248.472656 297.097656 L 255.179688 297.097656 C 258.546875 297.097656 261.273438 299.824219 261.273438 303.1875 C 261.273438 306.550781 258.546875 309.28125 255.179688 309.28125 L 140.371094 309.28125 C 137.007812 309.28125 134.28125 306.550781 134.28125 303.1875 C 134.28125 299.824219 137.007812 297.097656 140.371094 297.097656 L 248.472656 297.097656 " fill-opacity="1" fill-rule="nonzero"/><path fill="#000000" d="M 140.371094 297.394531 C 137.179688 297.394531 134.582031 299.996094 134.582031 303.1875 C 134.582031 306.382812 137.179688 308.980469 140.371094 308.980469 L 255.179688 308.980469 C 258.375 308.980469 260.972656 306.382812 260.972656 303.1875 C 260.972656 299.996094 258.375 297.394531 255.179688 297.394531 Z M 255.179688 309.582031 L 140.371094 309.582031 C 136.847656 309.582031 133.980469 306.710938 133.980469 303.1875 C 133.980469 299.664062 136.847656 296.796875 140.371094 296.796875 L 255.179688 296.796875 C 258.707031 296.796875 261.574219 299.664062 261.574219 303.1875 C 261.574219 306.710938 258.707031 309.582031 255.179688 309.582031 " fill-opacity="1" fill-rule="nonzero"/><path fill="#ffffff" d="M 240.332031 272.742188 L 240.332031 297.109375 L 155.222656 297.109375 L 155.222656 272.742188 L 240.332031 272.742188 " fill-opacity="1" fill-rule="nonzero"/><path fill="#000000" d="M 240.332031 297.410156 L 155.222656 297.410156 C 155.054688 297.410156 154.921875 297.277344 154.921875 297.109375 L 154.921875 272.742188 C 154.921875 272.578125 155.054688 272.445312 155.222656 272.445312 C 155.386719 272.445312 155.523438 272.578125 155.523438 272.742188 L 155.523438 296.8125 L 240.03125 296.8125 L 240.03125 272.742188 C 240.03125 272.578125 240.164062 272.445312 240.332031 272.445312 C 240.496094 272.445312 240.632812 272.578125 240.632812 272.742188 L 240.632812 297.109375 C 240.632812 297.277344 240.496094 297.410156 240.332031 297.410156 " fill-opacity="1" fill-rule="nonzero"/><path fill="#ffffff" d="M 323.554688 261.773438 L 323.554688 264.714844 C 323.554688 269.148438 319.96875 272.742188 315.542969 272.742188 L 80.007812 272.742188 C 75.585938 272.742188 72.003906 269.148438 72.003906 264.714844 L 72.003906 261.773438 L 323.554688 261.773438 " fill-opacity="1" fill-rule="nonzero"/><path fill="#000000" d="M 72.300781 262.074219 L 72.300781 264.714844 C 72.300781 268.976562 75.757812 272.445312 80.007812 272.445312 L 315.542969 272.445312 C 319.792969 272.445312 323.253906 268.976562 323.253906 264.714844 L 323.253906 262.074219 Z M 315.542969 273.042969 L 80.007812 273.042969 C 75.429688 273.042969 71.703125 269.308594 71.703125 264.714844 L 71.703125 261.773438 C 71.703125 261.609375 71.835938 261.472656 72.003906 261.472656 L 323.554688 261.472656 C 323.71875 261.472656 323.855469 261.609375 323.855469 261.773438 L 323.855469 264.714844 C 323.855469 269.308594 320.125 273.042969 315.542969 273.042969 " fill-opacity="1" fill-rule="nonzero"/><path fill="#ffffff" d="M 323.550781 261.777344 L 72 261.777344 L 72 120.667969 C 72 115.53125 76.167969 111.363281 81.308594 111.363281 L 314.246094 111.363281 C 319.386719 111.363281 323.550781 115.53125 323.550781 120.667969 L 323.550781 261.777344 " fill-opacity="1" fill-rule="nonzero"/><path fill="#000000" d="M 72.300781 261.476562 L 323.25 261.476562 L 323.25 120.667969 C 323.25 115.703125 319.210938 111.664062 314.246094 111.664062 L 81.308594 111.664062 C 76.339844 111.664062 72.300781 115.703125 72.300781 120.667969 Z M 323.550781 262.074219 L 72 262.074219 C 71.835938 262.074219 71.699219 261.941406 71.699219 261.777344 L 71.699219 120.667969 C 71.699219 115.371094 76.011719 111.0625 81.308594 111.0625 L 314.246094 111.0625 C 319.542969 111.0625 323.851562 115.371094 323.851562 120.667969 L 323.851562 261.777344 C 323.851562 261.941406 323.71875 262.074219 323.550781 262.074219 " fill-opacity="1" fill-rule="nonzero"/><path fill="#000000" d="M 80.894531 252.859375 L 314.660156 252.859375 L 314.660156 120.90625 C 314.660156 120.558594 314.375 120.277344 314.027344 120.277344 L 81.523438 120.277344 C 81.175781 120.277344 80.894531 120.558594 80.894531 120.90625 Z M 314.960938 253.464844 L 80.59375 253.464844 C 80.425781 253.464844 80.292969 253.328125 80.292969 253.164062 L 80.292969 120.90625 C 80.292969 120.226562 80.84375 119.675781 81.523438 119.675781 L 314.027344 119.675781 C 314.707031 119.675781 315.261719 120.226562 315.261719 120.90625 L 315.261719 253.164062 C 315.261719 253.328125 315.125 253.464844 314.960938 253.464844 " fill-opacity="1" fill-rule="nonzero"/><path fill="#7af3ff" d="M 215.714844 206.0625 L 209.464844 198.722656 L 235.15625 194.847656 L 226.847656 218.214844 L 219.691406 211.027344 L 206.53125 224.65625 C 205.1875 225.972656 203.066406 226.65625 201.40625 226.054688 L 185.703125 218.261719 C 184.855469 217.839844 183.824219 218.019531 183.171875 218.707031 L 162.265625 240.59375 C 161.519531 241.375 160.3125 241.488281 159.433594 240.863281 L 135.195312 223.546875 C 134.023438 222.710938 132.375 223.226562 131.890625 224.578125 L 116.007812 272.710938 L 90.796875 272.707031 L 122.714844 196.136719 C 123.308594 194.859375 124.9375 194.476562 126.039062 195.351562 L 158.761719 221.832031 C 159.574219 222.480469 160.734375 222.460938 161.527344 221.78125 L 180.117188 205.835938 C 180.824219 205.230469 181.84375 205.140625 182.644531 205.617188 L 201.296875 216.746094 C 202.316406 217.433594 203.820312 217.296875 205.117188 216.203125 L 215.714844 206.0625 " fill-opacity="1" fill-rule="nonzero"/><path fill="#ffffff" d="M 374.566406 180.589844 L 264.542969 180.515625 L 264.492188 106 L 318.117188 60.144531 L 374.515625 106.074219 L 374.566406 180.589844 " fill-opacity="1" fill-rule="nonzero"/><path fill="#000000" d="M 264.84375 180.214844 L 374.265625 180.289062 L 374.214844 106.214844 L 318.121094 60.535156 L 264.792969 106.136719 Z M 374.566406 180.890625 L 264.542969 180.816406 C 264.375 180.816406 264.242188 180.683594 264.242188 180.515625 L 264.191406 106 C 264.191406 105.910156 264.230469 105.828125 264.296875 105.769531 L 317.925781 59.917969 C 318.035156 59.820312 318.195312 59.820312 318.308594 59.910156 L 374.707031 105.839844 C 374.773438 105.898438 374.816406 105.984375 374.816406 106.074219 L 374.863281 180.589844 C 374.863281 180.667969 374.832031 180.746094 374.777344 180.800781 C 374.722656 180.859375 374.644531 180.890625 374.566406 180.890625 " fill-opacity="1" fill-rule="nonzero"/><path fill="#000000" d="M 319.613281 151.042969 C 319.546875 151.042969 319.480469 151.023438 319.425781 150.980469 L 268.3125 110.441406 C 268.183594 110.339844 268.164062 110.148438 268.265625 110.019531 C 268.367188 109.890625 268.558594 109.867188 268.6875 109.96875 L 319.609375 150.359375 L 369.710938 109.671875 C 369.835938 109.566406 370.027344 109.585938 370.132812 109.714844 C 370.234375 109.84375 370.214844 110.035156 370.085938 110.140625 L 319.800781 150.976562 C 319.746094 151.023438 319.679688 151.042969 319.613281 151.042969 " fill-opacity="1" fill-rule="nonzero"/><path fill="#ffffff" d="M 353.855469 122.800781 L 319.667969 150.746094 L 284.40625 122.753906 L 284.375 77.957031 L 353.824219 78.003906 L 353.855469 122.800781 " fill-opacity="1" fill-rule="nonzero"/><path fill="#000000" d="M 284.707031 122.609375 L 319.664062 150.359375 L 353.554688 122.65625 L 353.527344 78.304688 L 284.675781 78.257812 Z M 319.667969 151.046875 C 319.601562 151.046875 319.535156 151.023438 319.480469 150.980469 L 284.21875 122.988281 C 284.148438 122.929688 284.105469 122.84375 284.105469 122.753906 L 284.074219 77.957031 C 284.074219 77.878906 284.105469 77.800781 284.164062 77.742188 C 284.21875 77.6875 284.296875 77.65625 284.375 77.65625 L 353.824219 77.703125 C 353.992188 77.703125 354.125 77.835938 354.125 78.003906 L 354.15625 122.796875 C 354.15625 122.890625 354.117188 122.972656 354.046875 123.03125 L 319.855469 150.976562 C 319.800781 151.023438 319.734375 151.046875 319.667969 151.046875 " fill-opacity="1" fill-rule="nonzero"/><path fill="#00e7ff" d="M 307.851562 103.203125 C 307.851562 106.546875 305.132812 109.253906 301.777344 109.25 C 298.425781 109.25 295.703125 106.539062 295.699219 103.195312 C 295.699219 99.855469 298.414062 97.148438 301.769531 97.148438 C 305.125 97.152344 307.847656 99.863281 307.851562 103.203125 " fill-opacity="1" fill-rule="nonzero"/><path fill="#00e7ff" d="M 325.578125 103.214844 C 325.578125 106.558594 322.859375 109.265625 319.503906 109.261719 C 316.152344 109.261719 313.429688 106.550781 313.425781 103.207031 C 313.425781 99.867188 316.144531 97.160156 319.496094 97.160156 C 322.851562 97.164062 325.574219 99.875 325.578125 103.214844 " fill-opacity="1" fill-rule="nonzero"/><path fill="#00e7ff" d="M 343.304688 103.230469 C 343.304688 106.570312 340.589844 109.277344 337.234375 109.273438 C 333.878906 109.273438 331.15625 106.5625 331.15625 103.21875 C 331.152344 99.878906 333.871094 97.171875 337.222656 97.171875 C 340.582031 97.175781 343.300781 99.886719 343.304688 103.230469 " fill-opacity="1" fill-rule="nonzero"/><path fill="#00e7ff" d="M 283.097656 179.113281 C 281.386719 189.390625 271.671875 196.332031 261.394531 194.621094 C 251.117188 192.910156 244.175781 183.195312 245.886719 172.917969 C 247.597656 162.644531 257.3125 155.699219 267.589844 157.410156 C 277.867188 159.121094 284.808594 168.835938 283.097656 179.113281 " fill-opacity="1" fill-rule="nonzero"/><path fill="#ffffff" d="M 257.894531 176.304688 C 257.832031 174.902344 256.644531 173.816406 255.246094 173.878906 C 253.84375 173.945312 252.757812 175.128906 252.820312 176.53125 C 252.882812 177.933594 254.070312 179.019531 255.472656 178.957031 C 256.875 178.894531 257.960938 177.703125 257.894531 176.304688 " fill-opacity="1" fill-rule="nonzero"/><path fill="#ffffff" d="M 272.898438 182.195312 C 272.835938 180.792969 271.648438 179.710938 270.246094 179.773438 C 268.84375 179.835938 267.761719 181.023438 267.824219 182.425781 C 267.886719 183.828125 269.074219 184.914062 270.476562 184.847656 C 271.878906 184.785156 272.964844 183.597656 272.898438 182.195312 " fill-opacity="1" fill-rule="nonzero"/><path fill="#ffffff" d="M 268 181.683594 C 267.960938 181.683594 267.925781 181.675781 267.890625 181.660156 L 257.726562 177.667969 C 257.570312 177.605469 257.496094 177.433594 257.558594 177.277344 C 257.617188 177.125 257.792969 177.046875 257.949219 177.109375 L 268.109375 181.101562 C 268.261719 181.164062 268.339844 181.335938 268.28125 181.492188 C 268.234375 181.609375 268.121094 181.683594 268 181.683594 " fill-opacity="1" fill-rule="nonzero"/><path fill="#ffffff" d="M 272.417969 169.367188 C 272.460938 170.773438 271.359375 171.941406 269.957031 171.984375 C 268.554688 172.027344 267.382812 170.921875 267.339844 169.519531 C 267.300781 168.117188 268.402344 166.945312 269.804688 166.90625 C 271.207031 166.863281 272.378906 167.964844 272.417969 169.367188 " fill-opacity="1" fill-rule="nonzero"/><path fill="#ffffff" d="M 257.757812 175.59375 C 257.648438 175.59375 257.539062 175.53125 257.488281 175.425781 C 257.414062 175.277344 257.476562 175.097656 257.628906 175.023438 L 267.460938 170.277344 C 267.613281 170.207031 267.792969 170.269531 267.863281 170.417969 C 267.9375 170.566406 267.871094 170.746094 267.722656 170.820312 L 257.890625 175.566406 C 257.847656 175.585938 257.804688 175.59375 257.757812 175.59375 " fill-opacity="1" fill-rule="nonzero"/><path fill="#7af3ff" d="M 191.628906 114.265625 C 191.628906 126.617188 181.601562 136.632812 169.234375 136.632812 C 156.863281 136.632812 146.839844 126.617188 146.839844 114.265625 C 146.839844 101.910156 156.863281 91.898438 169.234375 91.898438 C 181.601562 91.898438 191.628906 101.910156 191.628906 114.265625 " fill-opacity="1" fill-rule="nonzero"/><g clip-path="url(#732222e394)"><g clip-path="url(#447c83c645)"><path fill="#ffffff" d="M 179.835938 104.992188 C 180.128906 104.464844 180.296875 103.863281 180.296875 103.222656 C 180.296875 101.203125 178.660156 99.570312 176.640625 99.570312 C 176.265625 99.570312 175.898438 99.628906 175.558594 99.734375 C 175.578125 99.578125 175.589844 99.417969 175.589844 99.261719 C 175.589844 97.050781 173.796875 95.257812 171.585938 95.257812 C 169.757812 95.257812 168.21875 96.480469 167.738281 98.152344 C 167.113281 97.546875 166.265625 97.171875 165.324219 97.171875 C 163.519531 97.171875 162.039062 98.554688 161.886719 100.320312 C 161.347656 99.972656 160.707031 99.769531 160.019531 99.769531 C 158.109375 99.769531 156.5625 101.316406 156.5625 103.222656 C 156.5625 104.304688 157.0625 105.269531 157.847656 105.902344 C 156.074219 106.355469 154.761719 107.957031 154.761719 109.871094 C 154.761719 111.398438 155.597656 112.726562 156.835938 113.433594 C 156.660156 113.808594 156.5625 114.230469 156.5625 114.671875 C 156.5625 116.328125 157.910156 117.671875 159.566406 117.671875 C 159.910156 117.671875 160.238281 117.613281 160.542969 117.507812 C 160.496094 117.714844 160.46875 117.929688 160.46875 118.152344 C 160.46875 119.753906 161.769531 121.050781 163.371094 121.050781 C 164.976562 121.050781 166.277344 119.753906 166.277344 118.152344 C 166.277344 116.550781 169.382812 116.074219 169.382812 117.921875 C 169.382812 119.773438 170.882812 121.273438 172.734375 121.273438 C 174.589844 121.273438 176.089844 119.773438 176.089844 117.921875 C 176.089844 117.550781 176.027344 117.199219 175.917969 116.863281 C 175.972656 116.867188 176.03125 116.871094 176.089844 116.871094 C 177.859375 116.871094 179.292969 115.441406 179.292969 113.671875 C 179.292969 113.601562 179.289062 113.535156 179.285156 113.464844 C 179.335938 113.464844 179.390625 113.472656 179.445312 113.472656 C 181.796875 113.472656 183.699219 111.570312 183.699219 109.222656 C 183.699219 107.007812 182.003906 105.1875 179.835938 104.992188 " fill-opacity="1" fill-rule="nonzero"/></g></g><g clip-path="url(#373890e10b)"><g clip-path="url(#197dc7c404)"><path fill="#000000" d="M 168.0625 116.429688 C 169.03125 116.429688 169.679688 117.03125 169.679688 117.921875 C 169.679688 119.605469 171.050781 120.972656 172.734375 120.972656 C 174.417969 120.972656 175.789062 119.605469 175.789062 117.921875 C 175.789062 117.597656 175.738281 117.273438 175.632812 116.957031 C 175.601562 116.863281 175.617188 116.761719 175.679688 116.679688 C 175.738281 116.601562 175.832031 116.558594 175.933594 116.5625 L 175.992188 116.566406 C 176.023438 116.570312 176.058594 116.574219 176.089844 116.574219 C 177.691406 116.574219 178.992188 115.273438 178.992188 113.671875 C 178.992188 113.625 178.992188 113.578125 178.988281 113.53125 L 178.984375 113.484375 C 178.980469 113.398438 179.007812 113.316406 179.070312 113.253906 C 179.128906 113.195312 179.207031 113.160156 179.296875 113.164062 L 179.371094 113.167969 C 179.394531 113.171875 179.417969 113.171875 179.445312 113.171875 C 181.625 113.171875 183.402344 111.398438 183.402344 109.222656 C 183.402344 107.167969 181.855469 105.476562 179.808594 105.289062 C 179.707031 105.28125 179.617188 105.222656 179.570312 105.132812 C 179.523438 105.042969 179.523438 104.933594 179.574219 104.84375 C 179.847656 104.347656 179.996094 103.789062 179.996094 103.222656 C 179.996094 101.375 178.492188 99.871094 176.640625 99.871094 C 176.304688 99.871094 175.96875 99.921875 175.648438 100.019531 C 175.550781 100.050781 175.445312 100.03125 175.367188 99.964844 C 175.289062 99.898438 175.246094 99.800781 175.261719 99.699219 C 175.28125 99.535156 175.289062 99.390625 175.289062 99.261719 C 175.289062 97.21875 173.625 95.558594 171.585938 95.558594 C 169.941406 95.558594 168.480469 96.660156 168.027344 98.234375 C 167.996094 98.335938 167.914062 98.417969 167.816406 98.441406 C 167.710938 98.46875 167.601562 98.441406 167.527344 98.367188 C 166.933594 97.789062 166.152344 97.472656 165.324219 97.472656 C 163.703125 97.472656 162.324219 98.734375 162.183594 100.347656 C 162.175781 100.453125 162.113281 100.542969 162.015625 100.589844 C 161.921875 100.636719 161.8125 100.628906 161.722656 100.574219 C 161.210938 100.246094 160.621094 100.070312 160.019531 100.070312 C 158.277344 100.070312 156.863281 101.484375 156.863281 103.222656 C 156.863281 104.175781 157.289062 105.066406 158.035156 105.671875 C 158.125 105.742188 158.164062 105.855469 158.140625 105.96875 C 158.117188 106.078125 158.03125 106.167969 157.921875 106.195312 C 156.238281 106.625 155.058594 108.136719 155.058594 109.871094 C 155.058594 111.230469 155.796875 112.496094 156.984375 113.171875 C 157.117188 113.246094 157.171875 113.414062 157.105469 113.554688 C 156.945312 113.914062 156.863281 114.289062 156.863281 114.671875 C 156.863281 116.160156 158.078125 117.371094 159.566406 117.371094 C 159.863281 117.371094 160.15625 117.320312 160.445312 117.222656 C 160.546875 117.1875 160.664062 117.210938 160.742188 117.285156 C 160.824219 117.355469 160.859375 117.46875 160.835938 117.574219 C 160.789062 117.769531 160.769531 117.964844 160.769531 118.152344 C 160.769531 119.585938 161.9375 120.753906 163.371094 120.753906 C 164.808594 120.753906 165.976562 119.585938 165.976562 118.152344 C 165.976562 117.089844 167.058594 116.429688 168.0625 116.429688 Z M 172.734375 121.574219 C 170.71875 121.574219 169.078125 119.9375 169.078125 117.921875 C 169.078125 117.117188 168.367188 117.03125 168.0625 117.03125 C 167.34375 117.03125 166.578125 117.480469 166.578125 118.152344 C 166.578125 119.917969 165.140625 121.351562 163.371094 121.351562 C 161.605469 121.351562 160.167969 119.917969 160.167969 118.152344 C 160.167969 118.074219 160.171875 117.996094 160.175781 117.914062 C 159.976562 117.953125 159.769531 117.972656 159.566406 117.972656 C 157.746094 117.972656 156.261719 116.492188 156.261719 114.671875 C 156.261719 114.289062 156.328125 113.914062 156.460938 113.554688 C 155.21875 112.746094 154.460938 111.355469 154.460938 109.871094 C 154.460938 108.039062 155.589844 106.421875 157.269531 105.773438 C 156.621094 105.085938 156.261719 104.179688 156.261719 103.222656 C 156.261719 101.152344 157.945312 99.46875 160.019531 99.46875 C 160.585938 99.46875 161.144531 99.597656 161.652344 99.847656 C 162.015625 98.144531 163.546875 96.867188 165.324219 96.867188 C 166.15625 96.867188 166.945312 97.140625 167.597656 97.636719 C 168.25 96.039062 169.832031 94.957031 171.585938 94.957031 C 173.957031 94.957031 175.890625 96.886719 175.890625 99.261719 C 175.890625 99.285156 175.890625 99.3125 175.890625 99.34375 C 176.136719 99.292969 176.386719 99.269531 176.640625 99.269531 C 178.820312 99.269531 180.597656 101.042969 180.597656 103.222656 C 180.597656 103.746094 180.492188 104.265625 180.289062 104.75 C 182.433594 105.144531 184 107 184 109.222656 C 184 111.679688 182.039062 113.691406 179.59375 113.769531 C 179.542969 115.582031 178.109375 117.054688 176.308594 117.164062 C 176.363281 117.414062 176.390625 117.667969 176.390625 117.921875 C 176.390625 119.9375 174.75 121.574219 172.734375 121.574219 " fill-opacity="1" fill-rule="nonzero"/></g></g><g clip-path="url(#1f6f19f6ef)"><g clip-path="url(#29e0fc1d7e)"><path fill="#ffffff" d="M 180.328125 123.710938 L 169.234375 121.160156 L 158.140625 123.710938 C 155.15625 124.398438 152.777344 126.648438 151.925781 129.582031 L 149.519531 142.289062 L 188.949219 142.289062 L 186.539062 129.582031 C 185.6875 126.648438 183.3125 124.398438 180.328125 123.710938 " fill-opacity="1" fill-rule="nonzero"/></g></g><g clip-path="url(#27f31cd2eb)"><g clip-path="url(#65a22b51f5)"><path fill="#000000" d="M 149.882812 141.988281 L 188.585938 141.988281 L 186.246094 129.640625 C 185.429688 126.835938 183.136719 124.667969 180.261719 124.003906 L 169.234375 121.46875 L 158.207031 124.003906 C 155.332031 124.667969 153.035156 126.835938 152.214844 129.667969 Z M 188.949219 142.585938 L 149.519531 142.585938 C 149.429688 142.585938 149.34375 142.546875 149.289062 142.476562 C 149.230469 142.410156 149.207031 142.320312 149.222656 142.230469 L 151.632812 129.527344 C 152.519531 126.460938 154.984375 124.128906 158.070312 123.421875 L 169.164062 120.867188 C 169.210938 120.859375 169.253906 120.859375 169.300781 120.867188 L 180.394531 123.421875 C 183.480469 124.128906 185.949219 126.460938 186.828125 129.5 L 189.242188 142.230469 C 189.257812 142.320312 189.234375 142.410156 189.179688 142.476562 C 189.121094 142.546875 189.035156 142.585938 188.949219 142.585938 " fill-opacity="1" fill-rule="nonzero"/></g></g><g clip-path="url(#751691c1b8)"><g clip-path="url(#0a68456be3)"><path fill="#ffffff" d="M 164.507812 122.910156 L 165.984375 114.300781 L 172.480469 114.300781 L 173.945312 122.8125 L 164.507812 122.910156 " fill-opacity="1" fill-rule="nonzero"/></g></g><g clip-path="url(#7ea574e8e9)"><g clip-path="url(#429e4e15e6)"><path fill="#ffffff" d="M 177.246094 108.101562 C 176.898438 108.015625 176.542969 108.050781 176.21875 108.175781 C 175.941406 103.753906 172.917969 100.753906 169.234375 100.753906 C 165.546875 100.753906 162.527344 103.753906 162.25 108.175781 C 161.921875 108.050781 161.570312 108.015625 161.21875 108.101562 C 160.1875 108.359375 159.59375 109.554688 159.898438 110.773438 C 160.199219 111.992188 161.285156 112.773438 162.320312 112.515625 C 162.484375 112.472656 162.640625 112.40625 162.78125 112.320312 C 163.847656 115.585938 166.335938 118.085938 169.234375 118.085938 C 172.132812 118.085938 174.617188 115.585938 175.683594 112.320312 C 175.828125 112.40625 175.980469 112.472656 176.148438 112.515625 C 177.183594 112.773438 178.265625 111.992188 178.570312 110.773438 C 178.871094 109.554688 178.28125 108.359375 177.246094 108.101562 " fill-opacity="1" fill-rule="nonzero"/></g></g><g clip-path="url(#6dfb545c67)"><g clip-path="url(#bf59283580)"><path fill="#ffffff" d="M 162.25 108.175781 C 161.921875 108.050781 161.570312 108.015625 161.21875 108.101562 C 160.1875 108.359375 159.59375 109.554688 159.898438 110.773438 C 160.199219 111.992188 161.285156 112.773438 162.320312 112.515625 C 162.484375 112.472656 162.640625 112.40625 162.78125 112.320312 C 163.847656 115.585938 166.335938 118.085938 169.234375 118.085938 C 172.132812 118.085938 174.617188 115.585938 175.683594 112.320312 C 175.828125 112.40625 175.980469 112.472656 176.148438 112.515625 C 177.183594 112.773438 178.265625 111.992188 178.570312 110.773438 C 178.871094 109.554688 178.28125 108.359375 177.246094 108.101562 C 176.898438 108.015625 176.542969 108.050781 176.21875 108.175781 L 162.25 108.175781 " fill-opacity="1" fill-rule="nonzero"/></g></g><g clip-path="url(#e4e24c650d)"><g clip-path="url(#81da8e51b6)"><path fill="#000000" d="M 169.234375 118.382812 C 166.457031 118.382812 163.828125 116.128906 162.609375 112.738281 C 162.535156 112.765625 162.464844 112.789062 162.390625 112.808594 C 161.195312 113.101562 159.945312 112.222656 159.605469 110.847656 C 159.441406 110.1875 159.507812 109.511719 159.789062 108.945312 C 160.078125 108.359375 160.5625 107.957031 161.148438 107.8125 C 161.539062 107.714844 161.957031 107.742188 162.355469 107.894531 C 162.511719 107.953125 162.589844 108.128906 162.53125 108.28125 C 162.46875 108.4375 162.296875 108.515625 162.140625 108.457031 C 161.859375 108.347656 161.566406 108.328125 161.292969 108.394531 C 160.878906 108.496094 160.535156 108.785156 160.328125 109.210938 C 160.109375 109.652344 160.058594 110.179688 160.1875 110.703125 C 160.449219 111.757812 161.375 112.441406 162.246094 112.222656 C 162.375 112.191406 162.5 112.140625 162.625 112.0625 C 162.703125 112.015625 162.800781 112.007812 162.886719 112.039062 C 162.972656 112.070312 163.039062 112.140625 163.066406 112.226562 C 164.152344 115.550781 166.632812 117.785156 169.234375 117.785156 C 171.835938 117.785156 174.3125 115.550781 175.398438 112.226562 C 175.429688 112.140625 175.496094 112.070312 175.582031 112.039062 C 175.667969 112.007812 175.761719 112.015625 175.839844 112.0625 C 175.964844 112.136719 176.089844 112.191406 176.21875 112.222656 C 177.089844 112.441406 178.015625 111.757812 178.277344 110.703125 C 178.40625 110.179688 178.359375 109.652344 178.140625 109.210938 C 177.929688 108.785156 177.585938 108.496094 177.171875 108.394531 C 176.898438 108.328125 176.605469 108.347656 176.324219 108.457031 C 176.171875 108.515625 175.996094 108.4375 175.933594 108.28125 C 175.875 108.128906 175.953125 107.953125 176.109375 107.894531 C 176.507812 107.742188 176.925781 107.714844 177.316406 107.8125 C 177.90625 107.957031 178.386719 108.359375 178.679688 108.945312 C 178.960938 109.511719 179.023438 110.1875 178.863281 110.847656 C 178.519531 112.222656 177.269531 113.101562 176.074219 112.808594 C 176 112.789062 175.929688 112.765625 175.859375 112.738281 C 174.636719 116.128906 172.007812 118.382812 169.234375 118.382812 " fill-opacity="1" fill-rule="nonzero"/></g></g><g clip-path="url(#fe50a0f47d)"><g clip-path="url(#8a5051200c)"><path fill="#ffffff" d="M 162.25 108.175781 C 165.742188 107.519531 169.265625 105.519531 171.453125 102.722656 C 171.878906 105.207031 173.90625 107.152344 176.21875 108.175781 L 162.25 108.175781 " fill-opacity="1" fill-rule="nonzero"/></g></g><g clip-path="url(#e69ed41897)"><g clip-path="url(#925143073e)"><path fill="#000000" d="M 176.21875 108.476562 C 176.175781 108.476562 176.136719 108.46875 176.09375 108.449219 C 173.644531 107.363281 171.890625 105.503906 171.292969 103.386719 C 169.101562 105.933594 165.789062 107.816406 162.304688 108.46875 C 162.144531 108.5 161.984375 108.394531 161.953125 108.230469 C 161.921875 108.066406 162.03125 107.910156 162.191406 107.878906 C 165.753906 107.210938 169.125 105.214844 171.214844 102.539062 C 171.289062 102.445312 171.410156 102.402344 171.523438 102.429688 C 171.640625 102.460938 171.726562 102.554688 171.746094 102.671875 C 172.121094 104.839844 173.835938 106.792969 176.339844 107.898438 C 176.488281 107.964844 176.558594 108.144531 176.492188 108.296875 C 176.441406 108.410156 176.332031 108.476562 176.21875 108.476562 " fill-opacity="1" fill-rule="nonzero"/></g></g><g clip-path="url(#7be5782f43)"><g clip-path="url(#af214ccdb5)"><path fill="#000000" d="M 173.839844 122.519531 C 173.699219 122.519531 173.570312 122.417969 173.542969 122.273438 L 172.589844 116.707031 C 172.5625 116.542969 172.667969 116.386719 172.832031 116.359375 C 172.996094 116.332031 173.152344 116.441406 173.179688 116.605469 L 174.136719 122.171875 C 174.164062 122.335938 174.054688 122.488281 173.890625 122.515625 C 173.875 122.519531 173.855469 122.519531 173.839844 122.519531 " fill-opacity="1" fill-rule="nonzero"/></g></g><g clip-path="url(#2b53b6c73c)"><g clip-path="url(#880ff30370)"><path fill="#000000" d="M 164.625 122.519531 C 164.609375 122.519531 164.589844 122.519531 164.574219 122.515625 C 164.410156 122.488281 164.300781 122.335938 164.328125 122.171875 L 165.277344 116.660156 C 165.304688 116.496094 165.457031 116.382812 165.621094 116.414062 C 165.785156 116.441406 165.898438 116.597656 165.867188 116.761719 L 164.921875 122.273438 C 164.898438 122.417969 164.769531 122.519531 164.625 122.519531 " fill-opacity="1" fill-rule="nonzero"/></g></g><path fill="#7af3ff" d="M 246.230469 113.875 C 246.230469 126.40625 236.023438 136.566406 223.4375 136.566406 C 210.851562 136.566406 200.648438 126.40625 200.648438 113.875 C 200.648438 101.339844 210.851562 91.179688 223.4375 91.179688 C 236.023438 91.179688 246.230469 101.339844 246.230469 113.875 " fill-opacity="1" fill-rule="nonzero"/><g clip-path="url(#492c875b9c)"><g clip-path="url(#e81edaab17)"><path fill="#ffffff" d="M 241.050781 129.414062 C 240.183594 126.433594 237.765625 124.15625 234.730469 123.460938 L 228.308594 121.984375 L 228.308594 113.910156 L 218.570312 113.910156 L 218.570312 121.984375 L 212.148438 123.460938 C 209.113281 124.15625 206.695312 126.433594 205.828125 129.414062 L 203.378906 142.304688 L 243.5 142.304688 L 241.050781 129.414062 " fill-opacity="1" fill-rule="nonzero"/></g></g><g clip-path="url(#8b8e89a3eb)"><g clip-path="url(#4c8640a36c)"><path fill="#000000" d="M 203.742188 142.003906 L 243.136719 142.003906 L 240.757812 129.488281 C 239.921875 126.617188 237.585938 124.421875 234.660156 123.753906 L 228.238281 122.28125 C 228.101562 122.25 228.007812 122.125 228.007812 121.984375 L 228.007812 114.210938 L 218.871094 114.210938 L 218.871094 121.984375 C 218.871094 122.125 218.777344 122.25 218.640625 122.28125 L 212.21875 123.753906 C 209.289062 124.421875 206.949219 126.625 206.117188 129.5 Z M 243.5 142.605469 L 203.378906 142.605469 C 203.289062 142.605469 203.203125 142.566406 203.144531 142.496094 C 203.089844 142.425781 203.066406 142.335938 203.082031 142.25 L 205.53125 129.359375 C 206.433594 126.25 208.941406 123.886719 212.082031 123.167969 L 218.269531 121.746094 L 218.269531 113.910156 C 218.269531 113.742188 218.40625 113.609375 218.570312 113.609375 L 228.308594 113.609375 C 228.472656 113.609375 228.609375 113.742188 228.609375 113.910156 L 228.609375 121.746094 L 234.796875 123.167969 C 237.9375 123.886719 240.445312 126.25 241.339844 129.332031 C 241.34375 129.34375 241.34375 129.351562 241.347656 129.359375 L 243.796875 142.25 C 243.8125 142.335938 243.789062 142.425781 243.734375 142.496094 C 243.675781 142.566406 243.589844 142.605469 243.5 142.605469 " fill-opacity="1" fill-rule="nonzero"/></g></g><g clip-path="url(#4bc796d3b7)"><g clip-path="url(#97ee248b1f)"><path fill="#ffffff" d="M 231.511719 107.769531 C 231.164062 107.683594 230.808594 107.714844 230.476562 107.839844 C 230.199219 103.398438 227.15625 100.386719 223.4375 100.386719 C 219.722656 100.386719 216.679688 103.398438 216.402344 107.839844 C 216.070312 107.714844 215.714844 107.683594 215.363281 107.769531 C 214.320312 108.027344 213.722656 109.230469 214.027344 110.453125 C 214.335938 111.679688 215.429688 112.460938 216.472656 112.203125 C 216.640625 112.160156 216.792969 112.09375 216.9375 112.007812 C 218.011719 115.289062 220.519531 117.800781 223.4375 117.800781 C 226.359375 117.800781 228.867188 115.289062 229.941406 112.007812 C 230.085938 112.09375 230.238281 112.160156 230.40625 112.203125 C 231.449219 112.460938 232.542969 111.679688 232.847656 110.453125 C 233.15625 109.230469 232.558594 108.027344 231.511719 107.769531 " fill-opacity="1" fill-rule="nonzero"/></g></g><g clip-path="url(#8c7af7a48b)"><g clip-path="url(#f44ca4e418)"><path fill="#000000" d="M 216.9375 111.707031 C 216.972656 111.707031 217.007812 111.710938 217.042969 111.726562 C 217.128906 111.757812 217.195312 111.824219 217.222656 111.914062 C 218.316406 115.253906 220.816406 117.5 223.4375 117.5 C 226.0625 117.5 228.5625 115.253906 229.65625 111.914062 C 229.683594 111.824219 229.75 111.757812 229.835938 111.726562 C 229.921875 111.695312 230.019531 111.703125 230.097656 111.75 C 230.222656 111.824219 230.347656 111.878906 230.480469 111.910156 C 231.359375 112.128906 232.292969 111.445312 232.558594 110.378906 C 232.699219 109.808594 232.625 109.214844 232.347656 108.753906 C 232.132812 108.398438 231.8125 108.152344 231.441406 108.0625 C 231.164062 107.992188 230.871094 108.015625 230.585938 108.121094 C 230.496094 108.15625 230.394531 108.148438 230.316406 108.09375 C 230.234375 108.042969 230.183594 107.957031 230.179688 107.859375 C 229.914062 103.703125 227.082031 100.6875 223.4375 100.6875 C 219.796875 100.6875 216.960938 103.703125 216.703125 107.859375 C 216.695312 107.957031 216.644531 108.042969 216.5625 108.09375 C 216.484375 108.148438 216.382812 108.15625 216.292969 108.121094 C 216.007812 108.015625 215.714844 107.992188 215.4375 108.0625 C 215.066406 108.152344 214.746094 108.398438 214.53125 108.753906 C 214.253906 109.214844 214.179688 109.808594 214.320312 110.378906 C 214.585938 111.445312 215.519531 112.128906 216.398438 111.910156 C 216.53125 111.878906 216.65625 111.824219 216.78125 111.75 C 216.828125 111.722656 216.882812 111.707031 216.9375 111.707031 Z M 223.4375 118.097656 C 220.644531 118.097656 217.992188 115.835938 216.765625 112.425781 C 216.691406 112.453125 216.617188 112.476562 216.542969 112.496094 C 215.34375 112.792969 214.085938 111.910156 213.738281 110.527344 C 213.558594 109.800781 213.660156 109.039062 214.015625 108.445312 C 214.3125 107.953125 214.765625 107.609375 215.292969 107.476562 C 215.566406 107.410156 215.851562 107.402344 216.132812 107.453125 C 216.554688 103.164062 219.578125 100.085938 223.4375 100.085938 C 227.300781 100.085938 230.324219 103.164062 230.75 107.453125 C 231.027344 107.402344 231.3125 107.410156 231.585938 107.476562 C 232.113281 107.609375 232.566406 107.953125 232.863281 108.445312 C 233.21875 109.039062 233.320312 109.800781 233.140625 110.527344 C 232.796875 111.910156 231.535156 112.792969 230.335938 112.496094 C 230.261719 112.476562 230.1875 112.453125 230.113281 112.425781 C 228.886719 115.835938 226.234375 118.097656 223.4375 118.097656 " fill-opacity="1" fill-rule="nonzero"/></g></g><g clip-path="url(#5a250684ea)"><g clip-path="url(#d70a81e31a)"><path fill="#000000" d="M 223.4375 118.097656 C 220.554688 118.097656 217.828125 115.6875 216.652344 112.101562 C 216.601562 111.941406 216.6875 111.773438 216.84375 111.722656 C 217 111.667969 217.171875 111.753906 217.222656 111.914062 C 218.316406 115.253906 220.816406 117.5 223.4375 117.5 C 226.0625 117.5 228.5625 115.253906 229.65625 111.914062 C 229.707031 111.753906 229.878906 111.667969 230.035156 111.722656 C 230.191406 111.773438 230.277344 111.941406 230.226562 112.101562 C 229.050781 115.6875 226.324219 118.097656 223.4375 118.097656 " fill-opacity="1" fill-rule="nonzero"/></g></g><g clip-path="url(#b66c76f723)"><g clip-path="url(#180cc5a1a8)"><path fill="#ffffff" d="M 216.097656 99.113281 C 214.324219 101.21875 214.289062 104.660156 215.996094 107.742188 C 216.578125 108.425781 217.164062 109.105469 217.746094 109.789062 C 217.726562 104.8125 218.558594 103.46875 219.363281 103.222656 C 220.691406 102.820312 222.265625 105.304688 225.148438 105.242188 C 225.585938 105.230469 226.570312 105.199219 227.171875 104.527344 C 227.691406 103.949219 227.613281 103.238281 227.769531 103.222656 C 228.027344 103.199219 228.492188 104.554688 229.382812 109.789062 C 229.960938 109.101562 230.535156 108.414062 231.113281 107.726562 C 231.429688 106.53125 231.714844 104.964844 231.734375 103.117188 C 231.761719 100.621094 231.285156 98.570312 230.839844 97.167969 C 230.460938 98.097656 229.816406 99.214844 228.703125 99.582031 C 226.378906 100.347656 224.632812 96.9375 220.90625 96.945312 C 219.140625 96.945312 217.253906 97.734375 216.097656 99.113281 " fill-opacity="1" fill-rule="nonzero"/></g></g><g clip-path="url(#77feaed191)"><g clip-path="url(#8c0847c459)"><path fill="#000000" d="M 216.097656 99.113281 L 216.101562 99.113281 Z M 227.828125 102.917969 C 228.179688 102.917969 228.5625 103.328125 229.570312 109.097656 L 230.839844 107.585938 C 231.21875 106.121094 231.417969 104.617188 231.4375 103.113281 C 231.453125 101.390625 231.230469 99.675781 230.773438 98.011719 C 230.25 98.984375 229.585938 99.609375 228.800781 99.867188 C 227.519531 100.289062 226.402344 99.582031 225.222656 98.832031 C 224.046875 98.089844 222.714844 97.246094 220.917969 97.246094 C 220.914062 97.246094 220.910156 97.246094 220.90625 97.246094 C 219.148438 97.25 217.394531 98.039062 216.328125 99.308594 C 214.648438 101.296875 214.617188 104.617188 216.246094 107.570312 L 217.449219 108.980469 C 217.507812 105.226562 218.09375 103.296875 219.273438 102.9375 C 220.003906 102.71875 220.722656 103.164062 221.554688 103.679688 C 222.535156 104.285156 223.644531 104.96875 225.140625 104.941406 C 225.492188 104.933594 226.421875 104.914062 226.949219 104.328125 C 227.214844 104.03125 227.292969 103.6875 227.351562 103.4375 C 227.402344 103.222656 227.464844 102.953125 227.738281 102.925781 C 227.769531 102.921875 227.796875 102.917969 227.828125 102.917969 Z M 217.746094 110.089844 C 217.660156 110.089844 217.578125 110.054688 217.519531 109.984375 L 215.769531 107.9375 C 215.753906 107.921875 215.742188 107.90625 215.734375 107.886719 C 213.972656 104.710938 214.027344 101.109375 215.867188 98.917969 C 217.042969 97.519531 218.976562 96.648438 220.90625 96.644531 C 220.910156 96.644531 220.914062 96.644531 220.917969 96.644531 C 222.890625 96.644531 224.296875 97.539062 225.542969 98.324219 C 226.691406 99.054688 227.601562 99.628906 228.613281 99.296875 C 229.40625 99.035156 230.058594 98.28125 230.558594 97.054688 C 230.609375 96.9375 230.726562 96.863281 230.851562 96.867188 C 230.976562 96.875 231.085938 96.957031 231.125 97.078125 C 231.75 99.039062 232.058594 101.070312 232.035156 103.121094 C 232.019531 104.695312 231.808594 106.273438 231.402344 107.804688 C 231.390625 107.84375 231.371094 107.886719 231.34375 107.917969 L 229.617188 109.980469 C 229.539062 110.070312 229.417969 110.109375 229.304688 110.078125 C 229.195312 110.050781 229.109375 109.953125 229.089844 109.839844 C 228.453125 106.125 228.066406 104.566406 227.847656 103.917969 C 227.769531 104.164062 227.636719 104.457031 227.394531 104.726562 C 226.695312 105.507812 225.574219 105.535156 225.152344 105.542969 C 223.476562 105.574219 222.238281 104.808594 221.238281 104.191406 C 220.5 103.730469 219.917969 103.371094 219.449219 103.511719 C 218.917969 103.675781 218.027344 104.707031 218.046875 109.789062 C 218.046875 109.914062 217.96875 110.027344 217.851562 110.070312 C 217.816406 110.082031 217.78125 110.089844 217.746094 110.089844 " fill-opacity="1" fill-rule="nonzero"/></g></g><path fill="#7af3ff" d="M 137.851562 114.265625 C 137.851562 126.664062 127.800781 136.71875 115.398438 136.71875 C 103 136.71875 92.945312 126.664062 92.945312 114.265625 C 92.945312 101.867188 103 91.8125 115.398438 91.8125 C 127.800781 91.8125 137.851562 101.867188 137.851562 114.265625 " fill-opacity="1" fill-rule="nonzero"/><g clip-path="url(#05bdbf44c2)"><g clip-path="url(#3cf20956c6)"><path fill="#ffffff" d="M 115.398438 97.507812 C 109.554688 97.507812 104.710938 103.445312 104.328125 111.082031 L 103.105469 135.527344 L 127.691406 135.527344 L 126.46875 111.082031 C 126.085938 103.445312 121.246094 97.507812 115.398438 97.507812 " fill-opacity="1" fill-rule="nonzero"/></g></g><g clip-path="url(#a93aa1bf2a)"><g clip-path="url(#c54f7efb99)"><path fill="#000000" d="M 103.421875 135.226562 L 127.375 135.226562 L 126.167969 111.097656 C 125.796875 103.644531 121.066406 97.804688 115.398438 97.804688 C 109.734375 97.804688 105.003906 103.644531 104.628906 111.097656 Z M 127.691406 135.828125 L 103.105469 135.828125 C 103.023438 135.828125 102.945312 135.792969 102.886719 135.734375 C 102.832031 135.671875 102.800781 135.59375 102.808594 135.511719 L 104.027344 111.066406 C 104.417969 103.292969 109.414062 97.203125 115.398438 97.203125 C 121.386719 97.203125 126.378906 103.292969 126.769531 111.070312 L 127.992188 135.511719 C 127.996094 135.59375 127.964844 135.671875 127.910156 135.734375 C 127.851562 135.792969 127.773438 135.828125 127.691406 135.828125 " fill-opacity="1" fill-rule="nonzero"/></g></g><g clip-path="url(#5bc5629433)"><g clip-path="url(#e39cb779b0)"><path fill="#ffffff" d="M 132.75 129.640625 C 131.894531 126.691406 129.511719 124.4375 126.523438 123.75 L 120.195312 122.292969 L 120.195312 114.300781 L 110.601562 114.300781 L 110.601562 122.292969 L 104.277344 123.75 C 101.285156 124.4375 98.902344 126.691406 98.050781 129.640625 L 95.636719 142.394531 L 135.164062 142.394531 L 132.75 129.640625 " fill-opacity="1" fill-rule="nonzero"/></g></g><g clip-path="url(#6669a81896)"><g clip-path="url(#63aa82851b)"><path fill="#000000" d="M 96 142.09375 L 134.800781 142.09375 L 132.457031 129.710938 C 131.632812 126.875 129.332031 124.703125 126.453125 124.042969 L 120.128906 122.585938 C 119.992188 122.554688 119.894531 122.433594 119.894531 122.292969 L 119.894531 114.601562 L 110.90625 114.601562 L 110.90625 122.292969 C 110.90625 122.433594 110.808594 122.554688 110.671875 122.585938 L 104.34375 124.042969 C 101.460938 124.707031 99.160156 126.882812 98.335938 129.726562 Z M 135.164062 142.695312 L 95.636719 142.695312 C 95.546875 142.695312 95.460938 142.652344 95.402344 142.585938 C 95.347656 142.515625 95.324219 142.425781 95.339844 142.335938 L 97.753906 129.585938 C 98.644531 126.507812 101.113281 124.167969 104.210938 123.457031 L 110.304688 122.054688 L 110.304688 114.300781 C 110.304688 114.136719 110.4375 114 110.601562 114 L 120.195312 114 C 120.359375 114 120.496094 114.136719 120.496094 114.300781 L 120.496094 122.054688 L 126.589844 123.457031 C 129.683594 124.167969 132.15625 126.507812 133.039062 129.558594 C 133.039062 129.570312 133.042969 129.578125 133.046875 129.585938 L 135.457031 142.335938 C 135.476562 142.425781 135.449219 142.515625 135.394531 142.585938 C 135.339844 142.652344 135.253906 142.695312 135.164062 142.695312 " fill-opacity="1" fill-rule="nonzero"/></g></g><g clip-path="url(#4848046738)"><g clip-path="url(#3eabd24f75)"><path fill="#ffffff" d="M 123.429688 108.082031 C 123.082031 107.992188 122.730469 108.023438 122.402344 108.152344 C 122.121094 103.714844 119.09375 100.703125 115.398438 100.703125 C 111.703125 100.703125 108.675781 103.714844 108.398438 108.152344 C 108.070312 108.023438 107.714844 107.992188 107.367188 108.082031 C 106.328125 108.339844 105.734375 109.539062 106.039062 110.761719 C 106.34375 111.984375 107.429688 112.765625 108.46875 112.507812 C 108.636719 112.46875 108.789062 112.398438 108.929688 112.3125 C 110 115.589844 112.492188 118.097656 115.398438 118.097656 C 118.304688 118.097656 120.796875 115.589844 121.867188 112.3125 C 122.007812 112.398438 122.164062 112.46875 122.332031 112.507812 C 123.367188 112.765625 124.457031 111.984375 124.757812 110.761719 C 125.0625 109.539062 124.46875 108.339844 123.429688 108.082031 " fill-opacity="1" fill-rule="nonzero"/></g></g><g clip-path="url(#fea60de816)"><g clip-path="url(#25e2758f0b)"><path fill="#000000" d="M 108.929688 112.011719 C 108.964844 112.011719 109.003906 112.019531 109.035156 112.03125 C 109.121094 112.0625 109.1875 112.132812 109.214844 112.21875 C 110.304688 115.554688 112.789062 117.796875 115.398438 117.796875 C 118.007812 117.796875 120.492188 115.554688 121.582031 112.21875 C 121.609375 112.132812 121.675781 112.0625 121.761719 112.03125 C 121.847656 112 121.945312 112.007812 122.023438 112.054688 C 122.148438 112.132812 122.277344 112.183594 122.402344 112.21875 C 123.277344 112.433594 124.203125 111.75 124.46875 110.6875 C 124.597656 110.164062 124.550781 109.632812 124.328125 109.191406 C 124.117188 108.765625 123.773438 108.472656 123.359375 108.371094 C 123.085938 108.300781 122.789062 108.324219 122.507812 108.433594 C 122.417969 108.464844 122.320312 108.457031 122.238281 108.40625 C 122.15625 108.351562 122.109375 108.265625 122.101562 108.171875 C 121.839844 104.019531 119.023438 101.003906 115.398438 101.003906 C 111.777344 101.003906 108.957031 104.019531 108.699219 108.171875 C 108.691406 108.265625 108.640625 108.351562 108.558594 108.40625 C 108.480469 108.457031 108.378906 108.464844 108.289062 108.433594 C 108.007812 108.324219 107.714844 108.300781 107.441406 108.371094 C 107.023438 108.472656 106.679688 108.765625 106.46875 109.191406 C 106.25 109.632812 106.199219 110.167969 106.332031 110.6875 C 106.59375 111.75 107.519531 112.4375 108.394531 112.21875 C 108.523438 112.183594 108.652344 112.132812 108.773438 112.054688 C 108.820312 112.027344 108.878906 112.011719 108.929688 112.011719 Z M 115.398438 118.398438 C 112.617188 118.398438 109.980469 116.136719 108.757812 112.730469 C 108.6875 112.757812 108.613281 112.78125 108.539062 112.800781 C 107.34375 113.097656 106.089844 112.214844 105.746094 110.832031 C 105.582031 110.171875 105.648438 109.496094 105.929688 108.925781 C 106.222656 108.339844 106.707031 107.933594 107.292969 107.789062 C 107.566406 107.722656 107.847656 107.710938 108.128906 107.765625 C 108.550781 103.476562 111.558594 100.402344 115.398438 100.402344 C 119.238281 100.402344 122.25 103.476562 122.671875 107.765625 C 122.949219 107.710938 123.234375 107.722656 123.503906 107.789062 C 124.09375 107.933594 124.578125 108.339844 124.867188 108.925781 C 125.152344 109.496094 125.214844 110.171875 125.050781 110.832031 C 124.707031 112.214844 123.457031 113.097656 122.257812 112.800781 C 122.183594 112.78125 122.113281 112.757812 122.039062 112.730469 C 120.816406 116.136719 118.179688 118.398438 115.398438 118.398438 " fill-opacity="1" fill-rule="nonzero"/></g></g><g clip-path="url(#f65d529232)"><g clip-path="url(#4c13cfa070)"><path fill="#ffffff" d="M 108.28125 109.265625 C 111.78125 108.605469 115.433594 105.488281 117.625 102.679688 C 118.050781 105.171875 120.257812 108.089844 122.574219 109.113281 C 122.574219 109.113281 123.679688 99.179688 115.398438 99.5 C 107.121094 99.820312 108.28125 109.265625 108.28125 109.265625 " fill-opacity="1" fill-rule="nonzero"/></g></g><g clip-path="url(#296108375e)"><g clip-path="url(#33750649f6)"><path fill="#000000" d="M 108.28125 109.566406 C 108.21875 109.566406 108.15625 109.546875 108.101562 109.507812 C 108.035156 109.460938 107.992188 109.382812 107.984375 109.304688 C 107.972656 109.234375 107.78125 107.613281 108.140625 105.664062 C 108.171875 105.503906 108.328125 105.394531 108.492188 105.425781 C 108.65625 105.457031 108.761719 105.613281 108.734375 105.773438 C 108.484375 107.132812 108.515625 108.34375 108.550781 108.902344 C 112 108.105469 115.445312 104.984375 117.386719 102.496094 C 117.460938 102.398438 117.582031 102.359375 117.695312 102.386719 C 117.8125 102.417969 117.898438 102.511719 117.917969 102.628906 C 118.3125 104.925781 120.234375 107.53125 122.304688 108.644531 C 122.335938 108 122.347656 106.703125 122.066406 105.308594 C 122.035156 105.144531 122.140625 104.988281 122.300781 104.953125 C 122.464844 104.921875 122.621094 105.027344 122.65625 105.191406 C 123.074219 107.265625 122.882812 109.070312 122.871094 109.144531 C 122.863281 109.242188 122.808594 109.324219 122.722656 109.375 C 122.640625 109.421875 122.542969 109.425781 122.453125 109.386719 C 120.261719 108.417969 118.136719 105.804688 117.464844 103.351562 C 115.339844 105.910156 111.832031 108.902344 108.335938 109.5625 C 108.316406 109.566406 108.300781 109.566406 108.28125 109.566406 " fill-opacity="1" fill-rule="nonzero"/></g></g><path fill="#000000" d="M 239.613281 176.316406 L 115.527344 176.316406 C 115.359375 176.316406 115.226562 176.179688 115.226562 176.015625 C 115.226562 175.851562 115.359375 175.714844 115.527344 175.714844 L 239.613281 175.714844 C 239.78125 175.714844 239.917969 175.851562 239.917969 176.015625 C 239.917969 176.179688 239.78125 176.316406 239.613281 176.316406 " fill-opacity="1" fill-rule="nonzero"/><path fill="#000000" d="M 115.398438 176.316406 C 115.234375 176.316406 115.097656 176.179688 115.097656 176.015625 L 115.097656 142.730469 C 115.097656 142.566406 115.234375 142.429688 115.398438 142.429688 C 115.566406 142.429688 115.699219 142.566406 115.699219 142.730469 L 115.699219 176.015625 C 115.699219 176.179688 115.566406 176.316406 115.398438 176.316406 " fill-opacity="1" fill-rule="nonzero"/><path fill="#000000" d="M 169.234375 176.316406 C 169.066406 176.316406 168.933594 176.179688 168.933594 176.015625 L 168.933594 142.730469 C 168.933594 142.566406 169.066406 142.429688 169.234375 142.429688 C 169.398438 142.429688 169.535156 142.566406 169.535156 142.730469 L 169.535156 176.015625 C 169.535156 176.179688 169.398438 176.316406 169.234375 176.316406 " fill-opacity="1" fill-rule="nonzero"/><path fill="#000000" d="M 223.4375 176.316406 C 223.273438 176.316406 223.136719 176.179688 223.136719 176.015625 L 223.136719 142.730469 C 223.136719 142.566406 223.273438 142.429688 223.4375 142.429688 C 223.605469 142.429688 223.742188 142.566406 223.742188 142.730469 L 223.742188 176.015625 C 223.742188 176.179688 223.605469 176.316406 223.4375 176.316406 " fill-opacity="1" fill-rule="nonzero"/><path fill="#000000" d="M 89.929688 184.011719 C 89.929688 184.011719 98.144531 186.390625 97.507812 177.824219 C 96.933594 170.121094 94.234375 176.019531 93.144531 175.679688 C 91.96875 175.308594 92.9375 172.9375 91.421875 172.746094 C 89.929688 172.554688 88.78125 174.730469 87.289062 174.351562 C 85.792969 173.972656 82.820312 171.683594 79.9375 173.339844 C 77.527344 174.730469 77.410156 177.570312 77.410156 177.570312 C 77.410156 177.570312 74.425781 177.824219 73.734375 182.371094 C 73.046875 186.914062 79.25 195.375 79.25 195.375 L 89.929688 184.011719 " fill-opacity="1" fill-rule="nonzero"/><path fill="#ffffff" d="M 77.25 191.753906 L 72.867188 204.574219 C 72.585938 205.390625 71.890625 206 71.039062 206.164062 L 69.089844 206.542969 C 69.089844 206.542969 74.160156 217.5625 82.714844 215.714844 C 91.261719 213.871094 89.382812 206.542969 89.382812 206.542969 L 87.574219 206.398438 C 86.492188 206.3125 85.75 205.265625 86.019531 204.214844 L 88.054688 196.339844 C 88.054688 196.339844 79.769531 189.65625 77.25 191.753906 " fill-opacity="1" fill-rule="nonzero"/><path fill="#000000" d="M 69.535156 206.765625 C 70.480469 208.59375 75.28125 217.011719 82.648438 215.421875 C 85.304688 214.851562 87.191406 213.683594 88.261719 211.953125 C 89.558594 209.855469 89.261719 207.523438 89.136719 206.824219 L 87.550781 206.699219 C 86.945312 206.648438 86.398438 206.335938 86.042969 205.84375 C 85.691406 205.347656 85.578125 204.726562 85.730469 204.140625 L 87.714844 196.449219 C 85.371094 194.59375 79.441406 190.519531 77.503906 191.9375 L 73.148438 204.671875 C 72.835938 205.589844 72.050781 206.273438 71.097656 206.460938 Z M 80.8125 216.222656 C 73.308594 216.222656 68.863281 206.773438 68.816406 206.667969 C 68.777344 206.585938 68.777344 206.488281 68.820312 206.40625 C 68.863281 206.324219 68.941406 206.265625 69.03125 206.25 L 70.984375 205.871094 C 71.722656 205.726562 72.335938 205.191406 72.582031 204.476562 L 76.964844 191.65625 C 76.984375 191.605469 77.015625 191.558594 77.054688 191.523438 C 79.6875 189.332031 87.375 195.40625 88.242188 196.105469 C 88.332031 196.179688 88.375 196.300781 88.34375 196.414062 L 86.3125 204.289062 C 86.203125 204.707031 86.285156 205.144531 86.535156 205.496094 C 86.78125 205.84375 87.171875 206.0625 87.597656 206.097656 L 89.40625 206.246094 C 89.535156 206.253906 89.640625 206.34375 89.675781 206.472656 C 89.707031 206.59375 90.441406 209.566406 88.773438 212.269531 C 87.613281 214.144531 85.597656 215.402344 82.777344 216.007812 C 82.101562 216.15625 81.445312 216.222656 80.8125 216.222656 " fill-opacity="1" fill-rule="nonzero"/><path fill="#ffffff" d="M 80.234375 193.75 C 80.234375 193.75 82.359375 198.652344 87.921875 197.746094 C 93.484375 196.839844 93.625 189.765625 93.128906 182.246094 C 92.320312 182.640625 91.335938 182.910156 89.914062 182.867188 C 87.5 182.796875 82.484375 181.828125 82.25 181.273438 C 83.152344 183.402344 83.496094 185.582031 82.367188 186.945312 C 81.925781 187.539062 81.089844 187.96875 79.613281 187.992188 C 79.613281 187.992188 78.910156 185.636719 76.8125 187.003906 C 74.710938 188.371094 75.492188 194.140625 80.234375 193.75 " fill-opacity="1" fill-rule="nonzero"/><path fill="#000000" d="M 82.523438 181.15625 C 82.527344 181.15625 82.527344 181.15625 82.527344 181.15625 C 82.527344 181.15625 82.527344 181.15625 82.523438 181.15625 Z M 80.234375 193.449219 C 80.355469 193.449219 80.464844 193.519531 80.511719 193.628906 C 80.59375 193.820312 82.617188 198.308594 87.871094 197.453125 C 93.199219 196.582031 93.28125 189.453125 92.855469 182.695312 C 91.972656 183.050781 91.023438 183.203125 89.90625 183.167969 C 88.496094 183.125 84.582031 182.574219 82.824219 181.921875 C 83.636719 184.183594 83.5625 185.976562 82.601562 187.136719 C 82.050781 187.875 81.042969 188.269531 79.617188 188.292969 C 79.617188 188.292969 79.617188 188.292969 79.613281 188.292969 C 79.480469 188.292969 79.363281 188.207031 79.324219 188.078125 C 79.324219 188.070312 79.046875 187.183594 78.378906 186.941406 C 77.988281 186.796875 77.515625 186.902344 76.976562 187.257812 C 76.0625 187.851562 75.742188 189.480469 76.25 190.964844 C 76.53125 191.785156 77.480469 193.675781 80.210938 193.449219 C 80.21875 193.449219 80.226562 193.449219 80.234375 193.449219 Z M 86.59375 198.160156 C 82.457031 198.160156 80.492188 194.898438 80.054688 194.0625 C 77.96875 194.15625 76.34375 193.085938 75.683594 191.160156 C 75.078125 189.398438 75.492188 187.503906 76.648438 186.753906 C 77.355469 186.292969 78.007812 186.164062 78.589844 186.375 C 79.292969 186.636719 79.667969 187.328125 79.820312 187.6875 C 80.933594 187.632812 81.710938 187.324219 82.128906 186.765625 C 83.292969 185.359375 82.683594 183.070312 81.972656 181.390625 C 81.90625 181.238281 81.976562 181.0625 82.132812 181 C 82.277344 180.9375 82.441406 180.996094 82.511719 181.132812 C 82.953125 181.566406 87.417969 182.492188 89.921875 182.566406 C 91.117188 182.605469 92.089844 182.417969 92.996094 181.976562 C 93.085938 181.933594 93.191406 181.9375 93.277344 181.988281 C 93.363281 182.035156 93.421875 182.125 93.425781 182.226562 C 93.898438 189.371094 93.90625 197.078125 87.96875 198.042969 C 87.484375 198.121094 87.027344 198.160156 86.59375 198.160156 " fill-opacity="1" fill-rule="nonzero"/><path fill="#000000" d="M 78.851562 191.039062 C 78.726562 191.039062 78.609375 190.960938 78.566406 190.835938 C 78.449219 190.488281 78.324219 190.128906 78.121094 189.84375 C 77.917969 189.5625 77.640625 189.382812 77.375 189.363281 C 77.210938 189.355469 77.082031 189.210938 77.09375 189.042969 C 77.105469 188.878906 77.25 188.753906 77.414062 188.765625 C 77.863281 188.796875 78.296875 189.0625 78.609375 189.492188 C 78.863281 189.851562 79.007812 190.273438 79.136719 190.640625 C 79.1875 190.796875 79.105469 190.96875 78.949219 191.023438 C 78.914062 191.035156 78.882812 191.039062 78.851562 191.039062 " fill-opacity="1" fill-rule="nonzero"/><path fill="#00e7ff" d="M 65.785156 261.597656 L 91.714844 258.347656 L 94.191406 264.269531 L 74.109375 274.050781 C 74.109375 274.050781 64.164062 267.195312 65.785156 261.597656 " fill-opacity="1" fill-rule="nonzero"/><path fill="#ffffff" d="M 59.320312 282.285156 C 59.320312 282.285156 124.03125 236.320312 143.613281 241.6875 C 163.191406 247.054688 158.777344 272.285156 147.253906 282.019531 C 139.246094 288.785156 126.566406 299.601562 90.734375 307.949219 C 54.902344 316.296875 59.320312 282.285156 59.320312 282.285156 " fill-opacity="1" fill-rule="nonzero"/><path fill="#000000" d="M 59.601562 282.453125 C 59.449219 283.898438 58.296875 297.054688 66.226562 304.230469 C 71.546875 309.042969 79.769531 310.195312 90.667969 307.65625 C 126.257812 299.367188 138.707031 288.847656 146.949219 281.886719 L 147.058594 281.792969 C 154.210938 275.75 158.261719 263.992188 156.285156 255.023438 C 155.261719 250.382812 152.21875 244.359375 143.53125 241.976562 C 124.683594 236.8125 62.621094 280.324219 59.601562 282.453125 Z M 80.363281 309.566406 C 74.292969 309.566406 69.421875 307.933594 65.820312 304.675781 C 57.230469 296.902344 59.003906 282.390625 59.023438 282.246094 C 59.03125 282.164062 59.078125 282.089844 59.144531 282.039062 C 59.308594 281.925781 75.546875 270.417969 93.972656 259.714844 C 118.761719 245.3125 135.488281 239.152344 143.691406 241.398438 C 152.667969 243.859375 155.8125 250.09375 156.871094 254.890625 C 157.875 259.441406 157.429688 264.773438 155.613281 269.902344 C 153.839844 274.914062 150.941406 279.296875 147.449219 282.25 L 147.335938 282.34375 C 139.554688 288.917969 126.535156 299.917969 90.800781 308.242188 C 87.003906 309.125 83.523438 309.566406 80.363281 309.566406 " fill-opacity="1" fill-rule="nonzero"/><path fill="#000000" d="M 115.527344 300.027344 C 115.40625 300.027344 115.292969 299.957031 115.246094 299.839844 C 111.976562 291.660156 97.0625 275.734375 96.914062 275.578125 C 96.800781 275.457031 96.804688 275.265625 96.925781 275.152344 C 97.050781 275.039062 97.238281 275.042969 97.351562 275.164062 C 97.96875 275.820312 112.492188 291.332031 115.804688 299.617188 C 115.867188 299.769531 115.792969 299.945312 115.636719 300.007812 C 115.601562 300.023438 115.5625 300.027344 115.527344 300.027344 " fill-opacity="1" fill-rule="nonzero"/><path fill="#000000" d="M 73.402344 288.660156 C 73.316406 288.660156 73.230469 288.625 73.171875 288.554688 C 73.066406 288.425781 73.082031 288.238281 73.210938 288.132812 C 83.125 279.8125 127.949219 255.691406 128.398438 255.445312 C 128.546875 255.371094 128.730469 255.425781 128.808594 255.570312 C 128.886719 255.714844 128.832031 255.898438 128.683594 255.976562 C 128.234375 256.21875 83.464844 280.3125 73.597656 288.589844 C 73.539062 288.640625 73.472656 288.660156 73.402344 288.660156 " fill-opacity="1" fill-rule="nonzero"/><path fill="#ffffff" d="M 114.234375 305.929688 C 114.734375 306.539062 114.839844 307.382812 114.5 308.097656 C 114.164062 308.8125 113.445312 309.269531 112.65625 309.269531 C 106.417969 309.269531 91.023438 309.269531 56.738281 309.269531 C 50.949219 309.269531 45.371094 307.074219 41.132812 303.128906 C 35.113281 297.527344 26.039062 288.992188 18.382812 281.425781 C 9.707031 272.847656 6.972656 259.933594 11.410156 248.570312 C 11.476562 248.402344 11.542969 248.230469 11.609375 248.0625 C 15.367188 238.515625 27.074219 235.011719 35.433594 240.957031 C 52.28125 252.941406 78.960938 272.636719 89.535156 284.40625 C 89.535156 284.40625 107.601562 297.8125 114.234375 305.929688 " fill-opacity="1" fill-rule="nonzero"/><path fill="#000000" d="M 26.332031 238.332031 C 24.855469 238.332031 23.363281 238.546875 21.902344 238.980469 C 17.300781 240.347656 13.648438 243.699219 11.890625 248.171875 L 11.691406 248.675781 C 7.292969 259.945312 10.003906 272.714844 18.597656 281.210938 C 26.179688 288.710938 35.148438 297.148438 41.335938 302.910156 C 45.535156 306.816406 51.003906 308.96875 56.738281 308.96875 L 112.65625 308.96875 C 113.324219 308.96875 113.941406 308.574219 114.230469 307.96875 C 114.515625 307.363281 114.425781 306.636719 114.003906 306.117188 C 107.46875 298.125 89.535156 284.777344 89.355469 284.644531 C 89.339844 284.632812 89.324219 284.621094 89.3125 284.605469 C 78.570312 272.65625 50.835938 252.28125 35.257812 241.203125 C 32.601562 239.308594 29.492188 238.332031 26.332031 238.332031 Z M 112.65625 309.566406 L 56.738281 309.566406 C 50.851562 309.566406 45.238281 307.359375 40.929688 303.347656 C 34.738281 297.585938 25.765625 289.140625 18.171875 281.636719 C 9.410156 272.972656 6.644531 259.949219 11.132812 248.460938 L 11.332031 247.953125 C 13.160156 243.304688 16.949219 239.824219 21.730469 238.402344 C 26.496094 236.988281 31.554688 237.828125 35.605469 240.710938 C 51.195312 251.800781 78.945312 272.183594 89.738281 284.179688 C 90.5 284.75 107.996094 297.824219 114.46875 305.738281 C 115.039062 306.433594 115.160156 307.410156 114.773438 308.226562 C 114.386719 309.042969 113.554688 309.566406 112.65625 309.566406 " fill-opacity="1" fill-rule="nonzero"/><path fill="#000000" d="M 67.554688 309.566406 C 67.503906 309.566406 67.449219 309.554688 67.402344 309.527344 C 53.847656 301.550781 38.332031 287.746094 27.882812 274.355469 C 26.476562 272.554688 25.035156 270.613281 24.183594 268.414062 C 24.121094 268.257812 24.199219 268.085938 24.351562 268.023438 C 24.507812 267.964844 24.683594 268.039062 24.742188 268.195312 C 25.566406 270.320312 26.980469 272.21875 28.355469 273.984375 C 38.765625 287.320312 54.210938 301.070312 67.707031 309.007812 C 67.851562 309.09375 67.898438 309.277344 67.8125 309.417969 C 67.757812 309.515625 67.65625 309.566406 67.554688 309.566406 " fill-opacity="1" fill-rule="nonzero"/><path fill="#000000" d="M 64.722656 305.097656 C 64.652344 305.097656 64.582031 305.074219 64.523438 305.023438 C 64.398438 304.914062 64.386719 304.726562 64.496094 304.597656 C 71.492188 296.570312 79.589844 289.601562 88.570312 283.878906 C 88.707031 283.789062 88.894531 283.832031 88.984375 283.96875 C 89.074219 284.113281 89.03125 284.296875 88.890625 284.386719 C 79.960938 290.078125 71.90625 297.011719 64.949219 304.992188 C 64.890625 305.0625 64.804688 305.097656 64.722656 305.097656 " fill-opacity="1" fill-rule="nonzero"/><path fill="#000000" d="M 57.757812 298.976562 C 57.683594 298.976562 57.609375 298.949219 57.550781 298.894531 C 57.429688 298.777344 57.425781 298.585938 57.542969 298.46875 C 64.820312 290.976562 72.828125 284.113281 81.34375 278.0625 C 81.476562 277.96875 81.664062 278 81.761719 278.136719 C 81.859375 278.269531 81.824219 278.457031 81.691406 278.554688 C 73.207031 284.582031 65.226562 291.421875 57.972656 298.886719 C 57.914062 298.945312 57.835938 298.976562 57.757812 298.976562 " fill-opacity="1" fill-rule="nonzero"/><path fill="#00e7ff" d="M 107.695312 212.371094 C 105.164062 208.953125 101.300781 206.78125 97.066406 206.390625 C 94.65625 206.167969 91.632812 205.929688 88.261719 205.757812 C 88.074219 206.367188 87.816406 206.953125 87.480469 207.507812 C 86.503906 209.117188 84.972656 210.355469 83.265625 211.125 C 81.558594 211.894531 79.648438 212.242188 77.785156 212.015625 C 75.957031 211.796875 74.222656 211.019531 72.960938 209.660156 C 71.929688 208.550781 70.695312 207.210938 70.378906 205.757812 C 67.320312 205.929688 64.910156 206.183594 62.039062 206.632812 C 56.558594 207.492188 51.746094 210.75 48.847656 215.480469 C 43.535156 224.148438 34.335938 239.5625 33.84375 251.964844 C 33.050781 271.949219 65.496094 263.472656 65.496094 263.472656 L 101.9375 260.125 L 123.046875 243.785156 C 123.046875 243.785156 116.476562 224.234375 107.695312 212.371094 " fill-opacity="1" fill-rule="nonzero"/><path fill="#ffffff" d="M 65.910156 259.429688 C 65.660156 261.113281 67.367188 262.414062 68.921875 261.726562 C 72.101562 260.316406 75.546875 259.605469 79.023438 259.640625 L 94.066406 259.792969 C 94.066406 259.792969 95.238281 240.402344 73.972656 242.746094 C 73.972656 242.746094 67.554688 248.332031 65.910156 259.429688 " fill-opacity="1" fill-rule="nonzero"/><path fill="#000000" d="M 82.988281 260.167969 C 82.972656 260.167969 82.957031 260.167969 82.941406 260.164062 C 82.777344 260.140625 82.664062 259.988281 82.6875 259.824219 C 82.84375 258.773438 82.59375 257.601562 81.992188 256.527344 C 81.480469 255.621094 80.726562 254.765625 79.679688 253.90625 C 79.488281 253.75 79.28125 253.585938 79.054688 253.488281 C 78.902344 253.417969 78.832031 253.242188 78.898438 253.089844 C 78.964844 252.9375 79.140625 252.871094 79.292969 252.933594 C 79.589844 253.066406 79.847656 253.265625 80.0625 253.441406 C 81.167969 254.347656 81.96875 255.261719 82.515625 256.234375 C 83.183594 257.421875 83.457031 258.726562 83.285156 259.910156 C 83.261719 260.058594 83.132812 260.167969 82.988281 260.167969 " fill-opacity="1" fill-rule="nonzero"/><path fill="#000000" d="M 87.847656 259.886719 C 87.699219 259.886719 87.574219 259.78125 87.550781 259.628906 C 87.371094 258.351562 87.109375 256.855469 86.554688 255.460938 C 85.984375 254.03125 85.144531 252.863281 84.132812 252.085938 C 84.003906 251.984375 83.976562 251.796875 84.078125 251.664062 C 84.179688 251.53125 84.367188 251.507812 84.5 251.609375 C 85.597656 252.453125 86.5 253.707031 87.113281 255.238281 C 87.691406 256.695312 87.960938 258.234375 88.144531 259.546875 C 88.167969 259.710938 88.054688 259.863281 87.890625 259.886719 C 87.875 259.886719 87.863281 259.886719 87.847656 259.886719 " fill-opacity="1" fill-rule="nonzero"/><path fill="#000000" d="M 91.746094 259.886719 C 91.730469 259.886719 91.71875 259.886719 91.707031 259.886719 C 91.542969 259.867188 91.425781 259.714844 91.445312 259.550781 C 92.089844 254.136719 88.546875 250.757812 88.511719 250.722656 C 88.390625 250.609375 88.382812 250.417969 88.496094 250.300781 C 88.609375 250.179688 88.800781 250.171875 88.921875 250.285156 C 89.078125 250.429688 92.722656 253.898438 92.042969 259.625 C 92.023438 259.777344 91.894531 259.886719 91.746094 259.886719 " fill-opacity="1" fill-rule="nonzero"/><path fill="#000000" d="M 130.796875 262.730469 L 75.929688 262.730469 C 75.605469 262.730469 75.28125 262.648438 75.011719 262.464844 C 74.386719 262.03125 74.167969 261.261719 74.414062 260.597656 C 75.0625 259.238281 76.398438 258.761719 78.375 258.761719 L 134.398438 258.761719 L 133.671875 260.738281 C 133.222656 261.9375 132.078125 262.730469 130.796875 262.730469 " fill-opacity="1" fill-rule="nonzero"/><path fill="#000000" d="M 131.109375 262.730469 C 132.207031 262.730469 133.195312 262.0625 133.597656 261.042969 L 143.3125 236.65625 C 143.570312 236.011719 143.492188 235.277344 143.101562 234.699219 C 142.710938 234.125 142.058594 233.777344 141.363281 233.777344 L 107.640625 233.777344 C 105.609375 233.777344 103.796875 235.0625 103.117188 236.976562 L 94 262.730469 L 131.109375 262.730469 " fill-opacity="1" fill-rule="nonzero"/><path fill="#ffffff" d="M 131.898438 259.300781 L 98.464844 259.300781 C 98.300781 259.300781 98.164062 259.164062 98.164062 259 C 98.164062 258.835938 98.300781 258.699219 98.464844 258.699219 L 131.898438 258.699219 C 132.066406 258.699219 132.199219 258.835938 132.199219 259 C 132.199219 259.164062 132.066406 259.300781 131.898438 259.300781 " fill-opacity="1" fill-rule="nonzero"/><path fill="#000000" d="M 48.339844 243.398438 C 48.175781 243.398438 48.042969 243.265625 48.039062 243.101562 C 48.035156 242.9375 48.167969 242.800781 48.332031 242.796875 L 72.867188 242.332031 C 73.035156 242.328125 73.167969 242.460938 73.171875 242.625 C 73.175781 242.792969 73.042969 242.929688 72.878906 242.933594 L 48.34375 243.398438 C 48.34375 243.398438 48.339844 243.398438 48.339844 243.398438 " fill-opacity="1" fill-rule="nonzero"/><path fill="#000000" d="M 56.53125 242.003906 C 56.503906 242.003906 56.472656 242 56.445312 241.992188 C 56.285156 241.945312 56.195312 241.777344 56.242188 241.621094 C 57.140625 238.632812 58.375 235.75 59.917969 233.039062 C 60.25 232.457031 60.792969 231.683594 61.628906 231.707031 C 61.792969 231.714844 61.925781 231.851562 61.917969 232.019531 C 61.914062 232.183594 61.773438 232.320312 61.609375 232.308594 C 61.21875 232.296875 60.847656 232.621094 60.441406 233.339844 C 58.921875 236.007812 57.703125 238.851562 56.820312 241.792969 C 56.78125 241.921875 56.660156 242.003906 56.53125 242.003906 " fill-opacity="1" fill-rule="nonzero"/><path fill="#000000" d="M 56.738281 309.566406 L 0.5625 309.566406 C 0.394531 309.566406 0.261719 309.433594 0.261719 309.269531 L 0.261719 297.109375 C 0.261719 296.945312 0.394531 296.8125 0.5625 296.8125 C 0.726562 296.8125 0.863281 296.945312 0.863281 297.109375 L 0.863281 308.96875 L 56.738281 308.96875 C 56.90625 308.96875 57.039062 309.101562 57.039062 309.269531 C 57.039062 309.433594 56.90625 309.566406 56.738281 309.566406 " fill-opacity="1" fill-rule="nonzero"/><path fill="#00e7ff" d="M 33.980469 122.25 L 16.21875 98.925781 L 6.347656 104.171875 L 19.644531 122.25 L 33.980469 122.25 " fill-opacity="1" fill-rule="nonzero"/><path fill="#7af3ff" d="M 17.046875 105.855469 L 9.054688 107.414062 C 5.535156 108.101562 2.125 105.800781 1.441406 102.28125 L 0.683594 98.398438 C -0.00390625 94.878906 2.292969 91.46875 5.8125 90.78125 L 13.804688 89.222656 L 17.046875 105.855469 " fill-opacity="1" fill-rule="nonzero"/><path fill="#7af3ff" d="M 68.695312 65.367188 C 68.695312 65.367188 65.21875 58.695312 59.582031 60.433594 C 55.46875 61.703125 30.519531 76.121094 17.347656 83.8125 C 12.476562 86.65625 9.9375 92.273438 11.015625 97.8125 C 12.3125 104.464844 18.417969 109.074219 25.175781 108.492188 L 69.898438 104.660156 C 69.898438 104.660156 74.894531 103.929688 75.703125 96.5625 C 76.507812 89.191406 68.695312 65.367188 68.695312 65.367188 " fill-opacity="1" fill-rule="nonzero"/><path fill="#000000" d="M 14.285156 104.570312 C 14.203125 104.570312 14.125 104.535156 14.0625 104.472656 C 12.359375 102.625 11.203125 100.34375 10.722656 97.867188 C 10.257812 95.488281 10.4375 93.027344 11.246094 90.742188 C 11.300781 90.585938 11.476562 90.503906 11.628906 90.558594 C 11.785156 90.617188 11.871094 90.789062 11.8125 90.945312 C 11.042969 93.125 10.867188 95.480469 11.308594 97.753906 C 11.773438 100.117188 12.875 102.300781 14.503906 104.066406 C 14.617188 104.1875 14.609375 104.375 14.488281 104.488281 C 14.429688 104.542969 14.359375 104.570312 14.285156 104.570312 " fill-opacity="1" fill-rule="nonzero"/><path fill="#ffffff" d="M 77.082031 79.945312 C 79.367188 91.667969 76.152344 102.15625 69.902344 103.375 C 63.652344 104.59375 56.730469 96.082031 54.445312 84.359375 C 52.160156 72.640625 55.375 62.152344 61.628906 60.933594 C 67.878906 59.714844 74.796875 68.226562 77.082031 79.945312 " fill-opacity="1" fill-rule="nonzero"/><path fill="#000000" d="M 62.839844 61.117188 C 62.453125 61.117188 62.066406 61.15625 61.683594 61.230469 C 55.605469 62.414062 52.492188 72.765625 54.742188 84.304688 C 55.835938 89.925781 58.03125 94.976562 60.917969 98.53125 C 63.765625 102.03125 66.933594 103.644531 69.84375 103.078125 C 72.753906 102.511719 75.082031 99.824219 76.40625 95.511719 C 77.75 91.132812 77.882812 85.625 76.789062 80.003906 C 75.691406 74.386719 73.5 69.332031 70.609375 65.777344 C 68.136719 62.734375 65.417969 61.117188 62.839844 61.117188 Z M 68.6875 103.792969 C 65.921875 103.792969 63.042969 102.097656 60.453125 98.910156 C 57.503906 95.28125 55.265625 90.132812 54.152344 84.417969 C 51.835938 72.554688 55.167969 61.886719 61.570312 60.640625 C 64.707031 60.027344 68.082031 61.71875 71.074219 65.398438 C 74.027344 69.027344 76.265625 74.175781 77.378906 79.890625 C 78.492188 85.605469 78.351562 91.214844 76.980469 95.6875 C 75.589844 100.222656 73.097656 103.058594 69.960938 103.667969 C 69.539062 103.75 69.113281 103.792969 68.6875 103.792969 " fill-opacity="1" fill-rule="nonzero"/><path fill="#7af3ff" d="M 60.070312 92.644531 C 59.867188 92.644531 59.6875 92.511719 59.632812 92.308594 C 59.570312 92.066406 59.714844 91.820312 59.957031 91.757812 C 62.8125 91.015625 65.175781 88.585938 65.839844 85.710938 C 66.507812 82.835938 65.449219 79.613281 63.210938 77.691406 C 60.976562 75.769531 57.632812 75.207031 54.890625 76.300781 C 54.660156 76.390625 54.398438 76.277344 54.304688 76.046875 C 54.210938 75.816406 54.324219 75.554688 54.558594 75.460938 C 57.601562 74.25 61.316406 74.875 63.800781 77.007812 C 66.285156 79.144531 67.457031 82.722656 66.71875 85.914062 C 65.980469 89.105469 63.355469 91.804688 60.183594 92.628906 C 60.144531 92.640625 60.105469 92.644531 60.070312 92.644531 " fill-opacity="1" fill-rule="nonzero"/><path fill="#000000" d="M 72 122.550781 L 19.644531 122.550781 C 19.476562 122.550781 19.34375 122.417969 19.34375 122.25 C 19.34375 122.085938 19.476562 121.949219 19.644531 121.949219 L 72 121.949219 C 72.167969 121.949219 72.300781 122.085938 72.300781 122.25 C 72.300781 122.417969 72.167969 122.550781 72 122.550781 " fill-opacity="1" fill-rule="nonzero"/><path fill="#000000" d="M 374.695312 309.582031 L 255.179688 309.582031 C 255.015625 309.582031 254.882812 309.445312 254.882812 309.28125 C 254.882812 309.113281 255.015625 308.980469 255.179688 308.980469 L 374.398438 308.980469 L 374.398438 297.109375 C 374.398438 296.945312 374.53125 296.8125 374.695312 296.8125 C 374.863281 296.8125 374.996094 296.945312 374.996094 297.109375 L 374.996094 309.28125 C 374.996094 309.445312 374.863281 309.582031 374.695312 309.582031 " fill-opacity="1" fill-rule="nonzero"/><path fill="#ffffff" d="M 337.496094 309.28125 L 315.769531 309.28125 C 310.171875 305.503906 305.007812 301.0625 301.503906 295.34375 C 299.226562 291.621094 297.703125 287.050781 299.074219 282.910156 C 300.449219 278.769531 305.6875 275.859375 309.410156 278.128906 C 306.148438 275.769531 302.84375 273.367188 300.304688 270.242188 C 297.761719 267.117188 296.03125 263.125 296.441406 259.121094 C 296.855469 255.113281 299.808594 251.253906 303.785156 250.613281 C 310.28125 249.570312 315.722656 256.007812 319.679688 260.214844 C 324.910156 265.765625 329.835938 271.695312 333.464844 278.4375 C 338.183594 287.195312 340.585938 297.585938 338.128906 307.226562 C 337.953125 307.914062 337.746094 308.605469 337.496094 309.28125 " fill-opacity="1" fill-rule="nonzero"/><path fill="#000000" d="M 315.863281 308.980469 L 337.285156 308.980469 C 337.484375 308.414062 337.671875 307.800781 337.835938 307.152344 C 340.0625 298.410156 338.417969 288.265625 333.199219 278.578125 C 330.09375 272.8125 325.859375 267.210938 319.464844 260.417969 C 319.1875 260.125 318.90625 259.824219 318.613281 259.511719 C 314.863281 255.480469 309.71875 249.964844 303.832031 250.910156 C 300.214844 251.492188 297.164062 255.035156 296.742188 259.152344 C 296.375 262.71875 297.722656 266.589844 300.535156 270.054688 C 303.066406 273.167969 306.382812 275.566406 309.585938 277.886719 C 309.714844 277.980469 309.75 278.160156 309.660156 278.296875 C 309.570312 278.429688 309.390625 278.46875 309.253906 278.386719 C 307.828125 277.515625 306.054688 277.398438 304.261719 278.054688 C 302.007812 278.882812 300.085938 280.824219 299.359375 283.003906 C 297.816406 287.667969 300.203125 292.636719 301.761719 295.183594 C 304.796875 300.144531 309.28125 304.53125 315.863281 308.980469 Z M 337.496094 309.582031 L 315.769531 309.582031 C 315.710938 309.582031 315.652344 309.5625 315.605469 309.527344 C 308.90625 305.011719 304.34375 300.554688 301.25 295.5 C 298.460938 290.945312 297.589844 286.441406 298.789062 282.816406 C 299.582031 280.429688 301.597656 278.390625 304.054688 277.492188 C 305.234375 277.058594 306.410156 276.933594 307.5 277.113281 C 304.832031 275.144531 302.191406 273.042969 300.070312 270.433594 C 297.152344 266.847656 295.757812 262.816406 296.144531 259.089844 C 296.59375 254.710938 299.859375 250.941406 303.738281 250.316406 C 309.941406 249.320312 315.210938 254.972656 319.054688 259.101562 C 319.34375 259.410156 319.625 259.714844 319.902344 260.007812 C 326.335938 266.839844 330.597656 272.480469 333.730469 278.292969 C 339.015625 288.109375 340.683594 298.414062 338.417969 307.300781 C 338.230469 308.042969 338.015625 308.742188 337.777344 309.382812 C 337.734375 309.503906 337.621094 309.582031 337.496094 309.582031 " fill-opacity="1" fill-rule="nonzero"/><path fill="#000000" d="M 325.582031 309.582031 C 325.476562 309.582031 325.375 309.523438 325.316406 309.425781 C 323.878906 306.828125 322.492188 304.160156 321.207031 301.492188 C 316.613281 291.984375 312.96875 282 310.375 271.8125 C 310.332031 271.652344 310.429688 271.488281 310.589844 271.445312 C 310.753906 271.40625 310.917969 271.503906 310.957031 271.664062 C 313.542969 281.8125 317.171875 291.761719 321.746094 301.230469 C 323.03125 303.886719 324.410156 306.546875 325.84375 309.132812 C 325.925781 309.277344 325.871094 309.460938 325.726562 309.542969 C 325.679688 309.566406 325.628906 309.582031 325.582031 309.582031 " fill-opacity="1" fill-rule="nonzero"/><path fill="#ffffff" d="M 346.222656 278.167969 C 351.402344 286.417969 352.023438 297.128906 348.535156 306.140625 C 348.210938 306.972656 347.773438 308.097656 347.222656 309.28125 L 332.085938 309.28125 C 330.324219 307.375 328.785156 305.394531 327.742188 303.90625 C 324.089844 298.691406 322.308594 291.714844 324.792969 285.851562 C 325.582031 283.996094 326.773438 282.277344 327.09375 280.289062 C 327.851562 275.585938 323.667969 271.71875 320.03125 268.648438 C 312.894531 262.625 305.90625 255.148438 305.023438 245.855469 C 304.285156 238.089844 308.433594 230.070312 315.195312 226.183594 C 312.042969 220.328125 309.660156 214.058594 308.128906 207.589844 C 307.496094 204.914062 307.042969 201.964844 308.324219 199.53125 C 309.976562 196.40625 313.949219 195.269531 317.484375 195.382812 C 326.480469 195.679688 334.417969 202.097656 338.789062 209.96875 C 343.160156 217.839844 350.722656 233.9375 343.839844 259.496094 C 342.976562 262.710938 341.242188 265.835938 341.640625 269.144531 C 342.050781 272.523438 344.410156 275.28125 346.222656 278.167969 " fill-opacity="1" fill-rule="nonzero"/><path fill="#000000" d="M 332.21875 308.980469 L 347.03125 308.980469 C 347.558594 307.824219 347.988281 306.710938 348.253906 306.03125 C 351.808594 296.851562 350.933594 286.234375 345.964844 278.328125 C 345.585938 277.722656 345.175781 277.113281 344.777344 276.523438 C 343.253906 274.257812 341.675781 271.921875 341.34375 269.179688 C 341.050781 266.765625 341.867188 264.4375 342.65625 262.183594 C 342.972656 261.277344 343.300781 260.34375 343.550781 259.417969 C 350.851562 232.304688 341.574219 215.601562 338.527344 210.113281 C 333.730469 201.480469 325.664062 195.953125 317.472656 195.683594 C 314.253906 195.578125 310.226562 196.570312 308.589844 199.671875 C 307.359375 202 307.785156 204.820312 308.421875 207.519531 C 309.949219 213.96875 312.316406 220.199219 315.460938 226.039062 C 315.535156 226.183594 315.484375 226.359375 315.347656 226.441406 C 308.722656 230.25 304.601562 238.222656 305.324219 245.828125 C 306.238281 255.480469 313.765625 262.972656 320.222656 268.417969 C 324.09375 271.6875 328.160156 275.570312 327.390625 280.335938 C 327.167969 281.734375 326.523438 283.007812 325.898438 284.238281 C 325.613281 284.800781 325.320312 285.386719 325.070312 285.96875 C 322.421875 292.210938 324.84375 299.238281 327.988281 303.734375 C 329.191406 305.453125 330.726562 307.359375 332.21875 308.980469 Z M 347.222656 309.582031 L 332.085938 309.582031 C 332.003906 309.582031 331.921875 309.542969 331.867188 309.484375 C 330.332031 307.824219 328.738281 305.851562 327.496094 304.078125 C 324.257812 299.453125 321.773438 292.199219 324.515625 285.734375 C 324.773438 285.132812 325.074219 284.539062 325.363281 283.964844 C 325.992188 282.722656 326.589844 281.546875 326.796875 280.242188 C 327.515625 275.785156 323.582031 272.039062 319.835938 268.878906 C 313.292969 263.355469 305.660156 255.753906 304.722656 245.882812 C 303.992188 238.148438 308.121094 230.046875 314.792969 226.070312 C 311.695312 220.257812 309.355469 214.066406 307.839844 207.65625 C 307.171875 204.84375 306.738281 201.894531 308.058594 199.394531 C 309.824219 196.046875 314.09375 194.972656 317.492188 195.082031 C 325.894531 195.359375 334.15625 201.007812 339.050781 209.820312 C 342.128906 215.363281 351.496094 232.226562 344.132812 259.574219 C 343.878906 260.519531 343.546875 261.46875 343.222656 262.382812 C 342.421875 264.671875 341.664062 266.832031 341.9375 269.109375 C 342.253906 271.703125 343.789062 273.980469 345.277344 276.1875 C 345.675781 276.78125 346.09375 277.394531 346.476562 278.007812 C 351.542969 286.074219 352.4375 296.894531 348.8125 306.25 C 348.535156 306.96875 348.066406 308.175781 347.496094 309.40625 C 347.445312 309.511719 347.339844 309.582031 347.222656 309.582031 " fill-opacity="1" fill-rule="nonzero"/><path fill="#000000" d="M 341.730469 307.082031 C 341.570312 307.082031 341.4375 306.957031 341.429688 306.792969 C 339.972656 276.40625 333.550781 245.40625 322.339844 214.660156 C 322.285156 214.503906 322.363281 214.328125 322.519531 214.273438 C 322.675781 214.214844 322.847656 214.296875 322.90625 214.453125 C 334.136719 245.257812 340.570312 276.316406 342.03125 306.765625 C 342.039062 306.929688 341.910156 307.074219 341.746094 307.082031 C 341.742188 307.082031 341.734375 307.082031 341.730469 307.082031 " fill-opacity="1" fill-rule="nonzero"/></svg>