<svg xmlns="http://www.w3.org/2000/svg" xmlns:xlink="http://www.w3.org/1999/xlink" width="500" zoomAndPan="magnify" viewBox="0 0 375 374.999991" height="500" preserveAspectRatio="xMidYMid meet" version="1.0"><path fill="#aef8ff" d="M 217.8125 15.511719 C 134.28125 0 70.65625 57.996094 65.941406 62.4375 C 58.460938 69.480469 4.351562 116.453125 5.957031 199.453125 C 8.140625 312.570312 44.46875 345.40625 77.703125 358.964844 C 84 361.53125 108.101562 360.488281 116.695312 361.917969 C 130.484375 364.214844 147.636719 373.40625 169.902344 373.765625 C 246.585938 375.007812 354.882812 352.777344 366.167969 224.539062 C 374.871094 125.65625 307.605469 32.191406 217.8125 15.511719 " fill-opacity="1" fill-rule="nonzero"/><path fill="#00e7ff" d="M 357.851562 271.839844 L 145.015625 242.238281 C 139.671875 241.558594 135.667969 237.011719 135.667969 231.625 L 132.75 83.167969 C 132.75 83.167969 137.601562 79.671875 140.351562 78.332031 C 141.75 77.648438 143.359375 77.347656 145.039062 77.5625 L 357.238281 104.625 C 362.582031 105.308594 366.585938 109.855469 366.585938 115.242188 L 366.585938 261.054688 C 366.585938 263.660156 365.394531 265.960938 363.550781 267.476562 C 361.851562 268.875 357.851562 271.839844 357.851562 271.839844 " fill-opacity="1" fill-rule="nonzero"/><path fill="#6df2ff" d="M 351.359375 273.8125 L 139.15625 246.75 C 133.8125 246.066406 129.808594 241.519531 129.808594 236.132812 L 129.808594 90.324219 C 129.808594 85.3125 134.203125 81.441406 139.175781 82.074219 L 351.378906 109.132812 C 356.722656 109.816406 360.726562 114.363281 360.726562 119.75 L 360.726562 265.5625 C 360.726562 270.574219 356.328125 274.445312 351.359375 273.8125 " fill-opacity="1" fill-rule="nonzero"/><path fill="#000000" d="M 360.726562 160.152344 C 360.363281 160.152344 360.070312 159.859375 360.070312 159.496094 L 360.070312 119.75 C 360.070312 114.703125 356.296875 110.421875 351.292969 109.785156 L 314.570312 105.101562 C 314.214844 105.054688 313.957031 104.726562 314.003906 104.367188 C 314.050781 104.011719 314.378906 103.753906 314.738281 103.804688 L 351.460938 108.484375 C 357.117188 109.207031 361.382812 114.050781 361.382812 119.75 L 361.382812 159.496094 C 361.382812 159.859375 361.085938 160.152344 360.726562 160.152344 " fill-opacity="1" fill-rule="nonzero"/><path fill="#000000" d="M 129.808594 123.226562 C 129.445312 123.226562 129.152344 122.933594 129.152344 122.574219 L 129.152344 90.324219 C 129.152344 87.746094 130.261719 85.292969 132.195312 83.589844 C 134.128906 81.886719 136.703125 81.097656 139.257812 81.421875 L 305.855469 102.671875 C 306.214844 102.714844 306.46875 103.042969 306.421875 103.402344 C 306.378906 103.761719 306.046875 104.011719 305.691406 103.96875 L 139.09375 82.722656 C 136.90625 82.445312 134.710938 83.117188 133.058594 84.570312 C 131.40625 86.027344 130.460938 88.121094 130.460938 90.324219 L 130.460938 122.574219 C 130.460938 122.933594 130.167969 123.226562 129.808594 123.226562 " fill-opacity="1" fill-rule="nonzero"/><path fill="#ffffff" d="M 346.847656 267.800781 L 144.226562 241.960938 C 140.339844 241.464844 137.425781 238.160156 137.425781 234.242188 L 137.425781 93.59375 C 137.425781 90.25 140.367188 87.660156 143.683594 88.085938 L 346.304688 113.925781 C 350.191406 114.421875 353.101562 117.726562 353.101562 121.644531 L 353.101562 262.292969 C 353.101562 265.640625 350.164062 268.226562 346.847656 267.800781 " fill-opacity="1" fill-rule="nonzero"/><path fill="#6df2ff" d="M 227.558594 359.683594 L 9.316406 331.539062 C 7.609375 331.320312 6.648438 329.890625 6.667969 328.457031 C 6.683594 327.472656 6.761719 320.527344 6.761719 320.527344 L 122.160156 254.558594 C 127.941406 251.253906 135.421875 249.980469 142.023438 250.824219 L 357.511719 278.621094 C 358.808594 278.789062 359.917969 279.632812 360.433594 280.832031 L 360.78125 281.644531 C 360.78125 281.644531 360.597656 287.4375 360.671875 288.792969 C 360.726562 289.847656 360.253906 290.941406 359.144531 291.574219 L 246.644531 355.898438 C 240.867188 359.203125 234.164062 360.53125 227.558594 359.683594 " fill-opacity="1" fill-rule="nonzero"/><path fill="#ffffff" d="M 227.558594 351.953125 L 10.097656 323.859375 C 7.210938 323.492188 6.453125 319.664062 8.980469 318.21875 L 120.875 254.3125 C 126.65625 251.007812 133.355469 249.679688 139.960938 250.527344 L 357.421875 278.617188 C 360.304688 278.988281 361.066406 282.816406 358.539062 284.261719 L 246.644531 348.167969 C 240.863281 351.46875 234.164062 352.796875 227.558594 351.953125 " fill-opacity="1" fill-rule="nonzero"/><path fill="#000000" d="M 227.644531 351.304688 C 234.066406 352.125 240.699219 350.8125 246.320312 347.597656 L 358.21875 283.691406 C 359.3125 283.066406 359.53125 281.976562 359.367188 281.164062 C 359.207031 280.351562 358.589844 279.425781 357.339844 279.265625 L 139.878906 251.171875 C 133.453125 250.351562 126.820312 251.667969 121.199219 254.878906 L 9.304688 318.789062 C 8.207031 319.410156 7.988281 320.503906 8.148438 321.316406 C 8.3125 322.125 8.929688 323.050781 10.179688 323.210938 Z M 231.402344 352.851562 C 230.089844 352.851562 228.777344 352.769531 227.476562 352.601562 L 10.015625 324.507812 C 8.417969 324.304688 7.179688 323.148438 6.867188 321.570312 C 6.554688 319.988281 7.253906 318.449219 8.65625 317.652344 L 120.550781 253.742188 C 126.417969 250.390625 133.339844 249.019531 140.042969 249.878906 L 357.503906 277.96875 C 359.101562 278.175781 360.339844 279.328125 360.652344 280.910156 C 360.964844 282.488281 360.265625 284.027344 358.863281 284.828125 L 246.96875 348.734375 C 242.242188 351.433594 236.832031 352.851562 231.402344 352.851562 " fill-opacity="1" fill-rule="nonzero"/><path fill="#6df2ff" d="M 270.136719 316.480469 L 81.566406 291.941406 C 78.960938 291.609375 78.277344 288.148438 80.558594 286.847656 L 124.894531 261.777344 C 130.117188 258.796875 136.167969 257.59375 142.132812 258.359375 L 330.703125 282.894531 C 333.304688 283.230469 333.992188 286.6875 331.710938 287.992188 L 287.371094 313.058594 C 282.148438 316.042969 276.101562 317.242188 270.136719 316.480469 " fill-opacity="1" fill-rule="nonzero"/><path fill="#ffffff" d="M 200.105469 183.988281 C 200.105469 183.96875 200.105469 151.097656 200.105469 151.078125 C 200.125 149.785156 200.816406 148.589844 201.9375 147.933594 L 244.085938 123.214844 C 245.054688 122.648438 246.273438 122.746094 247.136719 123.464844 L 260.34375 133.121094 L 285.324219 151 L 285.511719 199.824219 L 200.105469 183.988281 " fill-opacity="1" fill-rule="nonzero"/><path fill="#000000" d="M 200.105469 151.785156 C 199.746094 151.785156 199.449219 151.492188 199.449219 151.128906 C 199.449219 149.589844 200.277344 148.148438 201.605469 147.371094 L 243.753906 122.652344 C 244.953125 121.945312 246.480469 122.070312 247.550781 122.960938 L 260.726562 132.59375 C 261.015625 132.808594 261.082031 133.214844 260.867188 133.507812 C 260.65625 133.800781 260.246094 133.863281 259.953125 133.648438 L 246.75 123.992188 C 246.070312 123.429688 245.144531 123.351562 244.414062 123.78125 L 202.269531 148.5 C 201.335938 149.042969 200.757812 150.054688 200.757812 151.128906 C 200.757812 151.492188 200.464844 151.785156 200.105469 151.785156 " fill-opacity="1" fill-rule="nonzero"/><path fill="#6df2ff" d="M 286.339844 217.167969 L 207.851562 207.378906 L 206.875 136.019531 C 206.882812 132.753906 209.757812 130.234375 212.996094 130.65625 L 280.390625 139.386719 C 283.09375 139.738281 285.117188 142.039062 285.117188 144.765625 L 286.339844 217.167969 " fill-opacity="1" fill-rule="nonzero"/><path fill="#000000" d="M 208.496094 206.800781 L 285.671875 216.425781 L 284.464844 144.777344 C 284.464844 142.375 282.675781 140.339844 280.304688 140.035156 L 212.910156 131.304688 C 211.554688 131.128906 210.183594 131.546875 209.152344 132.445312 C 208.125 133.347656 207.53125 134.652344 207.527344 136.023438 Z M 287.003906 217.910156 L 207.203125 207.960938 L 206.222656 136.027344 C 206.226562 134.273438 206.980469 132.613281 208.292969 131.464844 C 209.605469 130.3125 211.351562 129.785156 213.082031 130.007812 L 280.472656 138.738281 C 283.496094 139.128906 285.773438 141.722656 285.773438 144.765625 L 287.003906 217.910156 " fill-opacity="1" fill-rule="nonzero"/><path fill="#ffffff" d="M 291.566406 226.082031 L 205.691406 214.980469 C 202.574219 214.503906 200.265625 211.824219 200.257812 208.671875 L 200.105469 150.777344 C 200.105469 150.082031 200.921875 149.707031 201.449219 150.160156 L 240.054688 183.296875 C 243.425781 186.191406 248.265625 186.601562 252.078125 184.324219 L 291.546875 160.699219 L 291.566406 226.082031 " fill-opacity="1" fill-rule="nonzero"/><path fill="#000000" d="M 200.921875 150.617188 C 200.898438 150.617188 200.875 150.625 200.855469 150.632812 C 200.8125 150.648438 200.761719 150.691406 200.761719 150.777344 L 200.914062 208.667969 C 200.921875 211.519531 202.972656 213.902344 205.789062 214.335938 L 290.910156 225.339844 L 290.890625 161.851562 L 252.417969 184.882812 C 248.355469 187.308594 243.21875 186.875 239.628906 183.792969 L 201.023438 150.65625 C 200.988281 150.628906 200.957031 150.617188 200.921875 150.617188 Z M 292.222656 226.828125 L 205.609375 215.632812 C 202.132812 215.097656 199.613281 212.171875 199.605469 208.671875 L 199.453125 150.78125 C 199.453125 150.199219 199.78125 149.6875 200.308594 149.445312 C 200.832031 149.203125 201.4375 149.285156 201.875 149.664062 L 240.484375 182.800781 C 243.644531 185.511719 248.167969 185.898438 251.742188 183.757812 L 292.199219 159.546875 L 292.222656 226.828125 " fill-opacity="1" fill-rule="nonzero"/><path fill="#000000" d="M 209.644531 205.492188 C 209.421875 205.492188 209.203125 205.375 209.082031 205.167969 C 208.898438 204.859375 209 204.457031 209.3125 204.273438 L 229.4375 192.347656 C 229.746094 192.164062 230.148438 192.265625 230.332031 192.578125 C 230.515625 192.886719 230.414062 193.289062 230.101562 193.472656 L 209.976562 205.398438 C 209.875 205.460938 209.757812 205.492188 209.644531 205.492188 " fill-opacity="1" fill-rule="nonzero"/><path fill="#000000" d="M 272.269531 206.402344 C 272.117188 206.402344 271.96875 206.347656 271.847656 206.246094 L 263.253906 198.929688 C 262.976562 198.695312 262.941406 198.28125 263.175781 198.007812 C 263.410156 197.730469 263.824219 197.699219 264.101562 197.933594 L 272.695312 205.25 C 272.96875 205.484375 273.003906 205.894531 272.769531 206.171875 C 272.640625 206.320312 272.457031 206.402344 272.269531 206.402344 " fill-opacity="1" fill-rule="nonzero"/><path fill="#00e7ff" d="M 270.210938 147.121094 L 217.941406 140.296875 L 270.210938 147.121094 " fill-opacity="1" fill-rule="nonzero"/><path fill="#000000" d="M 270.210938 147.777344 C 270.183594 147.777344 270.152344 147.773438 270.125 147.769531 L 217.855469 140.945312 C 217.496094 140.898438 217.242188 140.574219 217.289062 140.214844 C 217.335938 139.855469 217.660156 139.601562 218.023438 139.648438 L 270.292969 146.472656 C 270.652344 146.519531 270.90625 146.847656 270.859375 147.207031 C 270.816406 147.535156 270.535156 147.777344 270.210938 147.777344 " fill-opacity="1" fill-rule="nonzero"/><path fill="#00e7ff" d="M 270.210938 156.25 L 217.941406 149.425781 L 270.210938 156.25 " fill-opacity="1" fill-rule="nonzero"/><path fill="#000000" d="M 270.210938 156.90625 C 270.183594 156.90625 270.152344 156.90625 270.125 156.902344 L 217.855469 150.078125 C 217.496094 150.03125 217.242188 149.703125 217.289062 149.34375 C 217.335938 148.984375 217.660156 148.730469 218.023438 148.78125 L 270.292969 155.605469 C 270.652344 155.652344 270.90625 155.980469 270.859375 156.335938 C 270.816406 156.667969 270.535156 156.90625 270.210938 156.90625 " fill-opacity="1" fill-rule="nonzero"/><path fill="#00e7ff" d="M 270.210938 165.382812 L 217.941406 158.558594 L 270.210938 165.382812 " fill-opacity="1" fill-rule="nonzero"/><path fill="#000000" d="M 270.210938 166.039062 C 270.183594 166.039062 270.152344 166.039062 270.125 166.03125 L 217.855469 159.207031 C 217.496094 159.160156 217.242188 158.832031 217.289062 158.472656 C 217.335938 158.117188 217.660156 157.863281 218.023438 157.910156 L 270.292969 164.734375 C 270.652344 164.78125 270.90625 165.109375 270.859375 165.46875 C 270.816406 165.800781 270.535156 166.039062 270.210938 166.039062 " fill-opacity="1" fill-rule="nonzero"/><path fill="#00e7ff" d="M 259.207031 173.074219 L 231.722656 169.488281 L 259.207031 173.074219 " fill-opacity="1" fill-rule="nonzero"/><path fill="#000000" d="M 259.210938 173.730469 C 259.179688 173.730469 259.152344 173.726562 259.121094 173.722656 L 231.640625 170.136719 C 231.28125 170.089844 231.027344 169.761719 231.074219 169.402344 C 231.121094 169.042969 231.445312 168.792969 231.808594 168.839844 L 259.292969 172.425781 C 259.652344 172.472656 259.902344 172.800781 259.855469 173.160156 C 259.8125 173.488281 259.53125 173.730469 259.210938 173.730469 " fill-opacity="1" fill-rule="nonzero"/><path fill="#ffffff" d="M 214.558594 240.277344 C 225.296875 243.007812 239.183594 245.835938 247.882812 244.714844 C 260.847656 243.039062 269.769531 238.675781 273.183594 222.628906 C 276.597656 206.585938 280.25 191.730469 278.8125 186.320312 C 277.375 180.90625 273.675781 171.734375 274.742188 166.699219 C 275.808594 161.667969 276.316406 157.828125 276.03125 154.800781 C 275.746094 151.777344 275.757812 149.597656 277.269531 149.453125 C 278.78125 149.308594 282.40625 151.414062 281.90625 158.261719 C 281.421875 164.929688 285.273438 165.523438 287.191406 163.601562 C 290.664062 160.132812 289.675781 157.375 287.824219 154.394531 C 285.738281 151.023438 279.808594 149.761719 281.390625 146.835938 C 284.132812 141.75 297.695312 155.539062 298.90625 157.660156 C 301.746094 162.632812 299.796875 167.753906 297.203125 172.574219 C 294.609375 177.398438 292.488281 182.707031 292.113281 187.976562 C 291.738281 193.238281 297.417969 243.8125 286.832031 261.785156 C 274.613281 282.527344 219.863281 279.726562 207.28125 279.96875 C 196.09375 280.1875 206.105469 238.128906 214.558594 240.277344 " fill-opacity="1" fill-rule="nonzero"/><path fill="#000000" d="M 209.542969 279.300781 C 210.5 279.300781 211.574219 279.304688 212.734375 279.3125 C 231.535156 279.40625 275.558594 279.628906 286.265625 261.457031 C 294.699219 247.140625 292.640625 211.046875 291.761719 195.632812 C 291.53125 191.636719 291.382812 188.996094 291.460938 187.929688 C 291.792969 183.226562 293.480469 178.109375 296.625 172.269531 C 299.109375 167.644531 301.039062 162.71875 298.335938 157.988281 C 297.390625 156.332031 287.699219 146.371094 283.339844 146.371094 C 283.328125 146.371094 283.316406 146.371094 283.304688 146.371094 C 282.671875 146.378906 282.246094 146.628906 281.964844 147.144531 C 281.371094 148.242188 282.273438 149.011719 284.46875 150.511719 C 285.867188 151.464844 287.449219 152.550781 288.382812 154.050781 C 290.097656 156.828125 291.601562 160.117188 287.652344 164.066406 C 286.539062 165.179688 284.988281 165.519531 283.703125 164.929688 C 282.640625 164.445312 280.910156 162.925781 281.253906 158.21875 C 281.5625 153.945312 280.183594 151.910156 279.332031 151.078125 C 278.480469 150.242188 277.671875 150.074219 277.328125 150.105469 C 276.382812 150.195312 276.457031 152.386719 276.679688 154.738281 C 276.957031 157.625 276.566406 161.242188 275.382812 166.835938 C 274.605469 170.503906 276.550781 176.726562 278.117188 181.726562 C 278.621094 183.332031 279.097656 184.851562 279.445312 186.15625 C 280.71875 190.960938 278.1875 202.621094 275.253906 216.121094 C 274.78125 218.296875 274.296875 220.523438 273.820312 222.765625 C 270.324219 239.199219 260.957031 243.683594 247.96875 245.363281 C 240.898438 246.277344 229.601562 244.78125 214.394531 240.914062 C 213.050781 240.570312 211.691406 241.820312 210.789062 242.929688 C 205.378906 249.578125 200.710938 270.089844 204.132812 277.113281 C 204.859375 278.59375 205.859375 279.316406 207.195312 279.316406 C 207.21875 279.316406 207.242188 279.316406 207.269531 279.316406 C 207.914062 279.304688 208.679688 279.300781 209.542969 279.300781 Z M 217.621094 280.636719 C 215.851562 280.636719 214.214844 280.625 212.726562 280.621094 C 210.539062 280.609375 208.644531 280.597656 207.292969 280.625 C 205.394531 280.664062 203.914062 279.644531 202.960938 277.683594 C 199.300781 270.171875 204.03125 249.15625 209.773438 242.105469 C 211.433594 240.0625 213.097656 239.234375 214.71875 239.644531 C 229.765625 243.46875 240.894531 244.960938 247.800781 244.066406 C 260.59375 242.414062 269.191406 238.226562 272.542969 222.496094 C 273.019531 220.25 273.503906 218.023438 273.976562 215.84375 C 276.871094 202.507812 279.371094 190.992188 278.179688 186.492188 C 277.839844 185.214844 277.367188 183.710938 276.871094 182.117188 C 275.257812 176.972656 273.253906 170.570312 274.101562 166.566406 C 275.242188 161.183594 275.636719 157.574219 275.378906 154.863281 C 275.144531 152.402344 274.828125 149.027344 277.207031 148.804688 C 277.949219 148.730469 279.128906 149.050781 280.246094 150.140625 C 281.257812 151.132812 282.90625 153.511719 282.558594 158.3125 C 282.347656 161.175781 282.964844 163.152344 284.246094 163.738281 C 285.03125 164.097656 286.003906 163.863281 286.730469 163.140625 C 289.710938 160.160156 289.21875 157.890625 287.269531 154.738281 C 286.484375 153.472656 285.019531 152.472656 283.730469 151.589844 C 281.699219 150.203125 279.601562 148.769531 280.8125 146.523438 C 281.320312 145.582031 282.179688 145.078125 283.292969 145.0625 C 283.304688 145.0625 283.316406 145.0625 283.332031 145.0625 C 288.335938 145.0625 298.410156 155.480469 299.472656 157.339844 C 302.492188 162.621094 300.441406 167.933594 297.777344 172.890625 C 294.722656 178.558594 293.085938 183.511719 292.761719 188.019531 C 292.695312 189.003906 292.847656 191.753906 293.070312 195.558594 C 294.027344 212.40625 296.027344 247.460938 287.394531 262.121094 C 277.171875 279.472656 238.503906 280.636719 217.621094 280.636719 " fill-opacity="1" fill-rule="nonzero"/><path fill="#00e7ff" d="M 96.003906 365.007812 C 104.667969 367.386719 133.992188 373.226562 170.339844 373.773438 C 164.382812 316.617188 184.882812 321.496094 191.796875 292.277344 C 192.28125 290.226562 193.527344 288.476562 195.632812 288.492188 L 222.003906 291.546875 C 224.871094 291.3125 226.929688 289.242188 228.296875 286.714844 C 230.734375 282.214844 233.273438 276.054688 234.6875 266.667969 C 236.558594 254.234375 234.207031 243.160156 228.164062 241.898438 C 204.296875 236.925781 208.332031 233.882812 186.257812 224.566406 C 170.800781 218.046875 126.617188 214.523438 112.492188 218.136719 C 92.425781 223.269531 94.714844 240.667969 96.132812 250.375 C 96.863281 255.363281 100.039062 275.980469 99.699219 281.9375 C 97.902344 313.210938 86.476562 337.578125 77.457031 358.863281 C 83.839844 361.480469 90.109375 363.386719 96.003906 365.007812 " fill-opacity="1" fill-rule="nonzero"/><path fill="#000000" d="M 194.070312 155.433594 C 194.070312 155.433594 188.152344 134.980469 169.023438 133.65625 C 149 132.265625 140.800781 140.472656 135.402344 155.816406 C 131.613281 166.589844 133.699219 183.65625 141.023438 188.949219 C 151.585938 196.582031 162.390625 190.476562 162.390625 190.476562 L 191.089844 161.496094 L 194.070312 155.433594 " fill-opacity="1" fill-rule="nonzero"/><path fill="#ffffff" d="M 193.425781 155.648438 C 193.425781 155.648438 194.457031 162.980469 192.230469 167.910156 C 190.566406 171.585938 192.726562 177.109375 194.355469 179.492188 C 194.8125 180.160156 194.503906 181.074219 193.742188 181.34375 L 191.082031 182.214844 C 190.09375 182.5625 189.355469 183.398438 189.132812 184.421875 C 188.367188 187.980469 186.371094 196.175781 184.472656 197.992188 C 181.363281 200.972656 170.90625 195.65625 168.644531 194.59375 C 168.410156 194.488281 164.949219 220.164062 164.949219 220.164062 C 164.203125 224.773438 162.585938 227.757812 159.472656 229.75 C 152.535156 234.191406 132.65625 233.28125 132.464844 224.1875 C 132.441406 222.933594 131.40625 221.941406 132.292969 221.046875 C 135.660156 217.652344 138.960938 213.480469 140.816406 207.199219 C 143.21875 199.058594 143.5 189.574219 143.5 189.574219 C 143.5 189.574219 148.519531 190.429688 154.4375 186.121094 C 159.5625 182.390625 163.121094 176.824219 162.300781 174.726562 C 160.417969 169.929688 159.394531 165.425781 163.519531 162.632812 C 167.457031 159.96875 170.480469 163.015625 171.800781 165.164062 C 173.621094 168.121094 183.53125 167.914062 188.746094 161.253906 C 193.960938 154.59375 193.425781 155.648438 193.425781 155.648438 " fill-opacity="1" fill-rule="nonzero"/><path fill="#000000" d="M 144.125 190.289062 C 144.003906 192.640625 143.464844 200.523438 141.445312 207.382812 C 139.449219 214.152344 135.753906 218.484375 132.757812 221.507812 C 132.511719 221.757812 132.546875 221.964844 132.792969 222.6875 C 132.941406 223.121094 133.109375 223.613281 133.121094 224.175781 C 133.164062 226.339844 134.457031 228.113281 136.960938 229.449219 C 143.242188 232.800781 154.585938 232.101562 159.121094 229.199219 C 162.015625 227.347656 163.566406 224.613281 164.304688 220.058594 C 164.308594 220.015625 165.167969 213.644531 166.046875 207.34375 C 167.871094 194.269531 167.925781 194.242188 168.324219 194.023438 L 168.617188 193.863281 L 168.921875 194.003906 C 169.070312 194.074219 169.253906 194.160156 169.46875 194.265625 C 177.414062 198.066406 182.308594 199.160156 184.019531 197.519531 C 185.527344 196.074219 187.375 189.488281 188.496094 184.285156 C 188.765625 183.03125 189.652344 182.023438 190.863281 181.597656 L 193.539062 180.722656 C 193.699219 180.667969 193.828125 180.53125 193.886719 180.359375 C 193.941406 180.1875 193.914062 180.007812 193.8125 179.859375 C 192.300781 177.648438 189.777344 171.75 191.632812 167.640625 C 193.195312 164.1875 193.085938 159.410156 192.910156 157.101562 C 192.269531 157.867188 191.160156 159.230469 189.261719 161.660156 C 185.550781 166.394531 179.863281 167.828125 176.117188 167.617188 C 173.765625 167.484375 171.992188 166.71875 171.246094 165.507812 C 170.746094 164.695312 169.367188 162.765625 167.367188 162.332031 C 166.242188 162.089844 165.070312 162.375 163.882812 163.175781 C 160.335938 165.582031 160.925781 169.4375 162.910156 174.488281 C 163.910156 177.042969 160.054688 182.835938 154.820312 186.648438 C 150.007812 190.152344 145.773438 190.367188 144.125 190.289062 Z M 147.941406 232.996094 C 143.667969 232.996094 139.347656 232.207031 136.34375 230.601562 C 133.433594 229.050781 131.867188 226.835938 131.8125 224.203125 C 131.804688 223.84375 131.683594 223.488281 131.554688 223.113281 C 131.316406 222.40625 130.984375 221.441406 131.828125 220.585938 C 134.714844 217.675781 138.273438 213.5 140.1875 207.011719 C 142.539062 199.046875 142.84375 189.652344 142.847656 189.554688 L 142.867188 188.804688 L 143.609375 188.929688 C 143.65625 188.9375 148.453125 189.667969 154.054688 185.589844 C 159.292969 181.777344 162.300781 176.515625 161.691406 174.964844 C 159.777344 170.089844 158.628906 165.15625 163.148438 162.09375 C 164.644531 161.082031 166.152344 160.734375 167.640625 161.054688 C 170.136719 161.59375 171.773438 163.867188 172.359375 164.820312 C 172.863281 165.636719 174.328125 166.207031 176.191406 166.3125 C 179.882812 166.519531 185.050781 164.914062 188.230469 160.851562 C 193.113281 154.613281 193.164062 154.644531 193.789062 155.039062 C 193.984375 155.164062 194.125 155.40625 194.089844 155.683594 C 194.222656 156.714844 194.972656 163.433594 192.824219 168.179688 C 191.355469 171.429688 193.191406 176.632812 194.894531 179.121094 C 195.226562 179.605469 195.3125 180.207031 195.128906 180.765625 C 194.945312 181.328125 194.519531 181.765625 193.960938 181.960938 L 191.28125 182.835938 C 190.519531 183.109375 189.945312 183.753906 189.773438 184.558594 C 189.183594 187.296875 187.089844 196.394531 184.925781 198.464844 C 182.0625 201.207031 174.574219 198.144531 169.101562 195.539062 C 168.542969 198.722656 166.773438 211.53125 165.597656 220.253906 C 164.804688 225.160156 163.023438 228.253906 159.824219 230.300781 C 157.027344 232.089844 152.511719 232.996094 147.941406 232.996094 " fill-opacity="1" fill-rule="nonzero"/><path fill="#000000" d="M 167.546875 177.976562 C 163.945312 177.976562 161.265625 175.160156 160.136719 170.136719 C 160.058594 169.785156 160.28125 169.433594 160.632812 169.355469 C 160.988281 169.277344 161.335938 169.496094 161.414062 169.851562 C 162.019531 172.554688 163.695312 177.039062 168.074219 176.644531 C 168.433594 176.613281 168.753906 176.878906 168.785156 177.238281 C 168.820312 177.597656 168.550781 177.914062 168.195312 177.949219 C 167.976562 177.96875 167.757812 177.976562 167.546875 177.976562 " fill-opacity="1" fill-rule="nonzero"/><path fill="#6df2ff" d="M 164.066406 169.277344 C 164.066406 169.277344 164.0625 169.277344 164.058594 169.277344 C 163.699219 169.273438 163.410156 168.976562 163.414062 168.617188 C 163.449219 165.363281 165.890625 164.386719 167.175781 164.320312 C 167.535156 164.304688 167.84375 164.585938 167.859375 164.945312 C 167.878906 165.304688 167.601562 165.609375 167.242188 165.628906 C 166.988281 165.644531 164.753906 165.863281 164.722656 168.628906 C 164.71875 168.988281 164.425781 169.277344 164.066406 169.277344 " fill-opacity="1" fill-rule="nonzero"/><path fill="#000000" d="M 143.5 150.84375 L 150.460938 138.769531 C 150.460938 138.769531 140.289062 127.25 126.59375 126.835938 C 112.652344 126.417969 95.167969 137.320312 93.636719 161.496094 C 92.84375 174.058594 81.492188 178.746094 70.246094 186.570312 C 67.832031 188.25 65.324219 189.785156 62.800781 191.292969 C 44.597656 202.1875 45.339844 216.898438 45.339844 216.898438 C 46.550781 214.128906 48.871094 211.914062 51.511719 210.175781 C 45.195312 231.09375 57.898438 256.121094 78.011719 263.773438 C 97.046875 271.019531 123.1875 261.785156 130.714844 247.582031 C 138.023438 233.792969 137.535156 212.210938 132.84375 195.164062 C 128.15625 178.117188 126.878906 155.957031 143.5 150.84375 " fill-opacity="1" fill-rule="nonzero"/><path fill="#ffffff" d="M 21.3125 150.0625 C 21.3125 133.984375 34.335938 120.949219 50.40625 120.949219 C 66.472656 120.949219 79.496094 133.984375 79.496094 150.0625 C 79.496094 166.144531 66.472656 179.179688 50.40625 179.179688 C 34.335938 179.179688 21.3125 166.144531 21.3125 150.0625 " fill-opacity="1" fill-rule="nonzero"/><path fill="#00e7ff" d="M 29.925781 171.234375 C 35.164062 176.179688 42.226562 179.214844 50 179.214844 C 57.773438 179.214844 64.832031 176.179688 70.070312 171.234375 C 64.007812 169.359375 57.199219 168.300781 50 168.300781 C 42.796875 168.300781 35.988281 169.359375 29.925781 171.234375 " fill-opacity="1" fill-rule="nonzero"/><path fill="#000000" d="M 59.375 133.054688 C 58.054688 132.203125 56.519531 131.753906 54.953125 131.753906 L 45.71875 131.753906 C 43.65625 131.753906 41.671875 132.53125 40.164062 133.933594 L 39.65625 134.40625 C 37.257812 136.632812 36.421875 140.078125 37.53125 143.160156 L 40.566406 151.582031 L 60.03125 151.460938 L 62.777344 142.253906 C 63.816406 138.773438 62.429688 135.019531 59.375 133.054688 " fill-opacity="1" fill-rule="nonzero"/><path fill="#ffffff" d="M 54.5625 136.730469 C 54.519531 136.707031 54.433594 136.671875 54.433594 136.671875 L 40.464844 145.746094 L 40.464844 151.21875 C 40.464844 154.347656 41.925781 157.136719 44.203125 158.941406 L 44.203125 167.277344 C 44.203125 170.574219 46.875 173.246094 50.171875 173.246094 C 53.46875 173.246094 56.140625 170.574219 56.140625 167.277344 L 56.140625 159.15625 C 58.582031 157.359375 60.171875 154.480469 60.171875 151.21875 L 60.171875 145.414062 C 60.171875 141.546875 57.867188 138.222656 54.5625 136.730469 " fill-opacity="1" fill-rule="nonzero"/><path fill="#000000" d="M 50.316406 161.726562 C 49.957031 161.726562 49.664062 161.433594 49.664062 161.074219 C 49.664062 160.710938 49.957031 160.417969 50.316406 160.417969 C 55.390625 160.417969 59.519531 156.289062 59.519531 151.21875 L 59.519531 145.414062 C 59.519531 140.523438 55.539062 136.542969 50.648438 136.542969 L 41.117188 136.542969 L 41.117188 151.21875 C 41.117188 154.816406 43.234375 158.105469 46.511719 159.597656 C 46.839844 159.746094 46.984375 160.136719 46.835938 160.460938 C 46.683594 160.792969 46.296875 160.9375 45.96875 160.789062 C 42.226562 159.082031 39.808594 155.328125 39.808594 151.21875 L 39.808594 135.886719 C 39.808594 135.527344 40.101562 135.234375 40.464844 135.234375 L 50.648438 135.234375 C 56.261719 135.234375 60.828125 139.800781 60.828125 145.414062 L 60.828125 151.21875 C 60.828125 157.011719 56.113281 161.726562 50.316406 161.726562 " fill-opacity="1" fill-rule="nonzero"/><path fill="#000000" d="M 49.996094 179.847656 C 49.925781 179.847656 49.855469 179.847656 49.785156 179.847656 C 41.796875 179.792969 34.304688 176.632812 28.691406 170.941406 C 17.105469 159.199219 17.238281 140.222656 28.980469 128.636719 C 40.167969 117.597656 58.117188 117.128906 69.847656 127.558594 C 70.117188 127.796875 70.144531 128.210938 69.902344 128.480469 C 69.664062 128.753906 69.25 128.777344 68.980469 128.535156 C 57.761719 118.5625 40.59375 119.015625 29.898438 129.566406 C 18.667969 140.644531 18.546875 158.792969 29.621094 170.023438 C 34.988281 175.464844 42.152344 178.488281 49.792969 178.539062 C 57.4375 178.609375 64.640625 175.667969 70.082031 170.296875 C 75.96875 164.492188 79.050781 156.421875 78.542969 148.160156 C 78.519531 147.800781 78.792969 147.492188 79.15625 147.46875 C 79.515625 147.441406 79.824219 147.722656 79.847656 148.082031 C 80.378906 156.71875 77.15625 165.15625 71 171.230469 C 65.359375 176.792969 57.90625 179.847656 49.996094 179.847656 " fill-opacity="1" fill-rule="nonzero"/><path fill="#000000" d="M 50.171875 173.902344 C 46.519531 173.902344 43.550781 170.929688 43.550781 167.277344 L 43.550781 158.941406 C 43.550781 158.578125 43.84375 158.285156 44.203125 158.285156 C 44.566406 158.285156 44.859375 158.578125 44.859375 158.941406 L 44.859375 167.277344 C 44.859375 170.207031 47.242188 172.59375 50.171875 172.59375 C 53.105469 172.59375 55.488281 170.207031 55.488281 167.277344 L 55.488281 159.363281 C 55.488281 159 55.78125 158.710938 56.140625 158.710938 C 56.503906 158.710938 56.796875 159 56.796875 159.363281 L 56.796875 167.277344 C 56.796875 170.929688 53.824219 173.902344 50.171875 173.902344 " fill-opacity="1" fill-rule="nonzero"/><path fill="#ffffff" d="M 57.332031 27.511719 C 42.5 36.160156 35.113281 54.222656 40.5625 71.257812 C 43.035156 79 47.800781 85.367188 53.859375 89.875 C 54.023438 89.996094 54.191406 90.113281 54.363281 90.222656 L 57.550781 92.304688 C 66.359375 97.371094 77.191406 98.855469 87.632812 95.515625 C 107.328125 89.214844 118.5 65.945312 111.890625 48.445312 C 106.734375 34.785156 100.933594 29.691406 90.1875 25.011719 C 73.78125 17.871094 57.332031 27.511719 57.332031 27.511719 " fill-opacity="1" fill-rule="nonzero"/><path fill="#00e7ff" d="M 75.359375 81.074219 C 65.804688 81.023438 56.726562 82.265625 48.507812 84.527344 C 50.140625 86.320312 51.933594 87.941406 53.859375 89.371094 C 54.023438 89.496094 54.191406 89.609375 54.363281 89.722656 L 57.550781 91.804688 C 66.359375 96.867188 76.6875 98.355469 87.128906 95.015625 C 93.171875 93.082031 98.410156 89.546875 102.578125 85.074219 C 94.152344 82.558594 85.265625 81.125 75.359375 81.074219 " fill-opacity="1" fill-rule="nonzero"/><path fill="#000000" d="M 49.730469 84.875 C 51.128906 86.320312 52.644531 87.65625 54.25 88.847656 C 54.402344 88.960938 54.5625 89.070312 54.71875 89.175781 L 57.910156 91.253906 C 66.976562 96.464844 77.023438 97.558594 86.929688 94.390625 C 92.261719 92.6875 97.230469 89.585938 101.359375 85.398438 C 92.910156 82.976562 84.390625 81.773438 75.355469 81.730469 C 66.496094 81.683594 57.859375 82.742188 49.730469 84.875 Z M 75.808594 97.476562 C 69.414062 97.476562 63.128906 95.765625 57.226562 92.367188 L 54.007812 90.269531 C 53.824219 90.152344 53.644531 90.027344 53.46875 89.898438 C 51.507812 88.4375 49.675781 86.78125 48.023438 84.96875 C 47.871094 84.796875 47.816406 84.5625 47.882812 84.34375 C 47.945312 84.125 48.117188 83.957031 48.335938 83.894531 C 56.886719 81.542969 65.96875 80.371094 75.363281 80.421875 C 84.890625 80.472656 93.855469 81.789062 102.765625 84.445312 C 102.984375 84.511719 103.152344 84.683594 103.210938 84.902344 C 103.269531 85.121094 103.210938 85.355469 103.058594 85.519531 C 98.632812 90.261719 93.195312 93.761719 87.328125 95.636719 C 83.488281 96.867188 79.628906 97.476562 75.808594 97.476562 " fill-opacity="1" fill-rule="nonzero"/><path fill="#000000" d="M 100.066406 56.984375 C 96.382812 43.714844 88.789062 26.316406 74.546875 28.453125 C 60.878906 30.507812 54.449219 45.5 51.496094 57.117188 C 49.699219 64.183594 55.089844 71.046875 62.386719 71.082031 L 89.132812 71.226562 C 96.589844 71.265625 102.0625 64.171875 100.066406 56.984375 " fill-opacity="1" fill-rule="nonzero"/><path fill="#ffffff" d="M 88.277344 41.574219 C 88.269531 41.542969 88.257812 41.480469 88.257812 41.480469 L 63.972656 41.292969 C 63.972656 41.292969 63.964844 41.332031 63.957031 41.351562 C 63.640625 42.5625 63.464844 43.839844 63.457031 45.160156 L 63.421875 52.269531 C 63.394531 57.027344 65.625 61.222656 69.019531 63.671875 L 68.921875 82.230469 C 68.902344 85.921875 71.878906 88.933594 75.570312 88.953125 C 79.261719 88.972656 82.273438 85.992188 82.292969 82.300781 L 82.386719 64.019531 C 86.027344 61.648438 88.46875 57.335938 88.496094 52.398438 L 88.539062 44.378906 C 88.542969 43.417969 88.453125 42.480469 88.277344 41.574219 " fill-opacity="1" fill-rule="nonzero"/><path fill="#000000" d="M 75.609375 89.605469 C 75.59375 89.605469 75.582031 89.605469 75.570312 89.605469 C 73.609375 89.597656 71.769531 88.820312 70.390625 87.429688 C 69.011719 86.035156 68.257812 84.1875 68.265625 82.226562 L 68.363281 64.222656 C 68.363281 63.859375 68.664062 63.570312 69.019531 63.570312 C 69.378906 63.574219 69.671875 63.867188 69.667969 64.230469 L 69.574219 82.234375 C 69.566406 83.84375 70.1875 85.363281 71.320312 86.507812 C 72.453125 87.652344 73.964844 88.289062 75.574219 88.300781 C 75.585938 88.300781 75.597656 88.300781 75.609375 88.300781 C 78.917969 88.300781 81.621094 85.613281 81.636719 82.296875 L 81.730469 64.222656 C 81.734375 63.863281 82.023438 63.570312 82.390625 63.570312 C 82.75 63.574219 83.042969 63.867188 83.039062 64.230469 L 82.945312 82.304688 C 82.925781 86.339844 79.636719 89.605469 75.609375 89.605469 " fill-opacity="1" fill-rule="nonzero"/><path fill="#000000" d="M 75.988281 57.871094 C 75.980469 57.871094 75.96875 57.871094 75.960938 57.871094 C 74.445312 57.863281 72.988281 57.226562 71.957031 56.117188 C 71.710938 55.851562 71.726562 55.441406 71.992188 55.195312 C 72.253906 54.949219 72.667969 54.960938 72.914062 55.226562 C 73.710938 56.085938 74.796875 56.558594 75.96875 56.5625 C 75.972656 56.5625 75.980469 56.5625 75.988281 56.5625 C 77.15625 56.5625 78.238281 56.097656 79.042969 55.246094 C 79.292969 54.984375 79.707031 54.976562 79.96875 55.222656 C 80.230469 55.472656 80.242188 55.886719 79.996094 56.148438 C 78.9375 57.261719 77.519531 57.871094 75.988281 57.871094 " fill-opacity="1" fill-rule="nonzero"/><path fill="#000000" d="M 75.949219 66.601562 C 75.925781 66.601562 75.90625 66.601562 75.882812 66.601562 C 75.523438 66.597656 75.230469 66.304688 75.234375 65.941406 C 75.234375 65.582031 75.527344 65.292969 75.886719 65.292969 C 75.910156 65.292969 75.929688 65.292969 75.949219 65.292969 C 82.476562 65.292969 87.804688 59.519531 87.84375 52.394531 L 87.886719 44.375 C 87.902344 41.023438 86.71875 37.871094 84.554688 35.492188 C 82.402344 33.132812 79.539062 31.824219 76.488281 31.808594 C 76.464844 31.808594 76.445312 31.808594 76.425781 31.808594 C 69.667969 31.808594 64.152344 37.785156 64.113281 45.160156 L 64.074219 52.265625 C 64.050781 57.347656 66.765625 61.996094 71 64.117188 C 71.320312 64.277344 71.453125 64.671875 71.289062 64.992188 C 71.128906 65.316406 70.734375 65.445312 70.414062 65.285156 C 65.738281 62.945312 62.738281 57.832031 62.769531 52.261719 L 62.804688 45.152344 C 62.847656 37.058594 68.953125 30.5 76.425781 30.5 C 76.449219 30.5 76.472656 30.5 76.492188 30.5 C 79.914062 30.519531 83.121094 31.980469 85.523438 34.613281 C 87.910156 37.230469 89.210938 40.699219 89.195312 44.378906 L 89.152344 52.398438 C 89.109375 60.242188 83.195312 66.601562 75.949219 66.601562 " fill-opacity="1" fill-rule="nonzero"/><path fill="#000000" d="M 75.847656 97.375 C 59.984375 97.375 45.167969 87.328125 39.878906 71.472656 C 33.269531 51.652344 44.015625 30.152344 63.835938 23.546875 C 83.652344 16.9375 105.152344 27.683594 111.761719 47.503906 C 113.960938 54.101562 114.308594 61.152344 112.765625 67.898438 C 112.6875 68.25 112.335938 68.472656 111.984375 68.386719 C 111.628906 68.308594 111.410156 67.957031 111.492188 67.605469 C 112.980469 61.09375 112.644531 54.285156 110.519531 47.914062 C 104.136719 28.78125 83.382812 18.40625 64.25 24.789062 C 45.113281 31.167969 34.738281 51.921875 41.121094 71.058594 C 47.5 90.191406 68.257812 100.566406 87.390625 94.1875 C 95.660156 91.429688 102.683594 85.796875 107.167969 78.335938 C 107.355469 78.023438 107.753906 77.925781 108.066406 78.109375 C 108.375 78.296875 108.476562 78.699219 108.289062 79.007812 C 103.644531 86.738281 96.371094 92.570312 87.804688 95.425781 C 83.84375 96.75 79.8125 97.375 75.847656 97.375 " fill-opacity="1" fill-rule="nonzero"/><path fill="#ffffff" d="M 277.171875 96.402344 C 277.171875 78.339844 291.800781 63.695312 309.847656 63.695312 C 327.898438 63.695312 342.527344 78.339844 342.527344 96.402344 C 342.527344 114.464844 327.898438 129.109375 309.847656 129.109375 C 291.800781 129.109375 277.171875 114.464844 277.171875 96.402344 " fill-opacity="1" fill-rule="nonzero"/><path fill="#000000" d="M 309.847656 129.765625 C 291.46875 129.765625 276.515625 114.800781 276.515625 96.402344 C 276.515625 92.46875 277.195312 88.617188 278.527344 84.960938 C 278.652344 84.617188 279.027344 84.445312 279.367188 84.566406 C 279.707031 84.691406 279.882812 85.066406 279.757812 85.40625 C 278.472656 88.925781 277.824219 92.625 277.824219 96.402344 C 277.824219 114.078125 292.191406 128.457031 309.847656 128.457031 C 327.503906 128.457031 341.871094 114.078125 341.871094 96.402344 C 341.871094 78.730469 327.503906 64.351562 309.847656 64.351562 C 300.234375 64.351562 291.21875 68.617188 285.105469 76.054688 C 284.878906 76.332031 284.464844 76.371094 284.183594 76.144531 C 283.90625 75.914062 283.867188 75.5 284.09375 75.222656 C 290.457031 67.484375 299.84375 63.042969 309.847656 63.042969 C 328.226562 63.042969 343.179688 78.007812 343.179688 96.402344 C 343.179688 114.800781 328.226562 129.765625 309.847656 129.765625 " fill-opacity="1" fill-rule="nonzero"/><path fill="#6df2ff" d="M 287.433594 120.1875 C 293.285156 125.714844 301.167969 129.109375 309.851562 129.109375 C 318.53125 129.109375 326.414062 125.714844 332.265625 120.1875 C 325.5 118.089844 317.890625 116.90625 309.851562 116.90625 C 301.808594 116.90625 294.203125 118.089844 287.433594 120.1875 " fill-opacity="1" fill-rule="nonzero"/><path fill="#ffffff" d="M 310.046875 122.4375 C 307.195312 122.4375 304.882812 120.125 304.882812 117.273438 L 304.882812 90.953125 L 315.199219 90.953125 L 315.199219 117.273438 C 315.199219 120.125 312.890625 122.4375 310.046875 122.4375 " fill-opacity="1" fill-rule="nonzero"/><path fill="#000000" d="M 330.015625 100.554688 C 329.367188 92.378906 332.972656 87.277344 324.894531 78.039062 C 316.527344 68.472656 309.351562 74.886719 309.351562 74.886719 C 309.351562 74.886719 303.371094 69.914062 295.519531 80.308594 C 288.59375 89.480469 297.464844 97.699219 294.484375 103.410156 C 291.5 109.121094 281.386719 112.234375 281.386719 112.234375 C 281.386719 112.234375 284.628906 118.722656 288.648438 121.578125 L 331.3125 121.578125 C 331.3125 121.578125 340.128906 111.976562 340.128906 109.25 C 340.128906 109.25 330.664062 108.730469 330.015625 100.554688 " fill-opacity="1" fill-rule="nonzero"/><path fill="#6df2ff" d="M 287.433594 120.1875 C 293.285156 125.714844 301.167969 129.109375 309.851562 129.109375 C 318.53125 129.109375 326.414062 125.714844 332.265625 120.1875 C 325.5 118.089844 317.890625 116.90625 309.851562 116.90625 C 301.808594 116.90625 294.203125 118.089844 287.433594 120.1875 " fill-opacity="1" fill-rule="nonzero"/><path fill="#000000" d="M 288.726562 120.480469 C 294.578125 125.632812 302.03125 128.453125 309.847656 128.453125 C 317.664062 128.453125 325.121094 125.632812 330.972656 120.480469 C 324.332031 118.542969 317.230469 117.5625 309.847656 117.5625 C 302.46875 117.5625 295.367188 118.542969 288.726562 120.480469 Z M 309.847656 129.761719 C 301.316406 129.761719 293.195312 126.53125 286.984375 120.660156 L 286.167969 119.894531 L 287.238281 119.5625 C 294.320312 117.367188 301.925781 116.253906 309.847656 116.253906 C 317.773438 116.253906 325.382812 117.367188 332.460938 119.5625 L 333.53125 119.894531 L 332.714844 120.660156 C 326.503906 126.53125 318.382812 129.761719 309.847656 129.761719 " fill-opacity="1" fill-rule="nonzero"/><path fill="#ffffff" d="M 310.546875 82.386719 L 310.1875 82.386719 L 299.691406 92.945312 L 299.691406 98.738281 C 299.691406 102.601562 301.78125 105.976562 304.886719 107.804688 L 304.886719 117.273438 C 304.886719 120.125 307.199219 122.433594 310.046875 122.433594 C 312.894531 122.433594 315.203125 120.125 315.203125 117.273438 L 315.203125 107.980469 C 318.476562 106.203125 320.699219 102.730469 320.699219 98.738281 L 320.699219 92.546875 C 320.699219 86.933594 316.152344 82.386719 310.546875 82.386719 " fill-opacity="1" fill-rule="nonzero"/><path fill="#000000" d="M 310.046875 123.089844 C 306.839844 123.089844 304.234375 120.480469 304.234375 117.273438 L 304.234375 108.09375 C 304.234375 107.730469 304.527344 107.4375 304.886719 107.4375 C 305.246094 107.4375 305.539062 107.730469 305.539062 108.09375 L 305.539062 117.273438 C 305.539062 119.757812 307.5625 121.78125 310.046875 121.78125 C 312.527344 121.78125 314.546875 119.757812 314.546875 117.273438 L 314.546875 108.25 C 314.546875 107.886719 314.84375 107.597656 315.203125 107.597656 C 315.5625 107.597656 315.855469 107.886719 315.855469 108.25 L 315.855469 117.273438 C 315.855469 120.480469 313.25 123.089844 310.046875 123.089844 " fill-opacity="1" fill-rule="nonzero"/><path fill="#000000" d="M 310.191406 109.90625 C 309.835938 109.90625 309.539062 109.613281 309.539062 109.253906 C 309.539062 108.890625 309.835938 108.597656 310.191406 108.597656 C 315.625 108.597656 320.042969 104.175781 320.042969 98.738281 L 320.042969 92.546875 C 320.042969 87.441406 316.058594 83.273438 310.964844 83.050781 C 310.914062 83.046875 310.863281 83.046875 310.8125 83.042969 L 300.339844 93.398438 L 300.339844 98.738281 C 300.339844 102.59375 302.609375 106.121094 306.117188 107.71875 C 306.445312 107.867188 306.589844 108.253906 306.441406 108.582031 C 306.289062 108.914062 305.902344 109.058594 305.574219 108.90625 C 301.601562 107.097656 299.035156 103.105469 299.035156 98.738281 L 299.035156 93.125 C 299.035156 92.953125 299.105469 92.785156 299.230469 92.660156 L 310.085938 81.921875 C 310.320312 81.6875 310.695312 81.726562 311.023438 81.742188 C 316.816406 81.996094 321.351562 86.742188 321.351562 92.546875 L 321.351562 98.738281 C 321.351562 104.898438 316.347656 109.90625 310.191406 109.90625 " fill-opacity="1" fill-rule="nonzero"/><path fill="#ffffff" d="M 144.261719 44.605469 C 144.261719 30.992188 155.289062 19.949219 168.894531 19.949219 C 182.5 19.949219 193.527344 30.992188 193.527344 44.605469 C 193.527344 58.222656 182.5 69.257812 168.894531 69.257812 C 155.289062 69.257812 144.261719 58.222656 144.261719 44.605469 " fill-opacity="1" fill-rule="nonzero"/><path fill="#6df2ff" d="M 151.554688 62.53125 C 155.992188 66.71875 161.96875 69.289062 168.550781 69.289062 C 175.132812 69.289062 181.113281 66.71875 185.550781 62.53125 C 180.417969 60.941406 174.648438 60.046875 168.550781 60.046875 C 162.453125 60.046875 156.6875 60.941406 151.554688 62.53125 " fill-opacity="1" fill-rule="nonzero"/><path fill="#000000" d="M 176.488281 30.203125 C 175.375 29.480469 174.074219 29.097656 172.746094 29.097656 L 164.925781 29.097656 C 163.183594 29.097656 161.5 29.757812 160.222656 30.945312 L 159.792969 31.34375 C 157.761719 33.230469 157.054688 36.148438 157.992188 38.757812 L 160.566406 45.890625 L 177.046875 45.785156 L 179.375 37.992188 C 180.253906 35.042969 179.078125 31.867188 176.488281 30.203125 " fill-opacity="1" fill-rule="nonzero"/><path fill="#ffffff" d="M 172.546875 33.375 C 172.542969 33.371094 172.53125 33.367188 172.53125 33.367188 L 160.476562 41.09375 L 160.476562 45.582031 C 160.476562 48.234375 161.714844 50.59375 163.644531 52.121094 L 163.644531 59.183594 C 163.644531 61.972656 165.90625 64.234375 168.699219 64.234375 C 171.488281 64.234375 173.753906 61.972656 173.753906 59.183594 L 173.753906 52.3125 C 175.824219 50.792969 177.164062 48.347656 177.164062 45.582031 L 177.164062 40.664062 C 177.164062 37.445312 175.277344 34.667969 172.546875 33.375 " fill-opacity="1" fill-rule="nonzero"/><path fill="#000000" d="M 168.699219 64.886719 C 165.550781 64.886719 162.992188 62.328125 162.992188 59.183594 L 162.992188 52.269531 L 164.296875 52.269531 L 164.296875 59.183594 C 164.296875 61.605469 166.273438 63.582031 168.699219 63.582031 C 171.125 63.582031 173.097656 61.605469 173.097656 59.183594 L 173.097656 52.484375 L 174.40625 52.484375 L 174.40625 59.183594 C 174.40625 62.328125 171.847656 64.886719 168.699219 64.886719 " fill-opacity="1" fill-rule="nonzero"/><path fill="#000000" d="M 168.824219 54.578125 C 168.460938 54.578125 168.167969 54.285156 168.167969 53.925781 C 168.167969 53.5625 168.460938 53.269531 168.824219 53.269531 C 173.0625 53.269531 176.511719 49.820312 176.511719 45.582031 L 176.511719 40.664062 C 176.511719 36.578125 173.1875 33.253906 169.101562 33.253906 L 161.132812 33.253906 L 161.132812 45.582031 C 161.132812 48.589844 162.902344 51.335938 165.640625 52.585938 C 165.96875 52.734375 166.113281 53.121094 165.964844 53.453125 C 165.816406 53.777344 165.425781 53.921875 165.097656 53.773438 C 161.894531 52.316406 159.824219 49.101562 159.824219 45.582031 L 159.824219 32.601562 C 159.824219 32.238281 160.117188 31.945312 160.476562 31.945312 L 169.101562 31.945312 C 173.910156 31.945312 177.820312 35.859375 177.820312 40.664062 L 177.820312 45.582031 C 177.820312 50.542969 173.78125 54.578125 168.824219 54.578125 " fill-opacity="1" fill-rule="nonzero"/><path fill="#000000" d="M 168.511719 69.910156 C 161.8125 69.910156 155.125 67.289062 150.140625 62.085938 C 140.898438 52.441406 140.71875 37.171875 149.734375 27.332031 C 149.976562 27.066406 150.390625 27.046875 150.65625 27.289062 C 150.925781 27.535156 150.941406 27.949219 150.699219 28.214844 C 142.148438 37.550781 142.320312 52.027344 151.085938 61.179688 C 160.285156 70.785156 175.589844 71.113281 185.195312 61.914062 C 194.800781 52.710938 195.128906 37.410156 185.925781 27.804688 C 181.101562 22.769531 174.328125 20.066406 167.363281 20.394531 C 166.984375 20.40625 166.699219 20.132812 166.683594 19.773438 C 166.664062 19.410156 166.941406 19.105469 167.300781 19.089844 C 174.652344 18.742188 181.785156 21.589844 186.871094 26.898438 C 196.570312 37.027344 196.226562 53.15625 186.101562 62.859375 C 181.179688 67.570312 174.839844 69.910156 168.511719 69.910156 " fill-opacity="1" fill-rule="nonzero"/><path fill="#6df2ff" d="M 178.929688 109.980469 C 177.582031 110.148438 176.347656 109.1875 176.179688 107.839844 C 176.011719 106.488281 176.972656 105.257812 178.320312 105.089844 C 179.671875 104.921875 180.902344 105.878906 181.070312 107.230469 C 181.238281 108.578125 180.28125 109.8125 178.929688 109.980469 " fill-opacity="1" fill-rule="nonzero"/><path fill="#6df2ff" d="M 350.566406 337.226562 C 349.222656 337.394531 347.988281 336.4375 347.820312 335.085938 C 347.652344 333.734375 348.613281 332.507812 349.960938 332.335938 C 351.3125 332.167969 352.542969 333.128906 352.710938 334.476562 C 352.878906 335.828125 351.921875 337.058594 350.566406 337.226562 " fill-opacity="1" fill-rule="nonzero"/><path fill="#aef8ff" d="M 337.195312 50.148438 C 334.839844 50.441406 332.691406 48.773438 332.402344 46.417969 C 332.109375 44.0625 333.777344 41.917969 336.132812 41.625 C 338.484375 41.328125 340.632812 43 340.925781 45.355469 C 341.21875 47.707031 339.546875 49.855469 337.195312 50.148438 " fill-opacity="1" fill-rule="nonzero"/><path fill="#aef8ff" d="M 331.210938 357.398438 C 328.851562 357.695312 326.707031 356.023438 326.414062 353.667969 C 326.121094 351.316406 327.792969 349.167969 330.144531 348.875 C 332.5 348.582031 334.644531 350.253906 334.941406 352.605469 C 335.234375 354.960938 333.5625 357.105469 331.210938 357.398438 " fill-opacity="1" fill-rule="nonzero"/><path fill="#000000" d="M 161.828125 110.460938 C 161.726562 110.460938 161.625 110.46875 161.519531 110.480469 C 160.179688 110.648438 159.222656 111.875 159.390625 113.21875 C 159.554688 114.5625 160.785156 115.511719 162.125 115.347656 C 163.46875 115.183594 164.425781 113.953125 164.257812 112.613281 C 164.175781 111.960938 163.847656 111.382812 163.332031 110.980469 C 162.898438 110.640625 162.371094 110.460938 161.828125 110.460938 Z M 162.207031 116 L 162.210938 116 Z M 161.820312 116.679688 C 159.953125 116.679688 158.328125 115.28125 158.089844 113.382812 C 157.835938 111.324219 159.300781 109.441406 161.359375 109.183594 C 162.355469 109.058594 163.34375 109.332031 164.132812 109.949219 C 164.925781 110.566406 165.429688 111.453125 165.554688 112.449219 C 165.8125 114.507812 164.347656 116.390625 162.289062 116.648438 C 162.128906 116.667969 161.976562 116.679688 161.820312 116.679688 " fill-opacity="1" fill-rule="nonzero"/><path fill="#000000" d="M 238.851562 64.285156 C 238.851562 64.285156 238.847656 64.285156 238.84375 64.285156 L 236.433594 64.269531 C 236.074219 64.261719 235.78125 63.96875 235.785156 63.605469 C 235.789062 63.25 236.078125 62.957031 236.4375 62.957031 C 236.441406 62.957031 236.441406 62.957031 236.445312 62.957031 L 238.855469 62.976562 C 239.21875 62.980469 239.507812 63.273438 239.503906 63.636719 C 239.5 63.996094 239.210938 64.285156 238.851562 64.285156 " fill-opacity="1" fill-rule="nonzero"/><path fill="#000000" d="M 230.410156 64.222656 C 230.40625 64.222656 230.40625 64.222656 230.40625 64.222656 L 227.992188 64.203125 C 227.632812 64.203125 227.34375 63.910156 227.34375 63.546875 C 227.347656 63.1875 227.636719 62.917969 228.003906 62.898438 L 230.414062 62.917969 C 230.777344 62.917969 231.066406 63.210938 231.0625 63.574219 C 231.0625 63.933594 230.765625 64.222656 230.410156 64.222656 " fill-opacity="1" fill-rule="nonzero"/><path fill="#000000" d="M 233.429688 61.230469 C 233.429688 61.230469 233.429688 61.230469 233.425781 61.230469 C 233.066406 61.230469 232.773438 60.9375 232.773438 60.574219 L 232.78125 58.164062 C 232.78125 57.804688 233.070312 57.511719 233.433594 57.511719 C 233.792969 57.511719 234.085938 57.804688 234.085938 58.167969 L 234.082031 60.578125 C 234.082031 60.9375 233.789062 61.230469 233.429688 61.230469 " fill-opacity="1" fill-rule="nonzero"/><path fill="#000000" d="M 233.417969 69.671875 L 233.414062 69.671875 C 233.054688 69.667969 232.761719 69.375 232.761719 69.015625 L 232.765625 66.601562 C 232.765625 66.242188 233.058594 65.949219 233.417969 65.949219 C 233.785156 65.949219 234.074219 66.242188 234.074219 66.605469 L 234.070312 69.015625 C 234.070312 69.375 233.777344 69.671875 233.417969 69.671875 " fill-opacity="1" fill-rule="nonzero"/><path fill="#000000" d="M 332.742188 232.921875 C 332.578125 232.921875 332.410156 232.859375 332.28125 232.730469 C 332.027344 232.472656 332.027344 232.058594 332.285156 231.804688 L 334.003906 230.113281 C 334.261719 229.859375 334.675781 229.863281 334.929688 230.117188 C 335.183594 230.378906 335.179688 230.789062 334.921875 231.042969 L 333.203125 232.738281 C 333.078125 232.863281 332.910156 232.921875 332.742188 232.921875 " fill-opacity="1" fill-rule="nonzero"/><path fill="#000000" d="M 326.738281 238.847656 C 326.566406 238.847656 326.398438 238.78125 326.269531 238.652344 C 326.015625 238.394531 326.019531 237.980469 326.277344 237.730469 L 327.996094 236.035156 C 328.25 235.78125 328.664062 235.785156 328.917969 236.042969 C 329.171875 236.300781 329.167969 236.714844 328.914062 236.964844 L 327.195312 238.660156 C 327.066406 238.785156 326.902344 238.847656 326.738281 238.847656 " fill-opacity="1" fill-rule="nonzero"/><path fill="#000000" d="M 328.472656 232.90625 C 328.304688 232.90625 328.136719 232.839844 328.007812 232.710938 L 326.304688 231.003906 C 326.050781 230.75 326.050781 230.335938 326.308594 230.082031 C 326.5625 229.824219 326.976562 229.828125 327.230469 230.082031 L 328.933594 231.789062 C 329.1875 232.046875 329.1875 232.460938 328.933594 232.714844 C 328.804688 232.839844 328.636719 232.90625 328.472656 232.90625 " fill-opacity="1" fill-rule="nonzero"/><path fill="#000000" d="M 334.429688 238.882812 C 334.261719 238.882812 334.09375 238.816406 333.96875 238.6875 L 332.265625 236.980469 C 332.007812 236.726562 332.011719 236.3125 332.265625 236.058594 C 332.519531 235.800781 332.933594 235.804688 333.191406 236.058594 L 334.894531 237.765625 C 335.148438 238.023438 335.148438 238.4375 334.890625 238.691406 C 334.765625 238.820312 334.597656 238.882812 334.429688 238.882812 " fill-opacity="1" fill-rule="nonzero"/><path fill="#6df2ff" d="M 193.808594 29.855469 C 193.457031 29.855469 193.167969 29.574219 193.15625 29.222656 C 193.144531 28.859375 193.425781 28.558594 193.785156 28.546875 C 195.53125 28.488281 197.292969 28.457031 199.039062 28.449219 C 199.039062 28.449219 199.039062 28.449219 199.042969 28.449219 C 199.398438 28.449219 199.691406 28.742188 199.691406 29.101562 C 199.695312 29.464844 199.402344 29.757812 199.042969 29.757812 C 197.3125 29.761719 195.5625 29.796875 193.828125 29.855469 C 193.820312 29.855469 193.816406 29.855469 193.808594 29.855469 Z M 209.507812 30.042969 C 209.496094 30.042969 209.480469 30.039062 209.46875 30.039062 C 207.742188 29.941406 205.992188 29.867188 204.257812 29.820312 C 203.898438 29.808594 203.609375 29.507812 203.621094 29.148438 C 203.632812 28.789062 203.925781 28.503906 204.292969 28.511719 C 206.035156 28.558594 207.804688 28.632812 209.542969 28.734375 C 209.90625 28.753906 210.179688 29.0625 210.160156 29.421875 C 210.140625 29.769531 209.847656 30.042969 209.507812 30.042969 Z M 219.933594 30.957031 C 219.90625 30.957031 219.882812 30.953125 219.855469 30.949219 C 218.132812 30.746094 216.390625 30.566406 214.667969 30.417969 C 214.308594 30.382812 214.042969 30.066406 214.074219 29.707031 C 214.105469 29.347656 214.429688 29.078125 214.78125 29.113281 C 216.519531 29.265625 218.277344 29.445312 220.011719 29.652344 C 220.367188 29.695312 220.621094 30.019531 220.582031 30.378906 C 220.542969 30.710938 220.261719 30.957031 219.933594 30.957031 Z M 230.285156 32.507812 C 230.246094 32.507812 230.207031 32.507812 230.164062 32.5 C 228.464844 32.1875 226.734375 31.902344 225.023438 31.648438 C 224.664062 31.589844 224.421875 31.257812 224.472656 30.902344 C 224.527344 30.542969 224.863281 30.300781 225.21875 30.351562 C 226.941406 30.609375 228.683594 30.902344 230.402344 31.210938 C 230.753906 31.277344 230.992188 31.617188 230.925781 31.972656 C 230.867188 32.285156 230.59375 32.507812 230.285156 32.507812 Z M 240.519531 34.695312 C 240.464844 34.695312 240.414062 34.691406 240.363281 34.679688 C 238.679688 34.265625 236.972656 33.871094 235.28125 33.507812 C 234.925781 33.433594 234.699219 33.085938 234.777344 32.734375 C 234.855469 32.378906 235.203125 32.15625 235.550781 32.230469 C 237.257812 32.59375 238.980469 32.992188 240.675781 33.40625 C 241.023438 33.492188 241.238281 33.847656 241.152344 34.199219 C 241.078125 34.496094 240.8125 34.695312 240.519531 34.695312 Z M 250.597656 37.511719 C 250.53125 37.511719 250.464844 37.503906 250.402344 37.484375 C 248.75 36.964844 247.070312 36.46875 245.402344 36.003906 C 245.054688 35.90625 244.851562 35.546875 244.949219 35.199219 C 245.046875 34.851562 245.40625 34.644531 245.757812 34.742188 C 247.429688 35.214844 249.125 35.714844 250.792969 36.234375 C 251.136719 36.34375 251.328125 36.710938 251.21875 37.050781 C 251.132812 37.332031 250.875 37.511719 250.597656 37.511719 Z M 260.480469 40.945312 C 260.40625 40.945312 260.324219 40.933594 260.25 40.90625 C 258.636719 40.285156 256.988281 39.6875 255.351562 39.117188 C 255.011719 39 254.828125 38.625 254.949219 38.285156 C 255.066406 37.941406 255.4375 37.761719 255.78125 37.882812 C 257.429688 38.453125 259.09375 39.058594 260.714844 39.683594 C 261.054688 39.808594 261.222656 40.1875 261.09375 40.527344 C 260.992188 40.785156 260.746094 40.945312 260.480469 40.945312 Z M 270.136719 44.984375 C 270.042969 44.984375 269.949219 44.964844 269.867188 44.925781 C 268.289062 44.207031 266.683594 43.507812 265.085938 42.839844 C 264.753906 42.703125 264.597656 42.320312 264.734375 41.984375 C 264.875 41.652344 265.257812 41.496094 265.589844 41.632812 C 267.199219 42.304688 268.820312 43.011719 270.40625 43.734375 C 270.734375 43.882812 270.882812 44.273438 270.730469 44.597656 C 270.617188 44.84375 270.382812 44.984375 270.136719 44.984375 Z M 279.523438 49.609375 C 279.417969 49.609375 279.3125 49.585938 279.214844 49.53125 C 277.6875 48.722656 276.125 47.917969 274.574219 47.160156 C 274.25 46.996094 274.117188 46.605469 274.277344 46.28125 C 274.4375 45.957031 274.828125 45.824219 275.152344 45.984375 C 276.714844 46.753906 278.285156 47.558594 279.828125 48.378906 C 280.148438 48.546875 280.269531 48.941406 280.097656 49.261719 C 279.980469 49.484375 279.753906 49.609375 279.523438 49.609375 Z M 288.601562 54.804688 C 288.488281 54.804688 288.367188 54.773438 288.261719 54.707031 C 286.785156 53.800781 285.277344 52.90625 283.777344 52.050781 C 283.464844 51.871094 283.355469 51.472656 283.535156 51.15625 C 283.714844 50.84375 284.113281 50.734375 284.425781 50.914062 C 285.9375 51.777344 287.457031 52.679688 288.945312 53.589844 C 289.253906 53.78125 289.347656 54.183594 289.160156 54.492188 C 289.039062 54.691406 288.824219 54.804688 288.601562 54.804688 " fill-opacity="1" fill-rule="nonzero"/><path fill="#6df2ff" d="M 135.171875 42.359375 C 134.914062 42.359375 134.667969 42.203125 134.5625 41.949219 C 134.429688 41.617188 134.589844 41.234375 134.921875 41.097656 C 136.351562 40.515625 137.808594 39.941406 139.261719 39.394531 C 139.597656 39.265625 139.976562 39.4375 140.105469 39.773438 C 140.230469 40.113281 140.058594 40.492188 139.722656 40.617188 C 138.28125 41.160156 136.832031 41.730469 135.417969 42.308594 C 135.335938 42.339844 135.253906 42.359375 135.171875 42.359375 Z M 125.613281 46.613281 C 125.367188 46.613281 125.136719 46.476562 125.023438 46.242188 C 124.863281 45.917969 125 45.527344 125.328125 45.371094 C 126.898438 44.613281 128.5 43.867188 130.089844 43.160156 C 130.421875 43.015625 130.808594 43.160156 130.957031 43.492188 C 131.101562 43.820312 130.953125 44.207031 130.625 44.355469 C 129.042969 45.058594 127.453125 45.792969 125.894531 46.546875 C 125.804688 46.59375 125.707031 46.613281 125.613281 46.613281 Z M 116.335938 51.445312 C 116.105469 51.445312 115.882812 51.328125 115.761719 51.113281 C 115.585938 50.796875 115.699219 50.402344 116.015625 50.222656 C 117.53125 49.371094 119.085938 48.53125 120.632812 47.722656 C 120.953125 47.554688 121.347656 47.683594 121.515625 48 C 121.683594 48.324219 121.558594 48.71875 121.238281 48.886719 C 119.703125 49.683594 118.160156 50.519531 116.652344 51.363281 C 116.550781 51.421875 116.441406 51.445312 116.335938 51.445312 " fill-opacity="1" fill-rule="nonzero"/><path fill="#6df2ff" d="M 56.875 106.996094 C 56.75 106.996094 56.625 106.960938 56.515625 106.890625 C 56.214844 106.691406 56.128906 106.285156 56.328125 105.984375 C 57.285156 104.519531 58.277344 103.054688 59.269531 101.632812 C 59.476562 101.339844 59.886719 101.265625 60.179688 101.472656 C 60.476562 101.679688 60.550781 102.085938 60.34375 102.382812 C 59.355469 103.792969 58.371094 105.246094 57.421875 106.699219 C 57.296875 106.890625 57.085938 106.996094 56.875 106.996094 Z M 51.414062 115.921875 C 51.304688 115.921875 51.191406 115.894531 51.089844 115.835938 C 50.777344 115.660156 50.667969 115.257812 50.847656 114.945312 C 51.710938 113.425781 52.609375 111.90625 53.519531 110.421875 C 53.707031 110.113281 54.109375 110.019531 54.417969 110.207031 C 54.726562 110.394531 54.824219 110.796875 54.632812 111.105469 C 53.734375 112.578125 52.84375 114.085938 51.984375 115.59375 C 51.863281 115.804688 51.640625 115.921875 51.414062 115.921875 " fill-opacity="1" fill-rule="nonzero"/><path fill="#6df2ff" d="M 29.699219 186.386719 C 29.683594 186.386719 29.664062 186.386719 29.648438 186.386719 C 29.285156 186.359375 29.019531 186.042969 29.046875 185.683594 C 29.1875 183.941406 29.355469 182.179688 29.546875 180.453125 C 29.589844 180.09375 29.910156 179.835938 30.269531 179.875 C 30.628906 179.917969 30.886719 180.238281 30.847656 180.597656 C 30.65625 182.3125 30.492188 184.058594 30.351562 185.789062 C 30.324219 186.128906 30.039062 186.386719 29.699219 186.386719 Z M 29.179688 196.839844 C 29.175781 196.839844 29.171875 196.839844 29.167969 196.839844 C 28.804688 196.832031 28.519531 196.53125 28.523438 196.171875 C 28.558594 194.429688 28.621094 192.664062 28.707031 190.925781 C 28.726562 190.5625 29.023438 190.28125 29.390625 190.304688 C 29.753906 190.320312 30.03125 190.628906 30.015625 190.988281 C 29.925781 192.714844 29.867188 194.464844 29.832031 196.199219 C 29.824219 196.554688 29.535156 196.839844 29.179688 196.839844 Z M 29.289062 207.300781 C 28.941406 207.300781 28.652344 207.027344 28.636719 206.675781 C 28.566406 204.929688 28.519531 203.164062 28.503906 201.421875 C 28.5 201.0625 28.789062 200.765625 29.148438 200.761719 C 29.152344 200.761719 29.15625 200.761719 29.15625 200.761719 C 29.515625 200.761719 29.808594 201.050781 29.808594 201.410156 C 29.828125 203.136719 29.875 204.890625 29.945312 206.621094 C 29.960938 206.980469 29.679688 207.285156 29.316406 207.300781 C 29.308594 207.300781 29.300781 207.300781 29.289062 207.300781 Z M 30.035156 217.738281 C 29.703125 217.738281 29.417969 217.488281 29.382812 217.148438 C 29.207031 215.417969 29.054688 213.65625 28.929688 211.917969 C 28.90625 211.558594 29.175781 211.246094 29.539062 211.21875 C 29.898438 211.191406 30.210938 211.464844 30.234375 211.824219 C 30.359375 213.550781 30.511719 215.296875 30.6875 217.019531 C 30.722656 217.375 30.460938 217.699219 30.101562 217.734375 C 30.078125 217.738281 30.058594 217.738281 30.035156 217.738281 Z M 31.414062 228.105469 C 31.101562 228.105469 30.824219 227.878906 30.769531 227.5625 C 30.488281 225.84375 30.230469 224.09375 30 222.367188 C 29.949219 222.007812 30.203125 221.679688 30.5625 221.628906 C 30.914062 221.582031 31.246094 221.832031 31.296875 222.191406 C 31.523438 223.90625 31.78125 225.640625 32.0625 227.347656 C 32.121094 227.703125 31.878906 228.039062 31.523438 228.097656 C 31.488281 228.105469 31.449219 228.105469 31.414062 228.105469 Z M 33.433594 238.375 C 33.132812 238.375 32.863281 238.167969 32.792969 237.867188 C 32.40625 236.171875 32.039062 234.441406 31.703125 232.726562 C 31.632812 232.375 31.863281 232.03125 32.21875 231.960938 C 32.574219 231.890625 32.917969 232.121094 32.988281 232.476562 C 33.320312 234.179688 33.683594 235.894531 34.070312 237.574219 C 34.152344 237.925781 33.929688 238.277344 33.578125 238.355469 C 33.527344 238.367188 33.480469 238.375 33.433594 238.375 Z M 36.078125 248.496094 C 35.796875 248.496094 35.535156 248.308594 35.453125 248.027344 C 34.960938 246.359375 34.488281 244.65625 34.042969 242.964844 C 33.953125 242.617188 34.164062 242.257812 34.511719 242.167969 C 34.863281 242.074219 35.21875 242.285156 35.308594 242.636719 C 35.75 244.3125 36.21875 246 36.707031 247.65625 C 36.808594 248.003906 36.609375 248.367188 36.261719 248.46875 C 36.203125 248.488281 36.140625 248.496094 36.078125 248.496094 Z M 39.34375 258.433594 C 39.078125 258.433594 38.828125 258.269531 38.730469 258.003906 C 38.132812 256.363281 37.558594 254.691406 37.011719 253.039062 C 36.902344 252.695312 37.085938 252.328125 37.429688 252.214844 C 37.777344 252.101562 38.144531 252.289062 38.257812 252.628906 C 38.796875 254.273438 39.367188 255.929688 39.960938 257.554688 C 40.082031 257.898438 39.90625 258.273438 39.566406 258.394531 C 39.496094 258.421875 39.417969 258.433594 39.34375 258.433594 Z M 43.21875 268.152344 C 42.96875 268.152344 42.726562 268.003906 42.621094 267.757812 C 41.921875 266.15625 41.242188 264.523438 40.597656 262.910156 C 40.464844 262.574219 40.628906 262.195312 40.964844 262.058594 C 41.300781 261.929688 41.679688 262.089844 41.816406 262.425781 C 42.453125 264.027344 43.128906 265.648438 43.820312 267.238281 C 43.964844 267.570312 43.808594 267.953125 43.480469 268.097656 C 43.394531 268.132812 43.304688 268.152344 43.21875 268.152344 Z M 47.6875 277.613281 C 47.449219 277.613281 47.21875 277.484375 47.101562 277.253906 C 46.308594 275.699219 45.53125 274.113281 44.789062 272.542969 C 44.632812 272.214844 44.773438 271.824219 45.101562 271.671875 C 45.425781 271.515625 45.816406 271.65625 45.972656 271.980469 C 46.707031 273.542969 47.480469 275.117188 48.269531 276.660156 C 48.433594 276.980469 48.304688 277.375 47.984375 277.542969 C 47.886719 277.589844 47.785156 277.613281 47.6875 277.613281 " fill-opacity="1" fill-rule="nonzero"/><path fill="#6df2ff" d="M 337.679688 133.257812 C 337.457031 133.257812 337.242188 133.144531 337.117188 132.941406 C 336.316406 131.589844 335.460938 130.230469 334.585938 128.898438 C 334.386719 128.597656 334.46875 128.195312 334.769531 127.996094 C 335.070312 127.796875 335.476562 127.878906 335.675781 128.179688 C 336.566406 129.527344 337.429688 130.902344 338.242188 132.269531 C 338.425781 132.582031 338.324219 132.980469 338.015625 133.167969 C 337.910156 133.230469 337.796875 133.257812 337.679688 133.257812 Z M 342.535156 142.523438 C 342.285156 142.523438 342.046875 142.382812 341.941406 142.140625 C 341.234375 140.585938 340.464844 139.015625 339.660156 137.472656 C 339.488281 137.15625 339.609375 136.757812 339.933594 136.589844 C 340.25 136.421875 340.648438 136.546875 340.816406 136.867188 C 341.632812 138.429688 342.414062 140.023438 343.132812 141.597656 C 343.28125 141.929688 343.132812 142.316406 342.804688 142.464844 C 342.71875 142.503906 342.625 142.523438 342.535156 142.523438 Z M 346.257812 152.296875 C 345.976562 152.296875 345.71875 152.113281 345.632812 151.832031 C 345.132812 150.207031 344.5625 148.558594 343.941406 146.929688 C 343.8125 146.59375 343.980469 146.214844 344.320312 146.082031 C 344.65625 145.957031 345.035156 146.125 345.164062 146.460938 C 345.796875 148.121094 346.375 149.796875 346.882812 151.449219 C 346.988281 151.796875 346.796875 152.160156 346.449219 152.269531 C 346.386719 152.285156 346.320312 152.296875 346.257812 152.296875 Z M 348.570312 162.488281 C 348.25 162.488281 347.96875 162.257812 347.921875 161.929688 C 347.6875 160.265625 347.367188 158.550781 346.976562 156.839844 C 346.894531 156.488281 347.117188 156.136719 347.46875 156.054688 C 347.820312 155.976562 348.171875 156.195312 348.25 156.546875 C 348.652344 158.292969 348.976562 160.046875 349.21875 161.742188 C 349.269531 162.101562 349.023438 162.433594 348.664062 162.484375 C 348.632812 162.488281 348.605469 162.488281 348.570312 162.488281 Z M 349.054688 172.925781 C 349.039062 172.925781 349.027344 172.925781 349.015625 172.925781 C 348.652344 172.902344 348.378906 172.59375 348.402344 172.234375 C 348.457031 171.335938 348.480469 170.414062 348.480469 169.484375 C 348.480469 168.691406 348.460938 167.882812 348.421875 167.074219 C 348.40625 166.714844 348.683594 166.40625 349.046875 166.390625 C 349.417969 166.367188 349.710938 166.652344 349.730469 167.011719 C 349.769531 167.839844 349.789062 168.671875 349.789062 169.484375 C 349.789062 170.4375 349.761719 171.390625 349.707031 172.3125 C 349.683594 172.660156 349.398438 172.925781 349.054688 172.925781 Z M 314.011719 182.441406 C 313.824219 182.441406 313.640625 182.359375 313.511719 182.207031 C 313.277344 181.929688 313.3125 181.519531 313.589844 181.285156 C 315.234375 179.90625 316.917969 179.113281 318.601562 178.9375 C 318.964844 178.898438 319.285156 179.160156 319.320312 179.519531 C 319.359375 179.878906 319.097656 180.199219 318.738281 180.238281 C 317.320312 180.390625 315.871094 181.078125 314.429688 182.289062 C 314.308594 182.390625 314.15625 182.441406 314.011719 182.441406 Z M 347.082031 183.167969 C 347.011719 183.167969 346.941406 183.15625 346.871094 183.132812 C 346.53125 183.015625 346.347656 182.644531 346.46875 182.300781 C 347.011719 180.730469 347.453125 179.0625 347.777344 177.339844 C 347.847656 176.984375 348.191406 176.753906 348.542969 176.820312 C 348.898438 176.886719 349.128906 177.226562 349.066406 177.585938 C 348.726562 179.367188 348.269531 181.101562 347.703125 182.726562 C 347.609375 183 347.355469 183.167969 347.082031 183.167969 Z M 327.042969 185.492188 C 326.796875 185.492188 326.5625 185.351562 326.453125 185.113281 C 325.917969 183.960938 325.007812 182.878906 323.742188 181.902344 C 323.574219 181.773438 323.40625 181.648438 323.230469 181.527344 C 322.929688 181.324219 322.851562 180.914062 323.058594 180.617188 C 323.261719 180.316406 323.667969 180.242188 323.964844 180.445312 C 324.164062 180.578125 324.359375 180.722656 324.542969 180.867188 C 325.976562 181.976562 327.015625 183.21875 327.636719 184.5625 C 327.789062 184.894531 327.644531 185.28125 327.316406 185.433594 C 327.230469 185.472656 327.136719 185.492188 327.042969 185.492188 Z M 311.453125 191.554688 C 311.207031 191.554688 310.976562 191.414062 310.863281 191.179688 C 310.234375 189.863281 309.914062 188.582031 309.914062 187.375 C 309.914062 186.769531 310 186.183594 310.164062 185.636719 C 310.269531 185.292969 310.632812 185.09375 310.976562 185.199219 C 311.328125 185.304688 311.523438 185.671875 311.414062 186.015625 C 311.285156 186.441406 311.222656 186.898438 311.222656 187.375 C 311.222656 188.382812 311.5 189.476562 312.042969 190.617188 C 312.199219 190.941406 312.0625 191.332031 311.734375 191.488281 C 311.640625 191.53125 311.550781 191.554688 311.453125 191.554688 Z M 342.015625 192.253906 C 341.867188 192.253906 341.71875 192.199219 341.59375 192.097656 C 341.316406 191.867188 341.28125 191.453125 341.515625 191.179688 C 342.585938 189.894531 343.554688 188.476562 344.390625 186.972656 C 344.566406 186.65625 344.964844 186.539062 345.277344 186.714844 C 345.59375 186.890625 345.710938 187.289062 345.535156 187.605469 C 344.660156 189.183594 343.644531 190.667969 342.515625 192.019531 C 342.386719 192.171875 342.203125 192.253906 342.015625 192.253906 Z M 325.164062 195.300781 C 325.035156 195.300781 324.910156 195.265625 324.796875 195.191406 C 324.496094 194.988281 324.421875 194.582031 324.625 194.28125 C 325.695312 192.695312 326.421875 191.1875 326.773438 189.789062 C 326.867188 189.441406 327.21875 189.230469 327.570312 189.316406 C 327.921875 189.40625 328.132812 189.761719 328.042969 190.113281 C 327.652344 191.65625 326.867188 193.304688 325.703125 195.015625 C 325.574219 195.203125 325.375 195.300781 325.164062 195.300781 Z M 318.820312 198.742188 C 318.71875 198.742188 318.617188 198.71875 318.519531 198.667969 C 316.898438 197.839844 315.410156 196.789062 314.109375 195.542969 C 313.847656 195.296875 313.839844 194.882812 314.089844 194.621094 C 314.339844 194.359375 314.753906 194.351562 315.011719 194.597656 C 316.222656 195.753906 317.605469 196.734375 319.117188 197.503906 C 319.4375 197.667969 319.566406 198.0625 319.402344 198.382812 C 319.285156 198.609375 319.058594 198.742188 318.820312 198.742188 Z M 333.914062 198.761719 C 333.675781 198.761719 333.445312 198.632812 333.332031 198.40625 C 333.164062 198.085938 333.289062 197.691406 333.613281 197.527344 C 333.757812 197.449219 333.90625 197.371094 334.054688 197.289062 C 335.414062 196.542969 336.699219 195.683594 337.875 194.742188 C 338.15625 194.515625 338.570312 194.5625 338.792969 194.84375 C 339.019531 195.121094 338.976562 195.535156 338.691406 195.761719 C 337.457031 196.753906 336.109375 197.652344 334.691406 198.433594 C 334.53125 198.523438 334.367188 198.609375 334.210938 198.6875 C 334.117188 198.738281 334.011719 198.761719 333.914062 198.761719 Z M 326.433594 200.621094 C 325.511719 200.621094 324.574219 200.539062 323.652344 200.382812 C 323.300781 200.324219 323.058594 199.988281 323.117188 199.628906 C 323.179688 199.273438 323.519531 199.035156 323.871094 199.09375 C 325.53125 199.375 327.222656 199.382812 328.863281 199.113281 C 329.222656 199.054688 329.558594 199.296875 329.617188 199.652344 C 329.675781 200.011719 329.429688 200.34375 329.078125 200.40625 C 328.203125 200.546875 327.316406 200.621094 326.433594 200.621094 Z M 317.757812 202.585938 C 317.539062 202.585938 317.324219 202.476562 317.199219 202.277344 C 317.011719 201.972656 317.101562 201.566406 317.410156 201.375 C 318.871094 200.460938 320.207031 199.398438 321.375 198.222656 C 321.632812 197.964844 322.046875 197.964844 322.300781 198.21875 C 322.558594 198.472656 322.558594 198.886719 322.304688 199.144531 C 321.066406 200.390625 319.648438 201.515625 318.101562 202.484375 C 317.996094 202.554688 317.875 202.585938 317.757812 202.585938 Z M 308.042969 206.339844 C 307.742188 206.339844 307.46875 206.125 307.402344 205.816406 C 307.328125 205.464844 307.558594 205.117188 307.910156 205.042969 C 309.640625 204.6875 311.300781 204.210938 312.835938 203.625 C 313.171875 203.5 313.550781 203.667969 313.679688 204.007812 C 313.808594 204.34375 313.640625 204.722656 313.300781 204.851562 C 311.695312 205.457031 309.972656 205.953125 308.175781 206.324219 C 308.128906 206.335938 308.085938 206.339844 308.042969 206.339844 Z M 300.121094 207.136719 C 298.554688 207.136719 297.601562 207.039062 297.5625 207.035156 C 297.203125 207 296.941406 206.679688 296.980469 206.320312 C 297.015625 205.960938 297.339844 205.699219 297.695312 205.734375 C 297.703125 205.734375 298.625 205.828125 300.121094 205.828125 C 301.007812 205.828125 301.914062 205.796875 302.8125 205.734375 C 303.171875 205.707031 303.488281 205.980469 303.511719 206.34375 C 303.539062 206.699219 303.265625 207.015625 302.90625 207.039062 C 301.972656 207.101562 301.035156 207.136719 300.121094 207.136719 " fill-opacity="1" fill-rule="nonzero"/></svg>