<svg fill="none" height="100" viewBox="0 0 250 100" width="250" xmlns="http://www.w3.org/2000/svg"><path d="m89.5867 44.7738c0-3.6266-3.4792-7.4299-9.5265-7.4299-6.7817 0-14.2274 4.9933-15.3675 14.9595-1.1651 10.0637 5.0703 14.5357 11.3556 14.5357s9.5764-2.4592 12.9423-5.739c-2.8945-3.6492-6.6321-1.9629-7.3483-1.5912-1.1857.6607-2.5283.9874-3.885.9452-2.4252 0-4.9004-1.0925-4.9004-5.6393 15.5398-1.5413 16.7275-6.4371 16.7275-10.041zm-7.7019.5961c-.0997 1.1174-.544 3.0305-8.4136 4.1026 1.6546-5.9159 4.8278-6.3601 6.2853-6.3601.2953-.0135.5901.0367.8644.1473.2742.1106.5214.2789.7248.4935.2035.2146.3583.4704.4541.7502.0957.2797.1301.5768.1009.871zm-26.3197.9701-3.613 11.4055-2.5499-19.8032c-5.6892 0-8.7491 4.0753-10.3448 8.3728l-4.4062 11.4554-.6188-11.333c-.3355-5.2676-5.1452-8.4726-9.0324-8.4726l4.7009 28.6498c5.9612-.0226 9.1797-4.0753 10.8638-8.3728l3.7263-9.7396c.034.3967 2.5749 18.1147 2.5749 18.1147 5.9883 0 9.2069-3.8011 10.9318-7.9512l8.3864-20.6986c-5.9045 0-9.0166 4.0504-10.6236 8.3728zm55.9989-9.0664c-3.688 0-6.506 2.0128-8.885 4.9684v-.0227l2.126-17.2193c-4.9008 0-8.8854 4.2748-9.6515 10.6349l-3.6855 30.7577c2.8219 0 5.8161-.8205 7.4253-2.908 1.4367 1.8631 3.5877 3.3545 6.7817 3.3545 8.264 0 13.933-9.6398 13.933-18.6858-.05-8.2504-4.035-10.857-8.019-10.857zm-.771 14.785c-.861 5.0432-3.663 8.4726-6.358 8.4726s-3.885-1.2172-3.885-1.2172c.522-4.4198.843-7.1307 1.832-9.4676.988-2.3368 3.341-6.0631 5.791-6.0631 2.402 0 3.49 3.205 2.622 8.2731zm29.425-14.1141h-5.766l.022-.2992c.397-3.7761 1.288-5.7639 4.225-6.088 2.006-.1995 2.897-1.2421 3.119-2.3845l.719-4.0005c-11.56-.0748-15.218 4.9411-16.15 12.5977l-.023.1745h-.124c-1.881 0-3.958 2.1374-4.307 4.846l-.124.9928h3.862l-3.241 26.8818-.993 4.8211c.125 0 .272.0227.394.0227 5.417-.1995 8.885-4.497 9.651-10.7347l2.53-20.9954h1.813c1.782 0 3.863-1.7907 4.225-4.7712zm29.992-.4986c-6.657 0-12.943 4.9185-14.869 12.6476-1.927 7.7291.992 16.8703 10.789 16.8703 9.796 0 15.406-9.5197 15.406-17.4437.009-7.8765-5.309-12.0765-11.324-12.0765zm2.697 14.3611c-.345 3.5042-1.881 8.8216-6.088 8.8216s-3.638-6.2104-3.23-9.1683c.446-3.1551 2.203-7.6521 5.988-7.6521 3.405 0 3.724 4.0504 3.332 8.0011zm41.524-5.4919-3.613 11.4055c-.098-.8953-2.548-19.8033-2.548-19.8033-5.689 0-8.735 4.0754-10.331 8.3728l-4.406 11.4554c-.023-.8205-.619-11.333-.619-11.333-.358-5.2675-5.163-8.4725-9.066-8.4725l4.676 28.6498c5.961-.0227 9.179-4.0754 10.863-8.3728l3.713-9.7396c.023.3967 2.575 18.1147 2.575 18.1147 5.988 0 9.193-3.8011 10.932-7.9513l8.393-20.6985c-5.889 0-9.007 4.0504-10.592 8.3728zm-68.769-21.1474-4.85 39.2802-.993 4.8459c.122 0 .272.0227.394.0227 5.218-.0748 8.931-4.6692 9.627-10.4603l2.794-22.5368c.848-6.8837-3.234-11.1562-6.972-11.1562z" fill="#fff"/></svg>