<svg fill="none" height="100" viewBox="0 0 250 100" width="250" xmlns="http://www.w3.org/2000/svg"><g fill="#fff"><path d="m65.9579 62.3373c-.2639-.3519-.3959-.7918-.3959-1.3196 0-.7625.3812-1.4076 1.1437-1.9355.4106-.2639.8358-.3959 1.2757-.3959.6158 0 1.2023.2786 1.7595.8358.8798.9091 1.7889 1.5836 2.7273 2.0234.9677.4399 2.1261.6599 3.4751.6599 2.2873-.088 3.431-.9531 3.431-2.5953 0-.8505-.3959-1.4956-1.1876-1.9355-.7625-.4399-1.9649-.8798-3.6071-1.3197-1.7009-.4692-3.0938-.9384-4.1789-1.4076-1.0557-.4692-1.9794-1.173-2.7712-2.1114-.7625-.9678-1.1437-2.2581-1.1437-3.871 0-1.4076.3959-2.6247 1.1877-3.651.8211-1.0558 1.8768-1.8622 3.1671-2.4194 1.3197-.5865 2.7126-.8798 4.1789-.8798 1.4956 0 2.9912.2786 4.4868.8358s2.6686 1.3783 3.5191 2.4634c.3812.4692.5718.997.5718 1.5835 0 .6745-.2786 1.2317-.8358 1.6716-.4105.3226-.8797.4839-1.4076.4839-.6451 0-1.173-.2053-1.5836-.6159-.5278-.6451-1.217-1.1583-2.0674-1.5396-.8211-.3812-1.7595-.5718-2.8153-.5718-2.2287 0-3.3431.8064-3.3431 2.4193 0 .6452.2053 1.1731.6159 1.5836.4105.3813.9237.6892 1.5395.9238.6452.2053 1.5396.4692 2.6833.7918 1.5836.4399 2.9033.8944 3.959 1.3636s1.9501 1.1877 2.6833 2.1554c.7331.9678 1.0997 2.2434 1.0997 3.827 0 1.437-.4252 2.698-1.2757 3.783-.8504 1.0557-1.9501 1.8622-3.2991 2.4194-1.3197.5572-2.6833.8357-4.0909.8357-1.9355 0-3.739-.3225-5.4106-.9677-1.6715-.6452-3.0352-1.6862-4.0909-3.1232z"/><path d="m109.657 53.6716c-.029.7038-.308 1.2757-.836 1.7156s-1.144.6598-1.847.6598h-14.5166c.3519 1.7302 1.1584 3.0939 2.4194 4.0909 1.261.9678 2.6833 1.4516 4.2669 1.4516 1.2023 0 2.1403-.1026 2.8153-.3079.674-.2346 1.202-.4692 1.583-.7038.411-.2639.69-.4399.836-.5279.528-.2639 1.027-.3959 1.496-.3959.616 0 1.144.22 1.583.6599.44.4399.66.9531.66 1.5396 0 .7918-.41 1.5102-1.231 2.1554-.822.6745-1.921 1.2463-3.3 1.7155-1.378.4692-2.771.7038-4.1784.7038-2.4634 0-4.6188-.5131-6.4663-1.5395-1.8182-1.0264-3.2258-2.4341-4.2229-4.2229-.997-1.8182-1.4956-3.8563-1.4956-6.1144 0-2.522.5279-4.7361 1.5836-6.6422 1.0557-1.9062 2.4487-3.3578 4.1789-4.3549 1.7302-1.0264 3.5777-1.5396 5.5425-1.5396 1.9352 0 3.7532.5279 5.4542 1.5836 1.731 1.0557 3.109 2.478 4.135 4.2669 1.027 1.7888 1.54 3.7243 1.54 5.8064zm-11.1292-6.8182c-3.4017 0-5.4105 1.5983-6.0264 4.7948h11.5246v-.3079c-.117-1.2317-.718-2.2874-1.803-3.1672s-2.3169-1.3197-3.6952-1.3197z"/><path d="m126.64 42.0147c2.991 0 5.058.8945 6.202 2.6833 1.144 1.7596 1.716 4.2082 1.716 7.3461v11.261c0 .7624-.25 1.4076-.748 1.9355-.499.4985-1.129.7478-1.892.7478-.762 0-1.393-.2493-1.891-.7478-.499-.5279-.748-1.1731-.748-1.9355v-11.261c0-1.6129-.337-2.8739-1.012-3.783-.674-.9384-1.832-1.4077-3.475-1.4077-1.701 0-3.035.4986-4.003 1.4956-.967.9678-1.451 2.1995-1.451 3.6951v11.261c0 .7624-.25 1.4076-.748 1.9355-.499.4985-1.129.7478-1.892.7478-.762 0-1.393-.2493-1.891-.7478-.499-.5279-.748-1.1731-.748-1.9355v-18.1672c0-.7625.249-1.393.748-1.8915.498-.5279 1.129-.7918 1.891-.7918.763 0 1.393.2639 1.892.7918.498.4985.748 1.129.748 1.8915v.7478c.792-1.0557 1.818-1.9648 3.079-2.7273 1.29-.7624 2.698-1.1437 4.223-1.1437z"/><path d="m159.31 33.437c.762 0 1.393.2493 1.892.7478.498.4985.747 1.1437.747 1.9355v27.1848c0 .7624-.249 1.4076-.747 1.9355-.499.4985-1.13.7478-1.892.7478s-1.393-.2493-1.891-.7478c-.47-.4986-.719-1.1291-.748-1.8915-.733.8504-1.73 1.5835-2.991 2.1994-1.232.5865-2.537.8797-3.915.8797-2.024 0-3.857-.5131-5.499-1.5395-1.642-1.0558-2.947-2.5074-3.915-4.3549-.938-1.8475-1.408-3.9443-1.408-6.2903 0-2.3461.47-4.4428 1.408-6.2903.938-1.8769 2.214-3.3285 3.827-4.3549 1.642-1.0557 3.446-1.5836 5.411-1.5836 1.407 0 2.727.264 3.959.7918 1.231.4986 2.272 1.1437 3.123 1.9355v-8.6217c0-.7625.249-1.393.748-1.8915.498-.5279 1.129-.7918 1.891-.7918zm-8.886 28.1525c1.907 0 3.461-.6891 4.663-2.0674 1.203-1.4076 1.804-3.1672 1.804-5.2786 0-2.1115-.601-3.871-1.804-5.2786-1.202-1.4076-2.756-2.1115-4.663-2.1115-1.876 0-3.416.7039-4.618 2.1115-1.203 1.4076-1.804 3.1671-1.804 5.2786 0 2.1114.587 3.871 1.76 5.2786 1.202 1.3783 2.756 2.0674 4.662 2.0674z"/><path d="m179.855 42.0147c2.023 0 3.856.5279 5.498 1.5836 1.642 1.0264 2.933 2.4634 3.871 4.3109.968 1.8475 1.452 3.9443 1.452 6.2903s-.469 4.4575-1.408 6.3343c-.938 1.8475-2.229 3.2991-3.871 4.3549-1.613 1.0264-3.402 1.5395-5.366 1.5395-1.408 0-2.742-.2785-4.003-.8357-1.232-.5865-2.258-1.2904-3.08-2.1115v.264c0 .7624-.249 1.4076-.747 1.9354-.499.4986-1.129.7478-1.892.7478-.762 0-1.393-.2492-1.891-.7478-.499-.4985-.748-1.1437-.748-1.9354v-27.6247c0-.7625.249-1.393.748-1.8915.498-.5279 1.129-.7918 1.891-.7918.763 0 1.393.2639 1.892.7918.498.4985.747 1.129.747 1.8915v9.1936c.704-.8798 1.687-1.6423 2.948-2.2874 1.261-.6745 2.58-1.0118 3.959-1.0118zm-.66 19.5748c1.877 0 3.416-.7038 4.619-2.1114 1.202-1.4076 1.803-3.1672 1.803-5.2786s-.601-3.8563-1.803-5.2346c-1.173-1.4076-2.713-2.1115-4.619-2.1115s-3.461.7039-4.663 2.1115c-1.202 1.3783-1.803 3.1232-1.803 5.2346s.601 3.871 1.803 5.2786 2.757 2.1114 4.663 2.1114z"/><path d="m217.687 54.2435c0 2.346-.528 4.4575-1.584 6.3343-1.056 1.8475-2.507 3.2845-4.355 4.3109-1.818 1.0264-3.827 1.5395-6.026 1.5395-2.229 0-4.252-.5131-6.071-1.5395-1.818-1.0264-3.255-2.4634-4.31-4.3109-1.056-1.8768-1.584-3.9883-1.584-6.3343 0-2.3461.528-4.4428 1.584-6.2903 1.055-1.8769 2.492-3.3285 4.31-4.3549 1.819-1.0557 3.842-1.5836 6.071-1.5836 2.199 0 4.208.5279 6.026 1.5836 1.848 1.0264 3.299 2.478 4.355 4.3549 1.056 1.8475 1.584 3.9442 1.584 6.2903zm-5.279 0c0-1.437-.308-2.7126-.924-3.827-.586-1.1437-1.393-2.0235-2.419-2.6393-.997-.6158-2.112-.9238-3.343-.9238-1.232 0-2.361.308-3.387.9238-.997.6158-1.804 1.4956-2.42 2.6393-.586 1.1144-.879 2.39-.879 3.827 0 1.4369.293 2.7126.879 3.827.616 1.1143 1.423 1.9794 2.42 2.5953 1.026.6158 2.155.9237 3.387.9237 1.231 0 2.346-.3079 3.343-.9237 1.026-.6159 1.833-1.481 2.419-2.5953.616-1.1144.924-2.3901.924-3.827z"/><path d="m239.428 61.8095c.381.4692.572.997.572 1.5836 0 .7331-.279 1.3636-.836 1.8915-.557.5278-1.173.7917-1.847.7917-.851 0-1.569-.3812-2.156-1.1437l-5.278-6.5542-5.147 6.5542c-.264.352-.586.6305-.968.8358-.352.176-.733.264-1.143.264-.616 0-1.203-.2347-1.76-.7039s-.836-1.0117-.836-1.6275c0-.5865.22-1.1437.66-1.6716l6.115-7.478-6.335-7.8739c-.381-.4692-.572-.9971-.572-1.5836 0-.7331.264-1.349.792-1.8475.557-.5279 1.188-.7918 1.892-.7918.85 0 1.569.3666 2.155 1.0997l5.411 6.7302 5.014-6.6422c.558-.7918 1.261-1.1877 2.112-1.1877.704 0 1.29.2493 1.759.7478.499.4692.748 1.0117.748 1.6276 0 .6451-.205 1.217-.616 1.7155l-6.07 7.3901z"/><path clip-rule="evenodd" d="m43.6157 31.4778c2.975-1.9049 6.521.0607 6.4821 3.5931l-.3436 31.2057c-.0433 3.9329-5.0744 5.6166-6.7324 2.253l-4.6683-9.4705c-.5546-1.125-.6129-2.4882-.1607-3.7558l3.7714-10.5722c.5362-1.5029-1.2402-2.4876-2.2306-1.2365l-6.9672 8.8009c-.8353 1.0551-2.0223 1.728-3.2703 1.8539l-10.5052 1.0596c-3.7311.3764-4.9694-4.7824-1.657-6.9033zm-14.7413 38.0914c-1.5009.9895-3.3121-.0144-3.2682-1.8116l.1788-7.3348c.036-1.4758 1.1474-2.7728 2.5447-2.9697l1.5389-.2168 1.9129-.2695c1.2719-.1792 2.4495.4735 2.9715 1.6472l.7851 1.765.6317 1.4199c.5735 1.2893.0625 2.9192-1.17 3.7318z" fill-rule="evenodd"/></g></svg>