<svg fill="none" height="100" viewBox="0 0 250 100" width="250" xmlns="http://www.w3.org/2000/svg"><g clip-rule="evenodd" fill="#fff" fill-rule="evenodd"><path d="m101.33 38.5799h12.712c.065 0 .13.0642.195.1927v4.1262c0 .0535-.065.1178-.195.1927h-12.712c-.065 0-.13-.0642-.195-.1927v-4.1262c0-.0643.065-.1285.195-.1927zm0 9.2479h12.712c.065 0 .13.0643.195.1927v4.1263c0 .0642-.065.1284-.195.1926h-12.712c-.065 0-.13-.0642-.195-.1926v-4.1263c0-.0535.065-.1177.195-.1927zm0 9.3283h12.712c.065 0 .13.0588.195.1766v4.1262c0 .0643-.065.1285-.195.1927h-12.712c-.065 0-.13-.0642-.195-.1927v-4.1262c0-.0535.065-.1124.195-.1766zm-13.4699-18.5601h4.2916c.065 0 .1301.0642.1951.1926v22.6703c0 .0643-.065.1285-.1951.1927h-3.9827c-.3143 0-1.0729-.9152-2.2758-2.7455-6.058-8.0705-9.1792-12.3199-9.3634-12.748v-6.936c.0108-.0856.0542-.1284.13-.1284 7.0876 9.5476 10.7343 14.4231 10.9403 14.6265h.065v-14.9316c0-.0642.065-.1284.195-.1926zm40.5289 0h-5.25c-.076 0-.12.0428-.13.1284l16.321 21.0487c.834 1.2523 1.381 1.8785 1.641 1.8785h5.381v-.0642c0-.1285-3.034-4.046-9.103-11.7526.314-.5138 2.292-3.0934 5.933-7.7388 1.734-2.1621 2.601-3.3288 2.601-3.5h-5.381c-.097 0-.178.0214-.243.0642l-5.771 7.3694c-.033 0-1.23-1.5413-3.593-4.6239-1.3-1.8732-2.102-2.8097-2.406-2.8097zm26.93.0802h11.525c.065 0 .13.0642.195.1927v4.1102c0 .0535-.065.1124-.195.1766h-7.12v18.3032c0 .0643-.065.1285-.195.1927h-4.21c-.065 0-.13-.0642-.195-.1927v-22.59c0-.0642.065-.1285.195-.1927zm28.75.0482c0-.0856-.065-.1284-.195-.1284-2.07 0-4.243.8616-6.519 2.5849-2.687 2.4725-4.031 5.4321-4.031 8.8787 0 4.4206 1.989 7.835 5.966 10.2433 1.712.8991 3.614 1.3487 5.706 1.3487 4.898 0 8.474-2.3494 10.729-7.0483.541-1.5521.812-3.1683.812-4.8488v-.1124c0-.8991-.081-1.3486-.243-1.3486h-12.046c-.054 0-.114.0588-.179.1766v3.9817c0 .0642.06.1285.179.1927h7.38v.0642c-.087.8242-.807 1.8838-2.162 3.179-1.235.8991-2.726 1.3486-4.47 1.3486h-.065c-3.653 0-5.95-1.7768-6.893-5.3304-.076-.4388-.114-.9098-.114-1.4128v-.8028c0-3.0506 1.528-5.1913 4.585-6.4222 1.04-.182 1.56-.3265 1.56-.4335zm21.435-.1445h12.712c.065 0 .13.0642.195.1927v4.1262c0 .0535-.065.1178-.195.1927h-12.712c-.065 0-.13-.0642-.195-.1927v-4.1262c0-.0643.065-.1285.195-.1927zm0 9.2479h12.712c.065 0 .13.0643.195.1927v4.1263c0 .0642-.065.1284-.195.1926h-12.712c-.065 0-.13-.0642-.195-.1926v-4.1263c0-.0535.065-.1177.195-.1927zm0 9.3283h12.712c.065 0 .13.0588.195.1766v4.1262c0 .0643-.065.1285-.195.1927h-12.712c-.065 0-.13-.0642-.195-.1927v-4.1262c0-.0535.065-.1124.195-.1766zm37.301-18.5601h-4.292c-.13.0642-.195.1284-.195.1926v14.9316h-.065c-.206-.2034-3.852-5.0789-10.94-14.6265-.076 0-.119.0428-.13.1284v6.936c.184.4281 3.305 4.6775 9.363 12.748 1.203 1.8303 1.962 2.7455 2.276 2.7455h3.983c.13-.0642.195-.1284.195-.1927v-22.6703c-.065-.1284-.13-.1926-.195-.1926zm-166.2752 19.2016c0-.1254.1025-.2274.2295-.2283l3.6575-.026c.1284-.0009.2329.1016.2329.2283v3.6451c0 .0642-.0572.1284-.1717.1926h-3.7766c-.0572 0-.1144-.0642-.1716-.1926zm55.3972.0367c.024-.0301.002-.0735-.036-.0735h-5.485c-.072 0-.14.0339-.184.0901-1.994 2.5636-2.991 3.8823-2.991 3.9559 0 .0128.011.0231.024.0231h5.432c.039 0 .077-.0089.109-.0299.3-.1962.786-.7987 1.458-1.8075zm95.254-.0367c0-.1254.103-.2274.23-.2283l3.657-.026c.128-.0009.233.1016.233.2283v3.6451c0 .0642-.057.1284-.172.1926h-3.776c-.057 0-.115-.0642-.172-.1926z"/><path d="m19.9749 39.1173 3.7898-6.1173 3.7898 6.1173.9483 1.5307.0025-.0014 6.0139 9.7075.0097-.0155 2.9965 4.8367 6.3952-10.323h-1.6128-4.3801-1.3635l-3.8974-6.1173h9.0507.5903 5.4026 7.5797l-3.7898 6.1173-10.1852 16.4404-3.7897 6.1173-3.2094-5.1805-.0145.0078-7.5386-12.1685-.0017.0027-2.9965-4.8368-6.3953 10.323h1.3486 5.7436l3.8975 6.1173-8.7865.0001h-5.993-7.5796l3.78978-6.1174z"/></g></svg>