<svg fill="none" height="162" viewBox="0 0 464 162" width="464" xmlns="http://www.w3.org/2000/svg"><path clip-rule="evenodd" d="m54.8668 161.483 48.9252-66.4613c15.359-20.8629.462-50.3264-25.4442-50.3264h-23.481v28.0849h23.481c2.8785 0 4.5337 3.2737 2.8272 5.5918l-26.3082 35.737z" fill="#44dbae" fill-rule="evenodd"/><path clip-rule="evenodd" d="m55.1332 0-48.92553 66.4613c-15.35824 20.863-.4619 50.3267 25.44453 50.3267h23.481v-28.0851h-23.481c-2.8785 0-4.5337-3.2737-2.8272-5.5918l26.3082-35.7376z" fill="#53fdca" fill-rule="evenodd"/><path d="m146 102.8 6.8-9.1c3.067 2 5.967 3.5 8.7 4.5 2.733.9333 5.467 1.4 8.2 1.4 3.067 0 5.5-.5 7.3-1.5 1.867-1 2.8-2.3333 2.8-4 0-1.3333-.533-2.4-1.6-3.2-1-.8-2.633-1.3667-4.9-1.7l-10-1.5c-5.133-.8-9.067-2.4667-11.8-5-2.667-2.5333-4-5.9-4-10.1 0-5 1.967-9 5.9-12s9.2-4.5 15.8-4.5c3.8 0 7.5.5667 11.1 1.7 3.6 1.0667 7.033 2.6667 10.3 4.8l-6.6 8.8c-2.867-1.6667-5.6-2.9-8.2-3.7-2.6-.8667-5.233-1.3-7.9-1.3-2.467 0-4.467.4667-6 1.4-1.467.9333-2.2 2.1667-2.2 3.7 0 1.4.533 2.5 1.6 3.3 1.133.7333 2.967 1.2667 5.5 1.6l10 1.5c5.067.7333 8.967 2.4 11.7 5 2.8 2.6 4.2 5.9 4.2 9.9 0 2.4667-.6 4.7667-1.8 6.9-1.133 2.067-2.7 3.867-4.7 5.4s-4.4 2.733-7.2 3.6-5.833 1.3-9.1 1.3c-4.733 0-9.167-.6-13.3-1.8-4.133-1.267-7.667-3.067-10.6-5.4zm51.609-19.8c0-3.8.7-7.3333 2.1-10.6 1.467-3.3333 3.434-6.2 5.9-8.6 2.534-2.4667 5.5-4.4 8.9-5.8s7.034-2.1 10.9-2.1c3.867 0 7.5.7 10.9 2.1s6.334 3.3333 8.8 5.8c2.534 2.4 4.5 5.2667 5.9 8.6 1.467 3.2667 2.2 6.8 2.2 10.6s-.733 7.3667-2.2 10.7c-1.4 3.2667-3.366 6.1-5.9 8.5-2.466 2.4-5.4 4.3-8.8 5.7s-7.033 2.1-10.9 2.1c-3.866 0-7.5-.7-10.9-2.1s-6.366-3.3-8.9-5.7c-2.466-2.4-4.433-5.2333-5.9-8.5-1.4-3.3333-2.1-6.9-2.1-10.7zm27.8 15.1c4 0 7.4-1.4667 10.2-4.4s4.2-6.5 4.2-10.7c0-4.2667-1.4-7.8667-4.2-10.8s-6.2-4.4-10.2-4.4-7.4 1.4667-10.2 4.4-4.2 6.5333-4.2 10.8c0 4.2 1.4 7.7667 4.2 10.7s6.2 4.4 10.2 4.4zm30.082-41.2h11.6v-5c0-5.8 1.7-10.2667 5.1-13.4s8.3-4.7 14.7-4.7c1.4 0 2.834.1 4.3.3 1.467.1333 2.734.3333 3.8.6v11.5c-1.266-.2667-2.4-.4667-3.4-.6-.933-.1333-1.933-.2-3-.2-2.6 0-4.566.5667-5.9 1.7-1.266 1.1333-1.9 2.8333-1.9 5.1v4.7h14.2v11.5h-14.2v40.6h-13.7v-40.6h-11.6zm54.743 37.4v-25.9h-10.7v-11.5h10.7v-13.3l13.7-3.1v16.4h14.8v11.5h-14.8v23.1c0 2.4667.534 4.2 1.6 5.2 1.067 1 2.934 1.5 5.6 1.5 1.267 0 2.467-.0667 3.6-.2 1.134-.2 2.367-.5333 3.7-1v11.2c-1.466.467-3.233.833-5.3 1.1-2.066.333-3.833.5-5.3.5-5.8 0-10.2-1.3-13.2-3.9-2.933-2.667-4.4-6.5333-4.4-11.6zm35.283 14.7v-70l13.7-3v42.9l22.5-22h15.5l-24.4 23.9 25.9 28.2h-17.5l-22-23.8v23.8zm63.636-58.3c-2.133 0-3.967-.7667-5.5-2.3s-2.3-3.3667-2.3-5.5.767-3.9667 2.3-5.5 3.367-2.3 5.5-2.3 3.967.7667 5.5 2.3 2.3 3.3667 2.3 5.5-.767 3.9667-2.3 5.5-3.367 2.3-5.5 2.3zm6.9 6.2v52.1h-13.7v-52.1zm17.814 37.4v-25.9h-10.7v-11.5h10.7v-13.3l13.7-3.1v16.4h14.8v11.5h-14.8v23.1c0 2.4667.534 4.2 1.6 5.2 1.067 1 2.934 1.5 5.6 1.5 1.267 0 2.467-.0667 3.6-.2 1.134-.2 2.367-.5333 3.7-1v11.2c-1.466.467-3.233.833-5.3 1.1-2.066.333-3.833.5-5.3.5-5.8 0-10.2-1.3-13.2-3.9-2.933-2.667-4.4-6.5333-4.4-11.6z" fill="#fff"/></svg>