<svg fill="none" height="32" viewBox="0 0 32 32" width="32" xmlns="http://www.w3.org/2000/svg"><path d="m27.25 2.875v2.21875c0 1.10457-.8954 2-2 2h-2.5625c-1.1046 0-2 .89543-2 2v5.50005m6.5625 15v-2.2188c0-1.1046-.8954-2-2-2h-2.5625c-1.1046 0-2-.8954-2-2v-5.5m8.4375-1.875h-8.9062m-15.4688-13.125v2.21875c0 1.10457.89543 2 2 2h2.5625c1.1046 0 2 .89543 2 2v5.50005m-6.5625 15v-2.2188c0-1.1046.89543-2 2-2h2.5625c1.1046 0 2-.8954 2-2v-5.5m-8.4375-1.875h8.9062" stroke="#444" stroke-linecap="round" stroke-linejoin="round"/><g fill="#53fdca"><path d="m23 16c0 3.866-3.134 7-7 7s-7-3.134-7-7 3.134-7 7-7 7 3.134 7 7z"/><path d="m29.125 2.875c0 1.03553-.8395 1.875-1.875 1.875s-1.875-.83947-1.875-1.875.8395-1.875 1.875-1.875 1.875.83947 1.875 1.875z"/><path d="m2.875 2.875c0 1.03553.83947 1.875 1.875 1.875s1.875-.83947 1.875-1.875-.83947-1.875-1.875-1.875-1.875.83947-1.875 1.875z"/><path d="m29.125 29.125c0 1.0355-.8395 1.875-1.875 1.875s-1.875-.8395-1.875-1.875.8395-1.875 1.875-1.875 1.875.8395 1.875 1.875z"/><path d="m2.875 29.125c0 1.0355.83947 1.875 1.875 1.875s1.875-.8395 1.875-1.875-.83947-1.875-1.875-1.875-1.875.8395-1.875 1.875z"/><path d="m31 16c0 1.0355-.8395 1.875-1.875 1.875s-1.875-.8395-1.875-1.875.8395-1.875 1.875-1.875 1.875.8395 1.875 1.875z"/><path d="m1 16c0 1.0355.83947 1.875 1.875 1.875s1.875-.8395 1.875-1.875-.83947-1.875-1.875-1.875-1.875.8395-1.875 1.875z"/></g><circle cx="16" cy="16" r="4" stroke="#444"/></svg>