<svg fill="none" height="32" viewBox="0 0 32 32" width="32" xmlns="http://www.w3.org/2000/svg"><path d="m28.5 1.5c1.1046 0 2 .89543 2 2v9c0 1.1046-.8954 2-2 2h-9c-1.1046 0-2-.8954-2-2v-9c0-1.10457.8954-2 2-2z" fill="#53fdca" stroke="#53fdca"/><g stroke="#444"><path d="m12.5 1.5c1.1046 0 2 .89543 2 2v9c0 1.1046-.8954 2-2 2h-9c-1.10457 0-2-.8954-2-2v-9c0-1.10457.89543-2 2-2z"/><path d="m12.5 17.5c1.1046 0 2 .8954 2 2v9c0 1.1046-.8954 2-2 2h-9c-1.10457 0-2-.8954-2-2v-9c0-1.1046.89543-2 2-2z"/><path d="m28.5 17.5c1.1046 0 2 .8954 2 2v9c0 1.1046-.8954 2-2 2h-9c-1.1046 0-2-.8954-2-2v-9c0-1.1046.8954-2 2-2z"/></g></svg>