<svg fill="none" height="96" viewBox="0 0 96 96" width="96" xmlns="http://www.w3.org/2000/svg"><path d="m7.05172 39.5c0-1.1046.89543-2 2-2h77.89658c1.1045 0 2 .8954 2 2v52.5423h-81.89658z" fill="#1f1f1f"/><path d="m7.05172 92.0423h81.89658 6.0517c.2761 0 .5.2238.5.5v.9577c0 1.1046-.8954 2-2 2h-91c-1.10457 0-2-.8954-2-2v-.9577c0-.2762.223858-.5.5-.5z" fill="#1f1f1f"/><path d="m88.9483 92.0423v-52.5423c0-1.1046-.8955-2-2-2h-77.89658c-1.10457 0-2 .8954-2 2v52.5423m81.89658 0h-81.89658m81.89658 0h6.0517c.2761 0 .5.2238.5.5v.9577c0 1.1046-.8954 2-2 2h-91c-1.10457 0-2-.8954-2-2v-.9577c0-.2762.223858-.5.5-.5h6.05172" stroke="#fff"/><path d="m64 63h16" stroke="#fff" stroke-linecap="round" stroke-linejoin="round"/><path d="m64 66h16" stroke="#fff" stroke-linecap="round" stroke-linejoin="round"/><path d="m64 69h16" stroke="#fff" stroke-linecap="round" stroke-linejoin="round"/><path d="m64 72h16" stroke="#fff" stroke-linecap="round" stroke-linejoin="round"/><rect fill="#53fdca" height="42" rx="2" width="42" x="16" y="42"/><path d="m11 44.5v43c0 1.1046.8954 2 2 2h71c1.1046 0 2-.8954 2-2v-20" stroke="#fff"/><path d="m92 67h-47c-1.1046 0-2-.8954-2-2v-31.8833-2.1167c0-1.1046.8954-2 2-2h40.7125 6.2875c1.1046 0 2 .8954 2 2v2.1167 4.1166 27.7667c0 1.1046-.8954 2-2 2z" fill="#1f1f1f"/><path d="m94 33.1167v-2.1167c0-1.1046-.8954-2-2-2h-6.2875-40.7125c-1.1046 0-2 .8954-2 2v2.1167m51 0v4.1166 27.7667c0 1.1046-.8954 2-2 2h-47c-1.1046 0-2-.8954-2-2v-31.8833m51 0h-51" stroke="#fff"/><path d="m75 40h16" stroke="#fff" stroke-linecap="round" stroke-linejoin="round"/><path d="m75 43h16" stroke="#fff" stroke-linecap="round" stroke-linejoin="round"/><path d="m75 46h16" stroke="#fff" stroke-linecap="round" stroke-linejoin="round"/><path d="m75 49h16" stroke="#fff" stroke-linecap="round" stroke-linejoin="round"/><rect fill="#53fdca" height="24" rx="2" width="24" x="48" y="38"/><g stroke="#fff"><rect fill="#1f1f1f" height="19" rx="1.5" width="56" x="39.5" y=".5"/><rect fill="#1f1f1f" height="19" rx="1.5" width="56" x=".5" y="25.5"/><path d="m59.5 6h32" stroke-linecap="round" stroke-linejoin="round"/><path d="m20.5 31h32" stroke-linecap="round" stroke-linejoin="round"/><path d="m59.5 10h32" stroke-linecap="round" stroke-linejoin="round"/><path d="m20.5 35h32" stroke-linecap="round" stroke-linejoin="round"/><path d="m59.5 13.5h32" stroke-linecap="round" stroke-linejoin="round"/><path d="m20.5 38.5h32" stroke-linecap="round" stroke-linejoin="round"/></g><path d="m41 10c0-4.41828 3.5817-8 8-8s8 3.58172 8 8c0 4.4183-3.5817 8-8 8s-8-3.5817-8-8z" fill="#53fdca"/><path d="m2 27.6809c0-.3761.30483-.6809.68085-.6809h14.63825c.3761 0 .6809.3048.6809.6809v14.6382c0 .3761-.3048.6809-.6809.6809h-14.63825c-.37602 0-.68085-.3048-.68085-.6809z" fill="#53fdca"/><path d="m45.5 7.5 3.5 5.5 3.5-5.5" stroke="#1f1f1f" stroke-linecap="round" stroke-linejoin="round"/><path d="m4.5 29.5 11 11m-11 0 11-11" stroke="#1f1f1f" stroke-linecap="round" stroke-linejoin="round"/><path d="m19 21.0001c1.272-11.06341 5.3225-13.67397 17.5-13.00003" stroke="#fff" stroke-linecap="round" stroke-linejoin="round"/></svg>