<svg fill="none" height="97" viewBox="0 0 97 97" width="97" xmlns="http://www.w3.org/2000/svg"><path d="m80.9999 10.5002c-4.2155-1.18174-4.7233-2.59351-5.8125-5.0375-.4843 2.68564-.7748 5.0375-3.0998 5.0375 0 0 0-7.3625 7.3625-7.3625s7.3625 7.75 7.3625 7.75c-2.6226-.3371-4.1689-1.35683-5.8127-3.10001z" fill="#44dbae"/><path d="m76.125 55.5.351 10.875-3.375-2.25-.7258-.75c1.5391-1.1923 1.9611-2.2234 1.875-3.375 2.25 1.125 2.3904-4.1175.75-3.75v-2.625l-3.375-3.75-6.375.75-1.875 3-.375 2.625-.75.375c-.403 2.3155-.2467 3.2308 1.5 3.375.1569 1.2644.8254 1.9283 1.875 3-.4262 1.3799-1.5553 2.0613-3.75 3v-10.5s-.3752-7.125 7.1248-7.125 7.125 7.125 7.125 7.125z" fill="#44dbae"/><path d="m76.125 55.5c-2.538-.3262-3.3749-2.6248-3.3749-2.6248-2.8372 1.2818-4.2942 1.0921-6.75-.375 0 0-2.5471 2.6491-3.3751 3 0 0-1.125-7.1252 6.375-7.1252s7.125 7.125 7.125 7.125z" fill="#44dbae"/><path d="m76.125 55.5.351 10.875-3.375-2.25-.7258-.75c1.5391-1.1923 1.9611-2.2234 1.875-3.375 2.25 1.125 2.3904-4.1175.75-3.75v-2.625l-3.375-3.75-6.375.75-1.875 3-.375 2.625-.75.375c-.403 2.3155-.2467 3.2308 1.5 3.375.1569 1.2644.8254 1.9283 1.875 3-.4262 1.3799-1.5553 2.0613-3.75 3v-10.5s-.3752-7.125 7.1248-7.125m7.125 7.125s.375-7.125-7.125-7.125m7.125 7.125c-2.538-.3262-3.3749-2.6248-3.3749-2.6248-2.8372 1.2818-4.2942 1.0921-6.75-.375 0 0-2.5471 2.6491-3.3751 3 0 0-1.125-7.1252 6.375-7.1252m11.9999-37.8748c-4.2155-1.18174-4.7233-2.59351-5.8125-5.0375-.4843 2.68564-.7748 5.0375-3.0998 5.0375 0 0 0-7.3625 7.3625-7.3625s7.3625 7.75 7.3625 7.75c-2.6226-.3371-4.1689-1.35683-5.8127-3.10001z" stroke="#44dbae" stroke-linecap="round" stroke-linejoin="round"/><path d="m86.5 11.3501v-.775c0-3.85219-2.325-6.975-6.975-6.975s-6.975 3.12281-6.975 6.975v1.55" stroke="#fff"/><path d="m86.9998 13.5248c0 3.8521-2.0819 6.975-4.65 6.975" stroke="#fff"/><path d="m84.7063 15.681v-.5c-.2194 0-.4132.143-.4778.3526zm.5079-3.7054-.4948-.0719c-.0209.1436.0217.2893.1167.3991.0949.1098.2329.1728.3781.1728zm-10.9206 3.7054.4778-.1474c-.0647-.2096-.2584-.3526-.4778-.3526zm-.5079-3.7054v.5c.1451 0 .2831-.063.3781-.1728s.1376-.2554.1167-.3991zm16.9042 12.319.275-.4175c-.0118-.0078-.0238-.015-.0362-.0218zm.3226 1.8929c0 .2761.2238.5.5.5.2761 0 .5-.2239.5-.5zm-7.7946-7.7178c-.0773-.2651-.3549-.4173-.62-.34-.2651.0774-.4173.355-.3399.6201zm-14.9079 5.8249-.2388-.4393c-.0124.0068-.0244.014-.0362.0218zm-1.3226 1.8929c0 .2761.2239.5.5.5.2762 0 .5-.2239.5-.5zm18.8276-15.4825c.0096-.276-.2063-.5075-.4822-.5172-.276-.0097-.5075.2062-.5172.4822zm-11.6307-.035c-.0096-.276-.2412-.4919-.5172-.4822-.2759.0097-.4918.2412-.4822.5172zm15.9825 28.7699c.2603-.0922.3966-.3779.3045-.6382-.0922-.2604-.3779-.3967-.6382-.3045zm-4.7265 1.143-.1668-.4713zm-1.2924-1.2272.4794.1423zm.0206-.0694-.4793-.1423zm-1.2924-1.2272-.1669-.4713zm-4.7265 1.1431c-.2603.0921-.3966.3779-.3044.6382.0921.2603.3779.3966.6382.3044zm-11.9455 43.0746c-.252-.1128-.5478.0001-.6606.2522-.1127.2521.0002.5478.2523.6606zm2.5277 1.6785-.2042.4564zm.7743-.929.4868-.1143zm-.0123-.0526-.4868.1144zm.7743-.929-.2042.4565zm2.5277 1.6785c.2521.1128.5478-.0001.6606-.2522.1127-.2521-.0002-.5478-.2523-.6606zm-35.0546-66.825c.1534-.2296.0915-.5401-.1382-.6934-.2296-.1534-.5401-.0915-.6935.1382zm-2.0775 2.2114-.4158-.2776zm-1.1501-.374.4729-.1624zm-.0175-.0511-.4729.1624zm-1.1501-.374.4158.2776zm-2.0775 2.2114c-.1534.2296-.0915.5401.1382.6934s.5401.0915.6935-.1382zm10.0449 36.0863c-.2751-.0243-.5178.179-.5421.4541-.0242.275.1791.5177.4541.542zm2.9371.7613-.0439.498zm.2239 1.1885.3694.3369zm-.0364.0399-.3695-.337zm.2238 1.1885.044-.4981zm2.9371.7613c.2751.0242.5178-.1791.5421-.4541.0243-.2751-.179-.5178-.4541-.5421zm-38.25668 8.3887c.20135-.189.21138-.5054.0224-.7067-.18898-.2014-.5054-.2114-.70675-.0224zm16.14418 6.0378c-.0143-.2758-.2494-.4877-.5252-.4735-.2757.0143-.4877.2495-.4734.5253zm21.4116-9.4742v-.5zm-19.398 0v.5zm20.5 1.102h-.5zm0 6.398h.5zm-2 2v-.5zm-20.5 0v.5zm-25-25v-.5c-.276142 0-.5.2238-.5.5zm9.613 0 .4968-.0565c-.0287-.2527-.2425-.4435-.4968-.4435zm63.9253 9.9574v-.5c-.2194 0-.4131.143-.4778.3526zm.4915-3.5858-.4948-.072c-.0209.1437.0217.2893.1167.3991s.233.1729.3781.1729zm-10.5683 3.5858.4778-.1474c-.0647-.2096-.2584-.3526-.4778-.3526zm-.4915-3.5858v.5c.1451 0 .2831-.0631.3781-.1729s.1376-.2554.1167-.3991zm16.3589 11.9216.275-.4176c-.0118-.0078-.0239-.015-.0363-.0218zm.296 1.5358c0 .2762.2239.5.5.5s.5-.2238.5-.5zm-7.5115-7.1774c-.0773-.2651-.3549-.4173-.62-.34-.2651.0774-.4173.355-.3399.6201zm-14.4425 5.6416-.2387-.4394c-.0124.0068-.0245.014-.0363.0218zm-1.296 1.5358c0 .2762.2239.5.5.5s.5-.2238.5-.5zm18.2524-14.6865c.0097-.276-.2062-.5076-.4822-.5172-.2759-.0097-.5075.2062-.5172.4822zm-11.2554-.035c-.0097-.276-.2413-.4919-.5172-.4822-.276.0096-.4919.2412-.4822.5172zm-.372-38.6075c0 8.8366 7.1635 16 16 16v-1c-8.2842 0-15-6.7157-15-15zm16 16c8.8366 0 16-7.1634 16-16h-1c0 8.2843-6.7157 15-15 15zm16-16c0-8.83656-7.1634-16-16-16v1c8.2843 0 15 6.71573 15 15zm-16-16c-8.8365 0-16 7.16344-16 16h1c0-8.28427 6.7158-15 15-15zm4.7286 15.0336c-.1908.6186-.6665 1.5743-1.4573 2.3676-.7824.7849-1.8569 1.3969-3.2713 1.3969v1c1.7348 0 3.0519-.7604 3.9795-1.6909.9193-.9222 1.4722-2.025 1.7047-2.7788zm.4778.6474c.6625 0 1.1671-.331 1.4997-.7824.3235-.4389.4926-.9968.5381-1.5276.0453-.529-.0273-1.0892-.2508-1.5389-.2288-.4605-.6522-.8565-1.2791-.8565v1c.135 0 .2672.0673.3836.3015.1217.245.184.6112.15 1.0085-.0339.3956-.1584.7641-.3469 1.0198-.1792.2434-.4048.3756-.6946.3756zm-10.8905-.3526c.2645.8575.9482 2.179 2.1251 3.1647l.6421-.7667c-1.0017-.8389-1.5924-1.982-1.8116-2.6928zm2.1251 3.1647c.8926.7474 2.0744 1.305 3.559 1.305v-1c-1.2147 0-2.1755-.4508-2.9169-1.0717zm-1.6473-3.8121c-.2898 0-.5154-.1322-.6947-.3756-.1884-.2557-.3129-.6242-.3468-1.0198-.034-.3973.0282-.7635.15-1.0085.1164-.2342.2486-.3015.3836-.3015v-1c-.6269 0-1.0503.396-1.2791.8565-.2235.4497-.2962 1.0099-.2508 1.5389.0455.5308.2146 1.0887.5381 1.5276.3326.4514.8372.7824 1.4997.7824zm9.4265 5.8945 6.731 3.6584.4776-.8786-6.7311-3.6584zm6.6948 3.6367c.1345.0886.2902.293.4143.5994.1202.2967.1833.6222.1833.8759h1c0-.3952-.093-.848-.2564-1.2514-.1595-.3937-.4151-.8113-.7912-1.059zm-7.6769-6.1025c-.48.1401-.48.1402-.48.1403 0 0 .0001.0001.0001.0002 0 .0002.0001.0003.0002.0006.0001.0004.0002.0009.0004.0015.0004.0012.0008.0028.0014.0048.0012.0038.0028.0092.0048.0158.0041.0133.0099.032.0174.0556.0151.047.0372.1133.066.1939.0574.1607.1429.3814.2552.6206.2126.4527.5664 1.0723 1.0803 1.4108l.5501-.8351c-.2656-.175-.5222-.5686-.7252-1.0008-.0955-.2032-.1691-.393-.2188-.532-.0247-.0692-.0432-.1251-.0553-.1629-.0061-.0188-.0105-.0331-.0133-.0422-.0014-.0046-.0024-.0078-.0029-.0097-.0003-.0009-.0005-.0015-.0006-.0018 0-.0001 0-.0001 0-.0001 0 .0001 0 .0001.0001.0002v.0001c0 .0001 0 .0002-.4799.1402zm-7.9358 1.5872-6.731 3.6584.4776.8786 6.731-3.6584zm-6.7672 3.6802c-.3761.2477-.6317.6653-.7912 1.059-.1634.4034-.2564.8562-.2564 1.2514h1c0-.2537.0631-.5792.1833-.8759.1241-.3064.2798-.5108.4143-.5994zm8.2269-5.2674c-.4799-.14-.4799-.1401-.4799-.1402v-.0001c.0001-.0001.0001-.0001.0001-.0002v.0001c-.0001.0003-.0003.0009-.0006.0018-.0005.0019-.0015.0051-.0029.0097-.0028.0091-.0072.0234-.0132.0422-.0122.0378-.0307.0937-.0554.1629-.0497.139-.1233.3288-.2188.532-.203.4322-.4597.8258-.7252 1.0008l.55.8351c.514-.3385.8678-.9581 1.0804-1.4108.1123-.2392.1978-.4599.2552-.6206.0289-.0806.0509-.1469.066-.1939.0075-.0236.0133-.0423.0174-.0556.002-.0066.0036-.012.0048-.0158.0006-.002.001-.0036.0014-.0048.0002-.0006.0003-.0011.0004-.0015.0001-.0003.0002-.0004.0002-.0006 0-.0001.0001-.0002.0001-.0002 0-.0001 0-.0002-.48-.1403zm8.9523-6.6341c.4948.072.4948.0719.4948.0719v-.0001c0-.0001.0001-.0001.0001-.0002 0-.0002 0-.0004.0001-.0006 0-.0005.0001-.0011.0002-.0018.0002-.0014.0005-.0033.0008-.0057.0007-.0048.0016-.0115.0028-.0201.0023-.0173.0055-.042.0094-.0738.0078-.0636.0184-.1556.0297-.2723.0227-.2331.0488-.5656.0629-.9679l-.9994-.035c-.0133.3788-.0378.6904-.0588.906-.0104.1078-.0201.1914-.0269.2472-.0034.028-.0062.0489-.008.0625-.0009.0068-.0016.0117-.002.0147-.0002.0015-.0004.0026-.0005.0031v.0005s0 0 0-.0001c0 0 0 0 0-.0001 0-.0001 0-.0001.4948.0718zm-11.4285 0c.4948-.0719.4948-.0719.4948-.0718v.0001.0001c0-.0001 0-.0002 0-.0005-.0001-.0005-.0003-.0016-.0005-.0031-.0004-.003-.0011-.0079-.002-.0147-.0018-.0136-.0046-.0345-.008-.0625-.0069-.0558-.0165-.1394-.027-.2472-.0209-.2156-.0454-.5272-.0587-.906l-.9994.035c.0141.4023.0402.7348.0629.9679.0113.1167.0219.2086.0297.2723.0039.0318.0071.0565.0094.0738.0012.0086.0021.0153.0028.0201.0003.0024.0006.0043.0008.0057.0001.0007.0002.0013.0002.0018.0001.0002.0001.0004.0001.0006 0 .0001 0 .0001.0001.0002v.0001s0 .0001.4948-.0719zm9.8584 8.2722c-1.6382 1.3275-2.8408 1.9287-4.0216 1.9389-1.1844.0102-2.4713-.5731-4.2787-1.9484l-.6056.7958c1.847 1.4054 3.361 2.1657 4.8929 2.1525 1.5355-.0132 2.9647-.8022 4.6426-2.1619zm-40.1442-6.2478c0 4.1421 3.3579 7.5 7.5 7.5v-1c-3.5898 0-6.5-2.9101-6.5-6.5zm7.5 7.5c4.1422 0 7.5-3.3579 7.5-7.5h-1c0 3.5899-2.9101 6.5-6.5 6.5zm7.5-7.5c0-4.14213-3.3578-7.5-7.5-7.5v1c3.5899 0 6.5 2.9102 6.5 6.5zm-7.5-7.5c-4.1421 0-7.5 3.35787-7.5 7.5h1c0-3.5898 2.9102-6.5 6.5-6.5zm4.5 30.5c0 3.0376 2.4625 5.5 5.5 5.5v-1c-2.4852 0-4.5-2.0147-4.5-4.5zm5.5 5.5c3.0376 0 5.5-2.4624 5.5-5.5h-1c0 2.4853-2.0147 4.5-4.5 4.5zm5.5-5.5c0-3.0376-2.4624-5.5-5.5-5.5v1c2.4853 0 4.5 2.0147 4.5 4.5zm-5.5-5.5c-3.0375 0-5.5 2.4624-5.5 5.5h1c0-2.4853 2.0148-4.5 4.5-4.5zm24.5 48.5c0 3.0376 2.4625 5.5 5.5 5.5v-1c-2.4852 0-4.5-2.0147-4.5-4.5zm5.5 5.5c3.0376 0 5.5-2.4624 5.5-5.5h-1c0 2.4853-2.0147 4.5-4.5 4.5zm5.5-5.5c0-3.0376-2.4624-5.5-5.5-5.5v1c2.4853 0 4.5 2.0147 4.5 4.5zm-5.5-5.5c-3.0375 0-5.5 2.4624-5.5 5.5h1c0-2.4853 2.0148-4.5 4.5-4.5zm-42.5 14.5c0 4.1421 3.3579 7.5 7.5 7.5v-1c-3.5898 0-6.5-2.9101-6.5-6.5zm7.5 7.5c4.1422 0 7.5-3.3579 7.5-7.5h-1c0 3.5899-2.9101 6.5-6.5 6.5zm7.5-7.5c0-4.1421-3.3578-7.5-7.5-7.5v1c3.5899 0 6.5 2.9102 6.5 6.5zm-7.5-7.5c-4.1421 0-7.5 3.3579-7.5 7.5h1c0-3.5898 2.9102-6.5 6.5-6.5zm33.8332-43.0028-4.5596 1.6144.3337.9426 4.5596-1.6143zm-5.2058 1.0008.0206-.0695-.9587-.2845-.0206.0695zm-1.9181-1.9102-4.5596 1.6144.3338.9426 4.5596-1.6144zm1.9387 1.8407c.3488-1.1752-.783-2.2499-1.9387-1.8407l.3338.9426c.3852-.1364.7625.2219.6462.6136zm.6256.6831c-.3852.1364-.7625-.2218-.6462-.6136l-.9587-.2845c-.3488 1.1752.783 2.2499 1.9386 1.8407zm-19.4777 43.078 2.7318 1.2221.4084-.9128-2.7319-1.2221zm4.1971-.2776-.0124-.0526-.9735.2287.0124.0525zm.071-.4108 2.7319 1.222.4083-.9128-2.7318-1.2221zm-.0834.3582c-.0349-.1488.0097-.2706.0592-.3299.0236-.0283.0387-.0318.0349-.0306-.0096.0028-.0174-.0008-.0107.0023l.4084-.9129c-.4791-.2143-.9373-.0151-1.2008.3009-.2571.3086-.3689.7545-.2645 1.1989zm-1.4529 1.5523c.4791.2143.9373.0151 1.2008-.3009.2571-.3086.3689-.7545.2645-1.1988l-.9735.2286c.0349.1488-.0097.2706-.0592.3299-.0236.0283-.0387.0318-.0349.0307.0096-.0029.0174.0007.0107-.0023zm-31.6181-68.0687-1.6616 2.489.8316.5552 1.6617-2.489zm-1.923 2.2302-.0175-.0511-.9458.3248.0175.0511zm-2.0563-.5404-1.6617 2.4891.8317.5552 1.6616-2.489zm2.0388.4893c-.1483-.4317-.4803-.7497-.8622-.8739-.3913-.1273-.8852-.0519-1.1766.3846l.8316.5553c.0042-.0062-.0006.001-.0102.0037-.0038.0011.0109-.004.0459.0074.0734.0238.1761.1032.2257.2477zm.2789.3099c-.0042.0062.0006-.001.0102-.0037.0038-.0011-.0109.004-.0459-.0074-.0734-.0239-.1761-.1032-.2257-.2477l-.9458.3248c.1483.4317.4803.7497.8622.8739.3913.1272.8852.0518 1.1766-.3847zm5.9775 38.7723 2.9812.2632.0879-.9961-2.9811-.2632zm2.8795.6167-.0364.0399.7389.6739.0364-.0399zm.5129 2.0634 2.9811.2633.088-.9962-2.9811-.2632zm-.5493-2.0235c-.3076.3373-.4272.7812-.3528 1.1759.0761.4043.3793.8015.9021.8476l.088-.9961c-.0074-.0007.0012.0001.0081.0072.0028.0028-.0087-.0076-.0155-.0438-.0143-.0759.006-.204.109-.3169zm.1381-.3934c.0073.0007-.0013 0-.0082-.0071-.0028-.0029.0087.0075.0155.0437.0143.0759-.006.204-.109.3169l.7389.6739c.3076-.3373.4272-.7811.3529-1.1758-.0762-.4044-.3794-.8015-.9022-.8477zm-43.706553-22.8675c0 9.1127 7.387303 16.5 16.499953 16.5v-1c-8.56037 0-15.49995-6.9395-15.49995-15.5zm16.499953 16.5c9.1127 0 16.5-7.3873 16.5-16.5h-1c0 8.5605-6.9395 15.5-15.5 15.5zm16.5-16.5c0-9.1127-7.3873-16.5-16.5-16.5v1c8.5605 0 15.5 6.9396 15.5 15.5zm-16.5-16.5c-9.11265 0-16.499953 7.3873-16.499953 16.5h1.000003c0-8.5604 6.93958-15.5 15.49995-15.5zm-11.49995 57.0001c0 5.5228 4.47715 10 9.99995 10v-1c-4.9705 0-8.99995-4.0295-8.99995-9zm9.99995 10c5.5229 0 10-4.4772 10-10h-1c0 4.9705-4.0294 9-9 9zm-6.84213-17.2928c-1.94303 1.8236-3.15782 4.4167-3.15782 7.2928h1c0-2.5885 1.09213-4.9212 2.84217-6.5637zm16.84213 7.2928c0-.1764-.0045-.3517-.0136-.5259l-.9986.0518c.0081.1569.0122.315.0122.4741zm21.398-10.5001h-19.398v1h19.398zm.602 1.602v6.398h1v-6.398zm-1.5 7.898h-20.5v1h20.5zm-20.5 0c-13.531 0-24.500001-10.969-24.5-24.5h-1c-.0000006 14.0832 11.4167 25.5 25.5 25.5zm22-1.5c0 .8284-.6716 1.5-1.5 1.5v1c1.3807 0 2.5-1.1193 2.5-2.5zm-.602-7c.3325 0 .602.2695.602.602h1c0-.8848-.7173-1.602-1.602-1.602zm-19.398-1c-8.7315 0-15.9261-6.5832-16.8902-15.0565l-.99356.113c1.02086 8.9729 8.63796 15.9435 17.88376 15.9435zm-27-14.5h9.613v-1h-9.613zm51.9999 9.5c0 9.1127 7.3873 16.5 16.5 16.5v-1c-8.5604 0-15.5-6.9396-15.5-15.5zm16.5 16.5c9.1127 0 16.5-7.3873 16.5-16.5h-1c0 8.5604-6.9396 15.5-15.5 15.5zm16.5-16.5c0-9.1127-7.3873-16.5-16.5-16.5v1c8.5604 0 15.5 6.9395 15.5 15.5zm-16.5-16.5c-9.1127 0-16.5 7.3873-16.5 16.5h1c0-8.5605 6.9396-15.5 15.5-15.5zm4.5606 16.31c-.184.5964-.6431 1.5189-1.4063 2.2845-.7548.7573-1.7907 1.3471-3.1543 1.3471v1c1.684 0 2.9625-.7382 3.8625-1.6411.8917-.8944 1.428-1.9641 1.6537-2.6958zm.4778.6474c.6472 0 1.14-.3235 1.4643-.7637.3152-.4278.4797-.9707.5239-1.4866.044-.514-.0265-1.0592-.2444-1.4978-.2233-.4493-.6377-.8377-1.2523-.8377v1c.1228 0 .246.0597.3568.2827.1162.2338.1763.5851.1435.9675-.0326.3806-.1523.7341-.3325.9787-.1711.2321-.3848.3569-.6593.3569zm-10.5546-.3527c.2567.8323.9198 2.1141 2.0616 3.0703l.6421-.7667c-.9666-.8094-1.5367-1.9128-1.7481-2.5983zm2.0616 3.0703c.8662.7254 2.0135 1.2666 3.4546 1.2666v-1c-1.1712 0-2.0974-.4345-2.8125-1.0333zm-1.5838-3.7176c-.2745 0-.4882-.1248-.6593-.3569-.1802-.2446-.2999-.5981-.3325-.9787-.0328-.3824.0273-.7337.1435-.9675.1108-.223.234-.2827.3568-.2827v-1c-.6146 0-1.029.3884-1.2523.8377-.2179.4386-.2884.9838-.2444 1.4978.0442.5159.2087 1.0588.5239 1.4866.3243.4402.8171.7637 1.4643.7637zm9.1147 5.7347 6.5139 3.5404.4775-.8787-6.5138-3.5404zm6.4776 3.5186c.3438.2264.5711.6462.5711 1.1183h1c0-.7838-.3764-1.5288-1.021-1.9534zm-7.4203-5.9191c-.48.1401-.48.1402-.48.1403 0 0 .0001.0001.0001.0002 0 .0002.0001.0003.0002.0006.0001.0004.0002.0009.0004.0015.0004.0012.0008.0027.0014.0046.0011.0038.0027.009.0046.0155.004.0129.0097.0311.017.0539.0146.0457.036.11.064.1883.0557.1558.1386.3698.2476.6019.2059.4384.5498 1.0417 1.0512 1.3719l.55-.8351c-.253-.1666-.4998-.5439-.6961-.9619-.0921-.1961-.1631-.3792-.2111-.5134-.0238-.0668-.0417-.1207-.0534-.1571-.0058-.0182-.0101-.0319-.0128-.0407-.0013-.0043-.0022-.0075-.0028-.0092-.0002-.0009-.0004-.0015-.0005-.0017 0-.0001 0-.0001 0-.0001 0 .0001 0 .0001.0001.0002v.0001c0 .0001 0 .0002-.4799.1402zm-7.6875 1.5218-6.5138 3.5404.4775.8787 6.5139-3.5404zm-6.5501 3.5622c-.6446.4246-1.021 1.1696-1.021 1.9534h1c0-.4721.2273-.8919.571-1.1183zm7.9704-5.084c-.4799-.14-.4799-.1401-.4799-.1402v-.0001c.0001-.0001.0001-.0001.0001-.0002v.0001c-.0001.0002-.0003.0008-.0005.0017-.0006.0017-.0015.0049-.0028.0092-.0027.0088-.007.0225-.0128.0407-.0117.0364-.0295.0903-.0534.1571-.048.1342-.119.3173-.2111.5134-.1963.418-.4431.7953-.6961.9619l.55.8351c.5014-.3302.8453-.9335 1.0512-1.3719.109-.2321.1919-.4461.2476-.6019.028-.0783.0494-.1426.064-.1883.0073-.0228.013-.041.017-.0539.0019-.0065.0035-.0117.0046-.0155.0006-.0019.001-.0034.0014-.0046.0002-.0006.0003-.0011.0004-.0015.0001-.0003.0002-.0004.0002-.0006 0-.0001.0001-.0002.0001-.0002 0-.0001 0-.0002-.48-.1403zm8.6635-6.42c.4948.0719.4948.0719.4948.0718 0 0 .0001-.0001.0001-.0001 0-.0001 0-.0001 0-.0002 0-.0002 0-.0004.0001-.0006 0-.0005.0001-.001.0002-.0017.0002-.0014.0005-.0033.0008-.0056.0007-.0047.0016-.0112.0027-.0196.0022-.0167.0054-.0407.0092-.0716.0075-.0617.0178-.1508.0288-.2638.022-.226.0472-.548.0608-.9377l-.9994-.035c-.0128.3662-.0364.6674-.0567.8758-.0102.1041-.0194.1849-.0261.2388-.0033.027-.0059.0472-.0077.0603-.0009.0065-.0015.0112-.0019.0141-.0002.0015-.0004.0025-.0005.003v.0004s0 0 0-.0001c0 0 0 0 0-.0001 0-.0001 0-.0001.4948.0719zm-11.0598 0c.4948-.072.4948-.072.4948-.0719v.0001.0001s0-.0002-.0001-.0004c0-.0005-.0002-.0015-.0004-.003-.0004-.0029-.001-.0076-.0019-.0141-.0018-.0131-.0044-.0333-.0077-.0603-.0066-.0539-.0159-.1347-.0261-.2388-.0203-.2084-.0439-.5096-.0567-.8758l-.9994.035c.0136.3897.0388.7117.0608.9377.011.113.0213.2021.0288.2638.0038.0309.007.0549.0092.0716.0011.0084.002.0149.0027.0196.0003.0023.0006.0042.0008.0056.0001.0007.0002.0012.0002.0017.0001.0002.0001.0004.0001.0006v.0002s.0001.0001.0001.0001c0 .0001 0 .0001.4948-.0718zm9.5302 7.9927c-1.5847 1.2842-2.7448 1.863-3.8818 1.8728-1.1406.0098-2.3824-.5518-4.1308-1.8823l-.6056.7959c1.7881 1.3605 3.2569 2.0991 4.745 2.0863 1.4916-.0128 2.8784-.7794 4.5028-2.0958z" fill="#fff"/><path d="m27.5 34.5h19.398c.6086 0 1.102-.4934 1.102-1.102v-6.398c0-1.1046-.8954-2-2-2h-20.5c-13.8071 0-25 11.1929-25.000001 25h9.500001c0-9.665 7.835-15.5 17.5-15.5z" fill="#44dbae" stroke="#44dbae" stroke-linecap="round" stroke-linejoin="round"/><g fill="#fff"><path d="m80.5499 12.1251c0 .4281.347.775.775.775s.775-.3469.775-.775c0-.428-.347-.775-.775-.775s-.775.347-.775.775z"/><path d="m75.8998 12.1251c0 .4281.3469.775.775.775.428 0 .775-.3469.775-.775 0-.428-.347-.775-.775-.775-.4281 0-.775.347-.775.775z"/><path d="m70.5 57c0 .4143.3358.75.75.75.4143 0 .75-.3357.75-.75 0-.4142-.3357-.75-.75-.75-.4142 0-.75.3358-.75.75z"/><path d="m66 57c0 .4143.3358.75.75.75.4143 0 .75-.3357.75-.75 0-.4142-.3357-.75-.75-.75-.4142 0-.75.3358-.75.75z"/><path d="m23 11c0 .5523.4477 1 1 1s1-.4477 1-1-.4477-1-1-1-1 .4477-1 1z"/><path d="m37 84c0 .5523.4477 1 1 1s1-.4477 1-1-.4477-1-1-1-1 .4477-1 1z"/></g><path d="m72.4518 11.6073-.0429.0053m.0429-.0053-.0429.0053m.0429-.0053c.5755-.0714 1.0999.3372 1.1713.9127l.2863 2.3073c.0714.5755-.3372 1.0999-.9127 1.1713m-.5449-4.3913.5449 4.3913m-.5878-4.386c-.5755.0714-.9841.5958-.9127 1.1713l.2863 2.3073c.0714.5755.5959.9841 1.1714.9127l.0428-.0053m-.5878-4.386.5878 4.386m13.6517-4.386c.5755.0714.9841.5958.9127 1.1713l-.2864 2.3073c-.0714.5755-.5958.9841-1.1713.9127l-.0429-.0053c-.5755-.0714-.9841-.5958-.9127-1.1713l.2864-2.3073c.0714-.5755.5958-.9841 1.1713-.9127zm-4.8708 9.1623c-.1519 0-.275-.1231-.275-.275s.1231-.275.275-.275.275.1231.275.275-.1231.275-.275.275z" fill="#44dbae" stroke="#44dbae"/></svg>