<svg fill="none" height="96" viewBox="0 0 97 96" width="97" xmlns="http://www.w3.org/2000/svg"><path d="m10.7937 79.181.4778-.1474c-.0647-.2096-.2585-.3526-.4778-.3526zm-.508-3.7054v.5c.1452 0 .2832-.0631.3782-.1728.0949-.1098.1375-.2555.1166-.3991zm10.9206 3.7054v-.5c-.2193 0-.4131.143-.4778.3526zm.508-3.7054-.4948-.0719c-.0209.1436.0217.2893.1166.3991.095.1097.233.1728.3782.1728zm-16.90425 12.319-.23876-.4393-.01859.0101-.01767.0117zm22.37985 0 .2751-.4175-.0177-.0117-.0186-.0101zm-16.5055-13.6246c-.0097-.276-.2413-.4919-.5172-.4822-.276.0097-.49189.2412-.48223.5172zm11.6306.035c.0097-.276-.2062-.5075-.4822-.5172-.2759-.0097-.5075.2062-.5172.4822zm62.9512-48.524v-.5c-.2194 0-.4132.143-.4778.3526zm.5079-3.7054-.4948-.0719c-.0209.1436.0217.2893.1166.3991.095.1097.233.1728.3782.1728zm-10.9206 3.7054.4778-.1474c-.0647-.2096-.2584-.3526-.4778-.3526zm-.5079-3.7054v.5c.1451 0 .2831-.0631.3781-.1728.095-.1098.1375-.2555.1167-.3991zm16.9042 12.319.275-.4175-.0177-.0117-.0186-.0101zm-22.3799 0-.2388-.4393-.0186.0101-.0176.0117zm17.505-13.5896c.0096-.276-.2063-.5075-.4822-.5172-.276-.0097-.5076.2062-.5172.4822zm-11.6307-.035c-.0097-.276-.2412-.4919-.5172-.4822s-.4919.2412-.4822.5172zm-26.9212 47.4717c-.2762 0-.5.2239-.5.5 0 .2762.2238.5.5.5zm39.1905 1c.2762 0 .5-.2238.5-.5 0-.2761-.2238-.5-.5-.5zm-39.1905 5.0377c-.2762 0-.5.2239-.5.5s.2238.5.5.5zm33.0021 1c.2761 0 .5-.2239.5-.5s-.2239-.5-.5-.5zm-33.0021 5.0377c-.2762 0-.5.2238-.5.5 0 .2761.2238.5.5.5zm36.5288 1c.2762 0 .5-.2239.5-.5 0-.2762-.2238-.5-.5-.5zm-36.5288 5.0377c-.2762 0-.5.2238-.5.5 0 .2761.2238.5.5.5zm28.9715 1c.2761 0 .5-.2239.5-.5 0-.2762-.2239-.5-.5-.5zm-39.3204 3.5284.237.4402zm56.5259-28.7832v.5zm-54 .0003v-.5zm-7.4523 31.4355-.2371-.4402zm23.5121-92.935583v.500003zm-53.55972-.000217-.00001.5zm45.81132 27.9155c.2761 0 .5-.2238.5-.5 0-.2761-.2239-.5-.5-.5zm-38.89309-1c-.27614 0-.5.2239-.5.5 0 .2762.22386.5.5.5zm32.08169 5.9841c.2761 0 .5-.2239.5-.5 0-.2762-.2239-.5-.5-.5zm-32.08169-1c-.27614 0-.5.2238-.5.5 0 .2761.22386.5.5.5zm24.58169 5.9841c.2761 0 .5-.2239.5-.5 0-.2762-.2239-.5-.5-.5zm-24.58169-1c-.27614 0-.5.2238-.5.5 0 .2761.22386.5.5.5zm35.08169 5.984c.2761 0 .5-.2238.5-.5 0-.2761-.2239-.5-.5-.5zm-35.08169-1c-.27614 0-.5.2239-.5.5 0 .2762.22386.5.5.5zm21.58169 37.6323c0 8.2843-6.7157 15-15 15v1c8.8366 0 16-7.1635 16-16zm-15 15c-8.28427 0-15-6.7157-15-15h-1c0 8.8365 7.16344 16 16 16zm-15-15c0-8.2843 6.71573-15 15-15v-1c-8.83656 0-16 7.1634-16 16zm15-15c8.2843 0 15 6.7157 15 15h1c0-8.8366-7.1634-16-16-16zm-5.6841 14.3284c.2325.7538.7854 1.8566 1.7046 2.7787.9276.9306 2.2447 1.6909 3.9795 1.6909v-1c-1.4144 0-2.4888-.6119-3.2713-1.3969-.7908-.7932-1.2665-1.7489-1.4572-2.3675zm.4778-.6474c-.2899 0-.5154-.1322-.6947-.3756-.18846-.2557-.31293-.6242-.34682-1.0198-.03404-.3973.02823-.7635.14998-1.0085.11634-.2342.24854-.3015.38354-.3015v-1c-.62684 0-1.05022.3959-1.27907.8565-.22348.4497-.29612 1.0099-.2508 1.5389.04548.5308.21466 1.0886.5381 1.5276.33261.4514.83717.7824 1.49977.7824zm9.9348.3526c-.2192.7108-.8098 1.8539-1.8115 2.6928l.642.7666c1.177-.9856 1.8606-2.3071 2.1251-3.1646zm-1.8115 2.6928c-.7415.6209-1.7023 1.0716-2.917 1.0716v1c1.4846 0 2.6665-.5575 3.559-1.305zm2.2893-2.0454c.6626 0 1.1672-.331 1.4998-.7824.3234-.439.4926-.9968.5381-1.5276.0453-.529-.0273-1.0892-.2508-1.5389-.2289-.4606-.6523-.8565-1.2791-.8565v1c.135 0 .2672.0673.3835.3015.1218.245.1841.6112.15 1.0085-.0339.3956-.1583.7641-.3468 1.0198-.1793.2434-.4048.3756-.6947.3756zm-9.904 4.0159-6.73101 3.6584.47753.8786 6.73098-3.6584zm-6.76727 3.6802c-.37611.2477-.63167.6653-.79117 1.059-.16343.4034-.25636.8561-.25636 1.2514h1c0-.2537.06302-.5793.1832-.8759.12412-.3064.27984-.5108.41438-.5994zm8.22697-5.2674c-.48-.14-.48-.1401-.4799-.1402v-.0001c0-.0001 0-.0001 0-.0002.0001 0 0 0 0 .0001-.0001.0003-.0002.0009-.0005.0018-.0006.0019-.0016.0051-.0029.0097-.0028.0091-.0072.0233-.0133.0422-.0121.0378-.0307.0937-.0554.1629-.0497.139-.1233.3288-.2187.532-.203.4322-.4597.8258-.7253 1.0007l.5501.8352c.5139-.3385.8677-.9581 1.0803-1.4108.1124-.2393.1978-.4599.2553-.6206.0288-.0806.0508-.147.0659-.194.0076-.0235.0134-.0422.0174-.0555.0021-.0067.0037-.012.0048-.0159.0006-.0019.0011-.0035.0014-.0047.0002-.0006.0004-.0011.0005-.0016.0001-.0002.0001-.0004.0002-.0005 0-.0001 0-.0002 0-.0003.0001-.0001.0001-.0002-.4799-.1402zm7.4582 2.4658 6.731 3.6584.4775-.8786-6.731-3.6584zm6.6947 3.6367c.1346.0886.2903.293.4144.5994.1202.2966.1832.6222.1832.8759h1c0-.3953-.0929-.848-.2564-1.2514-.1595-.3937-.415-.8113-.7911-1.059zm-7.6769-6.1025c-.48.14-.48.1401-.4799.1402v.0003c.0001.0001.0001.0003.0002.0005.0001.0005.0003.001.0005.0016.0003.0012.0008.0028.0014.0047.0011.0039.0027.0092.0048.0159.004.0133.0098.032.0174.0555.0151.047.0371.1134.0659.194.0575.1607.1429.3813.2553.6206.2126.4527.5664 1.0723 1.0803 1.4108l.5501-.8352c-.2656-.1749-.5223-.5685-.7253-1.0007-.0954-.2032-.169-.393-.2187-.532-.0247-.0692-.0433-.1251-.0554-.1629-.0061-.0189-.0105-.0331-.0133-.0422-.0014-.0046-.0023-.0078-.0029-.0097-.0003-.0009-.0004-.0015-.0005-.0018 0-.0001-.0001-.0001 0-.0001v.0002.0001c.0001.0001.0001.0002-.4799.1402zm-8.9523-6.6341c.4948-.0719.4948-.0719.4948-.0718h.0001v.0001.0001c0-.0001-.0001-.0002-.0001-.0005-.0001-.0005-.0002-.0016-.0004-.0031-.0004-.003-.0011-.0079-.002-.0147-.0019-.0136-.0046-.0345-.008-.0625-.0069-.0558-.0165-.1394-.027-.2472-.021-.2156-.0455-.5272-.0587-.906l-.99943.035c.01409.4023.04014.7348.06284.9679.01136.1167.0219.2086.02971.2723.00391.0318.00714.0565.00946.0737.00115.0087.00208.0154.00275.0202.00034.0024.00061.0043.00081.0057.0001.0007.00019.0013.00025.0018.00004.0002.00007.0004.00009.0006.00001 0 .00002.0001.00003.0002.00001 0 .00002.0001.00002.0001.00001 0 .00001.0001.49477-.0719zm11.4286 0c.4948.072.4948.0719.4948.0719v-.0001c0-.0001 0-.0002 0-.0002 0-.0002.0001-.0004.0001-.0006.0001-.0005.0002-.0011.0003-.0018.0002-.0014.0004-.0033.0008-.0057.0006-.0048.0016-.0115.0027-.0202.0023-.0172.0056-.0419.0095-.0737.0078-.0637.0183-.1556.0297-.2723.0227-.2331.0487-.5656.0628-.9679l-.9994-.035c-.0132.3788-.0377.6904-.0587.906-.0105.1078-.0201.1914-.027.2472-.0034.028-.0061.0489-.008.0625-.0009.0068-.0016.0117-.002.0147-.0002.0015-.0003.0026-.0004.0031 0 .0003-.0001.0004-.0001.0005 0 0 0 0 0-.0001 0 0 0 0 0-.0001h.0001c0-.0001 0-.0001.4948.0718zm-10.488 9.0491c1.6779 1.3596 3.1071 2.1487 4.6425 2.1619 1.532.0132 3.0459-.7471 4.8929-2.1525l-.6055-.7958c-1.8074 1.3753-3.0944 1.9585-4.2788 1.9484-1.1808-.0102-2.3833-.6114-4.0215-1.939zm52.8335-58.0247c0 8.8365 7.1635 16 16 16v-1c-8.2842 0-15-6.7157-15-15zm16 16c8.8366 0 16-7.1635 16-16h-1c0 8.2843-6.7157 15-15 15zm16-16c0-8.8366-7.1634-16-16-16v1c8.2843 0 15 6.7157 15 15zm-16-16c-8.8365 0-16 7.1634-16 16h1c0-8.2843 6.7158-15 15-15zm4.7286 15.0336c-.1908.6186-.6665 1.5743-1.4573 2.3676-.7824.7849-1.8569 1.3968-3.2713 1.3968v1c1.7348 0 3.0519-.7603 3.9795-1.6909.9193-.9221 1.4721-2.0249 1.7046-2.7787zm.4778.6474c.6625 0 1.1671-.331 1.4997-.7824.3234-.439.4926-.9968.5381-1.5276.0453-.529-.0273-1.0892-.2508-1.5389-.2289-.4606-.6522-.8565-1.2791-.8565v1c.135 0 .2672.0673.3836.3015.1217.245.184.6112.1499 1.0085-.0338.3956-.1583.7641-.3468 1.0198-.1793.2434-.4048.3756-.6946.3756zm-10.8905-.3526c.2645.8575.9482 2.179 2.1251 3.1646l.642-.7666c-1.0016-.8389-1.5923-1.982-1.8115-2.6928zm2.1251 3.1646c.8925.7475 2.0744 1.305 3.559 1.305v-1c-1.2147 0-2.1755-.4507-2.917-1.0716zm-1.6473-3.812c-.2898 0-.5154-.1322-.6947-.3756-.1884-.2557-.3129-.6242-.3468-1.0198-.034-.3973.0282-.7635.15-1.0085.1164-.2342.2485-.3015.3836-.3015v-1c-.6269 0-1.0503.3959-1.2791.8565-.2235.4497-.2962 1.0099-.2508 1.5389.0454.5308.2146 1.0886.5381 1.5276.3326.4514.8372.7824 1.4997.7824zm9.4265 5.8945 6.731 3.6584.4775-.8786-6.731-3.6584zm6.6947 3.6367c.1346.0886.2903.293.4144.5994.1202.2966.1832.6222.1832.8759h1c0-.3953-.0929-.848-.2563-1.2514-.1595-.3937-.4151-.8113-.7912-1.059zm-7.6769-6.1025c-.48.14-.4799.1401-.4799.1402s0 .0002.0001.0003c0 .0001.0001.0003.0001.0005.0002.0005.0003.001.0005.0016.0003.0012.0008.0028.0014.0048.0012.0038.0028.0091.0048.0158.0041.0133.0099.032.0174.0556.0151.0469.0371.1133.0659.1939.0575.1607.143.3813.2553.6206.2126.4527.5664 1.0723 1.0803 1.4108l.5501-.8352c-.2656-.1749-.5223-.5685-.7252-1.0007-.0955-.2032-.1691-.393-.2188-.532-.0247-.0692-.0433-.1251-.0554-.1629-.006-.0188-.0105-.0331-.0132-.0422-.0014-.0046-.0024-.0078-.003-.0097-.0002-.0009-.0004-.0015-.0005-.0018 0-.0001 0-.0001 0-.0001v.0002s.0001.0001.0001.0001c0 .0001 0 .0002-.48.1402zm-7.9357 1.5872-6.731 3.6584.4775.8786 6.7311-3.6584zm-6.7672 3.6802c-.3762.2477-.6317.6653-.7912 1.059-.1634.4034-.2564.8561-.2564 1.2514h1c0-.2537.063-.5793.1832-.8759.1241-.3064.2799-.5108.4144-.5994zm8.2269-5.2674c-.48-.14-.4799-.1401-.4799-.1402v-.0001c0-.0001.0001-.0001.0001-.0002 0 0 0 0-.0001.0001 0 .0003-.0002.0009-.0005.0018-.0005.0019-.0015.0051-.0029.0097-.0028.0091-.0072.0233-.0133.0422-.0121.0378-.0306.0937-.0554.1629-.0497.139-.1233.3288-.2187.532-.203.4322-.4597.8258-.7252 1.0007l.55.8352c.514-.3385.8677-.9581 1.0803-1.4108.1124-.2393.1979-.4599.2553-.6206.0288-.0806.0509-.147.0659-.1939.0076-.0236.0134-.0423.0175-.0556.002-.0067.0036-.012.0048-.0158.0005-.002.001-.0036.0014-.0048.0001-.0006.0003-.0011.0004-.0015.0001-.0003.0001-.0005.0002-.0006 0-.0001 0-.0002.0001-.0003 0-.0001 0-.0001-.48-.1402zm8.9523-6.6341c.4948.072.4948.0719.4948.0719v-.0001c0-.0001 0-.0001 0-.0002.0001-.0002.0001-.0004.0001-.0006.0001-.0005.0002-.0011.0003-.0018.0002-.0014.0005-.0033.0008-.0057.0007-.0048.0016-.0115.0027-.0201.0024-.0173.0056-.042.0095-.0738.0078-.0637.0184-.1556.0297-.2723.0227-.2331.0488-.5656.0629-.9679l-.9994-.035c-.0133.3788-.0378.6904-.0588.906-.0105.1078-.0201.1914-.0269.2472-.0035.028-.0062.0489-.008.0625-.0009.0068-.0016.0117-.002.0147-.0003.0015-.0004.0026-.0005.0031 0 .0003 0 .0004-.0001.0005 0 0 0 0 .0001-.0001 0 0 0 0 0-.0001 0-.0001 0-.0001.4948.0718zm-11.4285 0c.4948-.0719.4948-.0719.4948-.0718v.0001.0001c0-.0001 0-.0002-.0001-.0005 0-.0005-.0002-.0016-.0004-.0031-.0004-.003-.0011-.0079-.002-.0147-.0018-.0136-.0046-.0345-.008-.0625-.0069-.0558-.0165-.1394-.027-.2472-.021-.2156-.0455-.5272-.0587-.906l-.9994.035c.0141.4023.0401.7348.0628.9679.0114.1167.0219.2086.0297.2723.004.0318.0072.0565.0095.0737.0012.0087.0021.0154.0028.0202.0003.0024.0006.0043.0008.0057.0001.0007.0001.0013.0002.0018 0 .0002.0001.0004.0001.0006v.0002.0001c.0001 0 .0001.0001.4949-.0719zm9.8584 8.2721c-1.6382 1.3276-2.8408 1.9288-4.0216 1.939-1.1844.0101-2.4713-.5731-4.2787-1.9484l-.6056.7958c1.847 1.4054 3.361 2.1657 4.8929 2.1525 1.5355-.0132 2.9647-.8023 4.6425-2.1619zm-36.381 38.894h39.1905v-1h-39.1905zm0 6.0377h33.0021v-1h-33.0021zm0 6.0377h36.5288v-1h-36.5288zm0 6.0377h28.9715v-1h-28.9715zm-7.823-24.7545 54-.0003v-1l-54 .0003zm55.5 1.4997v28h1v-28zm-1.5 29.5h-61.3101v1h61.3101zm-61.2153.3761 4.9264-2.6527-.4741-.8805-4.9264 2.6527zm5.7153-3.9734v-25.9024h-1v25.9024zm-.7889 1.3207c.4859-.2616.7889-.7689.7889-1.3207h-1c0 .1839-.101.353-.263.4402zm57.7889.7766c0 .8284-.6716 1.5-1.5 1.5v1c1.3807 0 2.5-1.1193 2.5-2.5zm-1.5-29.5c.8284 0 1.5.6716 1.5 1.5h1c0-1.3807-1.1193-2.5-2.5-2.5zm-54-.9997c-1.3807 0-2.5 1.1193-2.5 2.5h1c0-.8285.6716-1.5 1.5-1.5zm-7.3101 31.9997c.0392 0 .0879.0151.1287.0492.0369.031.0568.0683.0653.1019.0084.0336.0086.0759-.0092.1206-.0197.0494-.0554.0858-.09.1044l-.4741-.8805c-.7317.394-.4518 1.5044.3793 1.5044zm25.8699-44.5845v-46.41528h-1v46.41528zm-2.5-48.91528284-53.55972-.00021716-.00001 1 53.55973.00022zm-56.05973134 2.49978284v46.4155h1.00000134v-46.4155zm2.50000134 48.9155h53.55973v-1h-53.55973zm45.81133-24h-38.89309v1h38.89309zm-6.8114 4.9841h-32.08169v1h32.08169zm-7.5 4.9841h-24.58169v1h24.58169zm10.5 4.984h-35.08169v1h35.08169zm-44.49993134 6.5478c0 1.3807 1.11929134 2.5 2.50000134 2.5v-1c-.82843 0-1.5-.6716-1.5-1.5zm2.50001134-48.9155c-1.38072-.0000056-2.50001134 1.11928-2.50001134 2.5h1.00000134c0-.82843.67158-1.500003 1.5-1.5zm56.05972 2.50022c0-1.38071-1.1193-2.49999724-2.5-2.50000284v1.00000284c.8284 0 1.5.67157 1.5 1.5zm-1 46.41528c0 .8284-.6716 1.5-1.5 1.5v1c1.3807 0 2.5-1.1193 2.5-2.5z" fill="#fff"/><path d="m14.4999 74.0001c4.2156-1.1818 4.7234-2.5935 5.8125-5.0375.4844 2.6856.7749 5.0375 3.0999 5.0375 0 0-.0001-7.3625-7.3625-7.3625-7.36252 0-7.36254 7.75-7.36254 7.75 2.62254-.3371 4.16884-1.3569 5.81264-3.1z" fill="#44dbae"/><path d="m81.5599 20.3625c-4.2155-1.1817-4.7233-2.5935-5.8125-5.0375-.4843 2.6856-.7748 5.0375-3.0998 5.0375 0 0 0-7.3625 7.3625-7.3625s7.3625 7.75 7.3625 7.75c-2.6226-.3371-4.1689-1.3568-5.8127-3.1z" fill="#44dbae"/><path d="m14.4999 74.0001c4.2156-1.1818 4.7234-2.5935 5.8125-5.0375.4844 2.6856.7749 5.0375 3.0999 5.0375 0 0-.0001-7.3625-7.3625-7.3625-7.36252 0-7.36254 7.75-7.36254 7.75 2.62254-.3371 4.16884-1.3569 5.81264-3.1z" stroke="#44dbae" stroke-linecap="round" stroke-linejoin="round"/><path d="m81.5599 20.3625c-4.2155-1.1817-4.7233-2.5935-5.8125-5.0375-.4843 2.6856-.7748 5.0375-3.0998 5.0375 0 0 0-7.3625 7.3625-7.3625s7.3625 7.75 7.3625 7.75c-2.6226-.3371-4.1689-1.3568-5.8127-3.1z" stroke="#44dbae" stroke-linecap="round" stroke-linejoin="round"/><path d="m9 74.8501v-.775c0-3.8522 2.325-6.975 6.975-6.975s6.975 3.1228 6.975 6.975v1.55m-14.44976 1.3998c0 3.8522 2.08186 6.975 4.64996 6.975" stroke="#fff"/><path d="m14.05 75.6252c0 .1518-.1231.275-.275.275s-.275-.1232-.275-.275c0-.1519.1231-.275.275-.275s.275.1231.275.275zm4.6501 0c0 .1518-.1231.275-.275.275-.1518 0-.275-.1232-.275-.275 0-.1519.1232-.275.275-.275.1519 0 .275.1231.275.275zm63.5249-53.075c-.1519 0-.275-.1231-.275-.275 0-.1518.1231-.275.275-.275s.275.1232.275.275c0 .1519-.1231.275-.275.275zm-4.65 0c-.1519 0-.275-.1231-.275-.275 0-.1518.1231-.275.275-.275s.275.1232.275.275c0 .1519-.1231.275-.275.275z" fill="#fff" stroke="#fff"/><g fill="#44dbae"><path d="m24.5001 76.3455c.1054-.8495-.4978-1.6237-1.3473-1.7291l-.0429-.0053c-.8495-.1055-1.6236.4978-1.7291 1.3473l-.2863 2.3073c-.1054.8495.4978 1.6237 1.3473 1.7291l.0429.0053c.8495.1054 1.6237-.4978 1.7291-1.3473z"/><path d="m7.44287 76.3455c-.10543-.8495.49778-1.6237 1.3473-1.7291l.04289-.0053c.84952-.1055 1.62364.4978 1.72914 1.3473l.2863 2.3073c.1054.8495-.4978 1.6237-1.34732 1.7291l-.04288.0053c-.84952.1054-1.62367-.4978-1.72909-1.3473z"/><path d="m14.4975 83.9999c0 .428-.347.775-.775.775s-.775-.347-.775-.775c0-.4281.347-.775.775-.775s.775.3469.775.775z"/><path d="m9 8c0-1.10457.89543-2 2-2h38c1.1046 0 2 .89543 2 2v13c0 1.1046-.8954 2-2 2h-38c-1.10457 0-2-.8954-2-2z"/><path d="m47.2843 41.9577c-.154 0-.2808-.1251-.2674-.2785.0163-.1868.0502-.3438.1018-.4709.0755-.1859.2131-.3685.4129-.5477.202-.1814.3363-.3282.4029-.4402.0666-.1142.0999-.2341.0999-.3595 0-.3786-.1731-.5679-.5194-.5679-.1643 0-.2964.0515-.3963.1546-.0288.0297-.0535.0629-.0742.0994-.0914.1614-.2269.3206-.4124.3206-.348 0-.6514-.2981-.5079-.6152.0676-.1492.1627-.279.2853-.3895.2708-.2419.6393-.3629 1.1055-.3629.4706 0 .8357.1154 1.0954.3461.2597.2285.3896.5522.3896.9711 0 .1904-.0422.3707-.1265.541-.0844.168-.232.3551-.4429.5611l-.2697.2588c-.1687.1635-.2652.3551-.2897.5746-.0075.1153-.1031.205-.2187.205zm-.3753 1.0315c0-.15.0499-.2733.1498-.3696.1021-.0985.232-.1478.3896-.1478s.2863.0493.3862.1478c.1021.0963.1532.2196.1532.3696 0 .1479-.05.27-.1499.3663-.0976.0963-.2275.1445-.3895.1445-.1621 0-.293-.0482-.3929-.1445-.0977-.0963-.1465-.2184-.1465-.3663z"/></g></svg>