<svg fill="none" height="97" viewBox="0 0 97 97" width="97" xmlns="http://www.w3.org/2000/svg"><g fill="#44dbae"><path d="m78.4316 62.584c4.4104 0 7.9857 3.5753 7.9857 7.9857 0 3.8735-2.7579 7.1029-6.4173 7.8316v-5.4012c0-.5-.5-1.5-1-1.5-.4 0-2.1666 1-3 1.5h-5.1774c-.2446-.7664-.3766-1.583-.3766-2.4304 0-4.4104 3.5753-7.9857 7.9856-7.9857z"/><path d="m28.9953 3.50488v2.99527c0 .27614.2239.5.5.5s.5-.22386.5-.5v-2.99527c4.3713.08244 8.4787 1.24368 12.067 3.22861l-1.5 2.59808c-.1381.23914-.0562.54494.183.68303.2391.138.5449.0561.683-.18303l1.4995-2.59727c3.612 2.18368 6.6497 5.2214 8.8334 8.8333l-2.5973 1.4996c-.2392.1381-.3211.4439-.183.683.138.2392.4438.3211.683.183l2.5981-1.5-.4771-.8263c2.2752 3.7784 3.6169 8.1825 3.7057 12.8933h-2.9953c-.2761 0-.5.2238-.5.5 0 .2761.2239.5.5.5h2.9953c-.0888 4.7115-1.431 9.1164-3.7069 12.8953l.4782-.8284-2.5981-1.5c-.2391-.138-.5449-.0561-.683.183-.1381.2392-.0561.545.183.6831l2.5974 1.4995c-2.1837 3.612-5.2215 6.6497-8.8334 8.8334l-1.4996-2.5974c-.138-.2391-.4438-.321-.683-.183-.2391.1381-.321.4439-.183.683l1.5 2.5981.8269-.4774c-3.7785 2.2754-8.1829 3.6172-12.8938 3.7061v-2.9954c0-.2761-.2239-.5-.5-.5-.2762 0-.5.2239-.5.5v2.9954c-4.3713-.0825-8.4787-1.2437-12.067-3.2287l1.5-2.5981c.1381-.2391.0561-.5449-.183-.683-.2392-.1381-.545-.0561-.683.183l-1.4995 2.5973c-3.6119-2.1837-6.64962-5.2214-8.83328-8.8333l2.59719-1.4995c.23919-.138.32109-.4438.18299-.683-.13805-.2391-.44384-.3211-.68299-.183l-2.598 1.5c-1.98495-3.5884-3.14621-7.6957-3.22865-12.067h2.99523c.27615 0 .5-.2239.5-.5 0-.2762-.22385-.5-.5-.5h-2.99523c.08245-4.3713 1.2437-8.4787 3.22863-12.067l2.59796 1.5c.23915.138.54494.0561.68305-.1831.138-.2391.0561-.5449-.18305-.683l-2.59716-1.4994c2.18366-3.6119 5.22131-6.64964 8.83321-8.83332l1.4995 2.59719c.1381.23913.4439.32113.683.18303.2392-.13809.3211-.44388.183-.68303l-1.4999-2.598c3.5883-1.98496 7.6957-3.14623 12.067-3.22869z"/><path d="m16.1086 7.2067c.2687-.16167.5405-.31861.8153-.47072z"/><path d="m6.73209 16.9271c.15151-.2737.30781-.5444.46879-.812z"/><path d="m7.20209 42.8872c-.16182-.2688-.31891-.5409-.47116-.816z"/><path d="m16.9271 52.2661c-.277-.1532-.5509-.3114-.8216-.4743z"/><path d="m29.4605 55.5001c.0116.0001.0232.0001.0348.0001.0117 0 .0233 0 .0349-.0001z"/><path d="m55.4953 29.5534c0-.0177 0-.0355 0-.0532 0-.0178 0-.0355 0-.0533z"/><path d="m42.0623 6.73349c.2775.15354.5524.31227.8237.47555z"/><path d="m96 24c0 2.2092-1.7909 4-4 4s-4-1.7908-4-4c0-2.2091 1.7909-4 4-4s4 1.7909 4 4z"/></g><path d="m78.0308 71.9408.2773.416zm-1.2086.8058-.2774-.4161zm-47.3222-43.2466-.3787.3265c.1743.2021.4766.2318.6868.0673zm-12.1213-14.8265c-.1803-.2091-.496-.2325-.7052-.0522s-.2325.496-.0522.7052zm23.9294 6.2203c.2175-.1702.2558-.4845.0856-.702-.1702-.2174-.4844-.2557-.7019-.0856zm31.2345 27.3107.3895.3135zm-7.3005-6.4887.3897-.3133-.0003-.0003zm5.2158 6.488-.3897.3132zm-19.4579.758-.3706-.3356zm38.5925 8.0382-.3179.386zm-12.1334 39.0696c1.6942 0 3.0676-1.3734 3.0676-3.0675h-1c0 1.1418-.9257 2.0675-2.0676 2.0675zm3.0676-23.0606c0-1.4247-1.5878-2.2745-2.7733-1.4842l.5547.832c.5209-.3472 1.2186.0262 1.2186.6522zm-2.7733-1.4842-1.2086.8057.5547.8321 1.2086-.8058zm-1.2086.8057c-.3396.2264-.7387.3473-1.1469.3473v1c.6057 0 1.1977-.1793 1.7016-.5152zm-73.47716.3473c-1.69417 0-3.06756254 1.3734-3.06756254 3.0675h1.00000254c0-1.1418.92568-2.0675 2.06756-2.0675zm-3.06756254 3.0675v17.2568h1.00000254v-17.2568zm0 17.2568c0 1.6941 1.37339254 3.0675 3.06756254 3.0675v-1c-1.14188 0-2.06756-.9257-2.06756-2.0675zm3.06756254 3.0675h74.39146v-1h-74.39146zm26.43236-38.0696c-15.7401 0-28.500031-12.7599-28.500031-28.5h-.99999952c0 16.2924 13.20763052 29.5 29.50003052 29.5zm-28.500031-28.5c0-15.7401 12.759931-28.5 28.500031-28.5v-1c-16.2924 0-29.50003052 13.2076-29.50003052 29.5zm28.878731-.3265-12.5-14.5-.7574.653 12.5 14.5zm-.0706.7203 11.5-9-.6163-.7876-11.5 9zm61.6919-3.8938v29h1v-29zm1 0c0-.6529-.2008-1.2628-.549-1.7197l-.7954.606c.2037.2673.3444.6595.3444 1.1137zm-.549-1.7197c-.3469-.4553-.8616-.7803-1.4696-.7803v1c.2288 0 .4718.1206.6742.3863zm-39.4325 32.2197c-.2293 0-.4729-.1212-.6756-.3881-.2029-.2673-.3429-.6588-.3429-1.1119h-1c0 .6514.1999 1.26.5465 1.7166.3469.4569.8626.7834 1.472.7834zm37.9629 1c.6094 0 1.1251-.3265 1.472-.7834.3467-.4566.5466-1.0652.5466-1.7166h-1c0 .4531-.1401.8446-.343 1.1119-.2027.2669-.4463.3881-.6756.3881zm-17.5493-8.982 5.2191-6.4848-.7791-.627-5.219 6.4848zm5.2191-6.4848 13.7916-17.1364-.779-.627-13.7917 17.1364zm13.7916-17.1364.067-.0833-.779-.627-.067.0833zm-27.0595 16.4708-13.8625 14.2842.7176.6964 13.8625-14.2842zm5.9643 6.5229-5.2158-6.488-.7794.6266 5.2158 6.4879zm6.5513-5.8266.0038.0039.7179-.6962-.0038-.0039zm.0039.004 13.8587 14.2803.7176-.6964-13.8586-14.2803zm-5.2497 5.8231c-.2109.262-.4491.3588-.6528.3587-.2037 0-.442-.0971-.6527-.3592l-.7794.6265c.3742.4656.8857.7325 1.4317.7327.5461.0002 1.0577-.2664 1.4322-.7317zm3.2448 24.7868h-14.3422v1h14.3422zm-14.3422 0h-57.98806v1h57.98806zm-.6925-2.1094c0 .9114.0676 1.8073.198 2.683l.9891-.1473c-.1232-.8271-.1871-1.6738-.1871-2.5357zm20.1635 22.4337v-4.9368h-1v4.9368zm0-4.9368v-15.0563h-1v15.0563zm-.4552.498c9.2107-.8289 16.4285-8.5688 16.4285-17.9949h-1c0 8.9039-6.8183 16.216-15.5181 16.9989zm-22.0924-64.0633h32.5023v-1h-32.5023zm-28.4791-23.5c13.8914 0 25.4626 9.9392 27.9881 23.0943l.982-.1886c-2.6142-13.6172-14.5901-23.9057-28.9701-23.9057zm27.9881 23.0943c.3359 1.7498.5119 3.557.5119 5.4057h1c0-1.9123-.1821-3.7826-.5299-5.5943zm-5.9881 30.9057v-6.0382h-1v6.0382zm6.5-25.5c0 7.3608-2.7898 14.0688-7.3706 19.1262l.7411.6713c4.7409-5.2341 7.6295-12.1791 7.6295-19.7975zm-7.3706 19.1262c-5.2154 5.758-12.7498 9.3738-21.1294 9.3738v1c8.6737 0 16.4736-3.744 21.8705-9.7025zm15.0021-7.224-6.8977-8.5663-.7789.6272 6.8977 8.5663zm1.6393 15.0978h-14.7523v1h14.7523zm11.1608-4c-4.3585 0-8.3577 1.5438-11.4787 4.114l.6357.772c2.9486-2.4282 6.7249-3.886 10.843-3.886zm-11.4787 4.114c-4.0231 3.3131-6.5897 8.3342-6.5897 13.9544h1c0-5.3088 2.4231-10.0512 6.2254-13.1824zm23.5285-.114h-.8889v1h.8889zm6.0186 14.0684c0-5.6202-2.5666-10.6413-6.5897-13.9544l-.6357.772c3.8023 3.1312 6.2254 7.8736 6.2254 13.1824zm-6.5897-13.9544c-3.121-2.5702-7.1202-4.114-11.4787-4.114v1c4.1181 0 7.8945 1.4578 10.843 3.886z" fill="#fff"/></svg>