<svg width="250" height="100" viewBox="0 0 250 100" fill="none" xmlns="http://www.w3.org/2000/svg">
<g clip-path="url(#clip0)">
<path fill-rule="evenodd" clip-rule="evenodd" d="M15.6949 55.935C15.5266 56.4911 15.3594 57.0436 15.2161 57.5913C14.8291 59.0704 15.0018 60.6966 15.8267 62.1255C16.6594 63.5678 17.9988 64.5352 19.4902 64.9328C20.0371 65.0785 20.6 65.2059 21.1667 65.3341C22.8397 65.7125 24.5444 66.0981 25.9598 66.9864C26.171 67.119 26.3854 67.2482 26.6032 67.3739C26.8462 67.5141 27.091 67.6488 27.3373 67.7779C28.8333 68.5612 30.036 69.8585 31.2156 71.1309C31.6206 71.5676 32.0226 72.0013 32.4329 72.4105C33.4901 73.4643 34.9368 74.1275 36.5383 74.1655C38.6889 74.2375 40.8079 73.1511 41.9589 71.1573C43.6217 68.2777 42.6349 64.5953 39.7553 62.9327C38.622 62.2784 37.3643 62.0344 36.1545 62.1547C34.2873 62.0712 32.4118 61.5504 30.6813 60.5513C24.9218 57.2261 22.9484 49.8613 26.2737 44.1019C29.5989 38.3424 36.9636 36.369 42.7231 39.6943C44.5186 40.7309 45.9461 42.16 46.9598 43.8109C47.1939 44.1919 47.4667 44.5544 47.7706 44.8861C48.2128 45.4175 48.7549 45.8813 49.3886 46.247C52.2684 47.9097 55.9508 46.923 57.6134 44.0432C59.276 41.1636 58.2893 37.4812 55.4096 35.8186C54.7049 35.4117 53.952 35.1635 53.1926 35.0629C52.8422 34.9794 52.4873 34.9003 52.1309 34.8208C50.4275 34.4412 48.6909 34.0541 47.2543 33.1502C47.0373 33.0136 46.8167 32.8806 46.5926 32.7512C46.394 32.6365 46.1942 32.5257 45.9933 32.4186C44.5112 31.6281 43.324 30.3313 42.159 29.0588C41.7617 28.6248 41.3669 28.1936 40.964 27.7864C39.8726 26.6834 38.358 26 36.6838 26C35.0311 26 33.534 26.6658 32.446 27.7439C32.039 28.1472 31.6399 28.5744 31.2383 29.0044C30.058 30.268 28.8548 31.556 27.361 32.3325C26.8847 32.58 26.4177 32.8471 25.9611 33.1335C24.5417 34.0235 22.8321 34.411 21.1545 34.7913C20.5842 34.9205 20.0177 35.0489 19.4675 35.1959C17.9776 35.5941 16.6397 36.5611 15.8077 38.0023C14.9816 39.4331 14.8095 41.0621 15.1987 42.5431C15.3434 43.0936 15.5124 43.6491 15.6824 44.2084C16.183 45.8544 16.6931 47.5318 16.6227 49.206C16.5984 49.7849 16.5994 50.3632 16.6252 50.9395C16.7002 52.6125 16.1928 54.2894 15.6949 55.935ZM55.321 53.9363C58.2008 55.5989 59.1874 59.2812 57.5248 62.161C55.8622 65.0408 52.1799 66.0274 49.3001 64.3648C46.4204 62.7022 45.4336 59.0198 47.0962 56.1401C48.759 53.2603 52.4412 52.2737 55.321 53.9363Z" fill="white"/>
<path fill-rule="evenodd" clip-rule="evenodd" d="M75.673 46.1304L75.6711 46.1341L75.6691 46.1379C74.9808 47.491 74.6434 49.0102 74.6434 50.6819C74.6434 52.3569 74.9931 53.8788 75.7062 55.2334C76.4174 56.5848 77.4085 57.6504 78.6766 58.416C79.95 59.1848 81.3955 59.5624 82.9949 59.5624C84.3205 59.5624 85.5613 59.2776 86.7085 58.7042L86.7107 58.703L86.7129 58.7018C87.8666 58.1132 88.8394 57.3318 89.6237 56.3575L90.0358 55.8455L87.2673 53.9128L86.9092 54.3712C86.4038 55.0181 85.8504 55.4983 85.2529 55.8274C84.6836 56.1193 83.92 56.2846 82.9288 56.2846C82.0045 56.2846 81.1833 56.0508 80.4491 55.5879C79.7363 55.1248 79.1696 54.4755 78.7519 53.62C78.3349 52.7662 78.1197 51.791 78.1197 50.6819C78.1197 49.5728 78.3349 48.5976 78.7519 47.7438C79.1696 46.8884 79.7363 46.2392 80.4491 45.7761C81.1832 45.313 82.0045 45.0793 82.9288 45.0793C84.4227 45.0793 85.6433 45.742 86.6232 47.1618L86.9928 47.6974L89.6426 45.6304L89.2662 45.1466C88.454 44.1023 87.5363 43.2848 86.5091 42.71C85.4751 42.0965 84.2742 41.8013 82.9288 41.8013C81.3495 41.8013 79.9155 42.1798 78.6435 42.9478C77.3754 43.7135 76.3842 44.779 75.673 46.1304ZM101.781 45.669V42.1978L101.353 42.0617C100.806 41.8875 100.236 41.8013 99.6463 41.8013C98.3778 41.8013 97.2195 42.1575 96.1892 42.869L96.1863 42.8709L96.1835 42.873C95.7161 43.2035 95.2896 43.5934 94.9032 44.04V42.3304H91.4269V59.0334H94.9032V51.0125C94.9032 49.7186 95.1326 48.6364 95.5672 47.7464C96.0333 46.8151 96.626 46.1345 97.335 45.6747C98.0538 45.2085 98.8201 44.98 99.6463 44.98C100.113 44.98 100.529 45.0728 100.903 45.251L101.781 45.669ZM114.768 59.0334H118.244V42.3304H114.768V43.6484C114.321 43.2489 113.828 42.9101 113.288 42.6332C112.268 42.0763 111.143 41.8013 109.926 41.8013C108.346 41.8013 106.912 42.1798 105.64 42.9478L105.638 42.9492L105.636 42.9505C104.391 43.7169 103.413 44.782 102.703 46.1304L102.702 46.1322L102.701 46.1339C102.011 47.4674 101.673 48.9774 101.673 50.6488C101.673 52.3442 102.022 53.8776 102.736 55.2334C103.447 56.5848 104.438 57.6504 105.706 58.416C106.978 59.1839 108.412 59.5624 109.992 59.5624C111.188 59.5624 112.3 59.2985 113.319 58.7649L113.324 58.7624L113.329 58.7596C113.851 58.4737 114.331 58.1332 114.768 57.7389V59.0334ZM112.408 55.5859L112.405 55.5878L112.402 55.5898C111.695 56.0488 110.876 56.2846 109.926 56.2846C109 56.2846 108.192 56.0501 107.482 55.5898C106.768 55.1265 106.2 54.4766 105.782 53.62C105.366 52.7677 105.15 51.7819 105.15 50.6488C105.15 49.5394 105.365 48.5777 105.779 47.7489L105.78 47.7464L105.782 47.7438C106.2 46.8872 106.768 46.2373 107.482 45.774C108.192 45.3136 109 45.0793 109.926 45.0793C110.876 45.0793 111.695 45.3151 112.402 45.774L112.405 45.7759L112.408 45.778C113.144 46.2422 113.719 46.8913 114.136 47.7438C114.553 48.5976 114.768 49.5728 114.768 50.6819C114.768 51.791 114.553 52.7662 114.136 53.62C113.719 54.4725 113.144 55.1217 112.408 55.5859ZM125.471 59.0334V45.6083H131.101V59.0334H134.577V45.6083H138.148V42.3304H134.577V37.205H131.101V42.3304H125.471V38.7448C125.471 38.0362 125.671 37.511 126.032 37.1144C126.416 36.7164 126.891 36.5149 127.502 36.5149H129.042V33.237H127.502C125.923 33.237 124.582 33.7532 123.53 34.8056C122.497 35.8389 121.994 37.1706 121.994 38.7448V42.3304H120.011V45.6083H121.994V59.0334H125.471ZM143.307 54.8163C142.581 53.9555 142.13 52.9421 141.961 51.7588H154.57L154.625 51.206C154.651 50.9546 154.662 50.6106 154.662 50.1859C154.662 48.6384 154.321 47.2246 153.628 45.9581C152.939 44.675 151.982 43.657 150.762 42.9156C149.537 42.1706 148.169 41.8013 146.674 41.8013C145.094 41.8013 143.661 42.1798 142.388 42.9478L142.386 42.9492L142.384 42.9505C141.139 43.7169 140.161 44.782 139.451 46.1304L139.449 46.1341L139.447 46.1379C138.759 47.491 138.421 49.0102 138.421 50.6819C138.421 52.3569 138.771 53.8788 139.484 55.2334C140.195 56.5848 141.187 57.6504 142.455 58.416C143.728 59.1848 145.174 59.5624 146.773 59.5624C148.485 59.5624 150 59.2267 151.296 58.5305L151.3 58.5284L151.304 58.5262C152.583 57.8154 153.618 56.8403 154.401 55.6071L154.722 55.1004L151.902 53.22L151.57 53.7719C151.095 54.5643 150.466 55.1833 149.677 55.6375C148.936 56.0551 147.957 56.2846 146.707 56.2846C145.234 56.2846 144.125 55.7861 143.307 54.8163ZM149.756 46.1341L149.76 46.137L149.763 46.1398C150.368 46.6985 150.817 47.5271 151.068 48.6792H142.185C142.458 47.7285 142.921 46.9365 143.57 46.2882C144.369 45.4889 145.387 45.0793 146.674 45.0793C148.034 45.0793 149.037 45.4518 149.756 46.1341ZM167.863 59.0334H171.341V48.0696C171.341 46.8033 171.04 45.6722 170.42 44.701C169.829 43.7418 169.012 43.0135 167.984 42.5233C166.991 42.0396 165.907 41.8013 164.741 41.8013C163.493 41.8013 162.365 42.1028 161.375 42.7204C160.956 42.9784 160.575 43.2845 160.23 43.6369V42.3304H156.753V59.0334H160.23V50.6819C160.23 48.8662 160.61 47.494 161.308 46.5057C161.967 45.5712 162.954 45.0793 164.377 45.0793C165.631 45.0793 166.463 45.427 166.995 46.0231C167.538 46.6323 167.863 47.6079 167.863 49.0617V59.0334ZM190.126 57.8243V42.3304H186.65V43.6484C186.202 43.2489 185.71 42.9101 185.17 42.6332C184.149 42.0763 183.024 41.8013 181.807 41.8013C180.229 41.8013 178.794 42.1798 177.523 42.9478L177.52 42.9492L177.518 42.9505C176.272 43.7169 175.295 44.782 174.585 46.1304L174.584 46.1322L174.582 46.1339C173.893 47.4674 173.555 48.9774 173.555 50.6488C173.555 52.3442 173.905 53.8776 174.617 55.2334C175.329 56.5848 176.32 57.6504 177.589 58.416C178.86 59.1839 180.295 59.5624 181.873 59.5624C183.07 59.5624 184.181 59.2985 185.201 58.7649L185.205 58.7624L185.211 58.7596C185.733 58.4737 186.213 58.1332 186.65 57.7389V57.8243C186.65 59.1983 186.26 60.2804 185.515 61.1206L185.512 61.1236L185.509 61.1267C184.794 61.9541 183.876 62.3689 182.7 62.3689H175.672V65.6468H182.7C184.123 65.6468 185.412 65.3137 186.553 64.6345C187.69 63.9573 188.571 63.0122 189.196 61.8129C189.821 60.6334 190.126 59.2986 190.126 57.8243ZM184.29 55.5859L184.287 55.5878L184.284 55.5898C183.577 56.0488 182.757 56.2846 181.807 56.2846C180.881 56.2846 180.073 56.0501 179.363 55.5898C178.649 55.1265 178.082 54.4766 177.664 53.62C177.247 52.7677 177.031 51.7819 177.031 50.6488C177.031 49.5394 177.247 48.5777 177.661 47.7489L177.662 47.7464L177.664 47.7438C178.082 46.8872 178.649 46.2373 179.363 45.774C180.073 45.3136 180.881 45.0793 181.807 45.0793C182.757 45.0793 183.577 45.3151 184.284 45.774L184.287 45.7759L184.29 45.778C185.025 46.2422 185.601 46.8913 186.018 47.7438C186.434 48.5976 186.65 49.5728 186.65 50.6819C186.65 51.791 186.434 52.7662 186.018 53.62C185.601 54.4725 185.025 55.1217 184.29 55.5859ZM194.274 39.8259L194.281 39.8332L194.288 39.8402C194.758 40.3101 195.344 40.549 196.012 40.549C196.664 40.549 197.238 40.3043 197.701 39.8402C198.166 39.376 198.411 38.8025 198.411 38.1496C198.411 37.4855 198.173 36.9039 197.695 36.452C197.232 35.9923 196.661 35.7501 196.012 35.7501C195.344 35.7501 194.758 35.989 194.288 36.4589C193.836 36.9094 193.612 37.4754 193.612 38.1165C193.612 38.7711 193.831 39.3535 194.274 39.8259ZM194.274 42.3304V59.0334H197.75V42.3304H194.274ZM213.009 59.0334H216.485V48.0696C216.485 46.8033 216.184 45.6722 215.564 44.701C214.973 43.7418 214.156 43.0135 213.128 42.5233C212.135 42.0396 211.051 41.8013 209.885 41.8013C208.637 41.8013 207.509 42.1028 206.519 42.7204C206.101 42.9784 205.718 43.2845 205.373 43.6369V42.3304H201.897V59.0334H205.373V50.6819C205.373 48.8662 205.755 47.494 206.451 46.5057C207.111 45.5712 208.098 45.0793 209.521 45.0793C210.775 45.0793 211.607 45.427 212.139 46.0231C212.682 46.6323 213.009 47.6079 213.009 49.0617V59.0334ZM231.848 53.7719C231.373 54.5645 230.744 55.1836 229.955 55.6378C229.212 56.0552 228.234 56.2846 226.985 56.2846C225.512 56.2846 224.403 55.7861 223.585 54.8163C222.859 53.9555 222.407 52.9421 222.238 51.7588H234.847L234.903 51.206C234.928 50.9546 234.94 50.6106 234.94 50.1859C234.94 48.6384 234.598 47.2246 233.906 45.9581C233.216 44.675 232.26 43.657 231.04 42.9156C229.814 42.1706 228.447 41.8013 226.951 41.8013C225.373 41.8013 223.938 42.1798 222.667 42.9478L222.664 42.9492L222.662 42.9505C221.417 43.7169 220.439 44.782 219.729 46.1304L219.726 46.1341L219.725 46.1379C219.037 47.491 218.699 49.0102 218.699 50.6819C218.699 52.3569 219.049 53.8788 219.761 55.2334C220.473 56.5848 221.464 57.6504 222.733 58.416C224.006 59.1848 225.451 59.5624 227.051 59.5624C228.762 59.5624 230.277 59.2267 231.574 58.5305L231.578 58.5284L231.581 58.5262C232.862 57.8154 233.896 56.8403 234.679 55.6071L235 55.1004L232.18 53.22L231.848 53.7719ZM230.034 46.1341L230.037 46.137L230.04 46.1398C230.645 46.6985 231.094 47.5271 231.347 48.6792H222.463C222.736 47.7285 223.199 46.9365 223.847 46.2882C224.647 45.4889 225.665 45.0793 226.951 45.0793C228.312 45.0793 229.315 45.4518 230.034 46.1341Z" fill="white"/>
</g>
<defs>
<clipPath id="clip0">
<rect width="220" height="48.4" fill="white" transform="translate(15 26)"/>
</clipPath>
</defs>
</svg>
