<svg fill="none" height="100" viewBox="0 0 250 100" width="250" xmlns="http://www.w3.org/2000/svg"><g fill="#fff"><path clip-rule="evenodd" d="m20.7223 37.2945c-4.4512 3.1812-6.0218 9.0426-3.7576 14.0233 5.2865 11.6289 14.6821 21.3259 26.8752 26.8344 4.9835 2.2514 10.8453.6852 14.0208-3.7692 3.5986-5.0478 6.3695-10.8096 8.0668-17.1439 1.7682-6.5991 2.2163-13.2427 1.506-19.6532-.5986-5.4003-4.8997-9.6116-10.3073-10.121-13.2129-1.2446-26.086 2.4554-36.4039 9.8296zm33.382 7.3817v-4.6383h-18.9169c-1.2813 0-2.3239 1.0361-2.3239 2.3191s1.0426 2.3192 2.3239 2.3192zm0 9.3633v-4.6383h-14.2207c-3.875 0-7.0201 3.1321-7.0201 7.0006 0 3.8687 3.1451 7.0008 7.0201 7.0008h14.2207v-4.6383h-14.2207c-1.3124 0-2.3723-1.0599-2.3723-2.3625 0-1.3024 1.0599-2.3623 2.3723-2.3623z" fill-rule="evenodd"/><path d="m101.466 53.7734h-15.206c.4662 3.0876 2.2575 4.6315 5.3746 4.6315 1.2816 0 2.3886-.2184 3.3207-.6554.9614-.4369 1.8935-1.1651 2.7966-2.1847l3.0151 2.8839c-.845 1.3982-2.1266 2.5198-3.8452 3.3645-1.6897.8449-3.554 1.2673-5.5931 1.2673-3.4082 0-6.0591-.9905-7.9526-2.9713-1.8936-2.0101-2.8402-4.7775-2.8402-8.3021 0-3.554.9466-6.3504 2.8402-8.3896 1.9227-2.0391 4.559-3.0586 7.9089-3.0586 3.2043 0 5.6949 1.005 7.4719 3.0149 1.8061 2.01 2.7091 4.8066 2.7091 8.3895zm-5.4619-4.0637c0-1.4857-.437-2.6509-1.3109-3.4957-.8447-.8739-2.0246-1.3108-3.5394-1.3108-1.369 0-2.476.4515-3.3207 1.3545-.8449.8739-1.3838 2.112-1.6169 3.7141h9.7879z"/><path d="m104.874 46.5636c0-2.6508-.058-4.5734-.175-5.7678h5.243c.146 1.2235.219 2.4907.219 3.8015h.131c.524-1.2817 1.442-2.3013 2.753-3.0586 1.34-.7866 2.825-1.1798 4.457-1.1798 2.505 0 4.398.8447 5.68 2.5343s1.923 4.1802 1.923 7.4719v12.2784h-5.55v-12.3221c0-1.8936-.306-3.2771-.917-4.151-.612-.874-1.588-1.3109-2.928-1.3109-1.544 0-2.811.5535-3.801 1.6604-.962 1.0778-1.442 2.476-1.442 4.1948v11.9288h-5.593z"/><path d="m133.384 38.2615c-1.078 0-1.937-.2913-2.578-.8739-.641-.6117-.962-1.4128-.962-2.4033 0-.9904.321-1.7769.962-2.3595.641-.6117 1.5-.9176 2.578-.9176s1.937.3059 2.578.9176c.67.5826 1.005 1.3691 1.005 2.3595 0 .9905-.321 1.7916-.961 2.4033-.641.5826-1.515.8739-2.622.8739zm-2.753 2.5343h5.549v21.8477h-5.549z"/><path d="m161.499 40.7958v20.9738c0 3.6995-.918 6.4813-2.753 8.3457-1.835 1.8935-4.558 2.8404-8.171 2.8404-1.689 0-3.291-.2041-4.806-.6119-1.486-.4078-2.811-.9904-3.976-1.7478l1.879-3.8014c1.048.5243 2.155.932 3.32 1.2235 1.166.3204 2.273.4805 3.321.4805 1.981 0 3.452-.6262 4.413-1.8789.962-1.2233 1.442-3.0877 1.442-5.5931v-.6989c-.582.7865-1.383 1.3982-2.403 1.8351-1.019.4078-2.228.6116-3.627.6116-3.029 0-5.389-.9902-7.078-2.971-1.661-1.9809-2.491-4.7775-2.491-8.3897 0-3.4956.801-6.2046 2.403-8.1272 1.603-1.9517 3.86-2.9276 6.773-2.9276 3.03 0 5.229 1.0632 6.598 3.1897h.087l.437-2.7528zm-5.549 9.5693c0-1.8935-.408-3.3354-1.224-4.3258-.815-1.0196-1.995-1.5294-3.539-1.5294-1.631 0-2.884.6118-3.758 1.8352-.874 1.1944-1.311 2.9277-1.311 5.1998s.423 3.9909 1.268 5.156c.874 1.1652 2.141 1.7478 3.801 1.7478 1.544 0 2.724-.4515 3.539-1.3546.816-.9321 1.224-2.2429 1.224-3.9326z"/><path d="m165.724 46.6073c0-2.913-.058-4.8502-.175-5.8115h4.894c.146 1.1652.219 2.4324.219 3.8015h.087c.466-1.3108 1.311-2.345 2.534-3.1023 1.224-.7574 2.651-1.1361 4.282-1.1361 1.573 0 2.913.3495 4.02 1.0487 1.107.67 1.85 1.6021 2.229 2.7965.582-1.1944 1.471-2.1265 2.665-2.7965 1.194-.6992 2.534-1.0487 4.02-1.0487 2.418 0 4.311.7865 5.681 2.3595 1.398 1.5439 2.097 3.685 2.097 6.4232v13.5019h-5.549v-12.8902c0-1.5439-.335-2.7382-1.005-3.5829-.67-.874-1.588-1.3109-2.753-1.3109-1.282 0-2.316.4515-3.103 1.3545-.757.8739-1.136 2.0683-1.136 3.5831v12.8464h-5.505v-12.7153c0-1.6023-.321-2.8403-.962-3.7142-.64-.903-1.543-1.3545-2.709-1.3545-1.252 0-2.286.4806-3.102 1.4419-.787.9322-1.18 2.141-1.18 3.6268v12.7153h-5.549z"/><path d="m209.362 63.0805c-1.427 0-2.709-.2915-3.845-.8739-1.136-.6119-2.024-1.442-2.665-2.4908-.641-1.0778-.961-2.2721-.961-3.583 0-2.2429.888-3.9617 2.665-5.156s4.311-1.7914 7.603-1.7914h3.408v-.9177c0-1.1652-.349-2.0537-1.049-2.6654-.669-.6409-1.631-.9613-2.883-.9613-1.311 0-2.564.233-3.758.6991-1.195.4661-2.17 1.107-2.928 1.9226l-2.447-3.2334c1.195-1.1361 2.607-2.0246 4.239-2.6654 1.631-.67 3.321-1.005 5.068-1.005 2.914 0 5.2.6845 6.861 2.0537 1.66 1.3691 2.49 3.2625 2.49 5.6804v9.9626c0 .6698.044 1.4563.131 2.3594.117.9031.248 1.6459.394 2.2285h-4.938c-.175-.3788-.306-.743-.393-1.0923-.088-.3788-.161-.8885-.219-1.5294h-.087c-1.66 2.0391-3.889 3.0587-6.686 3.0587zm1.355-4.1948c1.398 0 2.549-.3496 3.452-1.0486.932-.7284 1.398-1.6459 1.398-2.7529v-2.1847h-3.583c-1.485 0-2.636.2766-3.452.8301-.786.5535-1.179 1.3546-1.179 2.4032 0 .8739.291 1.5586.873 2.0537.612.4661 1.442.6992 2.491.6992z"/><path d="m230.087 63.0366c-1.078 0-1.966-.3496-2.666-1.0486-.699-.6992-1.048-1.5877-1.048-2.6654 0-1.107.349-2.0101 1.048-2.7091.7-.6992 1.588-1.0488 2.666-1.0488s1.952.3496 2.622 1.0488c.699.699 1.049 1.6021 1.049 2.7091 0 1.0777-.35 1.9662-1.049 2.6654-.67.699-1.544 1.0486-2.622 1.0486z"/></g></svg>