<svg width="250" height="100" viewBox="0 0 250 100" fill="none" xmlns="http://www.w3.org/2000/svg">
<g clip-path="url(#clip0)">
<path d="M71.2363 43.1886H76.3022V65.0039H71.2363V62.7193C69.1591 64.6605 66.9251 65.6312 64.5342 65.6312C61.5152 65.6312 59.0198 64.541 57.047 62.361C55.0892 60.1361 54.1106 57.3588 54.1106 54.0291C54.1106 50.759 55.0892 48.0338 57.047 45.8539C59.0048 43.6738 61.4555 42.5836 64.3993 42.5836C66.9398 42.5836 69.2188 43.6289 71.2363 45.7194V43.1886ZM59.2662 54.0291C59.2662 56.1195 59.8267 57.8216 60.9472 59.1358C62.0982 60.4648 63.5474 61.1291 65.296 61.1291C67.164 61.1291 68.6734 60.487 69.8239 59.2028C70.9749 57.8738 71.55 56.1866 71.55 54.141C71.55 52.0954 70.9749 50.4081 69.8239 49.0792C68.6734 47.78 67.1791 47.1304 65.341 47.1304C63.6075 47.1304 62.1579 47.7874 60.9923 49.1016C59.8414 50.4303 59.2662 52.073 59.2662 54.0291ZM82.6682 43.1886H87.7118V45.1371C88.6382 44.1664 89.4601 43.502 90.1775 43.1437C90.91 42.7704 91.7766 42.5836 92.7777 42.5836C94.1078 42.5836 95.4977 43.0168 96.9469 43.8827L94.6383 48.4968C93.6819 47.8098 92.748 47.4665 91.8364 47.4665C89.0867 47.4665 87.7118 49.5419 87.7118 53.693V65.0039H82.6682V43.1886ZM106.698 47.8921V65.0039H101.654V47.8921H99.5024V43.1886H101.654V35.1925H106.698V43.1886H110.621V47.8921H106.698ZM119.094 27.1741V45.7194C121.111 43.6289 123.398 42.5836 125.953 42.5836C128.897 42.5836 131.348 43.6812 133.305 45.8761C135.263 48.0562 136.242 50.7738 136.242 54.0291C136.242 57.3886 135.256 60.1662 133.283 62.361C131.325 64.541 128.852 65.6312 125.863 65.6312C123.338 65.6312 121.081 64.6605 119.094 62.7193V65.0039H114.05V27.1741H119.094ZM131.086 54.2531C131.086 52.1624 130.518 50.4604 129.383 49.1462C128.232 47.8024 126.79 47.1304 125.056 47.1304C123.204 47.1304 121.694 47.78 120.528 49.0792C119.378 50.3633 118.803 52.0355 118.803 54.0961C118.803 56.2166 119.37 57.9113 120.506 59.1804C121.642 60.4795 123.136 61.1291 124.989 61.1291C126.738 61.1291 128.187 60.4795 129.338 59.1804C130.503 57.8665 131.086 56.224 131.086 54.2531ZM140.546 53.9394C140.546 50.7889 141.674 48.1085 143.931 45.8985C146.187 43.6886 148.937 42.5836 152.18 42.5836C155.437 42.5836 158.202 43.6962 160.473 45.9209C162.715 48.1459 163.836 50.8783 163.836 54.1186C163.836 57.3886 162.707 60.1286 160.451 62.3384C158.179 64.5335 155.393 65.6312 152.09 65.6312C148.817 65.6312 146.075 64.511 143.863 62.2712C141.652 60.0614 140.546 57.2841 140.546 53.9394ZM145.701 54.0291C145.701 56.209 146.284 57.9337 147.45 59.2028C148.646 60.487 150.222 61.1291 152.18 61.1291C154.152 61.1291 155.729 60.4945 156.909 59.2252C158.09 57.9562 158.68 56.2612 158.68 54.141C158.68 52.0207 158.09 50.3258 156.909 49.0567C155.714 47.7726 154.137 47.1304 152.18 47.1304C150.252 47.1304 148.69 47.7726 147.495 49.0567C146.299 50.3408 145.701 51.9983 145.701 54.0291ZM185.288 43.1886H190.354V65.0039H185.288V62.7193C183.21 64.6605 180.976 65.6312 178.585 65.6312C175.567 65.6312 173.071 64.541 171.099 62.361C169.141 60.1361 168.162 57.3588 168.162 54.0291C168.162 50.759 169.141 48.0338 171.099 45.8539C173.056 43.6738 175.507 42.5836 178.451 42.5836C180.992 42.5836 183.27 43.6289 185.288 45.7194V43.1886ZM173.318 54.0291C173.318 56.1195 173.878 57.8216 174.999 59.1358C176.15 60.4648 177.599 61.1291 179.347 61.1291C181.215 61.1291 182.725 60.487 183.875 59.2028C185.026 57.8738 185.601 56.1866 185.601 54.141C185.601 52.0954 185.026 50.4081 183.875 49.0792C182.725 47.78 181.23 47.1304 179.392 47.1304C177.659 47.1304 176.209 47.7874 175.044 49.1016C173.893 50.4306 173.318 52.073 173.318 54.0291ZM196.72 43.1886H201.763V45.1371C202.69 44.1664 203.512 43.502 204.229 43.1437C204.961 42.7704 205.828 42.5836 206.829 42.5836C208.159 42.5836 209.549 43.0168 210.999 43.8827L208.69 48.4968C207.733 47.8098 206.799 47.4665 205.888 47.4665C203.138 47.4665 201.763 49.5419 201.763 53.693V65.0039H196.72V43.1886ZM229.671 27.1741H234.737V65.0039H229.671V62.7193C227.683 64.6605 225.434 65.6312 222.924 65.6312C219.935 65.6312 217.454 64.541 215.482 62.361C213.524 60.1361 212.545 57.3588 212.545 54.0291C212.545 50.7738 213.524 48.0562 215.482 45.8761C217.424 43.6812 219.868 42.5836 222.812 42.5836C225.367 42.5836 227.654 43.6289 229.671 45.7194V27.1741ZM217.701 54.0291C217.701 56.1195 218.261 57.8216 219.382 59.1358C220.533 60.4648 221.982 61.1291 223.731 61.1291C225.599 61.1291 227.108 60.487 228.259 59.2028C229.409 57.8738 229.985 56.1866 229.985 54.141C229.985 52.0954 229.409 50.4081 228.259 49.0792C227.108 47.78 225.614 47.1304 223.776 47.1304C222.042 47.1304 220.592 47.7874 219.427 49.1016C218.276 50.4306 217.701 52.073 217.701 54.0291Z" fill="white"/>
<path fill-rule="evenodd" clip-rule="evenodd" d="M26.7027 36.0544L30.3133 27L33.924 36.0544L41.6242 55.3642C39.1706 53.3554 36.1655 51.9868 32.8684 51.516L30.3133 45.1087L27.7583 51.516C24.4612 51.9868 21.4561 53.3554 19.0024 55.3642L26.7027 36.0544Z" fill="white"/>
<path fill-rule="evenodd" clip-rule="evenodd" d="M38.4936 65.6309C36.9409 62.6818 33.8601 60.6728 30.3132 60.6728C26.7663 60.6728 23.6856 62.6818 22.1328 65.6309H15C16.8846 58.9032 23.0268 53.9722 30.3132 53.9722C37.5995 53.9722 43.7418 58.9032 45.6264 65.6309H38.4936Z" fill="white"/>
</g>
<defs>
<clipPath id="clip0">
<rect width="220" height="38.8427" fill="white" transform="translate(15 27)"/>
</clipPath>
</defs>
</svg>
