<svg fill="none" height="32" viewBox="0 0 32 32" width="32" xmlns="http://www.w3.org/2000/svg"><path d="m14 8c0 3.866-3.134 7-7 7-3.86599 0-7-3.134-7-7 0-3.86599 3.13401-7 7-7 3.866 0 7 3.13401 7 7z" fill="#53fdca"/><path d="m32 24c0 3.866-3.134 7-7 7s-7-3.134-7-7 3.134-7 7-7 7 3.134 7 7z" fill="#53fdca"/><path d="m16 29.5c.2761 0 .5-.2239.5-.5s-.2239-.5-.5-.5zm-13-13.5.35355-.3536c-.10592-.1059-.25375-.1587-.40282-.144-.14907.0148-.28366.0956-.36676.2202zm13-13.5c-.2761 0-.5.22386-.5.5s.2239.5.5.5zm13 13.5-.3536.3536c.106.1059.2538.1587.4029.144.149-.0148.2836-.0956.3667-.2202zm-28.416025 2.7226c-.153176.2298-.091089.5402.138675.6934s.5402.0911.69338-.1386zm4.562475.131c.19526.1952.51184.1952.7071 0 .19527-.1953.19527-.5119 0-.7072zm21.70715-5.7072c-.1953-.1952-.5119-.1952-.7072 0-.1952.1953-.1952.5119 0 .7072zm4.5624.131c.1532-.2298.0911-.5402-.1386-.6934-.2298-.1532-.5402-.0911-.6934.1386zm-20.916-5.2774c0 1.933-1.567 3.5-3.5 3.5v1c2.48528 0 4.5-2.0147 4.5-4.5zm-3.5 3.5c-1.933 0-3.5-1.567-3.5-3.5h-1c0 2.4853 2.01472 4.5 4.5 4.5zm-3.5-3.5c0-1.933 1.567-3.5 3.5-3.5v-1c-2.48528 0-4.5 2.01472-4.5 4.5zm3.5-3.5c1.933 0 3.5 1.567 3.5 3.5h1c0-2.48528-2.01472-4.5-4.5-4.5zm21.5 19.5c0 1.933-1.567 3.5-3.5 3.5v1c2.4853 0 4.5-2.0147 4.5-4.5zm-3.5 3.5c-1.933 0-3.5-1.567-3.5-3.5h-1c0 2.4853 2.0147 4.5 4.5 4.5zm-3.5-3.5c0-1.933 1.567-3.5 3.5-3.5v-1c-2.4853 0-4.5 2.0147-4.5 4.5zm3.5-3.5c1.933 0 3.5 1.567 3.5 3.5h1c0-2.4853-2.0147-4.5-4.5-4.5zm-9 8c-6.90356 0-12.5-5.5964-12.5-12.5h-1c0 7.4558 6.04416 13.5 13.5 13.5zm0-25c6.9036 0 12.5 5.59644 12.5 12.5h1c0-7.45584-6.0442-13.5-13.5-13.5zm-13.41603 12.2226-1.999995 3 .832055.5548 2-3zm.06248.631 2.5 2.5.7071-.7072-2.5-2.5zm26.70715-.7072-2.5-2.5-.7072.7072 2.5 2.5zm.0624.631 2-3-.832-.5548-2 3z" fill="#444"/></svg>