<svg fill="none" height="97" viewBox="0 0 97 97" width="97" xmlns="http://www.w3.org/2000/svg"><path d="m41.7764 74.5528c-.247.1235-.3471.4238-.2236.6708s.4238.3471.6708.2236zm2.2236-.5528h.5c0-.1733-.0897-.3342-.2371-.4253s-.3315-.0994-.4865-.0219zm-.5 6c0 .2761.2239.5.5.5s.5-.2239.5-.5zm-26.7236-5.4472c-.247.1235-.3471.4238-.2236.6708s.4238.3471.6708.2236zm2.2236-.5528h.5c0-.1733-.0897-.3342-.2371-.4253s-.3315-.0994-.4865-.0219zm-.5 6c0 .2761.2239.5.5.5s.5-.2239.5-.5zm6.7764-5.4472c-.247.1235-.3471.4238-.2236.6708s.4238.3471.6708.2236zm2.2236-.5528h.5c0-.1733-.0897-.3342-.2371-.4253s-.3315-.0994-.4865-.0219zm-.5 6c0 .2761.2239.5.5.5s.5-.2239.5-.5zm23.2764-5.4472c-.247.1235-.3471.4238-.2236.6708s.4238.3471.6708.2236zm2.2236-.5528h.5c0-.1733-.0897-.3342-.2371-.4253s-.3315-.0994-.4865-.0219zm-.5 6c0 .2761.2239.5.5.5s.5-.2239.5-.5zm-18.2236-5.4472c-.247.1235-.3471.4238-.2236.6708s.4238.3471.6708.2236zm2.2236-.5528h.5c0-.1733-.0897-.3342-.2371-.4253s-.3315-.0994-.4865-.0219zm-.5 6c0 .2761.2239.5.5.5s.5-.2239.5-.5zm2.2764-5.4472c-.247.1235-.3471.4238-.2236.6708s.4238.3471.6708.2236zm2.2236-.5528h.5c0-.1733-.0897-.3342-.2371-.4253s-.3315-.0994-.4865-.0219zm-.5 6c0 .2761.2239.5.5.5s.5-.2239.5-.5zm-18-6v-.5c-.2761 0-.5.2239-.5.5zm0 6h-.5c0 .2761.2239.5.5.5zm2 0v.5c.2761 0 .5-.2239.5-.5zm0-6h.5c0-.2761-.2239-.5-.5-.5zm23 0v-.5c-.2761 0-.5.2239-.5.5zm0 6h-.5c0 .2761.2239.5.5.5zm2 0v.5c.2761 0 .5-.2239.5-.5zm0-6h.5c0-.2761-.2239-.5-.5-.5zm-18.5 0v-.5c-.2761 0-.5.2239-.5.5zm0 6h-.5c0 .2761.2239.5.5.5zm2 0v.5c.2761 0 .5-.2239.5-.5zm0-6h.5c0-.2761-.2239-.5-.5-.5zm48.5-57h.5v-.809l-.7236.3618zm-6 0v-.5h-.5v.5zm0 6h-.5v.5h.5zm2 0v.5h.5v-.5zm0-6h.5v-.5h-.5zm4 10h.5v-.809l-.7236.3618zm-4 0h.5v-.809l-.7236.3618zm4 10h.5v-.809l-.7236.3618zm-4 0h.5v-.809l-.7236.3618zm4 10h.5v-.809l-.7236.3618zm-6 0v-.5h-.5v.5zm0 6h-.5v.5h.5zm2 0v.5h.5v-.5zm0-6h.5v-.5h-.5zm10-31.8085v68.617h1v-68.617zm-2.6915 71.3085h-68.617v1h68.617zm-68.617 0c-1.4865 0-2.6915-1.205-2.6915-2.6915h-1c0 2.0388 1.6527 3.6915 3.6915 3.6915zm71.3085-2.6915c0 1.4865-1.205 2.6915-2.6915 2.6915v1c2.0388 0 3.6915-1.6527 3.6915-3.6915zm-2.6915-71.3085c1.4865 0 2.6915 1.205 2.6915 2.6915h1c0-2.0388-1.6527-3.6915-3.6915-3.6915zm-71.3085 71.3085v-13.8085h-1v13.8085zm61-71.3085h10.3085v-1h-10.3085zm-31.2764 62.9472 2-1-.4472-.8944-2 1zm1.2764-1.4472v6h1v-6zm-26.2764 1.4472 2-1-.4472-.8944-2 1zm1.2764-1.4472v6h1v-6zm7.2236 1.4472 2-1-.4472-.8944-2 1zm1.2764-1.4472v6h1v-6zm23.7236 1.4472 2-1-.4472-.8944-2 1zm1.2764-1.4472v6h1v-6zm-17.7764 1.4472 2-1-.4472-.8944-2 1zm1.2764-1.4472v6h1v-6zm2.7236 1.4472 2-1-.4472-.8944-2 1zm1.2764-1.4472v6h1v-6zm-18.5 0v6h1v-6zm.5 6.5h2v-1h-2zm2.5-.5v-6h-1v6zm-.5-6.5h-2v1h2zm22.5.5v6h1v-6zm.5 6.5h2v-1h-2zm2.5-.5v-6h-1v6zm-.5-6.5h-2v1h2zm-19 .5v6h1v-6zm.5 6.5h2v-1h-2zm2.5-.5v-6h-1v6zm-.5-6.5h-2v1h2zm46.7236-55.0528 2-1-.4472-.8944-2 1zm1.2764-1.4472v6h1v-6zm-6 0v6h1v-6zm.5 6.5h2v-1h-2zm2.5-.5v-6h-1v6zm-.5-6.5h-2v1h2zm2.2236 11.9472 2-1-.4472-.8944-2 1zm1.2764-1.4472v6h1v-6zm-5.2764 1.4472 2-1-.4472-.8944-2 1zm1.2764-1.4472v6h1v-6zm2.7236 11.4472 2-1-.4472-.8944-2 1zm1.2764-1.4472v6h1v-6zm-5.2764 1.4472 2-1-.4472-.8944-2 1zm1.2764-1.4472v6h1v-6zm2.7236 11.4472 2-1-.4472-.8944-2 1zm1.2764-1.4472v6h1v-6zm-6 0v6h1v-6zm.5 6.5h2v-1h-2zm2.5-.5v-6h-1v6zm-.5-6.5h-2v1h2zm-75-43.5c0-.82843.67157-1.5 1.5-1.5v-1c-1.38071 0-2.5 1.11929-2.5 2.5zm1.5-1.5h68v-1h-68zm68 0c.8284 0 1.5.67157 1.5 1.5h1c0-1.38071-1.1193-2.5-2.5-2.5zm1.5 1.5v65h1v-65zm0 65c0 .8284-.6716 1.5-1.5 1.5v1c1.3807 0 2.5-1.1193 2.5-2.5zm-1.5 1.5h-68v1h68zm-68 0c-.82843 0-1.5-.6716-1.5-1.5h-1c0 1.3807 1.11929 2.5 2.5 2.5zm-1.5-1.5v-65h-1v65zm8.33337-55.4066v9.2308h1.00003v-9.2308zm2.47803 11.7088h12.022v-1h-12.022zm12.022 0h12.6666v-1h-12.6666zm13.1666-.5v-11.8681h-1v11.8681zm-.5.5h12.6667v-1h-12.6667zm12.6667 0h12.022v-1h-12.022zm14.5-2.478v-9.8901h-1v9.8901zm-40.3333 1.978v12.1978h1v-12.1978zm0 12.8572v9.2307h1v-9.2307zm2.478 11.7087h10.6886v-1h-10.6886zm10.6886 0h10.6887v-1h-10.6887zm-.5-.5v6.9231h1v-6.9231zm11.1887.5c1.3686 0 2.478-1.1094 2.478-2.478h-1c0 .8163-.6617 1.478-1.478 1.478zm14-24.0659c1.3686 0 2.478-1.1094 2.478-2.478h-1c0 .8163-.6617 1.478-1.478 1.478zm-37.8553 21.5879c0 1.3686 1.1094 2.478 2.478 2.478v-1c-.8163 0-1.478-.6617-1.478-1.478zm-14.00003-24.0659c0 1.3686 1.10943 2.478 2.47803 2.478v-1c-.8163 0-1.478-.6617-1.478-1.478zm40.33333 24.0659v-22.0879h-1v22.0879z" fill="#fff"/><g fill="#44dbae"><path d="m55.6667 7.31868c0-.72829.5969-1.31868 1.3333-1.31868h10.6667c.7363 0 1.3333.59039 1.3333 1.31868v10.54942c0 .7283-.597 1.3187-1.3333 1.3187h-10.6667c-.7364 0-1.3333-.5904-1.3333-1.3187z"/><path d="m5 7.31868c0-.72829.59695-1.31868 1.33333-1.31868h10.66667c.7364 0 1.3333.59039 1.3333 1.31868v10.54942c0 .7283-.5969 1.3187-1.3333 1.3187h-10.66667c-.73638 0-1.33333-.5904-1.33333-1.3187z"/><path d="m30.3333 7.31868c0-.72829.597-1.31868 1.3334-1.31868h10.6666c.7364 0 1.3334.59039 1.3334 1.31868v10.54942c0 .7283-.597 1.3187-1.3334 1.3187h-10.6666c-.7364 0-1.3334-.5904-1.3334-1.3187z"/><path d="m30.3334 54.1319c0-.7283.5904-1.3187 1.3187-1.3187h10.6959c.7283 0 1.3187.5904 1.3187 1.3187v10.5495c0 .7283-.5904 1.3186-1.3187 1.3186h-10.6959c-.7283 0-1.3187-.5903-1.3187-1.3186z"/><path d="m17.6666 30.3956c0-.7283.597-1.3187 1.3334-1.3187h10.6666c.7364 0 1.3334.5904 1.3334 1.3187v10.5494c0 .7283-.597 1.3187-1.3334 1.3187h-10.6666c-.7364 0-1.3334-.5904-1.3334-1.3187z"/><path d="m43 30.3956c0-.7283.5969-1.3187 1.3333-1.3187h10.6667c.7363 0 1.3333.5904 1.3333 1.3187v10.5494c0 .7283-.597 1.3187-1.3333 1.3187h-10.6667c-.7364 0-1.3333-.5904-1.3333-1.3187z"/><path d="m50 52c0-1.1046.8954-2 2-2h43c1.1046 0 2 .8954 2 2v43c0 1.1046-.8954 2-2 2h-43c-1.1046 0-2-.8954-2-2z"/></g><path d="m56 74.5658v6.1053c0 .5522.4477 1 1 1s1-.4478 1-1v-17.6974c0-.6904.5596-1.25 1.25-1.25s1.25.5596 1.25 1.25v23.0263c0 .5523.4477 1 1 1s1-.4477 1-1v-10.8421c0-.5523.4477-1 1-1s1-.4477 1-1v-.2434c0-.6867.5567-1.2434 1.2434-1.2434h.5066c.9665 0 1.75-.7835 1.75-1.75v-7.4079c0-.8285.6716-1.5 1.5-1.5h.4342c.5886 0 1.0658.4771 1.0658 1.0657v.3158c0 .4142.3358.75.75.75s.75.3358.75.75v6.0264c0 .9665.7835 1.75 1.75 1.75s1.75.7835 1.75 1.75v5.1184c0 .5523.4477 1 1 1s1-.4477 1-1v-10.2237c0-.2762.2239-.5.5-.5s.5-.2239.5-.5v-2.0526c0-.5523.4477-1 1-1s1-.4478 1-1v-2.0132c0-.6904.5596-1.25 1.25-1.25s1.25.5596 1.25 1.25v6.3816c0 .6903.5596 1.25 1.25 1.25s1.25-.5597 1.25-1.25v-2.6842c0-.9665.7835-1.75 1.75-1.75s1.75.7835 1.75 1.75v10.8552c0 .6904.5596 1.25 1.25 1.25s1.25-.5596 1.25-1.25v-7.9868" stroke="#fff" stroke-linecap="round" stroke-linejoin="round"/></svg>