<svg fill="none" height="96" viewBox="0 0 96 96" width="96" xmlns="http://www.w3.org/2000/svg"><g fill="#44dbae"><path d="m71 12.125c0-1.7259 1.3991-3.125 3.125-3.125h18.75c1.7259 0 3.125 1.3991 3.125 3.125v18.75c0 1.7259-1.3991 3.125-3.125 3.125h-18.75c-1.7259 0-3.125-1.3991-3.125-3.125z"/><path d="m49 32.5c0 9.665-7.835 17.5-17.5 17.5s-17.5-7.835-17.5-17.5 7.835-17.5 17.5-17.5 17.5 7.835 17.5 17.5z"/><path d="m15.6815 85.6815c-.5522 0-1.0109-.4495-.9483-.9983.0488-.428.1322-.7947.2502-1.0999.2013-.5206.5683-1.0318 1.101-1.5336.5387-.508.8968-.9189 1.0744-1.2325.1776-.3199.2664-.6555.2664-1.0067 0-1.06-.4617-1.5901-1.3852-1.5901-.438 0-.7902.1443-1.0566.4328-.0666.0722-.1251.1516-.1754.2382-.2731.4694-.6666.9379-1.2097.9379h-.5883c-.5561 0-1.0211-.459-.9052-1.0029.1557-.7316.4849-1.335.9874-1.8103.7222-.6774 1.7048-1.0161 2.9478-1.0161 1.2549 0 2.2287.323 2.9212.9691.6926.6398 1.0389 1.5461 1.0389 2.7191 0 .5331-.1125 1.0381-.3374 1.5148-.225.4704-.6186.9941-1.1809 1.5712l-.7192.7245c-.4499.4579-.7074.9941-.7725 1.6088-.02.3226-.2874.574-.6106.574zm-1.2574 2.8884c0-.4203.1331-.7652.3995-1.0349.2723-.276.6186-.414 1.0389-.414.4202 0 .7635.138 1.0299.414.2723.2697.4085.6146.4085 1.0349 0 .414-.1332.7558-.3996 1.0255-.2605.2697-.6067.4046-1.0388.4046-.4322 0-.7814-.1349-1.0478-.4046-.2604-.2697-.3906-.6115-.3906-1.0255z"/></g><path d="m38.5 32c0 3.866-3.134 7-7 7s-7-3.134-7-7 3.134-7 7-7 7 3.134 7 7z" fill="#1f1f1f" stroke="#fff"/><path d="m74.3652 21.5-.3604-.3466-.3332.3466.3332.3466zm18.5097 0 .3604.3466.3333-.3466-.3333-.3466zm-92.374899 49h.499999zm-.000001 23h-.5zm2 2v-.5zm30 0v.5zm-5.4001-21.5205h.5zm0-5.4795.3554-.3517-.1467-.1483h-.2087zm-24.5999 0v-.5zm32 25h.5zm0-17.5205h.5v-.2056l-.1446-.1461zm-5.4001 0v.5zm-25.10002-46.3565-.40713-.2903zm56.48922 0-.4072.2902zm-56.48922 5.2423.40713-.2903zm56.48922 0-.4072-.2903zm19.5253-19.9619-6.0096 6.25.7209.6932 6.0096-6.25zm-6.0096 6.9432 6.0096 6.25.7209-.6932-6.0096-6.25zm12.5001-6.25 6.0096 6.25.7208-.6932-6.0096-6.25zm6.0096 5.5568-6.0096 6.25.7208.6932 6.0096-6.25zm-29.0145 10.8466c0 17.1166-14.0162 31-31.2689 31v1c17.7965 0 32.2689-14.3227 32.2689-32zm-31.2689 31c-17.2519 0-31.2311-13.8826-31.2311-31h-1c0 17.6766 14.4338 32 32.2311 32zm-31.2311-31c0-17.1174 13.9792-31 31.2311-31v-1c-17.7973 0-32.2311 14.3234-32.2311 32zm31.2311-31c17.2527 0 31.2689 13.8834 31.2689 31h1c0-17.6773-14.4724-32-32.2689-32zm29.2689 31c0 16.0054-13.4728 29-29.5 29v1c16.5576 0 30.5-13.4206 30.5-30zm-29.5 29c-16.0163 0-29-12.9837-29-29h-1c0 16.5685 13.4315 30 30 30zm-29-29c0-16.0163 12.9837-29 29-29v-1c-16.5685 0-30 13.4315-30 30zm29-29c16.0272 0 29.5 12.9946 29.5 29h1c0-16.5794-13.9424-30-30.5-30zm-31.99999899 67.5-.00000101 23h1v-23zm2.49999899 25.5h30v-1h-30zm25.0999-22.0205v-5.4795h-1v5.4795zm-.5-5.9795h-24.5999v1h24.5999zm7.9001 25.5v-17.5205h-1v17.5205zm-.5-18.0205h-5.4001v1h5.4001zm-7.7555-6.6278 7.4001 7.4794.7108-.7033-7.4001-7.4795zm-26.7445 24.6483c-.00000006 1.3807 1.11929 2.5 2.5 2.5v-1c-.82843 0-1.5-.6716-1.5-1.5zm1-23c0-.8284.67157-1.5 1.5-1.5v-1c-1.38071 0-2.49999893 1.1193-2.49999899 2.5zm25.5999 3.4795c0 1.3807 1.1193 2.5 2.5 2.5v-1c-.8284 0-1.5-.6716-1.5-1.5zm5.9001 22.0205c1.3807 0 2.5-1.1193 2.5-2.5h-1c0 .8284-.6716 1.5-1.5 1.5zm-28.09299-66.0868c3.50086-4.9107 7.39019-8.507 11.92569-10.8788 4.5349-2.3715 9.7454-3.5343 15.9118-3.5343v-1c-6.2961 0-11.6716 1.1884-16.3753 3.6481-4.7031 2.4595-8.70484 6.1746-12.27645 11.1845zm56.48919-.5805c-3.5716-5.0099-7.5734-8.725-12.2765-11.1845-4.7036-2.4597-10.0792-3.6481-16.3752-3.6481v1c6.1663 0 11.3769 1.1628 15.9118 3.5343 4.5355 2.3718 8.4248 5.9681 11.9256 10.8788zm-57.30345 5.8228c3.57161 5.0099 7.57335 8.725 12.27645 11.1845 4.7037 2.4597 10.0792 3.6481 16.3753 3.6481v-1c-6.1664 0-11.3769-1.1627-15.9118-3.5343-4.5355-2.3718-8.42483-5.9681-11.92569-10.8788zm56.48915-.5805c-3.5008 4.9107-7.3901 8.507-11.9256 10.8788-4.5349 2.3716-9.7455 3.5343-15.9118 3.5343v1c6.296 0 11.6716-1.1884 16.3752-3.6481 4.7031-2.4595 8.7049-6.1746 12.2765-11.1845zm0-4.6618c.9943 1.3946.9943 3.2672 0 4.6618l.8143.5805c1.2419-1.742 1.2419-4.0808 0-5.8228zm-56.48915-.5805c-1.24188 1.742-1.24188 4.0808 0 5.8228l.81426-.5805c-.99423-1.3946-.99423-3.2672 0-4.6618zm51.05365 25.0208 9 9 .7071-.7071-9-9z" fill="#fff"/><path d="m63.0001 63.1579c-.7848.7848-.7848 2.0572 0 2.8419l28.8948 28.4116c.7847.7848 2.0571.7848 2.8419 0l.6748-.6748c.7847-.7848.7847-2.0572 0-2.842l-28.8948-28.4115c-.7848-.7848-2.0572-.7848-2.8419 0z" fill="#44dbae"/></svg>