<svg fill="none" height="96" viewBox="0 0 96 96" width="96" xmlns="http://www.w3.org/2000/svg"><path clip-rule="evenodd" d="m33 33c-1.1046 0-2 .8954-2 2v30c0 1.1046.8954 2 2 2h30c1.1046 0 2-.8954 2-2v-30c0-1.1046-.8954-2-2-2zm4 4c-1.1046 0-2 .8954-2 2v22c0 1.1046.8954 2 2 2h22c1.1046 0 2-.8954 2-2v-22c0-1.1046-.8954-2-2-2z" fill="#44dbae" fill-rule="evenodd"/><path d="m33 66.5c-.2761 0-.5.2239-.5.5s.2239.5.5.5zm30.5 1c.2761 0 .5-.2239.5-.5s-.2239-.5-.5-.5zm-30.5-35c-.2761 0-.5.2239-.5.5s.2239.5.5.5zm30.5 1c.2761 0 .5-.2239.5-.5s-.2239-.5-.5-.5zm-22 11.5c0-.8284.6716-1.5 1.5-1.5v-1c-1.3807 0-2.5 1.1193-2.5 2.5zm1.5-1.5h10v-1h-10zm10 0c.8284 0 1.5.6716 1.5 1.5h1c0-1.3807-1.1193-2.5-2.5-2.5zm1.5 1.5v10h1v-10zm0 10c0 .8284-.6716 1.5-1.5 1.5v1c1.3807 0 2.5-1.1193 2.5-2.5zm-1.5 1.5h-10v1h10zm-10 0c-.8284 0-1.5-.6716-1.5-1.5h-1c0 1.3807 1.1193 2.5 2.5 2.5zm-1.5-1.5v-10h-1v10zm.5-22v-6h-1v6zm1.5-7.5h1v-1h-1zm3.5-2.5v-14h-1v14zm-2.5-16.5h-24v1h24zm10.5 26.5v-1.5h-1v1.5zm1.5-3h5v-1h-5zm7.5-2.5v-12h-1v12zm1.5-13.5h11v-1h-11zm-24.5 53v14.5h1v-14.5zm2.5 17h4v-1h-4zm5.5 1.5v4.5h1v-4.5zm-1.5 6h-25v1h25zm-26.5-1.5v-6.5h-1v6.5zm-2.5-9h-10v1h10zm35.5-14v5.5h1v-5.5zm2.5 8h7v-1h-7zm8.5 1.5v5h1v-5zm2.5 7.5h12v-1h-12zm-2.5-27h4.5v-1h-4.5zm6 1.5v4h1v-4zm2.5 6.5h12v-1h-12zm13.5 1.5v25.5h1v-25.5zm-22-22.5h11.5v-1h-11.5zm14-2.5v-8h-1v8zm1.5-9.5h12.5v-1h-12.5zm-49.5 11h-7.5v1h7.5zm-9-1.5v-2h-1v2zm-2.5-4.5h-11v1h11zm-12.5-1.5v-7h-1v7zm24 20.5h-12.5v1h12.5zm-15 2.5v6h1v-6zm-1.5 7.5h-9.5v1h9.5zm-11-1.5v-9.5h-1v9.5zm75.5-53v-8.5h-1v8.5zm-46 56h8.5v-1h-8.5zm8.5 0h13v-1h-13zm13 0h9v-1h-9zm-21.5-34h8.5v-1h-8.5zm8.5 0h13v-1h-13zm13 0h9v-1h-9zm-49.5 32.5c-.82843 0-1.5-.6716-1.5-1.5h-1c0 1.3807 1.11929 2.5 2.5 2.5zm11-1.5c0 .8284-.6716 1.5-1.5 1.5v1c1.3807 0 2.5-1.1193 2.5-2.5zm2.5-8.5c-1.3807 0-2.5 1.1193-2.5 2.5h1c0-.8284.6716-1.5 1.5-1.5zm3.5-16.5c0-1.3807-1.1193-2.5-2.5-2.5v1c.8284 0 1.5.6716 1.5 1.5zm54.5 4.5c1.3807 0 2.5-1.1193 2.5-2.5h-1c0 .8284-.6716 1.5-1.5 1.5zm-7 13c.8284 0 1.5.6716 1.5 1.5h1c0-1.3807-1.1193-2.5-2.5-2.5zm-4.5 24.5c0 1.3807 1.1193 2.5 2.5 2.5v-1c-.8284 0-1.5-.6716-1.5-1.5zm-1.5-6.5c.8284 0 1.5.6716 1.5 1.5h1c0-1.3807-1.1193-2.5-2.5-2.5zm-9.5-2.5c0 1.3807 1.1193 2.5 2.5 2.5v-1c-.8284 0-1.5-.6716-1.5-1.5zm-33 11c0-1.3807-1.1193-2.5-2.5-2.5v1c.8284 0 1.5.6716 1.5 1.5zm-12.5-46.5c-.82843 0-1.5-.6716-1.5-1.5h-1c0 1.3807 1.11929 2.5 2.5 2.5zm32.5 44.5c0 1.3807 1.1193 2.5 2.5 2.5v-1c-.8284 0-1.5-.6716-1.5-1.5zm-17.5-38.5c-.8284 0-1.5-.6716-1.5-1.5h-1c0 1.3807 1.1193 2.5 2.5 2.5zm53-29c1.3807 0 2.5-1.1193 2.5-2.5h-1c0 .8284-.6716 1.5-1.5 1.5zm-12.5 1.5c0-.8284.6716-1.5 1.5-1.5v-1c-1.3807 0-2.5 1.1193-2.5 2.5zm-41.5 76c-.8284 0-1.5-.6716-1.5-1.5h-1c0 1.3807 1.1193 2.5 2.5 2.5zm24.5-82.5c0-1.38071-1.1193-2.5-2.5-2.5v1c.8284 0 1.5.67157 1.5 1.5zm14.5 21c1.3807 0 2.5-1.1193 2.5-2.5h-1c0 .8284-.6716 1.5-1.5 1.5zm-12.5 60c0 .8284-.6716 1.5-1.5 1.5v1c1.3807 0 2.5-1.1193 2.5-2.5zm36.5-25c.8284 0 1.5.6716 1.5 1.5h1c0-1.3807-1.1193-2.5-2.5-2.5zm-41-39.5c1.3807 0 2.5-1.1193 2.5-2.5h-1c0 .8284-.6716 1.5-1.5 1.5zm34.5 8c0-.8284.6716-1.5 1.5-1.5v-1c-1.3807 0-2.5 1.1193-2.5 2.5zm-24-2c0-.8284.6716-1.5 1.5-1.5v-1c-1.3807 0-2.5 1.1193-2.5 2.5zm-7.5 52.5c.8284 0 1.5.6716 1.5 1.5h1c0-1.3807-1.1193-2.5-2.5-2.5zm23.5-21.5c0 1.3807 1.1193 2.5 2.5 2.5v-1c-.8284 0-1.5-.6716-1.5-1.5zm-29-35.5c0-.8284.6716-1.5 1.5-1.5v-1c-1.3807 0-2.5 1.1193-2.5 2.5z" fill="#fff"/><path d="m63.5 80.5v-3c0-.5523-.4477-1-1-1h-3m-41-15v-2c0-.5523.4477-1 1-1h4.5m20.5-44v-4.5c0-.55228-.4477-1-1-1h-4.5m32.5 32.5h4c.5523 0 1-.4477 1-1v-5" stroke="#44dbae" stroke-linecap="round" stroke-linejoin="round"/><g fill="#44dbae"><path d="m21.5 7c0 1.65686-1.3431 3-3 3s-3-1.34314-3-3c0-1.65685 1.3431-3 3-3s3 1.34315 3 3z"/><path d="m9.5 26c0 1.6569-1.34315 3-3 3s-3-1.3431-3-3 1.34315-3 3-3 3 1.3431 3 3z"/><path d="m81.5 3c0 1.65685-1.3431 3-3 3s-3-1.34315-3-3 1.3431-3 3-3 3 1.34315 3 3z"/><path d="m96 31c0 1.6569-1.3431 3-3 3s-3-1.3431-3-3 1.3431-3 3-3 3 1.3431 3 3z"/><path d="m90.5 93c0 1.6569-1.3431 3-3 3s-3-1.3431-3-3 1.3431-3 3-3 3 1.3431 3 3z"/><path d="m81 84c0 1.6569-1.3431 3-3 3s-3-1.3431-3-3c0-1.6568 1.3431-3 3-3s3 1.3432 3 3z"/><path d="m10 81.5c0 1.6569-1.34315 3-3 3s-3-1.3431-3-3c0-1.6568 1.34315-3 3-3s3 1.3432 3 3z"/><path d="m6 55c0 1.6569-1.34315 3-3 3s-3-1.3431-3-3 1.34315-3 3-3 3 1.3431 3 3z"/></g></svg>