<svg fill="none" height="96" viewBox="0 0 96 96" width="96" xmlns="http://www.w3.org/2000/svg"><g fill="#44dbae"><path d="m34 46v-24c0-1.1046.8954-2 2-2h9.5v17l1 1 3-1h11.5v9c0 1.1046-.8954 2-2 2h-8.5l-1-1h-15.2324c-.1702-.2942-.2676-.6357-.2676-1z"/><path d="m34 71.5v-3.5c0-1.1046.8954-2 2-2h23c1.1046 0 2 .8954 2 2v3.5z"/><path d="m36.5 13c1.3807 0 2.5 1.1193 2.5 2.5s-1.1193 2.5-2.5 2.5-2.5-1.1193-2.5-2.5 1.1193-2.5 2.5-2.5z"/><path d="m11.4998 85.5 6.5 6.5 6.5-6.5c3.4421-4.1144-4-9.0001-6.4998-2.5-2.4998-6.5001-9.94238-1.6144-6.5002 2.5z"/><path d="m79.6041 52.7244 4.3959 4.2756 4.3959-4.2756c2.3279-2.7063-2.7051-5.9201-4.3957-1.6444-1.6906-4.2757-6.724-1.0619-4.3961 1.6444z"/></g><path d="m60.5 53.5c.2761 0 .5-.2239.5-.5s-.2239-.5-.5-.5zm-7.5 8.5c.2761 0 .5-.2239.5-.5s-.2239-.5-.5-.5zm-12-47c-.2761 0-.5.2239-.5.5s.2239.5.5.5zm12 1c.2761 0 .5-.2239.5-.5s-.2239-.5-.5-.5zm-46.5 36.5c-.27614 0-.5.2239-.5.5s.22386.5.5.5zm34 1c.2761 0 .5-.2239.5-.5s-.2239-.5-.5-.5zm-34 2c-.27614 0-.5.2239-.5.5s.22386.5.5.5zm34 1c.2761 0 .5-.2239.5-.5s-.2239-.5-.5-.5zm-34 2c-.27614 0-.5.2239-.5.5s.22386.5.5.5zm34 1c.2761 0 .5-.2239.5-.5s-.2239-.5-.5-.5zm26.2857-42.5c0 .2761.2239.5.5.5.2762 0 .5-.2239.5-.5zm1-6.044c0-.2761-.2238-.5-.5-.5-.2761 0-.5.2239-.5.5zm-40.2857 27.2583c0 .2761.2239.5.5.5s.5-.2239.5-.5zm1-6.044c0-.2761-.2239-.5-.5-.5s-.5.2239-.5.5zm17-12.1703h-.5zm2.4962 17.3359-.2774-.416zm-.9415.6276-.2774-.416zm-1.5547-.832h.5zm7.5-13.6315c-.2761 0-.5.2239-.5.5s.2239.5.5.5zm34.5 1c.2761 0 .5-.2239.5-.5s-.2239-.5-.5-.5zm-34.5 2c-.2761 0-.5.2239-.5.5s.2239.5.5.5zm34.5 1c.2761 0 .5-.2239.5-.5s-.2239-.5-.5-.5zm-34.5 2c-.2761 0-.5.2239-.5.5s.2239.5.5.5zm34.5 1c.2761 0 .5-.2239.5-.5s-.2239-.5-.5-.5zm-42 63h-.5zm2.4962-17.3359.2773-.416zm-.9415-.6276-.2774.416h.0001zm-1.5547.832h.5zm7.5 12.6315c-.2761 0-.5.2239-.5.5s.2239.5.5.5zm34.5 1c.2761 0 .5-.2239.5-.5s-.2239-.5-.5-.5zm-34.5-4c-.2761 0-.5.2239-.5.5s.2239.5.5.5zm34.5 1c.2761 0 .5-.2239.5-.5s-.2239-.5-.5-.5zm-34.5-4c-.2761 0-.5.2239-.5.5s.2239.5.5.5zm34.5 1c.2761 0 .5-.2239.5-.5s-.2239-.5-.5-.5zm-46.5-68h12v-1h-12zm-40 33c0-.8284.67157-1.5 1.5-1.5v-1c-1.38071 0-2.5 1.1193-2.5 2.5zm48-1.5c.8284 0 1.5.6716 1.5 1.5h1c0-1.3807-1.1193-2.5-2.5-2.5zm1.5 16.5c0 .8284-.6716 1.5-1.5 1.5v1c1.3807 0 2.5-1.1193 2.5-2.5zm-48 1.5c-.82843 0-1.5-.6716-1.5-1.5h-1c0 1.3807 1.11929 2.5 2.5 2.5zm-1.5-1.5v-15h-1v15zm5.5-10.5h34v-1h-34zm0 3h34v-1h-34zm0 3h34v-1h-34zm26.0264 13h30.2329v-1h-30.2329zm2.545-67h-2.545v1h2.545zm-.5.5v2.78678h1v-2.78678zm2.6693 5.456h20.8043v-1h-20.8043zm25.5186-5.956h-2.545v1h2.545zm-2.545 0h-25.1429v1h25.1429zm.5 3.28678v-2.78678h-1v2.78678zm7.0714 8.21322v-6.044h-1v6.044zm-39.2857 21.2143v-6.044h-1v6.044zm29.545-26.7583c1.4742 0 2.6693-1.195 2.6693-2.66922h-1c0 .92191-.7474 1.66922-1.6693 1.66922zm7.3836-3.28674c0-1.47419-1.1951-2.66926-2.6693-2.66926v1c.9219 0 1.6693.74735 1.6693 1.66926zm-2.6693 64.33074c1.4742 0 2.6693-1.1951 2.6693-2.6693h-1c0 .9219-.7474 1.6693-1.6693 1.6693zm-32.9022-2.6693c0 1.4742 1.1951 2.6693 2.6693 2.6693v-1c-.9219 0-1.6693-.7474-1.6693-1.6693zm4.7143-61.04392c0 1.47422 1.1951 2.66922 2.6693 2.66922v-1c-.9219 0-1.6693-.74731-1.6693-1.66922zm-3.7143-.61752c0-.92191.7474-1.66926 1.6693-1.66926v-1c-1.4742 0-2.6693 1.19507-2.6693 2.66926zm15.1429 11.83074c0-.8284.6716-1.5 1.5-1.5v-1c-1.3807 0-2.5 1.1193-2.5 2.5zm47.5-1.5c.8284 0 1.5.6716 1.5 1.5h1c0-1.3807-1.1193-2.5-2.5-2.5zm1.5 1.5v15h1v-15zm0 15c0 .8284-.6716 1.5-1.5 1.5v1c1.3807 0 2.5-1.1193 2.5-2.5zm-45.8944 1.5c-.4936 0-.9761.1461-1.3868.4199l.5547.832c.2464-.1642.5359-.2519.8321-.2519zm-1.3868.4199-.9415.6276.5548.8321.9414-.6277zm-.9415.6276c-.3322.2215-.7773-.0167-.7773-.416h-1c0 1.198 1.3352 1.9126 2.3321 1.2481zm-.7773-.416v-17.1315h-1v17.1315zm7-12.6315h34.5v-1h-34.5zm0 3h34.5v-1h-34.5zm0 3h34.5v-1h-34.5zm-8 63c0 1.3807 1.1193 2.5 2.5 2.5v-1c-.8284 0-1.5-.6716-1.5-1.5zm2.5 2.5h46v-1h-46zm46 0c1.3807 0 2.5-1.1193 2.5-2.5h-1c0 .8284-.6716 1.5-1.5 1.5zm2.5-2.5v-15h-1v15zm0-15c0-1.3807-1.1193-2.5-2.5-2.5v1c.8284 0 1.5.6716 1.5 1.5zm-2.5-2.5h-44.3944v1h44.3944zm-44.3944 0c-.2962 0-.5857-.0877-.8321-.2519l-.5547.832c.4107.2738.8932.4199 1.3868.4199zm-.8321-.2519-.9415-.6277-.5546.8321.9414.6276zm-.9414-.6277c-.9969-.6645-2.3321.0501-2.3321 1.2481h1c0-.3993.4451-.6375.7773-.416zm-2.3321 1.2481v17.1315h1v-17.1315zm8 13.6315h34.5v-1h-34.5zm0-3h34.5v-1h-34.5zm0-3h34.5v-1h-34.5zm-23.1429-75.83074v38.83074h1v-38.83074zm-27.3571 39.33074h27.8571v-1h-27.8571zm27.8571 0h18.6429v-1h-18.6429zm-.5 18.5v3.8307h1v-3.8307zm19.1429-.5h-18.6429v1h18.6429zm-18.6429 0h-27.8571v1h27.8571zm20.1429-4v2.5h1v-2.5zm.5.5h2v-1h-2zm-.5-9v8.5h1v-8.5zm.5.5h9.5v-1h-9.5zm-.5-4.5v2h1v-2zm0 2v2h1v-2zm-3-32.5h17.4286v-1h-17.4286zm17.4286 0h28.5714v-1h-28.5714zm.5-.5v-9.83074h-1v9.83074zm0 51.8307v-32.8307h-1v32.8307zm28.0714-33.3307h-28.5714v1h28.5714zm-28.5714 0h-15.823v1h15.823z" fill="#fff"/></svg>