<svg fill="none" height="60" viewBox="0 0 60 60" width="60" xmlns="http://www.w3.org/2000/svg"><path d="m30 15c-8.2843 0-15 6.7157-15 15s6.7157 15 15 15 15-6.7157 15-15-6.7157-15-15-15z" fill="#44dbae"/><path d="m30 10c-11.0457 0-20 8.9543-20 20s8.9543 20 20 20 20-8.9543 20-20-8.9543-20-20-20z" stroke="#53fdca" stroke-opacity=".4" stroke-width="10"/><path d="m30 12c-9.9411 0-18 8.0589-18 18s8.0589 18 18 18 18-8.0589 18-18-8.0589-18-18-18z" fill="#53fdca" stroke="#1f1f1f" stroke-width="6"/></svg>